<?xml version="1.0" encoding="UTF-8" standalone="no"?>
<!-- Created with Inkscape (http://www.inkscape.org/) -->

<svg
   xmlns:dc="http://purl.org/dc/elements/1.1/"
   xmlns:cc="http://creativecommons.org/ns#"
   xmlns:rdf="http://www.w3.org/1999/02/22-rdf-syntax-ns#"
   xmlns:svg="http://www.w3.org/2000/svg"
   xmlns="http://www.w3.org/2000/svg"
   xmlns:xlink="http://www.w3.org/1999/xlink"
   xmlns:sodipodi="http://sodipodi.sourceforge.net/DTD/sodipodi-0.dtd"
   xmlns:inkscape="http://www.inkscape.org/namespaces/inkscape"
   viewBox="0 0 512 512"
   inkscape:export-ydpi="100"
   inkscape:export-xdpi="100"
   inkscape:export-filename="/home/alecive/Scrivania/firefoxTest1.png"
   sodipodi:docname="actions-media-seek-backward.svg"
   inkscape:version="0.91+devel r"
   version="1.1"
   id="svg2"
   height="512"
   width="512">
  <sodipodi:namedview
     fit-margin-top="20"
     fit-margin-right="20"
     fit-margin-bottom="1"
     fit-margin-left="20"
     inkscape:snap-object-midpoints="true"
     inkscape:snap-nodes="true"
     inkscape:snap-smooth-nodes="true"
     inkscape:object-nodes="true"
     inkscape:snap-intersection-paths="false"
     inkscape:object-paths="false"
     inkscape:window-maximized="1"
     inkscape:window-y="24"
     inkscape:window-x="1985"
     inkscape:window-height="876"
     inkscape:window-width="1375"
     showgrid="true"
     inkscape:current-layer="svg2"
     inkscape:document-units="px"
     inkscape:cy="16.642956"
     inkscape:cx="513.66514"
     inkscape:zoom="0.82717391"
     inkscape:pageshadow="2"
     inkscape:pageopacity="0.0"
     borderopacity="1.0"
     bordercolor="#666666"
     pagecolor="#ffffff"
     id="base">
    <inkscape:grid
       originy="-2.5000001e-06"
       originx="-3.00413"
       id="grid4248"
       type="xygrid" />
  </sodipodi:namedview>
  <defs
     id="defs4">
    <linearGradient
       id="linearGradient2460"
       y2="44.984001"
       gradientUnits="userSpaceOnUse"
       x2="19.360001"
       y1="21.030804"
       x1="19.244999">
      <stop
         id="stop3602"
         style="stop-color:#fafafa;stop-opacity:1;"
         offset="0" />
      <stop
         id="stop3604"
         style="stop-color:#f0f0f0;stop-opacity:1;"
         offset="1" />
    </linearGradient>
    <linearGradient
       gradientTransform="matrix(1.0058652,0,0,0.994169,100,0)"
       gradientUnits="userSpaceOnUse"
       id="ButtonShadow-0-1-1-5-9"
       y2="7.0165396"
       x2="45.447727"
       y1="92.539597"
       x1="45.447727">
      <stop
         offset="0"
         style="stop-color:#000000;stop-opacity:1"
         id="stop3750-8-9-3-6-4" />
      <stop
         offset="1"
         style="stop-color:#000000;stop-opacity:0.58823532"
         id="stop3752-5-6-4-2-9" />
    </linearGradient>
    <linearGradient
       id="linearGradient3737-9">
      <stop
         offset="0"
         style="stop-color:#ffffff;stop-opacity:1"
         id="stop3739-7" />
      <stop
         offset="1"
         style="stop-color:#ffffff;stop-opacity:0"
         id="stop3741-4" />
    </linearGradient>
    <linearGradient
       id="linearGradient4046-3">
      <stop
         offset="0"
         style="stop-color:#000000;stop-opacity:1;"
         id="stop4048-7" />
      <stop
         offset="1"
         style="stop-color:#ffffff;stop-opacity:0.2"
         id="stop4050-73" />
    </linearGradient>
    <linearGradient
       id="outerBackgroundGradient">
      <stop
         style="stop-color:#21759b;stop-opacity:1;"
         offset="0"
         id="stop3864-8-6" />
      <stop
         style="stop-color:#478aa9;stop-opacity:1;"
         offset="1"
         id="stop3866-9-1" />
    </linearGradient>
    <linearGradient
       y2="32"
       x2="272"
       y1="288"
       x1="272"
       gradientTransform="translate(-34,-50)"
       gradientUnits="userSpaceOnUse"
       id="linearGradient3147"
       xlink:href="#outerBackgroundGradient"
       inkscape:collect="always" />
    <linearGradient
       gradientUnits="userSpaceOnUse"
       xlink:href="#linearGradient4281-6"
       id="linearGradient4076"
       y2="35.527863"
       x2="55.491936"
       y1="35.527863"
       x1="24.508066"
       gradientTransform="matrix(0,8.0025161,-7.0781939,0,495.91135,31.899346)" />
    <linearGradient
       id="linearGradient4281-6">
      <stop
         offset="0"
         style="stop-color:#1e1e1e;stop-opacity:1"
         id="stop4283-9" />
      <stop
         offset="1"
         style="stop-color:#505050;stop-opacity:1"
         id="stop4285-8" />
    </linearGradient>
    <linearGradient
       id="linearGradient3242-52-665-9">
      <stop
         offset="0"
         style="stop-color:#787878;stop-opacity:1;"
         id="stop2903-7" />
      <stop
         offset="0.26238"
         style="stop-color:#5a5a5a;stop-opacity:1;"
         id="stop2905-7" />
      <stop
         offset="0.66093999"
         style="stop-color:#3c3c3c;stop-opacity:1;"
         id="stop2907-9" />
      <stop
         offset="1"
         style="stop-color:#141414;stop-opacity:1;"
         id="stop2909-6" />
    </linearGradient>
    <linearGradient
       y2="11.02436"
       y1="3.0069399"
       x2="0"
       id="linearGradient1022-8-8-3-0-05-8"
       gradientUnits="userSpaceOnUse">
      <stop
         id="stop3001-0-9-4-49-54"
         offset="0" />
      <stop
         id="stop3003-5-6-6-8-77"
         stop-color="#363636"
         offset="1" />
    </linearGradient>
    <linearGradient
       y2="11.02436"
       y1="3.0069399"
       x2="0"
       id="linearGradient1022-8-8-3-0-05-2"
       gradientUnits="userSpaceOnUse">
      <stop
         id="stop3001-0-9-4-49-85"
         offset="0" />
      <stop
         id="stop3003-5-6-6-8-8"
         stop-color="#363636"
         offset="1" />
    </linearGradient>
    <linearGradient
       inkscape:collect="always"
       xlink:href="#ButtonShadow-0-1-1-5-9"
       id="linearGradient4252"
       gradientUnits="userSpaceOnUse"
       gradientTransform="matrix(1.0317796,0,0,1.0317796,-830.86406,592.67791)"
       x1="1012.5133"
       y1="484.41721"
       x2="1006.8082"
       y2="20.625916" />
    <linearGradient
       inkscape:collect="always"
       xlink:href="#ButtonShadow-0-1-1-5-9"
       id="linearGradient4254"
       gradientUnits="userSpaceOnUse"
       gradientTransform="matrix(1.0402541,0,0,1.0402541,-837.95116,592.51825)"
       x1="1012.5133"
       y1="484.41721"
       x2="1006.8082"
       y2="20.625916" />
    <linearGradient
       inkscape:collect="always"
       xlink:href="#ButtonShadow-0-1-1-5-9"
       id="linearGradient4256"
       gradientUnits="userSpaceOnUse"
       gradientTransform="matrix(1.023305,0,0,1.023305,-823.77704,592.83757)"
       x1="1012.5133"
       y1="484.41721"
       x2="1006.8082"
       y2="20.625916" />
    <linearGradient
       inkscape:collect="always"
       xlink:href="#ButtonShadow-0-1-1-5-9"
       id="linearGradient4258"
       gradientUnits="userSpaceOnUse"
       gradientTransform="matrix(1.0148305,0,0,1.0148305,-816.68996,592.99723)"
       x1="1012.5133"
       y1="484.41721"
       x2="1006.8082"
       y2="20.625916" />
    <linearGradient
       inkscape:collect="always"
       xlink:href="#ButtonShadow-0-1-1-5-9"
       id="linearGradient4260"
       gradientUnits="userSpaceOnUse"
       gradientTransform="matrix(1.0074153,0,0,1.0074153,-810.48879,593.1369)"
       x1="1012.5133"
       y1="484.41721"
       x2="1006.8082"
       y2="20.625916" />
    <linearGradient
       inkscape:collect="always"
       xlink:href="#outerBackgroundGradient"
       id="linearGradient4262"
       gradientUnits="userSpaceOnUse"
       gradientTransform="translate(7e-5,-3.999995)"
       x1="510.99997"
       y1="515"
       x2="510.99997"
       y2="23.999998" />
    <linearGradient
       inkscape:collect="always"
       xlink:href="#linearGradient3737-9"
       id="linearGradient4264"
       gradientUnits="userSpaceOnUse"
       gradientTransform="translate(778.59979,-360.55963)"
       x1="993.43896"
       y1="51.511765"
       x2="988.78552"
       y2="363.73825" />
    <linearGradient
       inkscape:collect="always"
       xlink:href="#linearGradient4046-3"
       id="linearGradient4266"
       gradientUnits="userSpaceOnUse"
       x1="1764.6487"
       y1="155.59685"
       x2="1763.6903"
       y2="-55.941216" />
    <linearGradient
       inkscape:collect="always"
       xlink:href="#ButtonShadow-0-1-1-5-9"
       id="linearGradient4292"
       gradientUnits="userSpaceOnUse"
       gradientTransform="matrix(1.0317796,0,0,1.0317796,-830.86406,592.67791)"
       x1="1012.5133"
       y1="484.41721"
       x2="1006.8082"
       y2="20.625916" />
    <linearGradient
       inkscape:collect="always"
       xlink:href="#ButtonShadow-0-1-1-5-9"
       id="linearGradient4294"
       gradientUnits="userSpaceOnUse"
       gradientTransform="matrix(1.0402541,0,0,1.0402541,-837.95116,592.51825)"
       x1="1012.5133"
       y1="484.41721"
       x2="1006.8082"
       y2="20.625916" />
    <linearGradient
       inkscape:collect="always"
       xlink:href="#ButtonShadow-0-1-1-5-9"
       id="linearGradient4296"
       gradientUnits="userSpaceOnUse"
       gradientTransform="matrix(1.023305,0,0,1.023305,-823.77704,592.83757)"
       x1="1012.5133"
       y1="484.41721"
       x2="1006.8082"
       y2="20.625916" />
    <linearGradient
       inkscape:collect="always"
       xlink:href="#ButtonShadow-0-1-1-5-9"
       id="linearGradient4298"
       gradientUnits="userSpaceOnUse"
       gradientTransform="matrix(1.0148305,0,0,1.0148305,-816.68996,592.99723)"
       x1="1012.5133"
       y1="484.41721"
       x2="1006.8082"
       y2="20.625916" />
    <linearGradient
       inkscape:collect="always"
       xlink:href="#ButtonShadow-0-1-1-5-9"
       id="linearGradient4300"
       gradientUnits="userSpaceOnUse"
       gradientTransform="matrix(1.0074153,0,0,1.0074153,-810.48879,593.1369)"
       x1="1012.5133"
       y1="484.41721"
       x2="1006.8082"
       y2="20.625916" />
    <linearGradient
       inkscape:collect="always"
       xlink:href="#outerBackgroundGradient"
       id="linearGradient4302"
       gradientUnits="userSpaceOnUse"
       gradientTransform="translate(620.00007,-3.999992)"
       x1="510.99997"
       y1="515"
       x2="510.99997"
       y2="23.999998" />
    <linearGradient
       inkscape:collect="always"
       xlink:href="#linearGradient3737-9"
       id="linearGradient4304"
       gradientUnits="userSpaceOnUse"
       gradientTransform="translate(778.59979,-360.55963)"
       x1="993.43896"
       y1="51.511765"
       x2="988.78552"
       y2="363.73825" />
    <linearGradient
       inkscape:collect="always"
       xlink:href="#linearGradient4046-3"
       id="linearGradient4306"
       gradientUnits="userSpaceOnUse"
       x1="1764.6487"
       y1="155.59685"
       x2="1763.6903"
       y2="-55.941216" />
    <linearGradient
       y2="11.02436"
       y1="3.0069399"
       x2="0"
       id="linearGradient1022-8-8-3-0-05-2-4"
       gradientUnits="userSpaceOnUse">
      <stop
         id="stop3001-0-9-4-49-85-0"
         offset="0" />
      <stop
         id="stop3003-5-6-6-8-8-4"
         stop-color="#363636"
         offset="1" />
    </linearGradient>
  </defs>
  <metadata
     id="metadata7">
    <rdf:RDF>
      <cc:Work
         rdf:about="">
        <dc:format>image/svg+xml</dc:format>
        <dc:type
           rdf:resource="http://purl.org/dc/dcmitype/StillImage" />
        <dc:title></dc:title>
      </cc:Work>
    </rdf:RDF>
  </metadata>
  <g
     transform="translate(-3.00413,-540.36218)"
     inkscape:label="Livello 1"
     inkscape:groupmode="layer"
     id="layer1" />
  <g
     transform="matrix(1.1,0,0,0.44444,672.07691,256.39254)"
     id="g2036">
    <g
       transform="matrix(1.0526,0,0,1.2857,-1.2632,-13.429)"
       style="opacity:0.4"
       id="g3712" />
  </g>
  <g
     id="g3541"
     transform="translate(674.47691,231.28154)" />
  <g
     id="g3536"
     transform="translate(674.47691,231.28154)" />
  <g
     transform="translate(-28.52347,-353.96833)"
     id="g4076">
    <g
       id="g4038"
       transform="translate(-926.66758,684.38448)" />
  </g>
  <g
     id="g4226"
     transform="translate(-11.98503,-592.11719)">
    <rect
       ry="101.45834"
       y="612.11719"
       x="31.985071"
       height="487"
       width="487"
       id="rect4228"
       style="color:#000000;display:inline;overflow:visible;visibility:visible;opacity:0.1;fill:url(#linearGradient4252);fill-opacity:1;fill-rule:nonzero;stroke:none;stroke-width:1.5;marker:none;enable-background:accumulate" />
    <rect
       style="color:#000000;display:inline;overflow:visible;visibility:visible;opacity:0.07999998;fill:url(#linearGradient4254);fill-opacity:1;fill-rule:nonzero;stroke:none;stroke-width:1.5;marker:none;enable-background:accumulate"
       id="rect4230"
       width="491"
       height="491"
       x="31.985071"
       y="612.11719"
       ry="102.29167" />
    <rect
       style="color:#000000;display:inline;overflow:visible;visibility:visible;opacity:0.2;fill:url(#linearGradient4256);fill-opacity:1;fill-rule:nonzero;stroke:none;stroke-width:1.5;marker:none;enable-background:accumulate"
       id="rect4232"
       width="483"
       height="483"
       x="31.985071"
       y="612.11719"
       ry="100.62501" />
    <rect
       ry="99.791664"
       y="612.11719"
       x="31.985071"
       height="479"
       width="479"
       id="rect4234"
       style="color:#000000;display:inline;overflow:visible;visibility:visible;opacity:0.25;fill:url(#linearGradient4258);fill-opacity:1;fill-rule:nonzero;stroke:none;stroke-width:1.5;marker:none;enable-background:accumulate" />
    <rect
       style="color:#000000;display:inline;overflow:visible;visibility:visible;opacity:0.25;fill:url(#linearGradient4260);fill-opacity:1;fill-rule:nonzero;stroke:none;stroke-width:1.5;marker:none;enable-background:accumulate"
       id="rect4236"
       width="475.5"
       height="475.5"
       x="31.985071"
       y="612.11719"
       ry="99.0625" />
  </g>
  <path
     style="color:#bebebe;display:inline;overflow:visible;visibility:visible;fill:url(#linearGradient4262);fill-opacity:1;fill-rule:nonzero;stroke:none;stroke-width:0;marker:none;enable-background:accumulate"
     d="m 118.34377,20.000005 c -54.4766,0 -98.3437,43.867084 -98.3437,98.343745 l 0,23.0625 0,252.25 c 0,54.47666 43.8671,98.34375 98.3437,98.34375 l 275.3126,0 c 54.4766,0 98.3437,-43.86709 98.3437,-98.34375 l 0,-252.25 0,-23.0625 c 0,-54.476661 -43.8671,-98.343745 -98.3437,-98.343745 l -275.3126,0 z"
     id="path4238"
     inkscape:connector-curvature="0" />
  <g
     transform="translate(608.01497,-592.11719)"
     id="g4268">
    <rect
       style="color:#000000;display:inline;overflow:visible;visibility:visible;opacity:0.1;fill:url(#linearGradient4292);fill-opacity:1;fill-rule:nonzero;stroke:none;stroke-width:1.5;marker:none;enable-background:accumulate"
       id="rect4270"
       width="487"
       height="487"
       x="31.985071"
       y="612.11719"
       ry="101.45834" />
    <rect
       ry="102.29167"
       y="612.11719"
       x="31.985071"
       height="491"
       width="491"
       id="rect4272"
       style="color:#000000;display:inline;overflow:visible;visibility:visible;opacity:0.07999998;fill:url(#linearGradient4294);fill-opacity:1;fill-rule:nonzero;stroke:none;stroke-width:1.5;marker:none;enable-background:accumulate" />
    <rect
       ry="100.62501"
       y="612.11719"
       x="31.985071"
       height="483"
       width="483"
       id="rect4274"
       style="color:#000000;display:inline;overflow:visible;visibility:visible;opacity:0.2;fill:url(#linearGradient4296);fill-opacity:1;fill-rule:nonzero;stroke:none;stroke-width:1.5;marker:none;enable-background:accumulate" />
    <rect
       style="color:#000000;display:inline;overflow:visible;visibility:visible;opacity:0.25;fill:url(#linearGradient4298);fill-opacity:1;fill-rule:nonzero;stroke:none;stroke-width:1.5;marker:none;enable-background:accumulate"
       id="rect4276"
       width="479"
       height="479"
       x="31.985071"
       y="612.11719"
       ry="99.791664" />
    <rect
       ry="99.0625"
       y="612.11719"
       x="31.985071"
       height="475.5"
       width="475.5"
       id="rect4278"
       style="color:#000000;display:inline;overflow:visible;visibility:visible;opacity:0.25;fill:url(#linearGradient4300);fill-opacity:1;fill-rule:nonzero;stroke:none;stroke-width:1.5;marker:none;enable-background:accumulate" />
  </g>
  <path
     inkscape:connector-curvature="0"
     id="path4280"
     d="m 738.34387,20.000008 c -54.4767,0 -98.3438,43.867084 -98.3438,98.343742 l 0,23.0625 0,252.25 c 0,54.47666 43.8671,98.34375 98.3438,98.34375 l 275.31253,0 c 54.4766,0 98.3437,-43.86709 98.3437,-98.34375 l 0,-252.25 0,-23.0625 c 0,-54.476658 -43.8671,-98.343742 -98.3437,-98.343742 l -275.31253,0 z"
     style="color:#bebebe;display:inline;overflow:visible;visibility:visible;fill:url(#linearGradient4302);fill-opacity:1;fill-rule:nonzero;stroke:none;stroke-width:0;marker:none;enable-background:accumulate" />
  <path
     id="path5530"
     d="m 743.00177,141 c -2.7613,2.8e-4 -4.9997,2.23869 -5,5 l 0,220 c 3e-4,2.76131 2.2387,4.99972 5,5 l 121,121 149.65433,0 c 54.4766,0 98.3437,-43.86709 98.3437,-98.34375 l 0,-39.58594 -98.0059,-98.00586 c 0.014,-1.12264 -0.351,-2.21719 -1.0351,-3.10742 l 99.041,99.04102 0,-0.0684 -99.4668,-99.4668 -110.06833,-110 c -0.9379,-0.93698 -2.2095,-1.46316 -3.5352,-1.46289 l -55.0352,0 c -2.7613,2.8e-4 -4.9997,2.23869 -5,5 l 0,35.85742 L 803.03687,146 c -3e-4,-2.76131 -2.2387,-4.99972 -5,-5 z"
     style="color:#000000;font-style:normal;font-variant:normal;font-weight:normal;font-stretch:normal;font-size:medium;line-height:normal;font-family:sans-serif;text-indent:0;text-align:start;text-decoration:none;text-decoration-line:none;text-decoration-style:solid;text-decoration-color:#000000;letter-spacing:normal;word-spacing:normal;text-transform:none;direction:ltr;block-progression:tb;writing-mode:lr-tb;baseline-shift:baseline;text-anchor:start;white-space:normal;shape-padding:0;clip-rule:nonzero;visibility:visible;isolation:auto;mix-blend-mode:normal;color-interpolation:sRGB;color-interpolation-filters:linearRGB;solid-color:#000000;solid-opacity:1;fill:#000000;fill-opacity:0.15686275;fill-rule:nonzero;stroke:none;stroke-width:10;stroke-linecap:round;stroke-linejoin:round;stroke-miterlimit:4;stroke-dasharray:none;stroke-dashoffset:0;stroke-opacity:1;marker:none;color-rendering:auto;image-rendering:auto;shape-rendering:auto;text-rendering:auto" />
  <path
     id="path5528"
     d="m 264.71067,253.18555 27.916,27.91601 -1.0351,1.03516 -26.0098,-26.00977 c 0.025,-1.04752 -0.2797,-2.07642 -0.8711,-2.9414 z"
     style="color:#000000;font-style:normal;font-variant:normal;font-weight:normal;font-stretch:normal;font-size:medium;line-height:normal;font-family:sans-serif;text-indent:0;text-align:start;text-decoration:none;text-decoration-line:none;text-decoration-style:solid;text-decoration-color:#000000;letter-spacing:normal;word-spacing:normal;text-transform:none;direction:ltr;block-progression:tb;writing-mode:lr-tb;baseline-shift:baseline;text-anchor:start;white-space:normal;shape-padding:0;clip-rule:nonzero;visibility:visible;isolation:auto;mix-blend-mode:normal;color-interpolation:sRGB;color-interpolation-filters:linearRGB;solid-color:#000000;solid-opacity:1;fill:#000000;fill-opacity:0.15686275;fill-rule:nonzero;stroke:none;stroke-width:10;stroke-linecap:round;stroke-linejoin:round;stroke-miterlimit:4;stroke-dasharray:none;stroke-dashoffset:0;stroke-opacity:1;marker:none;color-rendering:auto;image-rendering:auto;shape-rendering:auto;text-rendering:auto" />
  <path
     id="path4534"
     d="m 239.01737,284.62305 -5.002,4.99804 0,-0.002 z"
     style="color:#000000;font-style:normal;font-variant:normal;font-weight:normal;font-stretch:normal;font-size:medium;line-height:normal;font-family:sans-serif;text-indent:0;text-align:start;text-decoration:none;text-decoration-line:none;text-decoration-style:solid;text-decoration-color:#000000;letter-spacing:normal;word-spacing:normal;text-transform:none;direction:ltr;block-progression:tb;writing-mode:lr-tb;baseline-shift:baseline;text-anchor:start;white-space:normal;shape-padding:0;clip-rule:nonzero;visibility:visible;isolation:auto;mix-blend-mode:normal;color-interpolation:sRGB;color-interpolation-filters:linearRGB;solid-color:#000000;solid-opacity:1;fill:#000000;fill-opacity:0.15686275;fill-rule:nonzero;stroke:none;stroke-width:10;stroke-linecap:round;stroke-linejoin:round;stroke-miterlimit:4;stroke-dasharray:none;stroke-dashoffset:0;stroke-opacity:1;marker:none;color-rendering:auto;image-rendering:auto;shape-rendering:auto;text-rendering:auto" />
  <path
     style="color:#000000;font-style:normal;font-variant:normal;font-weight:normal;font-stretch:normal;font-size:medium;line-height:normal;font-family:sans-serif;text-indent:0;text-align:start;text-decoration:none;text-decoration-line:none;text-decoration-style:solid;text-decoration-color:#000000;letter-spacing:normal;word-spacing:normal;text-transform:none;direction:ltr;block-progression:tb;writing-mode:lr-tb;baseline-shift:baseline;text-anchor:start;white-space:normal;shape-padding:0;clip-rule:nonzero;visibility:visible;isolation:auto;mix-blend-mode:normal;color-interpolation:sRGB;color-interpolation-filters:linearRGB;solid-color:#000000;solid-opacity:1;fill:#000000;fill-opacity:0.15686275;fill-rule:nonzero;stroke:none;stroke-width:10;stroke-linecap:round;stroke-linejoin:round;stroke-miterlimit:4;stroke-dasharray:none;stroke-dashoffset:0;stroke-opacity:1;marker:none;color-rendering:auto;image-rendering:auto;shape-rendering:auto;text-rendering:auto"
     d="M 205.5293 141 C 204.20358 140.99974 202.93202 141.52592 201.99414 142.46289 L 91.878906 252.45312 C 89.923151 254.40644 89.923151 257.57598 91.878906 259.5293 L 324.34961 492 L 324.47461 492 L 201.99414 369.51953 C 202.93154 370.45602 204.2023 370.98216 205.52734 370.98242 L 326.54492 492 L 393.65625 492 C 448.13285 492 492 448.13291 492 393.65625 L 492 216.42969 L 421.58789 146.01758 C 421.58761 143.25627 419.3492 141.01786 416.58789 141.01758 L 361.52734 141.01758 C 360.2023 141.01784 358.93154 141.54398 357.99414 142.48047 L 328.35742 172.08203 L 302.28516 146.00977 C 302.28016 143.25456 300.04818 141.02215 297.29297 141.01758 L 205.5293 141 z "
     id="path5641" />
  <path
     inkscape:connector-curvature="0"
     style="color:#000000;font-style:normal;font-variant:normal;font-weight:normal;font-stretch:normal;font-size:medium;line-height:normal;font-family:sans-serif;text-indent:0;text-align:start;text-decoration:none;text-decoration-line:none;text-decoration-style:solid;text-decoration-color:#000000;letter-spacing:normal;word-spacing:normal;text-transform:none;direction:ltr;block-progression:tb;writing-mode:lr-tb;baseline-shift:baseline;text-anchor:start;white-space:normal;shape-padding:0;clip-rule:nonzero;display:inline;overflow:visible;visibility:visible;opacity:1;isolation:auto;mix-blend-mode:normal;color-interpolation:sRGB;color-interpolation-filters:linearRGB;solid-color:#000000;solid-opacity:1;fill:#ffffff;fill-opacity:1;fill-rule:nonzero;stroke:none;stroke-width:10;stroke-linecap:round;stroke-linejoin:round;stroke-miterlimit:4;stroke-dasharray:none;stroke-dashoffset:0;stroke-opacity:1;marker:none;color-rendering:auto;image-rendering:auto;shape-rendering:auto;text-rendering:auto;enable-background:accumulate"
     d="m 205.52909,141 91.7637,0.0176 a 5.0005,5.0005 0 0 1 3.5332,8.53711 l -106.5742,106.45312 106.5742,106.45508 A 5.0005,5.0005 0 0 1 297.29079,371 l -91.7636,-0.0176 a 5.0005,5.0005 0 0 1 -3.5333,-1.46289 L 91.878686,259.5293 a 5.0005,5.0005 0 0 1 0,-7.07618 L 201.99389,142.46289 A 5.0005,5.0005 0 0 1 205.52909,141 Z m 211.0586,0.0176 a 5.0005,5.0005 0 0 1 5,5 l 0,219.98242 a 5.0005,5.0005 0 0 1 -5,5 l -55.0605,0 a 5.0005,5.0005 0 0 1 -3.5333,-1.46289 L 247.87869,259.54688 a 5.0005,5.0005 0 0 1 0,-7.07618 l 110.1152,-109.99023 a 5.0005,5.0005 0 0 1 3.5333,-1.46289 l 55.0605,0 z"
     id="path4344" />
  <path
     inkscape:connector-curvature="0"
     style="color:#000000;font-style:normal;font-variant:normal;font-weight:normal;font-stretch:normal;font-size:medium;line-height:normal;font-family:sans-serif;text-indent:0;text-align:start;text-decoration:none;text-decoration-line:none;text-decoration-style:solid;text-decoration-color:#000000;letter-spacing:normal;word-spacing:normal;text-transform:none;direction:ltr;block-progression:tb;writing-mode:lr-tb;baseline-shift:baseline;text-anchor:start;white-space:normal;shape-padding:0;clip-rule:nonzero;display:inline;overflow:visible;visibility:visible;opacity:1;isolation:auto;mix-blend-mode:normal;color-interpolation:sRGB;color-interpolation-filters:linearRGB;solid-color:#000000;solid-opacity:1;fill:#ffffff;fill-opacity:1;fill-rule:nonzero;stroke:none;stroke-width:10;stroke-linecap:round;stroke-linejoin:round;stroke-miterlimit:4;stroke-dasharray:none;stroke-dashoffset:0;stroke-opacity:1;marker:none;color-rendering:auto;image-rendering:auto;shape-rendering:auto;text-rendering:auto;enable-background:accumulate"
     d="m 743.00177,141 a 5.0005,5.0005 0 0 0 -5,5 l 0,220 a 5.0005,5.0005 0 0 0 5,5 l 55.0351,0 a 5.0005,5.0005 0 0 0 5,-5 l 0,-220 a 5.0005,5.0005 0 0 0 -5,-5 l -55.0351,0 z m 100.8925,0 a 5.0005,5.0005 0 0 0 -5,5 l 0,220 a 5.0005,5.0005 0 0 0 5,5 l 55.0352,0 a 5.0005,5.0005 0 0 0 3.5352,-1.46289 l 110.06833,-110 a 5.0005,5.0005 0 0 0 0,-7.07422 l -110.06833,-110 A 5.0005,5.0005 0 0 0 898.92947,141 l -55.0352,0 z"
     id="path4353" />
  <g
     id="g4240"
     transform="translate(-605.51932,-353.96833)">
    <g
       transform="translate(-926.66758,684.38448)"
       id="g4242">
      <path
         inkscape:connector-curvature="0"
         style="color:#000000;display:inline;overflow:visible;visibility:visible;opacity:0.5;fill:url(#linearGradient4264);fill-opacity:1;fill-rule:nonzero;stroke:none;stroke-width:1.5;marker:none;enable-background:accumulate"
         d="m 1650.4994,-310.41615 c -54.4767,0 -98.3125,43.83583 -98.3125,98.3125 l 0,275.343747 c 0,54.476673 43.8358,98.343753 98.3125,98.343753 l 2.9375,0 c -53.3225,0 -96.25,-42.9275 -96.25,-96.250003 l 0,-269.499997 c 0,-53.3225 42.9275,-96.25 96.25,-96.25 l 269.5001,0 c 53.3225,0 96.25,42.9275 96.25,96.25 l 0,269.499997 c 0,53.322503 -42.9275,96.250003 -96.25,96.250003 l 2.9062,0 c 54.4767,0 98.3438,-43.86708 98.3438,-98.343753 l 0,-275.343747 c 0,-54.47667 -43.8671,-98.3125 -98.3438,-98.3125 l -275.3438,0 z"
         id="path4244" />
      <path
         id="path4246"
         d="m 1650.4994,161.58385 c -54.4767,0 -98.3125,-43.83583 -98.3125,-98.312503 l 0,-275.343747 c 0,-54.47667 43.8358,-98.34375 98.3125,-98.34375 l 2.9375,0 c -53.3225,0 -96.25,42.9275 -96.25,96.25 l 0,269.499997 c 0,53.322503 42.9275,96.250003 96.25,96.250003 l 269.5001,0 c 53.3225,0 96.25,-42.9275 96.25,-96.250003 l 0,-269.499997 c 0,-53.3225 -42.9275,-96.25 -96.25,-96.25 l 2.9062,0 c 54.4767,0 98.3438,43.86708 98.3438,98.34375 l 0,275.343747 c 0,54.476673 -43.8671,98.312503 -98.3438,98.312503 l -275.3438,0 z"
         style="color:#000000;display:inline;overflow:visible;visibility:visible;opacity:0.2;fill:url(#linearGradient4266);fill-opacity:1;fill-rule:nonzero;stroke:none;stroke-width:1.5;marker:none;enable-background:accumulate"
         inkscape:connector-curvature="0" />
    </g>
  </g>
  <g
     transform="translate(14.48067,-353.96833)"
     id="g4282">
    <g
       id="g4284"
       transform="translate(-926.66758,684.38448)">
      <path
         id="path4286"
         d="m 1650.4994,-310.41615 c -54.4767,0 -98.3125,43.83583 -98.3125,98.3125 l 0,275.343747 c 0,54.476673 43.8358,98.343753 98.3125,98.343753 l 2.9375,0 c -53.3225,0 -96.25,-42.9275 -96.25,-96.250003 l 0,-269.499997 c 0,-53.3225 42.9275,-96.25 96.25,-96.25 l 269.5001,0 c 53.3225,0 96.25,42.9275 96.25,96.25 l 0,269.499997 c 0,53.322503 -42.9275,96.250003 -96.25,96.250003 l 2.9062,0 c 54.4767,0 98.3438,-43.86708 98.3438,-98.343753 l 0,-275.343747 c 0,-54.47667 -43.8671,-98.3125 -98.3438,-98.3125 l -275.3438,0 z"
         style="color:#000000;display:inline;overflow:visible;visibility:visible;opacity:0.5;fill:url(#linearGradient4304);fill-opacity:1;fill-rule:nonzero;stroke:none;stroke-width:1.5;marker:none;enable-background:accumulate"
         inkscape:connector-curvature="0" />
      <path
         inkscape:connector-curvature="0"
         style="color:#000000;display:inline;overflow:visible;visibility:visible;opacity:0.2;fill:url(#linearGradient4306);fill-opacity:1;fill-rule:nonzero;stroke:none;stroke-width:1.5;marker:none;enable-background:accumulate"
         d="m 1650.4994,161.58385 c -54.4767,0 -98.3125,-43.83583 -98.3125,-98.312503 l 0,-275.343747 c 0,-54.47667 43.8358,-98.34375 98.3125,-98.34375 l 2.9375,0 c -53.3225,0 -96.25,42.9275 -96.25,96.25 l 0,269.499997 c 0,53.322503 42.9275,96.250003 96.25,96.250003 l 269.5001,0 c 53.3225,0 96.25,-42.9275 96.25,-96.250003 l 0,-269.499997 c 0,-53.3225 -42.9275,-96.25 -96.25,-96.25 l 2.9062,0 c 54.4767,0 98.3438,43.86708 98.3438,98.34375 l 0,275.343747 c 0,54.476673 -43.8671,98.312503 -98.3438,98.312503 l -275.3438,0 z"
         id="path4288" />
    </g>
  </g>
</svg>
