<?xml version="1.0" encoding="UTF-8" standalone="no"?>
<!-- Created with Inkscape (http://www.inkscape.org/) -->

<svg
   xmlns:dc="http://purl.org/dc/elements/1.1/"
   xmlns:cc="http://creativecommons.org/ns#"
   xmlns:rdf="http://www.w3.org/1999/02/22-rdf-syntax-ns#"
   xmlns:svg="http://www.w3.org/2000/svg"
   xmlns="http://www.w3.org/2000/svg"
   xmlns:xlink="http://www.w3.org/1999/xlink"
   xmlns:sodipodi="http://sodipodi.sourceforge.net/DTD/sodipodi-0.dtd"
   xmlns:inkscape="http://www.inkscape.org/namespaces/inkscape"
   width="512"
   height="512"
   id="svg2"
   version="1.1"
   inkscape:version="0.91 r13725"
   sodipodi:docname="folder-mod.svg"
   inkscape:export-filename="/home/alecive/Scrivania/firefoxTest1.png"
   inkscape:export-xdpi="100"
   inkscape:export-ydpi="100">
  <sodipodi:namedview
     id="base"
     pagecolor="#ffffff"
     bordercolor="#666666"
     borderopacity="1.0"
     inkscape:pageopacity="0.0"
     inkscape:pageshadow="2"
     inkscape:zoom="0.50549732"
     inkscape:cx="-628.12464"
     inkscape:cy="407.89851"
     inkscape:document-units="px"
     inkscape:current-layer="svg2"
     showgrid="false"
     inkscape:window-width="1855"
     inkscape:window-height="1056"
     inkscape:window-x="65"
     inkscape:window-y="24"
     inkscape:window-maximized="1"
     inkscape:object-paths="false"
     inkscape:snap-intersection-paths="false"
     inkscape:object-nodes="true"
     inkscape:snap-smooth-nodes="true"
     inkscape:snap-nodes="true" />
  <defs
     id="defs4">
    <linearGradient
       y2="20.625916"
       x2="1006.8082"
       y1="484.41721"
       x1="1012.5133"
       gradientTransform="matrix(1.0317796,0,0,1.0317796,-830.86406,592.67791)"
       gradientUnits="userSpaceOnUse"
       id="linearGradient4114-2-6"
       xlink:href="#ButtonShadow-0-1-1-5-9"
       inkscape:collect="always" />
    <linearGradient
       gradientTransform="matrix(1.0058652,0,0,0.994169,100,0)"
       gradientUnits="userSpaceOnUse"
       id="ButtonShadow-0-1-1-5-9"
       y2="7.0165396"
       x2="45.447727"
       y1="92.539597"
       x1="45.447727">
      <stop
         offset="0"
         style="stop-color:#000000;stop-opacity:1"
         id="stop3750-8-9-3-6-4" />
      <stop
         offset="1"
         style="stop-color:#000000;stop-opacity:0.58823532"
         id="stop3752-5-6-4-2-9" />
    </linearGradient>
    <linearGradient
       y2="20.625916"
       x2="1006.8082"
       y1="484.41721"
       x1="1012.5133"
       gradientTransform="matrix(1.0402541,0,0,1.0402541,-837.95116,592.51825)"
       gradientUnits="userSpaceOnUse"
       id="linearGradient4112-2-6"
       xlink:href="#ButtonShadow-0-1-1-5-9"
       inkscape:collect="always" />
    <linearGradient
       y2="20.625916"
       x2="1006.8082"
       y1="484.41721"
       x1="1012.5133"
       gradientTransform="matrix(1.023305,0,0,1.023305,-823.77704,592.83757)"
       gradientUnits="userSpaceOnUse"
       id="linearGradient4110-6-7"
       xlink:href="#ButtonShadow-0-1-1-5-9"
       inkscape:collect="always" />
    <linearGradient
       y2="20.625916"
       x2="1006.8082"
       y1="484.41721"
       x1="1012.5133"
       gradientTransform="matrix(1.0148305,0,0,1.0148305,-816.68996,592.99723)"
       gradientUnits="userSpaceOnUse"
       id="linearGradient4116-6-3"
       xlink:href="#ButtonShadow-0-1-1-5-9"
       inkscape:collect="always" />
    <linearGradient
       inkscape:collect="always"
       xlink:href="#ButtonShadow-0-1-1-5-9"
       id="linearGradient5342-3"
       gradientUnits="userSpaceOnUse"
       gradientTransform="matrix(1.0074153,0,0,1.0074153,-810.48879,593.1369)"
       x1="1012.5133"
       y1="484.41721"
       x2="1006.8082"
       y2="20.625916" />
    <linearGradient
       id="linearGradient3737-9">
      <stop
         offset="0"
         style="stop-color:#ffffff;stop-opacity:1"
         id="stop3739-7" />
      <stop
         offset="1"
         style="stop-color:#ffffff;stop-opacity:0"
         id="stop3741-4" />
    </linearGradient>
    <linearGradient
       id="linearGradient4046-3">
      <stop
         offset="0"
         style="stop-color:#000000;stop-opacity:1;"
         id="stop4048-7" />
      <stop
         offset="1"
         style="stop-color:#ffffff;stop-opacity:0.2"
         id="stop4050-73" />
    </linearGradient>
    <linearGradient
       id="linearGradient3874">
      <stop
         id="stop3876"
         style="stop-color:#ffffff;stop-opacity:1"
         offset="0" />
      <stop
         id="stop3878"
         style="stop-color:#ffffff;stop-opacity:0"
         offset="1" />
    </linearGradient>
    <clipPath
       id="clipPath3860">
      <rect
         width="84"
         height="72"
         rx="6"
         ry="6"
         x="6"
         y="18"
         id="rect3862"
         style="fill:#ff00ff;fill-opacity:1;fill-rule:nonzero;stroke:none" />
    </clipPath>
    <filter
       x="-0.16558799"
       y="-0.19715989"
       width="1.331176"
       height="1.3943198"
       color-interpolation-filters="sRGB"
       id="filter3870">
      <feGaussianBlur
         id="feGaussianBlur3872"
         stdDeviation="5.1703125" />
    </filter>
    <linearGradient
       id="linearGradient4008-4-7">
      <stop
         id="stop4010-2-0"
         style="stop-color:#dbbb83;stop-opacity:1"
         offset="0" />
      <stop
         id="stop4012-5-1"
         style="stop-color:#c29856;stop-opacity:1"
         offset="0.71691591" />
      <stop
         id="stop4014-6-6"
         style="stop-color:#a2773a;stop-opacity:1"
         offset="1" />
    </linearGradient>
    <linearGradient
       inkscape:collect="always"
       xlink:href="#linearGradient3874"
       id="linearGradient3179"
       gradientUnits="userSpaceOnUse"
       x1="48.021698"
       y1="22.933374"
       x2="48.021698"
       y2="81.481377" />
    <linearGradient
       id="linearGradient3187-7-5">
      <stop
         id="stop3189-4-5"
         style="stop-color:#c29656;stop-opacity:1"
         offset="0" />
      <stop
         id="stop3191-1-8"
         style="stop-color:#dbba83;stop-opacity:1"
         offset="1" />
    </linearGradient>
    <linearGradient
       inkscape:collect="always"
       xlink:href="#linearGradient4008-4-7"
       id="linearGradient3231"
       gradientUnits="userSpaceOnUse"
       gradientTransform="matrix(4.4715789,0,0,4.4715789,475.53325,-30.196581)"
       x1="34.85965"
       y1="16.275133"
       x2="34.994316"
       y2="28.905609" />
    <linearGradient
       inkscape:collect="always"
       xlink:href="#linearGradient4046-3"
       id="linearGradient3241"
       gradientUnits="userSpaceOnUse"
       x1="1764.6487"
       y1="155.59685"
       x2="1763.6903"
       y2="-55.941216"
       gradientTransform="translate(-1532.187,330.41615)" />
    <linearGradient
       inkscape:collect="always"
       xlink:href="#linearGradient3737-9"
       id="linearGradient3244"
       gradientUnits="userSpaceOnUse"
       gradientTransform="translate(-753.58721,-30.14348)"
       x1="993.43896"
       y1="51.511765"
       x2="988.78552"
       y2="363.73825" />
    <linearGradient
       inkscape:collect="always"
       xlink:href="#linearGradient3187-7-5"
       id="linearGradient3136"
       gradientUnits="userSpaceOnUse"
       gradientTransform="matrix(5.6190474,0,0,4.9043651,491.99998,58.207937)"
       x1="48"
       y1="78"
       x2="48"
       y2="5.9877172" />
    <linearGradient
       inkscape:collect="always"
       xlink:href="#linearGradient3737-8-0-1"
       id="linearGradient3133-9-1"
       gradientUnits="userSpaceOnUse"
       x1="36.357143"
       y1="16"
       x2="36.357143"
       y2="73.994667"
       gradientTransform="matrix(5.6190474,0,0,4.9043651,-110.76903,34.465266)" />
    <linearGradient
       id="linearGradient3737-8-0-1">
      <stop
         id="stop3739-8-3-5"
         style="stop-color:#ffffff;stop-opacity:1"
         offset="0" />
      <stop
         id="stop3741-8-0-2"
         style="stop-color:#ffffff;stop-opacity:0"
         offset="1" />
    </linearGradient>
  </defs>
  <metadata
     id="metadata7">
    <rdf:RDF>
      <cc:Work
         rdf:about="">
        <dc:format>image/svg+xml</dc:format>
        <dc:type
           rdf:resource="http://purl.org/dc/dcmitype/StillImage" />
        <dc:title />
      </cc:Work>
    </rdf:RDF>
  </metadata>
  <g
     transform="translate(0,-540.36218)"
     inkscape:label="Livello 1"
     inkscape:groupmode="layer"
     id="layer1" />
  <g
     transform="matrix(1.1,0,0,0.44444,95.081063,256.39254)"
     id="g2036">
    <g
       transform="matrix(1.0526,0,0,1.2857,-1.2632,-13.429)"
       style="opacity:0.4"
       id="g3712" />
  </g>
  <g
     id="g3541"
     transform="translate(97.481063,231.28154)" />
  <g
     id="g3536"
     transform="translate(97.481063,231.28154)" />
  <g
     transform="translate(-11.985071,-592.11719)"
     id="g4103">
    <rect
       style="opacity:0.1;color:#000000;fill:url(#linearGradient4114-2-6);fill-opacity:1;fill-rule:nonzero;stroke:none;stroke-width:1.5;marker:none;visibility:visible;display:inline;overflow:visible;enable-background:accumulate"
       id="rect6187"
       width="487"
       height="487"
       x="31.985071"
       y="612.11719"
       ry="101.45834" />
    <rect
       ry="102.29167"
       y="612.11719"
       x="31.985071"
       height="491"
       width="491"
       id="rect6191"
       style="opacity:0.07999998;color:#000000;fill:url(#linearGradient4112-2-6);fill-opacity:1;fill-rule:nonzero;stroke:none;stroke-width:1.5;marker:none;visibility:visible;display:inline;overflow:visible;enable-background:accumulate" />
    <rect
       ry="100.62501"
       y="612.11719"
       x="31.985071"
       height="483"
       width="483"
       id="rect6183"
       style="opacity:0.2;color:#000000;fill:url(#linearGradient4110-6-7);fill-opacity:1;fill-rule:nonzero;stroke:none;stroke-width:1.5;marker:none;visibility:visible;display:inline;overflow:visible;enable-background:accumulate" />
    <rect
       style="opacity:0.25;color:#000000;fill:url(#linearGradient4116-6-3);fill-opacity:1;fill-rule:nonzero;stroke:none;stroke-width:1.5;marker:none;visibility:visible;display:inline;overflow:visible;enable-background:accumulate"
       id="rect6179"
       width="479"
       height="479"
       x="31.985071"
       y="612.11719"
       ry="99.791664" />
    <rect
       ry="99.0625"
       y="612.11719"
       x="31.985071"
       height="475.5"
       width="475.5"
       id="rect5574"
       style="opacity:0.25;color:#000000;fill:url(#linearGradient5342-3);fill-opacity:1;fill-rule:nonzero;stroke:none;stroke-width:1.5;marker:none;visibility:visible;display:inline;overflow:visible;enable-background:accumulate" />
  </g>
  <path
     inkscape:connector-curvature="0"
     id="rect5505"
     d="M 118.34375,20 C 63.867087,20 20,63.867084 20,118.34375 l 0,23.0625 0,252.25 C 20,448.13291 63.867087,492 118.34375,492 l 275.3125,0 C 448.13292,492 492,448.13291 492,393.65625 l 0,-252.25 0,-23.0625 C 492,63.867084 448.13292,20 393.65625,20 l -275.3125,0 z"
     style="fill:url(#linearGradient3231);stroke:none;color:#000000;fill-opacity:1;fill-rule:nonzero;stroke-width:1;marker:none;visibility:visible;display:inline;overflow:visible;enable-background:accumulate" />
  <g
     transform="translate(-605.51932,-353.96833)"
     id="g4076">
    <g
       id="g4038"
       transform="translate(-926.66758,684.38448)" />
  </g>
  <path
     id="rect6809-2-3"
     d="M 118.3124,20 C 63.8357,20 19.9999,63.83583 19.9999,118.3125 l 0,275.34375 C 19.9999,448.13292 63.8357,492 118.3124,492 l 2.9375,0 c -53.3225,0 -96.25,-42.9275 -96.25,-96.25 l 0,-269.5 C 24.9999,72.9275 67.9274,30 121.2499,30 L 390.75,30 C 444.0725,30 487,72.9275 487,126.25 l 0,269.5 C 487,449.0725 444.0725,492 390.75,492 l 2.9062,0 C 448.1329,492 492,448.13292 492,393.65625 L 492,118.3125 C 492,63.83583 448.1329,20 393.6562,20 l -275.3438,0 z"
     style="opacity:0.3;color:#000000;fill:url(#linearGradient3244);fill-opacity:1;fill-rule:nonzero;stroke:none;stroke-width:1.5;marker:none;visibility:visible;display:inline;overflow:visible;enable-background:accumulate"
     inkscape:connector-curvature="0" />
  <path
     style="color:#000000;fill:url(#linearGradient3136);fill-opacity:1;fill-rule:nonzero;stroke:none;stroke-width:1;marker:none;visibility:visible;display:inline;overflow:visible;enable-background:accumulate"
     d="M 67.0625 76.65625 C 42.85934 76.65625 20 95.7349 20 119.75 L 20 235.625 L 20 256.5625 L 20 352.75 L 20 393.65625 C 20 448.13291 63.867087 492 118.34375 492 L 393.65625 492 C 448.13292 492 492 448.13291 492 393.65625 L 492 352.75 L 492 256.5625 L 492 235.625 L 492 151.4375 C 492 127.42239 472.1407 108.34375 444.9375 108.34375 L 209.21875 108.34375 C 190.60301 89.019876 189.11124 79.81667 170.03125 76.65625 L 67.0625 76.65625 z "
     id="path3181" />
  <path
     inkscape:connector-curvature="0"
     style="opacity:0.2;color:#000000;fill:url(#linearGradient3241);fill-opacity:1;fill-rule:nonzero;stroke:none;stroke-width:1.5;marker:none;visibility:visible;display:inline;overflow:visible;enable-background:accumulate"
     d="M 118.3124,492 C 63.8357,492 19.9999,448.16417 19.9999,393.6875 l 0,-275.34375 C 19.9999,63.86708 63.8357,20 118.3124,20 l 2.9375,0 c -53.3225,0 -96.25,42.9275 -96.25,96.25 l 0,269.5 c 0,53.3225 42.9275,96.25 96.25,96.25 L 390.75,482 C 444.0725,482 487,439.0725 487,385.75 l 0,-269.5 C 487,62.9275 444.0725,20 390.75,20 l 2.9062,0 C 448.1329,20 492,63.86708 492,118.34375 l 0,275.34375 C 492,448.16417 448.1329,492 393.6562,492 l -275.3438,0 z"
     id="path3981-7" />
  <path
     d="m 15.96875,22.53125 c -2.845903,0.0043 -5.433244,2.591597 -5.4375,5.4375 l 0,48.0625 c 0.0043,2.845903 2.591597,5.433244 5.4375,5.4375 l 64.0625,0 c 2.845903,-0.0043 5.433244,-2.591597 5.4375,-5.4375 l 0,-48.0625 c -0.0043,-2.845903 -2.591597,-5.433244 -5.4375,-5.4375 z"
     inkscape:connector-curvature="0"
     clip-path="url(#clipPath3860)"
     id="path3850"
     style="opacity:0.15;fill:url(#linearGradient3179);fill-opacity:1;fill-rule:nonzero;stroke:none;display:inline;filter:url(#filter3870)"
     transform="matrix(5.6190474,0,0,4.9043651,599.66491,31.270067)" />
  <path
     style="color:#000000;fill:url(#linearGradient3133-9-1);fill-opacity:1;fill-rule:nonzero;stroke:none;stroke-width:1;marker:none;visibility:visible;display:inline;overflow:visible;enable-background:accumulate;opacity:0.34999999999999998"
     d="M 67.0625 76.65625 C 42.85934 76.65625 20 95.7349 20 119.75 L 20 129.75 C 20 105.7349 42.85934 86.65625 67.0625 86.65625 L 170.03125 86.65625 C 189.11124 89.81667 190.60301 99.019876 209.21875 118.34375 L 444.9375 118.34375 C 472.1407 118.34375 492 137.42239 492 161.4375 L 492 151.4375 C 492 127.42239 472.1407 108.34375 444.9375 108.34375 L 209.21875 108.34375 C 190.60301 89.019876 189.11124 79.81667 170.03125 76.65625 L 67.0625 76.65625 z "
     id="path3139" />
  <g
     transform="matrix(14.855075,0,0,13.583288,-130.06677,199.30952)"
     id="g4157"
     style="fill:#ffffff;stroke:#000000;stroke-width:0.63843918;stroke-miterlimit:4;stroke-dasharray:none;stroke-opacity:1">
    <path
       style="color:#000000;display:inline;overflow:visible;visibility:visible;opacity:0.9;fill:#ffffff;fill-opacity:1;fill-rule:nonzero;stroke:#000000;stroke-width:0.63843918;stroke-miterlimit:4;stroke-dasharray:none;stroke-opacity:1;marker:none;enable-background:accumulate"
       d="m 34,4 0,1 -1,0 0,4 1,0 0,1 2,0 0,-1.5 0,-3 0,-1.5 z"
       id="path4155"
       inkscape:connector-curvature="0"
       sodipodi:nodetypes="ccccccccccc" />
    <path
       sodipodi:nodetypes="ccccccccccc"
       inkscape:connector-curvature="0"
       style="color:#000000;display:inline;overflow:visible;visibility:visible;opacity:0.9;fill:#ffffff;fill-opacity:1;fill-rule:nonzero;stroke:#000000;stroke-width:0.63843918;stroke-miterlimit:4;stroke-dasharray:none;stroke-opacity:1;marker:none;enable-background:accumulate"
       d="m 18,9 0,1 0,3 0,1 2,0 0,-1 1,0 0,-3 -1,0 0,-1 z"
       id="path4583" />
    <path
       sodipodi:nodetypes="ccccccccccc"
       id="path4157"
       d="m 20,0 0,1 1,0 0,3 -1,0 0,1 -2,0 0,-1 0,-3 0,-1 z"
       style="color:#000000;display:inline;overflow:visible;visibility:visible;opacity:0.9;fill:#ffffff;fill-opacity:1;fill-rule:nonzero;stroke:#000000;stroke-width:0.63843918;stroke-miterlimit:4;stroke-dasharray:none;stroke-opacity:1;marker:none;enable-background:accumulate"
       inkscape:connector-curvature="0" />
    <path
       style="opacity:0.9;fill:#ffffff;fill-rule:evenodd;stroke:#000000;stroke-width:0.63843918;stroke-linecap:butt;stroke-linejoin:miter;stroke-miterlimit:4;stroke-dasharray:none;stroke-opacity:1"
       d="m 21,2.5 4,0 4,6 4,0"
       id="path4159"
       inkscape:connector-curvature="0"
       sodipodi:nodetypes="cccc" />
    <path
       inkscape:connector-curvature="0"
       id="path4161"
       d="m 21,11.5 4,0 4,-6 4,0"
       style="opacity:0.9;fill:#ffffff;fill-rule:evenodd;stroke:#000000;stroke-width:0.63843918;stroke-linecap:butt;stroke-linejoin:miter;stroke-miterlimit:4;stroke-dasharray:none;stroke-opacity:1"
       sodipodi:nodetypes="cccc" />
    <rect
       style="color:#000000;clip-rule:nonzero;display:inline;overflow:visible;visibility:visible;opacity:0.7;isolation:auto;mix-blend-mode:normal;color-interpolation:sRGB;color-interpolation-filters:linearRGB;solid-color:#000000;solid-opacity:1;fill:#ffffff;fill-opacity:1;fill-rule:nonzero;stroke:#000000;stroke-width:0.63843918;stroke-linecap:butt;stroke-linejoin:miter;stroke-miterlimit:4;stroke-dasharray:none;stroke-dashoffset:0;stroke-opacity:1;marker:none;color-rendering:auto;image-rendering:auto;shape-rendering:auto;text-rendering:auto;enable-background:accumulate"
       id="rect4163"
       width="9"
       height="15.000001"
       x="22.5"
       y="-0.50000095" />
  </g>
</svg>
