<?xml version="1.0" encoding="windows-1252"?>
<!DOCTYPE svg PUBLIC "-//W3C//DTD SVG 1.0//EN" "http://www.w3.org/TR/2001/REC-SVG-20010904/DTD/svg10.dtd">
<!-- Creator: CorelDRAW -->
<svg xmlns="http://www.w3.org/2000/svg" xmlns:odm="http://product.corel.com/CGS/11/cddns/" xmlns:corel-charset="http://product.corel.com/CGS/11/cddns/" xml:space="preserve" width="8.26772in" height="8.26772in" style="shape-rendering:geometricPrecision; text-rendering:geometricPrecision; image-rendering:optimizeQuality; fill-rule:evenodd" viewBox="0 0 8267.72 8267.72">
 <defs>
  <style type="text/css">
   <![CDATA[
    .fil0 {fill:#006C3B}
    .fil1 {fill:#77C06C}
   ]]>
  </style>
 </defs>
 <g id="Symbol-Rahmen">
  <path class="fil0" d="M716.815 4324.26c731.307,313.606 827.709,357.488 1567.79,675.181 40.4764,17.9685 72.3937,31.7913 101.488,46.122 50.7598,27.5551 77.3386,53.4528 127.276,-15.2874 16.8819,-17.1063 46.2677,-32.8583 65.6024,-65.4488 1771.25,-1641.56 3104.17,-2926.09 4875.43,-4567.66 311.449,-314.039 957.138,-82.315 668.748,262.425 -1819.04,2115.07 -3013.9,3557.11 -3898.31,4727.14 -378.15,498.87 -701.185,948.437 -991.492,1378.67 -190.681,277.303 -364.937,546.579 -526.528,815.854 -46.8268,81.5079 -85.9449,138.839 -146.795,184.878 -95.2795,67.8465 -199.815,75.1969 -302.622,18.4685 -38.5551,-25.2953 -76.0433,-57.0315 -113.862,-103.76 -22.6929,-28.0315 -45.5079,-64.3307 -68.7402,-99.8543l-553.398 -911.48 -623.118 -1098.32c-170.563,-300.642 -307.26,-550.244 -571.626,-1007.63 -28.9213,-43.0669 -111.646,-155.138 -87.5354,-238.72 20.748,-95.4567 124.862,-147.425 234.972,-102.713 98.8071,41.689 197.583,84.9882 242.72,102.134z"/>
 </g>
 <g id="Symbol">
  <path class="fil1" d="M431.484 4322.72c694.724,300.72 1260.07,541.862 1963.13,846.5 48.4921,21.1693 97.6378,26.9331 146.547,-15.7244 1682.65,-1574.13 3327.35,-3117.85 5010.01,-4691.98 220.551,-198.941 645.362,-76.9252 509.094,107.457 -2981.11,3437.65 -4547.94,5449.03 -5497.57,7037.34 -86.311,145.083 -250.185,136.878 -339.059,-2.28346 -209.35,-332.539 -525.425,-854.161 -534.059,-867.236 -673.504,-1175.64 -694.988,-1224.56 -1337.91,-2347.39 -30.3465,-55.0433 35.4291,-95.2992 79.8189,-66.6811z"/>
 </g>
</svg>