<?xml version="1.0" encoding="UTF-8" standalone="no"?>
<!-- Created with Inkscape (http://www.inkscape.org/) -->

<svg
   xmlns:dc="http://purl.org/dc/elements/1.1/"
   xmlns:cc="http://creativecommons.org/ns#"
   xmlns:rdf="http://www.w3.org/1999/02/22-rdf-syntax-ns#"
   xmlns:svg="http://www.w3.org/2000/svg"
   xmlns="http://www.w3.org/2000/svg"
   xmlns:sodipodi="http://sodipodi.sourceforge.net/DTD/sodipodi-0.dtd"
   xmlns:inkscape="http://www.inkscape.org/namespaces/inkscape"
   id="svg7384"
   height="22"
   width="22"
   version="1.1"
   inkscape:version="0.48.3.1 r9886"
   sodipodi:docname="port_hide.svg"
   viewBox="0 0 22 22">
  <defs
     id="defs10" />
  <sodipodi:namedview
     pagecolor="#ffffff"
     bordercolor="#666666"
     borderopacity="1"
     objecttolerance="10"
     gridtolerance="10"
     guidetolerance="10"
     inkscape:pageopacity="0"
     inkscape:pageshadow="2"
     inkscape:window-width="1920"
     inkscape:window-height="1021"
     id="namedview8"
     showgrid="false"
     inkscape:zoom="2.8284273"
     inkscape:cx="-11.325686"
     inkscape:cy="-72.21899"
     inkscape:window-x="0"
     inkscape:window-y="27"
     inkscape:window-maximized="1"
     inkscape:current-layer="svg7384"
     inkscape:document-units="px" />
  <metadata
     id="metadata90">
    <rdf:RDF>
      <cc:Work
         rdf:about="">
        <dc:format>image/svg+xml</dc:format>
        <dc:type
           rdf:resource="http://purl.org/dc/dcmitype/StillImage" />
        <dc:title>Gnome Symbolic Icon Theme</dc:title>
      </cc:Work>
    </rdf:RDF>
  </metadata>
  <title
     id="title9167">Gnome Symbolic Icon Theme</title>
  <path
     inkscape:connector-curvature="0"
     id="path3043"
     d="m 19.685313,8.4048325 c -0.192338,-0.22201 -0.448168,-0.3513759 -0.721045,-0.348044 l -6.056777,0 -2.333563,-2.6935567 C 10.383337,5.139656 10.111513,5.0002989 9.8397725,5.0000558 l -6.790932,0 c -0.545755,-0.00664 -1.054564,0.5806399 -1.048792,1.210587 l 0,9.5939022 c 1.14e-4,0.320129 0.113881,0.626537 0.314637,0.847413 0.189759,0.215448 0.454873,0.347807 0.721046,0.348042 l 6.81715,0 c 0.2717405,-2.43e-4 0.5304375,-0.124488 0.7210465,-0.348042 l 2.346673,-2.70869 6.030557,0 c 0.545755,0.0067 1.054565,-0.58064 1.048793,-1.210588 l 0,-3.4804368 C 20.002851,8.9372709 19.87765,8.6268411 19.685313,8.4048325 Z"
     style="opacity:0.9;fill:#323232;fill-opacity:1;stroke:none;stroke-width:1.00000775;stroke-linecap:butt;stroke-linejoin:miter;stroke-miterlimit:4;stroke-dasharray:none;stroke-dashoffset:0;stroke-opacity:1" />
  <rect
     style="fill:#808080;fill-opacity:1;fill-rule:nonzero;stroke:#ffffff;stroke-width:1;stroke-linecap:round;stroke-linejoin:round;stroke-miterlimit:4;stroke-opacity:1;stroke-dasharray:none;stroke-dashoffset:0"
     id="rect3753"
     width="23.691944"
     height="4.5"
     x="-11.247782"
     y="13.374211"
     rx="2.1785698"
     ry="2.25"
     transform="matrix(0.70710678,-0.70710678,0.70710678,0.70710678,0,0)" />
</svg>
