<?xml version="1.0" encoding="UTF-8" standalone="no"?>
<!-- Created with Inkscape (http://www.inkscape.org/) -->

<svg
   xmlns:dc="http://purl.org/dc/elements/1.1/"
   xmlns:cc="http://creativecommons.org/ns#"
   xmlns:rdf="http://www.w3.org/1999/02/22-rdf-syntax-ns#"
   xmlns:svg="http://www.w3.org/2000/svg"
   xmlns="http://www.w3.org/2000/svg"
   xmlns:xlink="http://www.w3.org/1999/xlink"
   xmlns:sodipodi="http://sodipodi.sourceforge.net/DTD/sodipodi-0.dtd"
   xmlns:inkscape="http://www.inkscape.org/namespaces/inkscape"
   width="512"
   height="512"
   id="svg2"
   version="1.1"
   inkscape:version="0.91pre2 r"
   sodipodi:docname="folder-new.svg"
   inkscape:export-filename="/home/alecive/Scrivania/firefoxTest1.png"
   inkscape:export-xdpi="100"
   inkscape:export-ydpi="100">
  <sodipodi:namedview
     id="base"
     pagecolor="#ffffff"
     bordercolor="#666666"
     borderopacity="1.0"
     inkscape:pageopacity="0.0"
     inkscape:pageshadow="2"
     inkscape:zoom="0.41741338"
     inkscape:cx="19.920066"
     inkscape:cy="93.526767"
     inkscape:document-units="px"
     inkscape:current-layer="svg2"
     showgrid="false"
     inkscape:window-width="1855"
     inkscape:window-height="1056"
     inkscape:window-x="65"
     inkscape:window-y="24"
     inkscape:window-maximized="1"
     inkscape:object-paths="false"
     inkscape:snap-intersection-paths="false"
     inkscape:object-nodes="true"
     inkscape:snap-smooth-nodes="true"
     inkscape:snap-nodes="true" />
  <defs
     id="defs4">
    <linearGradient
       x1="19.244999"
       y1="21.030804"
       x2="19.360001"
       gradientUnits="userSpaceOnUse"
       y2="44.984001"
       id="linearGradient2460">
      <stop
         offset="0"
         style="stop-color:#fafafa;stop-opacity:1;"
         id="stop3602" />
      <stop
         offset="1"
         style="stop-color:#f0f0f0;stop-opacity:1;"
         id="stop3604" />
    </linearGradient>
    <linearGradient
       inkscape:collect="always"
       xlink:href="#ButtonShadow-0-1-1-5-9"
       id="linearGradient4114-2-6"
       gradientUnits="userSpaceOnUse"
       gradientTransform="matrix(1.0317796,0,0,1.0317796,-830.86406,592.67791)"
       x1="1012.5133"
       y1="484.41721"
       x2="1006.8082"
       y2="20.625916" />
    <linearGradient
       x1="45.447727"
       y1="92.539597"
       x2="45.447727"
       y2="7.0165396"
       id="ButtonShadow-0-1-1-5-9"
       gradientUnits="userSpaceOnUse"
       gradientTransform="matrix(1.0058652,0,0,0.994169,100,0)">
      <stop
         id="stop3750-8-9-3-6-4"
         style="stop-color:#000000;stop-opacity:1"
         offset="0" />
      <stop
         id="stop3752-5-6-4-2-9"
         style="stop-color:#000000;stop-opacity:0.58823532"
         offset="1" />
    </linearGradient>
    <linearGradient
       inkscape:collect="always"
       xlink:href="#ButtonShadow-0-1-1-5-9"
       id="linearGradient4112-2-6"
       gradientUnits="userSpaceOnUse"
       gradientTransform="matrix(1.0402541,0,0,1.0402541,-837.95116,592.51825)"
       x1="1012.5133"
       y1="484.41721"
       x2="1006.8082"
       y2="20.625916" />
    <linearGradient
       inkscape:collect="always"
       xlink:href="#ButtonShadow-0-1-1-5-9"
       id="linearGradient4110-6-7"
       gradientUnits="userSpaceOnUse"
       gradientTransform="matrix(1.023305,0,0,1.023305,-823.77704,592.83757)"
       x1="1012.5133"
       y1="484.41721"
       x2="1006.8082"
       y2="20.625916" />
    <linearGradient
       inkscape:collect="always"
       xlink:href="#ButtonShadow-0-1-1-5-9"
       id="linearGradient4116-6-3"
       gradientUnits="userSpaceOnUse"
       gradientTransform="matrix(1.0148305,0,0,1.0148305,-816.68996,592.99723)"
       x1="1012.5133"
       y1="484.41721"
       x2="1006.8082"
       y2="20.625916" />
    <linearGradient
       y2="20.625916"
       x2="1006.8082"
       y1="484.41721"
       x1="1012.5133"
       gradientTransform="matrix(1.0074153,0,0,1.0074153,-810.48879,593.1369)"
       gradientUnits="userSpaceOnUse"
       id="linearGradient5342-3"
       xlink:href="#ButtonShadow-0-1-1-5-9"
       inkscape:collect="always" />
    <linearGradient
       inkscape:collect="always"
       xlink:href="#linearGradient3737-9"
       id="linearGradient4084-8"
       gradientUnits="userSpaceOnUse"
       gradientTransform="translate(778.59979,-360.55963)"
       x1="993.43896"
       y1="51.511765"
       x2="988.78552"
       y2="363.73825" />
    <linearGradient
       id="linearGradient3737-9">
      <stop
         id="stop3739-7"
         style="stop-color:#ffffff;stop-opacity:1"
         offset="0" />
      <stop
         id="stop3741-4"
         style="stop-color:#ffffff;stop-opacity:0"
         offset="1" />
    </linearGradient>
    <linearGradient
       inkscape:collect="always"
       xlink:href="#linearGradient4046-3"
       id="linearGradient4086-12"
       gradientUnits="userSpaceOnUse"
       x1="1764.6487"
       y1="155.59685"
       x2="1763.6903"
       y2="-55.941216" />
    <linearGradient
       id="linearGradient4046-3">
      <stop
         id="stop4048-7"
         style="stop-color:#000000;stop-opacity:1;"
         offset="0" />
      <stop
         id="stop4050-73"
         style="stop-color:#ffffff;stop-opacity:0.2"
         offset="1" />
    </linearGradient>
    <linearGradient
       y2="5.9877172"
       x2="48"
       y1="78"
       x1="48"
       gradientTransform="translate(0,8)"
       gradientUnits="userSpaceOnUse"
       id="linearGradient3210"
       xlink:href="#linearGradient3187-7"
       inkscape:collect="always" />
    <linearGradient
       id="linearGradient3187-7">
      <stop
         offset="0"
         style="stop-color:#c29656;stop-opacity:1"
         id="stop3189-4" />
      <stop
         offset="1"
         style="stop-color:#ddc08b;stop-opacity:1"
         id="stop3191-1" />
    </linearGradient>
    <linearGradient
       y2="81.481377"
       x2="48.021698"
       y1="22.933374"
       x1="48.021698"
       gradientUnits="userSpaceOnUse"
       id="linearGradient3212"
       xlink:href="#linearGradient3874"
       inkscape:collect="always" />
    <linearGradient
       id="linearGradient3874">
      <stop
         offset="0"
         style="stop-color:#ffffff;stop-opacity:1"
         id="stop3876" />
      <stop
         offset="1"
         style="stop-color:#ffffff;stop-opacity:0"
         id="stop3878" />
    </linearGradient>
    <clipPath
       id="clipPath3860">
      <rect
         style="fill:#ff00ff;fill-opacity:1;fill-rule:nonzero;stroke:none"
         id="rect3862"
         y="18"
         x="6"
         ry="6"
         rx="6"
         height="72"
         width="84" />
    </clipPath>
    <filter
       id="filter3870"
       color-interpolation-filters="sRGB"
       height="1.3943198"
       width="1.331176"
       y="-0.19715989"
       x="-0.16558799">
      <feGaussianBlur
         stdDeviation="5.1703125"
         id="feGaussianBlur3872" />
    </filter>
    <linearGradient
       y2="73.994667"
       x2="36.357143"
       y1="16"
       x1="36.357143"
       gradientUnits="userSpaceOnUse"
       id="linearGradient3214"
       xlink:href="#linearGradient3737-8"
       inkscape:collect="always" />
    <linearGradient
       id="linearGradient3737-8">
      <stop
         offset="0"
         style="stop-color:#ffffff;stop-opacity:1"
         id="stop3739-8" />
      <stop
         offset="1"
         style="stop-color:#ffffff;stop-opacity:0"
         id="stop3741-8" />
    </linearGradient>
    <linearGradient
       y2="26.986736"
       x2="34.85965"
       y1="16.275133"
       x1="34.85965"
       gradientTransform="matrix(0.7957895,0,0,0.7957895,87.069475,1.0667086)"
       gradientUnits="userSpaceOnUse"
       id="linearGradient3073-8"
       xlink:href="#linearGradient4008-4"
       inkscape:collect="always" />
    <linearGradient
       id="linearGradient4008-4">
      <stop
         offset="0"
         style="stop-color:#dab980;stop-opacity:1"
         id="stop4010-2" />
      <stop
         offset="0.71691591"
         style="stop-color:#c29856;stop-opacity:1"
         id="stop4012-5" />
      <stop
         offset="1"
         style="stop-color:#a2773a;stop-opacity:1"
         id="stop4014-6" />
    </linearGradient>
    <radialGradient
       r="42"
       fy="90.171875"
       fx="48"
       cy="90.171875"
       cx="48"
       gradientTransform="matrix(1.1573129,0,0,0.99590774,-7.551021,0.197132)"
       gradientUnits="userSpaceOnUse"
       id="radialGradient3061"
       xlink:href="#linearGradient3737-5"
       inkscape:collect="always" />
    <linearGradient
       id="linearGradient3737-5">
      <stop
         offset="0"
         style="stop-color:#ffffff;stop-opacity:1"
         id="stop3739-0" />
      <stop
         offset="1"
         style="stop-color:#ffffff;stop-opacity:0"
         id="stop3741-4-3" />
    </linearGradient>
    <radialGradient
       inkscape:collect="always"
       xlink:href="#linearGradient3737-5"
       id="radialGradient3260"
       gradientUnits="userSpaceOnUse"
       gradientTransform="matrix(1.1573129,0,0,0.99590774,-7.551021,0.197132)"
       cx="48"
       cy="90.171875"
       fx="48"
       fy="90.171875"
       r="42" />
    <radialGradient
       r="42"
       fy="90.171875"
       fx="48"
       cy="90.171875"
       cx="48"
       gradientTransform="matrix(6.502996,0,0,5.5960528,-658.91278,-27.932797)"
       gradientUnits="userSpaceOnUse"
       id="radialGradient3119"
       xlink:href="#linearGradient3737-5"
       inkscape:collect="always" />
    <linearGradient
       y2="26.986736"
       x2="34.85965"
       y1="16.275133"
       x1="34.85965"
       gradientTransform="matrix(0.7957895,0,0,0.7957895,87.069475,1.0667086)"
       gradientUnits="userSpaceOnUse"
       id="linearGradient3126"
       xlink:href="#linearGradient4008-4"
       inkscape:collect="always" />
    <linearGradient
       y2="26.986736"
       x2="34.85965"
       y1="16.275133"
       x1="34.85965"
       gradientTransform="matrix(4.4715789,0,0,4.4715789,-127.23573,-23.046605)"
       gradientUnits="userSpaceOnUse"
       id="linearGradient3130"
       xlink:href="#linearGradient4008-4"
       inkscape:collect="always" />
    <linearGradient
       gradientTransform="matrix(5.6190474,0,0,4.9043651,-110.76903,27.465268)"
       y2="73.994667"
       x2="36.357143"
       y1="16"
       x1="36.357143"
       gradientUnits="userSpaceOnUse"
       id="linearGradient3133"
       xlink:href="#linearGradient3737-8"
       inkscape:collect="always" />
    <linearGradient
       y2="5.9877172"
       x2="48"
       y1="78"
       x1="48"
       gradientTransform="matrix(5.6190474,0,0,4.9043651,491.99998,40.207937)"
       gradientUnits="userSpaceOnUse"
       id="linearGradient3137"
       xlink:href="#linearGradient3187-7"
       inkscape:collect="always" />
    <linearGradient
       y2="26.986736"
       x2="34.85965"
       y1="16.275133"
       x1="34.85965"
       gradientTransform="matrix(4.4715789,0,0,4.4715789,46.550519,-81.595434)"
       gradientUnits="userSpaceOnUse"
       id="linearGradient3141"
       xlink:href="#linearGradient4008-4"
       inkscape:collect="always" />
    <linearGradient
       y2="32.73402"
       x2="34.85965"
       y1="16.275133"
       x1="34.85965"
       gradientTransform="matrix(4.4715789,0,0,4.4715789,475.53325,-30.196581)"
       gradientUnits="userSpaceOnUse"
       id="linearGradient3141-5"
       xlink:href="#linearGradient4008-4-7"
       inkscape:collect="always" />
    <linearGradient
       id="linearGradient4008-4-7">
      <stop
         offset="0"
         style="stop-color:#dab980;stop-opacity:1"
         id="stop4010-2-0" />
      <stop
         offset="0.71691591"
         style="stop-color:#c29856;stop-opacity:1"
         id="stop4012-5-1" />
      <stop
         offset="1"
         style="stop-color:#a2773a;stop-opacity:1"
         id="stop4014-6-6" />
    </linearGradient>
    <linearGradient
       inkscape:collect="always"
       xlink:href="#linearGradient4008-4-7"
       id="linearGradient3159"
       gradientUnits="userSpaceOnUse"
       gradientTransform="matrix(4.4715789,0,0,4.4715789,455.53323,-72.672777)"
       x1="34.85965"
       y1="16.275133"
       x2="34.85965"
       y2="26.986736" />
    <linearGradient
       y2="81.481377"
       x2="48.021698"
       y1="22.933374"
       x1="48.021698"
       gradientUnits="userSpaceOnUse"
       id="linearGradient3179"
       xlink:href="#linearGradient3874"
       inkscape:collect="always" />
    <linearGradient
       y2="28.313034"
       x2="35.30175"
       y1="16.275133"
       x1="34.85965"
       gradientTransform="matrix(4.4715789,0,0,4.4715789,475.53325,-30.196581)"
       gradientUnits="userSpaceOnUse"
       id="linearGradient3185"
       xlink:href="#linearGradient4008-4-7"
       inkscape:collect="always" />
    <linearGradient
       y2="5.9877172"
       x2="48"
       y1="78"
       x1="48"
       gradientTransform="matrix(5.6190474,0,0,4.9043651,491.99998,40.207937)"
       gradientUnits="userSpaceOnUse"
       id="linearGradient3194"
       xlink:href="#linearGradient3187-7"
       inkscape:collect="always" />
    <linearGradient
       y2="5.9877172"
       x2="48"
       y1="78"
       x1="48"
       gradientTransform="matrix(5.6190474,0,0,4.9043651,491.99998,40.207937)"
       gradientUnits="userSpaceOnUse"
       id="linearGradient3194-0"
       xlink:href="#linearGradient3187-7-5"
       inkscape:collect="always" />
    <linearGradient
       id="linearGradient3187-7-5">
      <stop
         offset="0"
         style="stop-color:#c29656;stop-opacity:1"
         id="stop3189-4-5" />
      <stop
         offset="1"
         style="stop-color:#ddc08b;stop-opacity:1"
         id="stop3191-1-8" />
    </linearGradient>
    <linearGradient
       inkscape:collect="always"
       xlink:href="#linearGradient3187-7-5"
       id="linearGradient3212-5"
       gradientUnits="userSpaceOnUse"
       gradientTransform="matrix(5.6190474,0,0,4.9043651,471.99998,-28.448313)"
       x1="48"
       y1="78"
       x2="48"
       y2="5.9877172" />
    <linearGradient
       y2="28.905609"
       x2="34.994316"
       y1="16.275133"
       x1="34.85965"
       gradientTransform="matrix(4.4715789,0,0,4.4715789,475.53325,-30.196581)"
       gradientUnits="userSpaceOnUse"
       id="linearGradient3231"
       xlink:href="#linearGradient4008-4-7"
       inkscape:collect="always" />
    <linearGradient
       y2="363.73825"
       x2="988.78552"
       y1="51.511765"
       x1="993.43896"
       gradientTransform="translate(778.59979,-360.55963)"
       gradientUnits="userSpaceOnUse"
       id="linearGradient3236"
       xlink:href="#linearGradient3737-9"
       inkscape:collect="always" />
    <linearGradient
       y2="-55.941216"
       x2="1763.6903"
       y1="155.59685"
       x1="1764.6487"
       gradientUnits="userSpaceOnUse"
       id="linearGradient3238"
       xlink:href="#linearGradient4046-3"
       inkscape:collect="always" />
    <linearGradient
       gradientTransform="translate(-1532.187,330.41615)"
       y2="-55.941216"
       x2="1763.6903"
       y1="155.59685"
       x1="1764.6487"
       gradientUnits="userSpaceOnUse"
       id="linearGradient3241"
       xlink:href="#linearGradient4046-3"
       inkscape:collect="always" />
    <linearGradient
       y2="363.73825"
       x2="988.78552"
       y1="51.511765"
       x1="993.43896"
       gradientTransform="translate(-753.58721,-30.14348)"
       gradientUnits="userSpaceOnUse"
       id="linearGradient3244"
       xlink:href="#linearGradient3737-9"
       inkscape:collect="always" />
    <linearGradient
       y2="5.9877172"
       x2="48"
       y1="78"
       x1="48"
       gradientTransform="matrix(5.6190474,0,0,4.9043651,491.99998,46.207937)"
       gradientUnits="userSpaceOnUse"
       id="linearGradient3297"
       xlink:href="#linearGradient3187-7-5"
       inkscape:collect="always" />
    <linearGradient
       y2="30.813984"
       x2="34.585358"
       y1="16.275133"
       x1="34.85965"
       gradientTransform="matrix(4.4715789,0,0,4.4715789,475.53325,-30.196581)"
       gradientUnits="userSpaceOnUse"
       id="linearGradient3306"
       xlink:href="#linearGradient4008-4-7"
       inkscape:collect="always" />
    <linearGradient
       y2="5.9877172"
       x2="48"
       y1="78"
       x1="48"
       gradientTransform="matrix(5.6190474,0,0,4.9043651,491.99998,46.207937)"
       gradientUnits="userSpaceOnUse"
       id="linearGradient3297-2"
       xlink:href="#linearGradient3187-7-5-7"
       inkscape:collect="always" />
    <linearGradient
       id="linearGradient3187-7-5-7">
      <stop
         offset="0"
         style="stop-color:#c29656;stop-opacity:1"
         id="stop3189-4-5-5" />
      <stop
         offset="1"
         style="stop-color:#ddc08b;stop-opacity:1"
         id="stop3191-1-8-2" />
    </linearGradient>
    <linearGradient
       inkscape:collect="always"
       xlink:href="#linearGradient3187-7-5-7"
       id="linearGradient3325"
       gradientUnits="userSpaceOnUse"
       gradientTransform="matrix(5.6190474,0,0,4.9043651,471.99998,-28.448313)"
       x1="48"
       y1="78"
       x2="48"
       y2="5.9877172" />
    <linearGradient
       y2="5.9877172"
       x2="48"
       y1="78"
       x1="48"
       gradientTransform="matrix(5.6190474,0,0,4.9043651,491.99998,46.207937)"
       gradientUnits="userSpaceOnUse"
       id="linearGradient3343"
       xlink:href="#linearGradient3187-7-5"
       inkscape:collect="always" />
    <linearGradient
       y2="5.9877172"
       x2="48"
       y1="78"
       x1="48"
       gradientTransform="matrix(5.6190474,0,0,4.9043651,491.99998,46.207937)"
       gradientUnits="userSpaceOnUse"
       id="linearGradient3352"
       xlink:href="#linearGradient3187-7-5"
       inkscape:collect="always" />
    <linearGradient
       gradientTransform="matrix(5.6190474,0,0,4.9043651,-110.76903,34.465266)"
       y2="73.994667"
       x2="36.357143"
       y1="16"
       x1="36.357143"
       gradientUnits="userSpaceOnUse"
       id="linearGradient3133-9"
       xlink:href="#linearGradient3737-8-0"
       inkscape:collect="always" />
    <linearGradient
       id="linearGradient3737-8-0">
      <stop
         offset="0"
         style="stop-color:#ffffff;stop-opacity:1"
         id="stop3739-8-3" />
      <stop
         offset="1"
         style="stop-color:#ffffff;stop-opacity:0"
         id="stop3741-8-0" />
    </linearGradient>
    <linearGradient
       inkscape:collect="always"
       xlink:href="#linearGradient3737-8-0"
       id="linearGradient3370"
       gradientUnits="userSpaceOnUse"
       gradientTransform="matrix(5.6190474,0,0,4.9043651,471.99997,-67.677006)"
       x1="36.357143"
       y1="16"
       x2="36.357143"
       y2="73.994667" />
    <linearGradient
       y2="5.9877172"
       x2="48"
       y1="78"
       x1="48"
       gradientTransform="matrix(5.6190474,0,0,4.9043651,491.99998,58.207937)"
       gradientUnits="userSpaceOnUse"
       id="linearGradient3090"
       xlink:href="#linearGradient3187-7-5"
       inkscape:collect="always" />
    <linearGradient
       y2="28.905609"
       x2="34.994316"
       y1="16.275133"
       x1="34.85965"
       gradientTransform="matrix(4.4715789,0,0,4.4715789,475.53325,-30.196581)"
       gradientUnits="userSpaceOnUse"
       id="linearGradient3099"
       xlink:href="#linearGradient4008-4-7"
       inkscape:collect="always" />
    <linearGradient
       y2="5.9877172"
       x2="48"
       y1="78"
       x1="48"
       gradientTransform="matrix(5.6190474,0,0,4.9043651,491.99998,58.207937)"
       gradientUnits="userSpaceOnUse"
       id="linearGradient3090-9"
       xlink:href="#linearGradient3187-7-5-1"
       inkscape:collect="always" />
    <linearGradient
       id="linearGradient3187-7-5-1">
      <stop
         offset="0"
         style="stop-color:#c29656;stop-opacity:1"
         id="stop3189-4-5-4" />
      <stop
         offset="1"
         style="stop-color:#ddc08b;stop-opacity:1"
         id="stop3191-1-8-0" />
    </linearGradient>
    <linearGradient
       inkscape:collect="always"
       xlink:href="#linearGradient3187-7-5-1"
       id="linearGradient3118"
       gradientUnits="userSpaceOnUse"
       gradientTransform="matrix(5.6190474,0,0,4.9043651,471.99998,-18.448313)"
       x1="48"
       y1="78"
       x2="48"
       y2="5.9877172" />
    <linearGradient
       y2="5.9877172"
       x2="48"
       y1="78"
       x1="48"
       gradientTransform="matrix(5.6190474,0,0,4.9043651,491.99998,58.207937)"
       gradientUnits="userSpaceOnUse"
       id="linearGradient3136"
       xlink:href="#linearGradient3187-7-5"
       inkscape:collect="always" />
    <linearGradient
       y2="5.9877172"
       x2="48"
       y1="78"
       x1="48"
       gradientTransform="matrix(5.6190474,0,0,4.9043651,491.99998,58.207937)"
       gradientUnits="userSpaceOnUse"
       id="linearGradient3143"
       xlink:href="#linearGradient3187-7-5"
       inkscape:collect="always" />
    <linearGradient
       gradientTransform="matrix(5.6190474,0,0,4.9043651,-110.76903,34.465266)"
       y2="73.994667"
       x2="36.357143"
       y1="16"
       x1="36.357143"
       gradientUnits="userSpaceOnUse"
       id="linearGradient3133-9-1"
       xlink:href="#linearGradient3737-8-0-1"
       inkscape:collect="always" />
    <linearGradient
       id="linearGradient3737-8-0-1">
      <stop
         offset="0"
         style="stop-color:#ffffff;stop-opacity:1"
         id="stop3739-8-3-5" />
      <stop
         offset="1"
         style="stop-color:#ffffff;stop-opacity:0"
         id="stop3741-8-0-2" />
    </linearGradient>
    <linearGradient
       inkscape:collect="always"
       xlink:href="#linearGradient3737-8-0-1"
       id="linearGradient3161"
       gradientUnits="userSpaceOnUse"
       gradientTransform="matrix(5.6190474,0,0,4.9043651,-130.76903,-47.190982)"
       x1="36.357143"
       y1="16"
       x2="36.357143"
       y2="73.994667" />
    <linearGradient
       y2="28.905609"
       x2="34.994316"
       y1="16.275133"
       x1="34.85965"
       gradientTransform="matrix(4.4715789,0,0,4.4715789,475.53325,-30.196581)"
       gradientUnits="userSpaceOnUse"
       id="linearGradient3186"
       xlink:href="#linearGradient4008-4-7"
       inkscape:collect="always" />
    <linearGradient
       y2="28.905609"
       x2="34.994316"
       y1="16.275133"
       x1="34.85965"
       gradientTransform="matrix(4.4715789,0,0,4.4715789,391.53325,-30.196581)"
       gradientUnits="userSpaceOnUse"
       id="linearGradient3189"
       xlink:href="#linearGradient4008-4-7"
       inkscape:collect="always" />
    <radialGradient
       r="191.6187"
       fy="385.4841"
       fx="558.35437"
       cy="385.4841"
       cx="558.35437"
       gradientTransform="matrix(1,0,0,1.0499906,0,-19.270593)"
       gradientUnits="userSpaceOnUse"
       id="radialGradient3396"
       xlink:href="#XMLID_74_-8-1"
       inkscape:collect="always" />
    <linearGradient
       y2="48.0854"
       x2="78.466103"
       y1="56.3008"
       x1="64.477501"
       gradientUnits="userSpaceOnUse"
       id="XMLID_74_-8-1">
      <stop
         id="stop153-2-2"
         style="stop-color:#fd8700;stop-opacity:1;"
         offset="0" />
      <stop
         id="stop155-3-8"
         style="stop-color:#ff9500;stop-opacity:1;"
         offset="0.85930002" />
      <stop
         id="stop157-94-6"
         style="stop-color:#ff9a01;stop-opacity:1;"
         offset="1" />
    </linearGradient>
    <linearGradient
       y2="5.9877172"
       x2="48"
       y1="78"
       x1="48"
       gradientTransform="matrix(5.6190474,0,0,4.9043651,1060,58.207937)"
       gradientUnits="userSpaceOnUse"
       id="linearGradient3129"
       xlink:href="#linearGradient3187-7-5"
       inkscape:collect="always" />
  </defs>
  <metadata
     id="metadata7">
    <rdf:RDF>
      <cc:Work
         rdf:about="">
        <dc:format>image/svg+xml</dc:format>
        <dc:type
           rdf:resource="http://purl.org/dc/dcmitype/StillImage" />
        <dc:title />
      </cc:Work>
    </rdf:RDF>
  </metadata>
  <g
     id="layer1"
     inkscape:groupmode="layer"
     inkscape:label="Livello 1"
     transform="translate(0,-540.36218)" />
  <g
     id="g2036"
     transform="matrix(1.1,0,0,0.44444,95.081063,256.39254)">
    <g
       id="g3712"
       style="opacity:0.4"
       transform="matrix(1.0526,0,0,1.2857,-1.2632,-13.429)" />
  </g>
  <g
     transform="translate(97.481063,231.28154)"
     id="g3541" />
  <g
     transform="translate(97.481063,231.28154)"
     id="g3536" />
  <g
     id="g4103"
     transform="translate(-11.985071,-592.11719)">
    <rect
       ry="101.45834"
       y="612.11719"
       x="31.985071"
       height="487"
       width="487"
       id="rect6187"
       style="opacity:0.1;color:#000000;fill:url(#linearGradient4114-2-6);fill-opacity:1;fill-rule:nonzero;stroke:none;stroke-width:1.5;marker:none;visibility:visible;display:inline;overflow:visible;enable-background:accumulate" />
    <rect
       style="opacity:0.07999998;color:#000000;fill:url(#linearGradient4112-2-6);fill-opacity:1;fill-rule:nonzero;stroke:none;stroke-width:1.5;marker:none;visibility:visible;display:inline;overflow:visible;enable-background:accumulate"
       id="rect6191"
       width="491"
       height="491"
       x="31.985071"
       y="612.11719"
       ry="102.29167" />
    <rect
       style="opacity:0.2;color:#000000;fill:url(#linearGradient4110-6-7);fill-opacity:1;fill-rule:nonzero;stroke:none;stroke-width:1.5;marker:none;visibility:visible;display:inline;overflow:visible;enable-background:accumulate"
       id="rect6183"
       width="483"
       height="483"
       x="31.985071"
       y="612.11719"
       ry="100.62501" />
    <rect
       ry="99.791664"
       y="612.11719"
       x="31.985071"
       height="479"
       width="479"
       id="rect6179"
       style="opacity:0.25;color:#000000;fill:url(#linearGradient4116-6-3);fill-opacity:1;fill-rule:nonzero;stroke:none;stroke-width:1.5;marker:none;visibility:visible;display:inline;overflow:visible;enable-background:accumulate" />
    <rect
       style="opacity:0.25;color:#000000;fill:url(#linearGradient5342-3);fill-opacity:1;fill-rule:nonzero;stroke:none;stroke-width:1.5;marker:none;visibility:visible;display:inline;overflow:visible;enable-background:accumulate"
       id="rect5574"
       width="475.5"
       height="475.5"
       x="31.985071"
       y="612.11719"
       ry="99.0625" />
  </g>
  <path
     style="fill:url(#linearGradient3231);stroke:none;color:#000000;fill-opacity:1;fill-rule:nonzero;stroke-width:1;marker:none;visibility:visible;display:inline;overflow:visible;enable-background:accumulate"
     d="M 118.34375,20 C 63.867087,20 20,63.867084 20,118.34375 l 0,23.0625 0,252.25 C 20,448.13291 63.867087,492 118.34375,492 l 275.3125,0 C 448.13292,492 492,448.13291 492,393.65625 l 0,-252.25 0,-23.0625 C 492,63.867084 448.13292,20 393.65625,20 l -275.3125,0 z"
     id="rect5505"
     inkscape:connector-curvature="0" />
  <g
     id="g4076"
     transform="translate(-605.51932,-353.96833)">
    <g
       transform="translate(-926.66758,684.38448)"
       id="g4038" />
  </g>
  <path
     inkscape:connector-curvature="0"
     style="opacity:0.3;color:#000000;fill:url(#linearGradient3244);fill-opacity:1;fill-rule:nonzero;stroke:none;stroke-width:1.5;marker:none;visibility:visible;display:inline;overflow:visible;enable-background:accumulate"
     d="M 118.3124,20 C 63.8357,20 19.9999,63.83583 19.9999,118.3125 l 0,275.34375 C 19.9999,448.13292 63.8357,492 118.3124,492 l 2.9375,0 c -53.3225,0 -96.25,-42.9275 -96.25,-96.25 l 0,-269.5 C 24.9999,72.9275 67.9274,30 121.2499,30 L 390.75,30 C 444.0725,30 487,72.9275 487,126.25 l 0,269.5 C 487,449.0725 444.0725,492 390.75,492 l 2.9062,0 C 448.1329,492 492,448.13292 492,393.65625 L 492,118.3125 C 492,63.83583 448.1329,20 393.6562,20 l -275.3438,0 z"
     id="rect6809-2-3" />
  <path
     id="path3181"
     d="M 67.0625 76.65625 C 42.85934 76.65625 20 95.7349 20 119.75 L 20 235.625 L 20 256.5625 L 20 352.75 L 20 393.65625 C 20 448.13291 63.867087 492 118.34375 492 L 393.65625 492 C 448.13292 492 492 448.13291 492 393.65625 L 492 352.75 L 492 256.5625 L 492 235.625 L 492 151.4375 C 492 127.42239 472.1407 108.34375 444.9375 108.34375 L 209.21875 108.34375 C 190.60301 89.019876 189.11124 79.81667 170.03125 76.65625 L 67.0625 76.65625 z "
     style="color:#000000;fill:url(#linearGradient3136);fill-opacity:1;fill-rule:nonzero;stroke:none;stroke-width:1;marker:none;visibility:visible;display:inline;overflow:visible;enable-background:accumulate" />
  <path
     style="opacity:0.9;color:#000000;fill:#000000;fill-opacity:0.15686275;fill-rule:nonzero;stroke:none;stroke-width:1;marker:none;visibility:visible;display:inline;overflow:visible;enable-background:accumulate"
     d="M 256 195.96875 C 236.89202 195.96875 236.62755 195.99315 234.625 197.0625 C 232.68938 198.09607 230.77812 200.17085 229.84375 202.25 C 229.60498 202.78131 229.28921 218.87234 229.15625 238 L 228.9375 272.78125 L 227.78125 274.625 C 227.15015 275.63912 225.76525 277.03731 224.6875 277.75 L 222.71875 279.0625 L 187.625 279.28125 L 152.53125 279.53125 L 150.65625 280.6875 C 149.62674 281.32682 148.17181 282.85658 147.40625 284.0625 L 146 286.25 L 146 305.71875 C 146 323.92364 146.078 325.32583 146.9375 327 C 147.76371 328.60944 148.86626 329.83937 150.5625 331.0625 L 311.5 492 L 393.65625 492 C 442.50192 492 482.81232 456.71669 490.625 410.15625 L 277.375 197.0625 C 275.37246 195.99316 275.10799 195.96875 256 195.96875 z "
     id="path3116" />
  <path
     id="path3981-7"
     d="M 118.3124,492 C 63.8357,492 19.9999,448.16417 19.9999,393.6875 l 0,-275.34375 C 19.9999,63.86708 63.8357,20 118.3124,20 l 2.9375,0 c -53.3225,0 -96.25,42.9275 -96.25,96.25 l 0,269.5 c 0,53.3225 42.9275,96.25 96.25,96.25 L 390.75,482 C 444.0725,482 487,439.0725 487,385.75 l 0,-269.5 C 487,62.9275 444.0725,20 390.75,20 l 2.9062,0 C 448.1329,20 492,63.86708 492,118.34375 l 0,275.34375 C 492,448.16417 448.1329,492 393.6562,492 l -275.3438,0 z"
     style="opacity:0.2;color:#000000;fill:url(#linearGradient3241);fill-opacity:1;fill-rule:nonzero;stroke:none;stroke-width:1.5;marker:none;visibility:visible;display:inline;overflow:visible;enable-background:accumulate"
     inkscape:connector-curvature="0" />
  <path
     transform="matrix(5.6190474,0,0,4.9043651,599.66491,31.270067)"
     style="opacity:0.15;fill:url(#linearGradient3179);fill-opacity:1;fill-rule:nonzero;stroke:none;display:inline;filter:url(#filter3870)"
     id="path3850"
     clip-path="url(#clipPath3860)"
     inkscape:connector-curvature="0"
     d="m 15.96875,22.53125 c -2.845903,0.0043 -5.433244,2.591597 -5.4375,5.4375 l 0,48.0625 c 0.0043,2.845903 2.591597,5.433244 5.4375,5.4375 l 64.0625,0 c 2.845903,-0.0043 5.433244,-2.591597 5.4375,-5.4375 l 0,-48.0625 c -0.0043,-2.845903 -2.591597,-5.433244 -5.4375,-5.4375 z" />
  <path
     id="path3139"
     d="M 67.0625 76.65625 C 42.85934 76.65625 20 95.7349 20 119.75 L 20 129.75 C 20 105.7349 42.85934 86.65625 67.0625 86.65625 L 170.03125 86.65625 C 189.11124 89.81667 190.60301 99.019876 209.21875 118.34375 L 444.9375 118.34375 C 472.1407 118.34375 492 137.42239 492 161.4375 L 492 151.4375 C 492 127.42239 472.1407 108.34375 444.9375 108.34375 L 209.21875 108.34375 C 190.60301 89.019876 189.11124 79.81667 170.03125 76.65625 L 67.0625 76.65625 z "
     style="color:#000000;fill:url(#linearGradient3133-9-1);fill-opacity:1;fill-rule:nonzero;stroke:none;stroke-width:1;marker:none;visibility:visible;display:inline;overflow:visible;enable-background:accumulate;opacity:0.34999999999999998" />
  <path
     sodipodi:nodetypes="ccccsssscccsscc"
     inkscape:connector-curvature="0"
     style="color:#000000;fill:url(#linearGradient3129);fill-opacity:1;fill-rule:nonzero;stroke:none;stroke-width:1;marker:none;visibility:visible;display:inline;overflow:visible;enable-background:accumulate"
     d="m 588,119.75 0,115.875 0,20.9375 0,96.1875 0,40.90625 C 588,448.13291 631.86709,492 686.34375,492 l 275.3125,0 C 1016.1329,492 1060,448.13291 1060,393.65625 l 0,-40.90625 0,-96.1875 0,-20.9375 0,-84.1875 c 0,-24.01511 -19.8593,-31.6875 -47.0625,-31.6875 l -235.71875,0 z"
     id="path3124" />
  <path
     style="color:#000000;fill:#ffffff;fill-opacity:1;fill-rule:nonzero;stroke:none;stroke-width:1;marker:none;visibility:visible;display:inline;overflow:visible;enable-background:accumulate;opacity:0.9"
     d="m 235.44594,415.21833 c -2.03348,-0.8799 -4.14577,-2.80829 -5.24097,-4.78466 -0.72085,-1.30083 -0.82772,-5.01052 -1.04474,-36.26245 l -0.24176,-34.81337 -1.29712,-1.95754 c -0.71343,-1.07666 -2.1277,-2.47339 -3.14286,-3.10385 l -1.84573,-1.14628 -34.83505,-0.24152 c -33.04936,-0.22913 -34.90828,-0.28811 -36.26374,-1.15072 -2.3063,-1.46772 -3.63757,-2.83601 -4.61861,-4.74705 -0.85945,-1.67417 -0.91998,-3.07426 -0.91998,-21.27915 l 0,-19.48706 1.3919,-2.19256 c 0.76556,-1.20592 2.23423,-2.71565 3.26374,-3.35497 l 1.87183,-1.1624 35.09079,-0.2415 35.09078,-0.24152 1.95957,-1.29579 c 1.07775,-0.71269 2.47592,-2.12553 3.10702,-3.13965 l 1.14746,-1.84384 0.24176,-34.77758 c 0.13296,-19.12766 0.43712,-35.21229 0.67589,-35.7436 0.93437,-2.07915 2.85606,-4.16338 4.79168,-5.19695 2.00255,-1.06932 2.25961,-1.08234 21.36759,-1.08234 19.10799,0 19.36507,0.013 21.36761,1.08234 1.93561,1.03357 3.8573,3.1178 4.79165,5.19695 0.23881,0.53131 0.54294,16.63203 0.67591,35.77935 l 0.24175,34.81331 1.29713,1.95761 c 0.71343,1.07669 2.12771,2.47345 3.14286,3.10391 l 1.84573,1.14628 35.05493,0.24152 35.05495,0.2415 1.87184,1.1624 c 1.0295,0.63932 2.49818,2.14905 3.26374,3.35497 l 1.39189,2.19256 0,19.48706 c 0,18.20489 -0.0605,19.60498 -0.91998,21.27915 -0.98101,1.91104 -2.31228,3.27933 -4.61861,4.74705 -1.35544,0.86261 -3.21437,0.92159 -36.26374,1.15072 l -34.83502,0.24152 -1.84573,1.14628 c -1.01515,0.63046 -2.42943,2.02719 -3.14286,3.10385 l -1.29713,1.95754 -0.24175,34.81337 c -0.26565,38.25261 -0.0827,36.0367 -3.22056,39.01419 -2.90908,2.76042 -3.28637,2.8047 -23.71997,2.78409 -15.65969,-0.0159 -19.03083,-0.13964 -20.44409,-0.75117 z"
     id="path3085"
     inkscape:connector-curvature="0" />
</svg>
