<?xml version="1.0" encoding="UTF-8" standalone="no"?>
<!-- Created with Inkscape (http://www.inkscape.org/) -->

<svg
   xmlns:dc="http://purl.org/dc/elements/1.1/"
   xmlns:cc="http://creativecommons.org/ns#"
   xmlns:rdf="http://www.w3.org/1999/02/22-rdf-syntax-ns#"
   xmlns:svg="http://www.w3.org/2000/svg"
   xmlns="http://www.w3.org/2000/svg"
   xmlns:sodipodi="http://sodipodi.sourceforge.net/DTD/sodipodi-0.dtd"
   xmlns:inkscape="http://www.inkscape.org/namespaces/inkscape"
   id="svg7384"
   height="22"
   width="22"
   version="1.1"
   inkscape:version="0.91+devel r"
   sodipodi:docname="actions-connect.svg"
   viewBox="0 0 22 22">
  <defs
     id="defs11">
    <linearGradient
       id="linearGradient3758">
      <stop
         id="stop3760"
         style="stop-color:#c00000;stop-opacity:1"
         offset="0" />
      <stop
         id="stop3762"
         style="stop-color:#ff7e7e;stop-opacity:1"
         offset="1" />
    </linearGradient>
  </defs>
  <sodipodi:namedview
     pagecolor="#ffffff"
     bordercolor="#666666"
     borderopacity="1"
     objecttolerance="10"
     gridtolerance="10"
     guidetolerance="10"
     inkscape:pageopacity="0"
     inkscape:pageshadow="2"
     inkscape:window-width="1375"
     inkscape:window-height="876"
     id="namedview9"
     showgrid="false"
     inkscape:zoom="29.625"
     inkscape:cx="5.734177"
     inkscape:cy="11"
     inkscape:window-x="1985"
     inkscape:window-y="24"
     inkscape:window-maximized="1"
     inkscape:current-layer="svg7384"
     inkscape:document-units="px" />
  <metadata
     id="metadata90">
    <rdf:RDF>
      <cc:Work
         rdf:about="">
        <dc:format>image/svg+xml</dc:format>
        <dc:type
           rdf:resource="http://purl.org/dc/dcmitype/StillImage" />
        <dc:title>Gnome Symbolic Icon Theme</dc:title>
      </cc:Work>
    </rdf:RDF>
  </metadata>
  <title
     id="title9167">Gnome Symbolic Icon Theme</title>
  <path
     style="color:#000000;display:inline;overflow:visible;visibility:visible;opacity:0.9;fill:#81bb31;fill-opacity:1;fill-rule:nonzero;stroke:none;stroke-width:1;stroke-linecap:butt;stroke-linejoin:miter;stroke-miterlimit:4;stroke-dasharray:none;stroke-dashoffset:0;stroke-opacity:1;marker:none;enable-background:accumulate"
     id="path3804-7"
     inkscape:connector-curvature="0"
     d="m 18.40359,2.0000002 c -0.13715,0 -0.26831,0.0513 -0.36457,0.14955 l -3.65506,3.65464 -1.66393,0 c -0.13701,-10e-4 -0.27697,0.0528 -0.37392,0.14954 l -2.4211304,2.42085 c -0.19663,0.19249 -0.19663,0.55526 0,0.74774 L 12.88829,12.08529 c 0.0989,0.0988 0.23412,0.1529 0.37392,0.14955 0.1342,-10e-4 0.2696,-0.0547 0.36457,-0.14955 l 2.43047,-2.4301898 c 0.0968,-0.097 0.15066,-0.22754 0.14957,-0.36453 l 0,-1.67309 3.6457,-3.64529 c 0.19664,-0.19249 0.19664,-0.55525 0,-0.74774 l -1.07501,-1.0749 c -0.0963,-0.0983 -0.23678,-0.14955 -0.37392,-0.14955 z m -9.6658004,7.76726 c -0.1342,10e-4 -0.2696,0.0641 -0.36457,0.1589 L 5.9427486,12.347 c -0.09681,0.097 -0.150662,0.23689 -0.149567,0.37387 l 0,1.66375 -3.645707,3.65464 c -0.196633,0.19248 -0.196633,0.5459 0,0.73839 l 1.075016,1.0749 c 0.192517,0.1966 0.545972,0.1966 0.738489,0 l 3.65506,-3.64529 1.66393,0 c 0.13701,10e-4 0.27697,-0.0528 0.37392,-0.14954 L 12.07502,13.62753 c 0.19663,-0.1925 0.19663,-0.54592 0,-0.7384 L 9.1117096,9.9261602 c -0.0989,-0.0988 -0.23412,-0.16225 -0.37392,-0.1589 z" />
</svg>
