<?xml version="1.0" encoding="UTF-8" standalone="no"?>
<!-- Created with Inkscape (http://www.inkscape.org/) -->

<svg
   xmlns:dc="http://purl.org/dc/elements/1.1/"
   xmlns:cc="http://creativecommons.org/ns#"
   xmlns:rdf="http://www.w3.org/1999/02/22-rdf-syntax-ns#"
   xmlns:svg="http://www.w3.org/2000/svg"
   xmlns="http://www.w3.org/2000/svg"
   xmlns:sodipodi="http://sodipodi.sourceforge.net/DTD/sodipodi-0.dtd"
   xmlns:inkscape="http://www.inkscape.org/namespaces/inkscape"
   id="svg7384"
   height="22"
   width="22"
   version="1.1"
   inkscape:version="0.91+devel r"
   sodipodi:docname="run_B.svg"
   viewBox="0 0 22 22">
  <defs
     id="defs10" />
  <sodipodi:namedview
     pagecolor="#ffffff"
     bordercolor="#666666"
     borderopacity="1"
     objecttolerance="10"
     gridtolerance="10"
     guidetolerance="10"
     inkscape:pageopacity="0"
     inkscape:pageshadow="2"
     inkscape:window-width="983"
     inkscape:window-height="718"
     id="namedview8"
     showgrid="false"
     inkscape:zoom="11.313709"
     inkscape:cx="-1.5428309"
     inkscape:cy="7.3958334"
     inkscape:window-x="75"
     inkscape:window-y="34"
     inkscape:window-maximized="0"
     inkscape:current-layer="svg7384"
     inkscape:document-units="px" />
  <metadata
     id="metadata90">
    <rdf:RDF>
      <cc:Work
         rdf:about="">
        <dc:format>image/svg+xml</dc:format>
        <dc:type
           rdf:resource="http://purl.org/dc/dcmitype/StillImage" />
        <dc:title>Gnome Symbolic Icon Theme</dc:title>
      </cc:Work>
    </rdf:RDF>
  </metadata>
  <title
     id="title9167">Gnome Symbolic Icon Theme</title>
  <path
     inkscape:connector-curvature="0"
     id="path3774"
     d="m 9.8889807,19.77498 c -0.28492,-0.31444 -0.42771,-0.61919 -0.42771,-0.91285 0,-0.38555 -0.37374,-0.7097 -1.21176,-1.05098 -0.94008,-0.38284 -1.08828,-0.38363 -1.76378,-0.009 -0.82601,0.45766 -1.01976,0.41665 -1.81684,-0.38457 -0.79837,-0.8025 -0.83723,-0.99147 -0.38079,-1.85127 0.37179,-0.70033 0.37391,-0.64134 -0.0605,-1.68749 -0.39817,-0.95901 -0.55306,-1.11008 -1.34786,-1.31453 -0.75632,-0.19494 -0.87977,-0.40002 -0.87977,-1.4619 0,-1.06252 0.14205,-1.3026302 0.92149,-1.5576401 0.68453,-0.22396 0.84475,-0.37494 1.18035,-1.11235 0.44315,-0.97373 0.45659,-1.2780301 0.0876,-1.9819901 -0.41199,-0.78593 -0.36065,-1.03116 0.37158,-1.77496 0.64964,-0.65989 1.31007,-0.7972099 1.83561,-0.38167 0.43342,0.34269 0.68924,0.34254 1.57527,-9e-4 0.9751,-0.3779899 1.17663,-0.5689799 1.43049,-1.3556499 0.27883,-0.86405 0.39729,-0.9372301 1.5172303,-0.9372301 1.20851,0 1.30782,0.0875 1.68032,1.4801901 0.0592,0.2213 0.35709,0.39495 1.47468,0.8596399 0.53971,0.22441 0.75765,0.20273 1.405499,-0.13983 0.86603,-0.4579199 1.15699,-0.3844799 1.97979,0.49972 0.55881,0.60051 0.60979,1.16617 0.16018,1.77744 -0.29808,0.40527 -0.28035,0.70757 0.0949,1.6177901 0.3976,0.96451 0.49971,1.06642 1.31229,1.30967 0.90175,0.26995 1.01071,0.46758 0.96369,1.7479301 -0.0394,1.07253 -0.16012,1.28619 -0.78337,1.38637 -0.83906,0.13486 -1.05464,0.32127 -1.439,1.24421 -0.395,0.9485 -0.38034,1.1683 0.12973,1.94461 0.34723,0.52847 0.1928,0.97535 -0.59961,1.7351 -0.67479,0.64698 -1.10878,0.69136 -1.84477,0.18865 -0.47683,-0.3257 -0.55781,-0.31997 -1.613519,0.11404 -0.96736,0.3977 -1.08058,0.52446 -1.28492,1.43868 C 12.401781,19.89187 12.198501,20 11.059401,20 c -0.87554,0 -0.98566,-0.0212 -1.1703603,-0.225 z m 2.3090103,-6.15944 c 1.84779,-0.87869 2.25872,-3.2124 0.82491,-4.6847501 -1.47643,-1.51612 -4.0102903,-0.95798 -4.7574503,1.0479399 -0.90331,2.4251302 1.60417,4.7440402 3.9325403,3.6368102 z"
     style="opacity:0.9;fill:#323232;fill-opacity:1" />
</svg>
