<svg version="1.1" viewBox="0.0 0.0 1906.1968503937007 1033.3858267716535" fill="none" stroke="none" stroke-linecap="square" stroke-miterlimit="10" xmlns:xlink="http://www.w3.org/1999/xlink" xmlns="http://www.w3.org/2000/svg"><clipPath id="p.0"><path d="m0 0l1906.1969 0l0 1033.3859l-1906.1969 0l0 -1033.3859z" clip-rule="nonzero"/></clipPath><g clip-path="url(#p.0)"><path fill="#000000" fill-opacity="0.0" d="m0 0l1906.1969 0l0 1033.3859l-1906.1969 0z" fill-rule="evenodd"/><g filter="url(#shadowFilter-p.1)"><use xlink:href="#p.1" transform="matrix(1.0 0.0 0.0 1.0 0.0 2.0)"/></g><defs><filter id="shadowFilter-p.1" filterUnits="userSpaceOnUse"><feGaussianBlur in="SourceAlpha" stdDeviation="2.0" result="blur"/><feComponentTransfer in="blur" color-interpolation-filters="sRGB"><feFuncR type="linear" slope="0" intercept="0.49803922"/><feFuncG type="linear" slope="0" intercept="0.3764706"/><feFuncB type="linear" slope="0" intercept="0.0"/><feFuncA type="linear" slope="0.5" intercept="0"/></feComponentTransfer></filter></defs><g id="p.1"><path fill="#ffe599" d="m40.774723 523.27985l0 0c-2.1669388 -15.640106 4.9475555 -31.122894 18.324547 -39.878387c13.376987 -8.755524 30.670437 -9.24823 44.542095 -1.269104l0 0c4.913765 -9.093811 13.907387 -15.372467 24.260475 -16.936768c10.353088 -1.564331 20.849625 1.7694092 28.314621 8.992859l0 0c4.185898 -8.245056 12.4049835 -13.784668 21.740692 -14.653107c9.335709 -0.8684387 18.466797 3.05719 24.153107 10.383881l0 0c7.562439 -8.739716 19.594452 -12.419525 30.88974 -9.447113c11.295288 2.972412 19.825104 12.063171 21.89856 23.338623l0 0c9.265259 2.4821167 16.983032 8.791992 21.159271 17.299347c4.1762695 8.507355 4.401306 18.377655 0.6170349 27.0607l0 0c9.123566 11.6622925 11.2578125 27.202148 5.6062317 40.820374c-5.651581 13.618225 -18.239868 23.26886 -33.06714 25.350403c-0.104522705 12.781189 -7.2415924 24.509094 -18.660309 30.663208c-11.418716 6.154114 -25.335983 5.7734985 -36.38748 -0.9951782l0 0c-4.707367 15.307678 -17.957 26.570923 -34.024567 28.923645c-16.067581 2.3526611 -32.072678 -4.627014 -41.100502 -17.923584l0 0c-11.0662155 6.553955 -24.344757 8.441895 -36.84025 5.238037c-12.495499 -3.2038574 -23.15538 -11.229614 -29.575005 -22.266907l0 0c-11.308285 1.2996826 -22.241835 -4.454529 -27.374367 -14.40686c-5.132532 -9.9522705 -3.3714542 -21.98407 4.4092197 -30.123962l0 0c-10.087284 -5.8310547 -15.234425 -17.401794 -12.757389 -28.678528c2.4770336 -11.276794 12.016939 -19.704163 23.64503 -20.887634z" fill-rule="evenodd"/><path fill="#000000" fill-opacity="0.0" d="m29.663555 573.44885l0 0c4.7602196 2.751648 10.259388 3.999878 15.759155 3.5770874m7.203514 40.954712c2.3651009 -0.2718506 4.6833496 -0.84747314 6.8949623 -1.7120361m59.516983 18.740234c-1.6634521 -2.4500122 -3.0561905 -5.068054 -4.1544647 -7.8095703m79.2824 -3.190979l0 0c0.85821533 -2.7908325 1.4142761 -5.663208 1.6588898 -8.569153m53.38681 -21.097778c0.11126709 -13.607544 -7.758072 -26.066772 -20.227905 -32.026062m47.688553 -34.14331c-2.0194397 4.633606 -5.102356 8.744019 -9.007019 12.008972m-12.767395 -56.37024l0 0c0.34410095 1.8711548 0.5033417 3.7704468 0.4755249 5.6715393m-53.26291 -19.5625l0 0c-1.8864594 2.1801453 -3.4406433 4.616394 -4.6141663 7.2329407m-41.280075 -2.9646606l0 0c-1.00531 1.9801941 -1.756012 4.0755615 -2.2348175 6.2378845m-50.34104 1.7062073l0 0c2.935234 1.688385 5.6507263 3.72052 8.086815 6.051819m-70.95265 35.095886l0 0c0.29866028 2.1556396 0.7705612 4.284668 1.4112816 6.3671875" fill-rule="evenodd"/><path stroke="#ffe599" stroke-width="1.0" stroke-linejoin="round" stroke-linecap="butt" d="m40.774723 523.27985l0 0c-2.1669388 -15.640106 4.9475555 -31.122894 18.324547 -39.878387c13.376987 -8.755524 30.670437 -9.24823 44.542095 -1.269104l0 0c4.913765 -9.093811 13.907387 -15.372467 24.260475 -16.936768c10.353088 -1.564331 20.849625 1.7694092 28.314621 8.992859l0 0c4.185898 -8.245056 12.4049835 -13.784668 21.740692 -14.653107c9.335709 -0.8684387 18.466797 3.05719 24.153107 10.383881l0 0c7.562439 -8.739716 19.594452 -12.419525 30.88974 -9.447113c11.295288 2.972412 19.825104 12.063171 21.89856 23.338623l0 0c9.265259 2.4821167 16.983032 8.791992 21.159271 17.299347c4.1762695 8.507355 4.401306 18.377655 0.6170349 27.0607l0 0c9.123566 11.6622925 11.2578125 27.202148 5.6062317 40.820374c-5.651581 13.618225 -18.239868 23.26886 -33.06714 25.350403c-0.104522705 12.781189 -7.2415924 24.509094 -18.660309 30.663208c-11.418716 6.154114 -25.335983 5.7734985 -36.38748 -0.9951782l0 0c-4.707367 15.307678 -17.957 26.570923 -34.024567 28.923645c-16.067581 2.3526611 -32.072678 -4.627014 -41.100502 -17.923584l0 0c-11.0662155 6.553955 -24.344757 8.441895 -36.84025 5.238037c-12.495499 -3.2038574 -23.15538 -11.229614 -29.575005 -22.266907l0 0c-11.308285 1.2996826 -22.241835 -4.454529 -27.374367 -14.40686c-5.132532 -9.9522705 -3.3714542 -21.98407 4.4092197 -30.123962l0 0c-10.087284 -5.8310547 -15.234425 -17.401794 -12.757389 -28.678528c2.4770336 -11.276794 12.016939 -19.704163 23.64503 -20.887634z" fill-rule="evenodd"/><path stroke="#ffe599" stroke-width="1.0" stroke-linejoin="round" stroke-linecap="butt" d="m29.663555 573.44885l0 0c4.7602196 2.751648 10.259388 3.999878 15.759155 3.5770874m7.203514 40.954712c2.3651009 -0.2718506 4.6833496 -0.84747314 6.8949623 -1.7120361m59.516983 18.740234c-1.6634521 -2.4500122 -3.0561905 -5.068054 -4.1544647 -7.8095703m79.2824 -3.190979l0 0c0.85821533 -2.7908325 1.4142761 -5.663208 1.6588898 -8.569153m53.38681 -21.097778c0.11126709 -13.607544 -7.758072 -26.066772 -20.227905 -32.026062m47.688553 -34.14331c-2.0194397 4.633606 -5.102356 8.744019 -9.007019 12.008972m-12.767395 -56.37024l0 0c0.34410095 1.8711548 0.5033417 3.7704468 0.4755249 5.6715393m-53.26291 -19.5625l0 0c-1.8864594 2.1801453 -3.4406433 4.616394 -4.6141663 7.2329407m-41.280075 -2.9646606l0 0c-1.00531 1.9801941 -1.756012 4.0755615 -2.2348175 6.2378845m-50.34104 1.7062073l0 0c2.935234 1.688385 5.6507263 3.72052 8.086815 6.051819m-70.95265 35.095886l0 0c0.29866028 2.1556396 0.7705612 4.284668 1.4112816 6.3671875" fill-rule="evenodd"/><path fill="#7f6000" d="m98.24229 566.6968l0 -30.53125l12.96875 0q4.90625 0 7.125 0.828125q2.21875 0.8125 3.546875 2.921875q1.328125 2.09375 1.328125 4.8125q0 3.4375 -2.015625 5.671875q-2.015625 2.234375 -6.046875 2.828125q2.0 1.15625 3.296875 2.5625q1.3125 1.390625 3.515625 4.953125l3.734375 5.953125l-7.375 0l-4.453125 -6.640625q-2.375 -3.5625 -3.25 -4.484375q-0.875 -0.9375 -1.859375 -1.28125q-0.984375 -0.34375 -3.09375 -0.34375l-1.25 0l0 12.75l-6.171875 0zm6.171875 -17.625l4.546875 0q4.4375 0 5.546875 -0.375q1.109375 -0.375 1.734375 -1.28125q0.625 -0.921875 0.625 -2.296875q0 -1.546875 -0.828125 -2.484375q-0.828125 -0.953125 -2.328125 -1.203125q-0.75 -0.109375 -4.5 -0.109375l-4.796875 0l0 7.75zm23.367477 2.546875q0 -4.671875 1.3906174 -7.828125q1.046875 -2.34375 2.84375 -4.1875q1.796875 -1.859375 3.953125 -2.75q2.84375 -1.21875 6.578125 -1.21875q6.75 0 10.796875 4.1875q4.046875 4.1875 4.046875 11.65625q0 7.390625 -4.015625 11.5625q-4.015625 4.171875 -10.75 4.171875q-6.8125 0 -10.828125 -4.15625q-4.0156174 -4.15625 -4.0156174 -11.4375zm6.3437424 -0.203125q0 5.171875 2.390625 7.859375q2.40625 2.671875 6.09375 2.671875q3.6875 0 6.046875 -2.65625q2.359375 -2.65625 2.359375 -7.96875q0 -5.25 -2.296875 -7.828125q-2.296875 -2.578125 -6.109375 -2.578125q-3.8125 0 -6.15625 2.609375q-2.328125 2.609375 -2.328125 7.890625zm26.523148 5.34375l6.0 -0.578125q0.53125 3.015625 2.1875 4.4375q1.65625 1.40625 4.46875 1.40625q2.984375 0 4.484375 -1.25q1.515625 -1.265625 1.515625 -2.953125q0 -1.078125 -0.640625 -1.828125q-0.625 -0.765625 -2.21875 -1.328125q-1.078125 -0.375 -4.9375 -1.34375q-4.953125 -1.21875 -6.953125 -3.015625q-2.8125 -2.515625 -2.8125 -6.140625q0 -2.34375 1.328125 -4.375q1.328125 -2.03125 3.8125 -3.09375q2.484375 -1.0625 6.0 -1.0625q5.75 0 8.65625 2.53125q2.90625 2.515625 3.0625 6.71875l-6.171875 0.28125q-0.390625 -2.359375 -1.703125 -3.390625q-1.296875 -1.03125 -3.90625 -1.03125q-2.6875 0 -4.203125 1.109375q-0.96875 0.703125 -0.96875 1.890625q0 1.078125 0.90625 1.859375q1.171875 0.96875 5.671875 2.03125q4.5 1.0625 6.65625 2.203125q2.15625 1.140625 3.375 3.109375q1.21875 1.96875 1.21875 4.859375q0 2.625 -1.46875 4.921875q-1.453125 2.28125 -4.125 3.40625q-2.65625 1.109375 -6.640625 1.109375q-5.78125 0 -8.890625 -2.671875q-3.109375 -2.6875 -3.703125 -7.8125z" fill-rule="nonzero"/></g><g filter="url(#shadowFilter-p.2)"><use xlink:href="#p.2" transform="matrix(1.0 0.0 0.0 1.0 0.0 2.0)"/></g><defs><filter id="shadowFilter-p.2" filterUnits="userSpaceOnUse"><feGaussianBlur in="SourceAlpha" stdDeviation="2.0" result="blur"/><feComponentTransfer in="blur" color-interpolation-filters="sRGB"><feFuncR type="linear" slope="0" intercept="0.49803922"/><feFuncG type="linear" slope="0" intercept="0.3764706"/><feFuncB type="linear" slope="0" intercept="0.0"/><feFuncA type="linear" slope="0.5" intercept="0"/></feComponentTransfer></filter></defs><g id="p.2"><path fill="#ffe599" d="m479.9987 540.1627l-119.51181 0l0 -15.566895l-31.13385 31.13385l31.13385 31.13385l0 -15.566956l119.51181 0z" fill-rule="evenodd"/><path stroke="#ffe599" stroke-width="1.0" stroke-linejoin="round" stroke-linecap="butt" d="m479.9987 540.1627l-119.51181 0l0 -15.566895l-31.13385 31.13385l31.13385 31.13385l0 -15.566956l119.51181 0z" fill-rule="evenodd"/></g><path fill="#ffffff" d="m508.06375 168.91422l0 0c0 -40.269424 32.644806 -72.91424 72.914215 -72.91424l916.15717 0c19.338013 0 37.884033 7.6820145 51.558105 21.356087c13.674072 13.674072 21.35608 32.220093 21.35608 51.55815l0 726.2471c0 40.26941 -32.644775 72.914246 -72.914185 72.914246l-916.15717 0c-40.26941 0 -72.914215 -32.644836 -72.914215 -72.914246z" fill-rule="evenodd"/><path stroke="#000000" stroke-width="1.0" stroke-linejoin="round" stroke-linecap="butt" d="m508.06375 168.91422l0 0c0 -40.269424 32.644806 -72.91424 72.914215 -72.91424l916.15717 0c19.338013 0 37.884033 7.6820145 51.558105 21.356087c13.674072 13.674072 21.35608 32.220093 21.35608 51.55815l0 726.2471c0 40.26941 -32.644775 72.914246 -72.914185 72.914246l-916.15717 0c-40.26941 0 -72.914215 -32.644836 -72.914215 -72.914246z" fill-rule="evenodd"/><path fill="#000000" fill-opacity="0.0" d="m1490.9631 97.60551l-2.6419678 870.47" fill-rule="evenodd"/><path stroke="#000000" stroke-width="1.0" stroke-linejoin="round" stroke-linecap="butt" d="m1490.9631 97.60551l-2.6419678 870.47" fill-rule="evenodd"/><path fill="#ffffff" d="m1509.814 919.92163l0 -775.82715l38.180176 0l0 775.82715z" fill-rule="evenodd"/><path stroke="#ffffff" stroke-width="1.0" stroke-linejoin="round" stroke-linecap="butt" d="m1509.814 919.92163l0 -775.82715l38.180176 0l0 775.82715z" fill-rule="evenodd"/><path fill="#666666" d="m1518.7378 708.57935l-5.59375 0l0 -6.046875l5.59375 0l0 6.046875zm25.90625 0l-22.8125 0l0 -6.046875l22.8125 0l0 6.046875zm0 -12.318359l-31.5 0l0 -21.59375l5.328125 0l0 15.234375l7.453125 0l0 -13.140625l5.328125 0l0 13.140625l13.390625 0l0 6.359375zm0 -32.564453l0 6.03125l-22.8125 0l0 -5.609375l3.234375 0q-2.296875 -1.4375 -3.015625 -2.578125q-0.734375 -1.15625 -0.734375 -2.609375q0 -2.0625 1.140625 -3.984375l5.25 1.875q-0.984375 1.53125 -0.984375 2.828125q0 1.28125 0.703125 2.15625q0.703125 0.875 2.53125 1.390625q1.8125 0.5 7.640625 0.5l7.046875 0zm-15.859375 -15.857422l-0.984375 5.484375q-3.3125 -0.921875 -4.890625 -3.171875q-1.59375 -2.265625 -1.59375 -6.71875q0 -4.03125 0.953125 -6.0q0.953125 -1.984375 2.421875 -2.78125q1.46875 -0.8125 5.40625 -0.8125l7.046875 0.0625q3.015625 0 4.4375 -0.28125q1.421875 -0.296875 3.0625 -1.09375l0 5.96875q-0.609375 0.234375 -1.78125 0.578125q-0.546875 0.15625 -0.71875 0.21875q1.515625 1.546875 2.265625 3.3125q0.75 1.75 0.75 3.75q0 3.53125 -1.90625 5.5625q-1.921875 2.03125 -4.84375 2.03125q-1.9375 0 -3.4375 -0.921875q-1.515625 -0.9375 -2.328125 -2.59375q-0.8125 -1.671875 -1.40625 -4.8125q-0.796875 -4.21875 -1.484375 -5.859375l-0.59375 0q-1.75 0 -2.484375 0.859375q-0.75 0.859375 -0.75 3.25q0 1.609375 0.640625 2.515625q0.625 0.890625 2.21875 1.453125zm4.90625 -8.078125q0.375 1.15625 0.921875 3.671875q0.53125 2.515625 1.046875 3.296875q0.84375 1.171875 2.125 1.171875q1.265625 0 2.203125 -0.9375q0.921875 -0.953125 0.921875 -2.40625q0 -1.640625 -1.078125 -3.125q-0.8125 -1.09375 -2.0 -1.4375q-0.765625 -0.234375 -2.9375 -0.234375l-1.203125 0zm-11.859375 -11.423828l0 -5.5625l3.109375 0q-3.625 -3.0 -3.625 -7.125q0 -2.1875 0.90625 -3.796875q0.890625 -1.609375 2.71875 -2.640625q-1.828125 -1.5 -2.71875 -3.234375q-0.90625 -1.75 -0.90625 -3.734375q0 -2.5 1.015625 -4.234375q1.015625 -1.75 3.0 -2.609375q1.453125 -0.625 4.71875 -0.625l14.59375 0l0 6.03125l-13.046875 0q-3.390625 0 -4.375 0.625q-1.296875 0.84375 -1.296875 2.578125q0 1.265625 0.78125 2.390625q0.765625 1.109375 2.265625 1.609375q1.484375 0.5 4.71875 0.5l10.953125 0l0 6.03125l-12.5 0q-3.328125 0 -4.296875 0.328125q-0.96875 0.3125 -1.4375 1.0q-0.484375 0.671875 -0.484375 1.828125q0 1.390625 0.765625 2.515625q0.75 1.109375 2.171875 1.59375q1.40625 0.484375 4.6875 0.484375l11.09375 0l0 6.046875l-22.8125 0zm15.546875 -52.79492l1.015625 -6.015625q3.3125 1.15625 5.046875 3.671875q1.71875 2.5 1.71875 6.25q0 5.953125 -3.890625 8.8125q-3.109375 2.265625 -7.859375 2.265625q-5.671875 0 -8.875 -2.96875q-3.21875 -2.96875 -3.21875 -7.5q0 -5.09375 3.359375 -8.03125q3.359375 -2.953125 10.296875 -2.8125l0 15.125q2.6875 -0.078125 4.1875 -1.46875q1.484375 -1.390625 1.484375 -3.484375q0 -1.40625 -0.765625 -2.375q-0.78125 -0.96875 -2.5 -1.46875zm-6.09375 -0.34375q-2.625 0.0625 -3.984375 1.359375q-1.375 1.28125 -1.375 3.140625q0 1.96875 1.4375 3.265625q1.453125 1.28125 3.921875 1.265625l0 -9.03125zm13.359375 -18.048828l-26.171875 0l0 9.34375l-5.328125 0l0 -25.015625l5.328125 0l0 9.3125l26.171875 0l0 6.359375zm0 -23.089844l0 6.03125l-22.8125 0l0 -5.609375l3.234375 0q-2.296875 -1.4375 -3.015625 -2.578125q-0.734375 -1.15625 -0.734375 -2.609375q0 -2.0625 1.140625 -3.984375l5.25 1.875q-0.984375 1.53125 -0.984375 2.828125q0 1.28125 0.703125 2.15625q0.703125 0.875 2.53125 1.390625q1.8125 0.5 7.640625 0.5l7.046875 0zm-15.859375 -15.857422l-0.984375 5.484375q-3.3125 -0.921875 -4.890625 -3.171875q-1.59375 -2.265625 -1.59375 -6.71875q0 -4.03125 0.953125 -6.0q0.953125 -1.984375 2.421875 -2.78125q1.46875 -0.8125 5.40625 -0.8125l7.046875 0.0625q3.015625 0 4.4375 -0.28125q1.421875 -0.296875 3.0625 -1.09375l0 5.96875q-0.609375 0.234375 -1.78125 0.578125q-0.546875 0.15625 -0.71875 0.21875q1.515625 1.546875 2.265625 3.3125q0.75 1.75 0.75 3.75q0 3.53125 -1.90625 5.5625q-1.921875 2.03125 -4.84375 2.03125q-1.9375 0 -3.4375 -0.921875q-1.515625 -0.9375 -2.328125 -2.59375q-0.8125 -1.671875 -1.40625 -4.8125q-0.796875 -4.21875 -1.484375 -5.859375l-0.59375 0q-1.75 0 -2.484375 0.859375q-0.75 0.859375 -0.75 3.25q0 1.609375 0.640625 2.515625q0.625 0.890625 2.21875 1.453125zm4.90625 -8.078125q0.375 1.15625 0.921875 3.671875q0.53125 2.515625 1.046875 3.296875q0.84375 1.171875 2.125 1.171875q1.265625 0 2.203125 -0.9375q0.921875 -0.953125 0.921875 -2.40625q0 -1.640625 -1.078125 -3.125q-0.8125 -1.09375 -2.0 -1.4375q-0.765625 -0.234375 -2.9375 -0.234375l-1.203125 0zm10.953125 -32.626953l0 6.03125l-11.640625 0q-3.703125 0 -4.78125 0.390625q-1.09375 0.375 -1.6875 1.25q-0.609375 0.875 -0.609375 2.09375q0 1.578125 0.859375 2.828125q0.859375 1.234375 2.28125 1.703125q1.421875 0.453125 5.25 0.453125l10.328125 0l0 6.046875l-22.8125 0l0 -5.609375l3.34375 0q-3.859375 -2.984375 -3.859375 -7.53125q0 -1.984375 0.71875 -3.640625q0.71875 -1.65625 1.84375 -2.5q1.109375 -0.859375 2.53125 -1.1875q1.40625 -0.328125 4.046875 -0.328125l14.1875 0zm-6.515625 -4.001953l-0.921875 -6.0625q1.765625 -0.390625 2.6875 -1.5625q0.90625 -1.1875 0.90625 -3.3125q0 -2.34375 -0.859375 -3.515625q-0.609375 -0.796875 -1.609375 -0.796875q-0.6875 0 -1.140625 0.421875q-0.4375 0.453125 -0.796875 2.015625q-1.609375 7.3125 -2.9375 9.265625q-1.859375 2.703125 -5.140625 2.703125q-2.96875 0 -4.984375 -2.328125q-2.015625 -2.34375 -2.015625 -7.265625q0 -4.6875 1.53125 -6.96875q1.515625 -2.28125 4.5 -3.140625l1.046875 5.703125q-1.328125 0.359375 -2.03125 1.390625q-0.71875 1.015625 -0.71875 2.90625q0 2.375 0.671875 3.40625q0.46875 0.6875 1.21875 0.6875q0.65625 0 1.109375 -0.59375q0.59375 -0.8125 1.6875 -5.640625q1.09375 -4.828125 2.6875 -6.734375q1.609375 -1.890625 4.484375 -1.890625q3.140625 0 5.40625 2.625q2.25 2.609375 2.25 7.75q0 4.65625 -1.890625 7.375q-1.890625 2.71875 -5.140625 3.5625zm-16.296875 -23.955078l0 -3.359375l-1.71875 0q-2.890625 0 -4.296875 -0.609375q-1.421875 -0.609375 -2.3125 -2.25q-0.890625 -1.640625 -0.890625 -4.15625q0 -2.578125 0.765625 -5.046875l4.21875 0.8125q-0.34375 1.4375 -0.34375 2.765625q0 1.3125 0.609375 1.890625q0.609375 0.5625 2.359375 0.5625l1.609375 0l0 -4.515625l4.75 0l0 4.515625l18.0625 0l0 6.03125l-18.0625 0l0 3.359375l-4.75 0zm11.078125 -15.902344q-3.0 0 -5.8125 -1.484375q-2.828125 -1.484375 -4.296875 -4.1875q-1.484375 -2.71875 -1.484375 -6.078125q0 -5.171875 3.359375 -8.484375q3.359375 -3.3125 8.5 -3.3125q5.171875 0 8.578125 3.34375q3.40625 3.34375 3.40625 8.40625q0 3.140625 -1.421875 5.984375q-1.421875 2.84375 -4.15625 4.328125q-2.734375 1.484375 -6.671875 1.484375zm0.328125 -6.1875q3.390625 0 5.203125 -1.609375q1.796875 -1.609375 1.796875 -3.96875q0 -2.375 -1.796875 -3.96875q-1.8125 -1.59375 -5.25 -1.59375q-3.34375 0 -5.140625 1.59375q-1.8125 1.59375 -1.8125 3.96875q0 2.359375 1.8125 3.96875q1.796875 1.609375 5.1875 1.609375zm11.40625 -27.861328l0 6.03125l-22.8125 0l0 -5.609375l3.234375 0q-2.296875 -1.4375 -3.015625 -2.578125q-0.734375 -1.15625 -0.734375 -2.609375q0 -2.0625 1.140625 -3.984375l5.25 1.875q-0.984375 1.53125 -0.984375 2.828125q0 1.28125 0.703125 2.15625q0.703125 0.875 2.53125 1.390625q1.8125 0.5 7.640625 0.5l7.046875 0zm-22.8125 -10.888672l0 -5.5625l3.109375 0q-3.625 -3.0 -3.625 -7.125q0 -2.1875 0.90625 -3.796875q0.890625 -1.609375 2.71875 -2.640625q-1.828125 -1.5 -2.71875 -3.234375q-0.90625 -1.75 -0.90625 -3.734375q0 -2.5 1.015625 -4.234375q1.015625 -1.75 3.0 -2.609375q1.453125 -0.625 4.71875 -0.625l14.59375 0l0 6.03125l-13.046875 0q-3.390625 0 -4.375 0.625q-1.296875 0.84375 -1.296875 2.578125q0 1.265625 0.78125 2.390625q0.765625 1.109375 2.265625 1.609375q1.484375 0.5 4.71875 0.5l10.953125 0l0 6.03125l-12.5 0q-3.328125 0 -4.296875 0.328125q-0.96875 0.3125 -1.4375 1.0q-0.484375 0.671875 -0.484375 1.828125q0 1.390625 0.765625 2.515625q0.75 1.109375 2.171875 1.59375q1.40625 0.484375 4.6875 0.484375l11.09375 0l0 6.046875l-22.8125 0z" fill-rule="nonzero"/><g filter="url(#shadowFilter-p.3)"><use xlink:href="#p.3" transform="matrix(1.0 0.0 0.0 1.0 0.0 2.0)"/></g><defs><filter id="shadowFilter-p.3" filterUnits="userSpaceOnUse"><feGaussianBlur in="SourceAlpha" stdDeviation="2.0" result="blur"/><feComponentTransfer in="blur" color-interpolation-filters="sRGB"><feFuncR type="linear" slope="0" intercept="0.1254902"/><feFuncG type="linear" slope="0" intercept="0.07058824"/><feFuncB type="linear" slope="0" intercept="0.3019608"/><feFuncA type="linear" slope="0.5" intercept="0"/></feComponentTransfer></filter></defs><g id="p.3"><path fill="#d9d2e9" d="m1187.3175 284.89377l0 0c12.150757 -5.2521057 24.179321 11.991608 30.981567 44.414c6.802124 32.422394 7.1849365 74.33728 0.9859619 107.95865l0 0c7.0649414 11.9096985 11.942871 33.707947 13.158203 58.801178c1.21521 25.093231 -1.3747559 50.53415 -6.9865723 68.62735l0 0c6.4055176 10.145569 10.7092285 30.066528 11.383911 52.693848c0.6746826 22.62738 -2.375122 44.75885 -8.067139 58.541016l0 0c6.789795 18.329407 9.648682 47.491943 7.3393555 74.868774c-2.309204 27.376892 -9.371826 48.050964 -18.131714 53.076477l0 0c-1.9283447 22.456665 -6.8305664 41.162537 -13.439941 51.28473c-6.609375 10.122131 -14.277588 10.667603 -21.023438 1.4954834l0 0c-9.060425 22.11322 -21.1333 27.28601 -31.713379 13.588074c-10.579956 -13.697937 -18.077515 -44.20874 -19.694702 -80.1463c-9.92981 -0.2532959 -19.041138 -17.551758 -23.822266 -45.227783c-4.781128 -27.676025 -4.4854736 -61.407898 0.77319336 -88.19397l0 0c-11.892578 -11.409424 -20.643066 -43.523132 -22.470825 -82.4668c-1.8277588 -38.943726 3.5947266 -77.73596 13.924805 -99.617065l0 0c-5.091797 -26.821686 -6.5584717 -59.005463 -4.069458 -89.29135c2.4891357 -30.285858 8.724365 -56.12271 17.299194 -71.68222l0 0c-1.0096436 -27.408386 3.4606934 -53.90851 11.192749 -66.34845c7.7319336 -12.439941 17.079346 -8.171539 23.40332 10.686798l0 0c4.5301514 -24.448975 13.519409 -36.92433 22.280396 -30.920624c8.760864 6.0036926 15.308105 29.125977 16.22754 57.30948z" fill-rule="evenodd"/><path fill="#000000" fill-opacity="0.0" d="m1148.3412 257.96313l0 0c-2.1378174 11.537567 -3.107544 24.86615 -2.7790527 38.196167m-31.817749 17.459473c0.21118164 5.7323914 0.6583252 11.351227 1.3300781 16.711609m-14.559326 144.25394c1.9034424 -4.0317993 3.937378 -7.4074097 6.0672607 -10.069366m2.479126 192.16022l0 0c2.168213 2.0801392 4.399658 3.4278564 6.6573486 4.020752m16.39087 129.39594c10.571777 0.26971436 20.251343 -18.803589 24.881104 -49.027283m26.525879 115.58484c-3.5998535 -4.8945923 -6.793213 -12.366821 -9.329712 -21.830688m43.794067 -30.944885l0 0c-1.4537354 0.8339844 -2.9293213 1.2199707 -4.40625 1.1525879m15.19812 -129.0957l0 0c-1.6937256 -4.5722656 -3.5864258 -8.339233 -5.6192627 -11.183533m2.3032227 -100.05231l0 0c-1.5384521 -2.4366455 -3.1662598 -4.2561646 -4.8461914 -5.416626m-1.3255615 -122.013824l0 0c-1.3117676 7.114258 -2.890503 13.695923 -4.70166 19.600372m-27.265991 -171.97104l0 0c-1.6746826 0.72387695 -3.3287354 1.8676453 -4.9466553 3.4205933" fill-rule="evenodd"/><path stroke="#d9d2e9" stroke-width="1.0" stroke-linejoin="round" stroke-linecap="butt" d="m1187.3175 284.89377l0 0c12.150757 -5.2521057 24.179321 11.991608 30.981567 44.414c6.802124 32.422394 7.1849365 74.33728 0.9859619 107.95865l0 0c7.0649414 11.9096985 11.942871 33.707947 13.158203 58.801178c1.21521 25.093231 -1.3747559 50.53415 -6.9865723 68.62735l0 0c6.4055176 10.145569 10.7092285 30.066528 11.383911 52.693848c0.6746826 22.62738 -2.375122 44.75885 -8.067139 58.541016l0 0c6.789795 18.329407 9.648682 47.491943 7.3393555 74.868774c-2.309204 27.376892 -9.371826 48.050964 -18.131714 53.076477l0 0c-1.9283447 22.456665 -6.8305664 41.162537 -13.439941 51.28473c-6.609375 10.122131 -14.277588 10.667603 -21.023438 1.4954834l0 0c-9.060425 22.11322 -21.1333 27.28601 -31.713379 13.588074c-10.579956 -13.697937 -18.077515 -44.20874 -19.694702 -80.1463c-9.92981 -0.2532959 -19.041138 -17.551758 -23.822266 -45.227783c-4.781128 -27.676025 -4.4854736 -61.407898 0.77319336 -88.19397l0 0c-11.892578 -11.409424 -20.643066 -43.523132 -22.470825 -82.4668c-1.8277588 -38.943726 3.5947266 -77.73596 13.924805 -99.617065l0 0c-5.091797 -26.821686 -6.5584717 -59.005463 -4.069458 -89.29135c2.4891357 -30.285858 8.724365 -56.12271 17.299194 -71.68222l0 0c-1.0096436 -27.408386 3.4606934 -53.90851 11.192749 -66.34845c7.7319336 -12.439941 17.079346 -8.171539 23.40332 10.686798l0 0c4.5301514 -24.448975 13.519409 -36.92433 22.280396 -30.920624c8.760864 6.0036926 15.308105 29.125977 16.22754 57.30948z" fill-rule="evenodd"/><path stroke="#d9d2e9" stroke-width="1.0" stroke-linejoin="round" stroke-linecap="butt" d="m1148.3412 257.96313l0 0c-2.1378174 11.537567 -3.107544 24.86615 -2.7790527 38.196167m-31.817749 17.459473c0.21118164 5.7323914 0.6583252 11.351227 1.3300781 16.711609m-14.559326 144.25394c1.9034424 -4.0317993 3.937378 -7.4074097 6.0672607 -10.069366m2.479126 192.16022l0 0c2.168213 2.0801392 4.399658 3.4278564 6.6573486 4.020752m16.39087 129.39594c10.571777 0.26971436 20.251343 -18.803589 24.881104 -49.027283m26.525879 115.58484c-3.5998535 -4.8945923 -6.793213 -12.366821 -9.329712 -21.830688m43.794067 -30.944885l0 0c-1.4537354 0.8339844 -2.9293213 1.2199707 -4.40625 1.1525879m15.19812 -129.0957l0 0c-1.6937256 -4.5722656 -3.5864258 -8.339233 -5.6192627 -11.183533m2.3032227 -100.05231l0 0c-1.5384521 -2.4366455 -3.1662598 -4.2561646 -4.8461914 -5.416626m-1.3255615 -122.013824l0 0c-1.3117676 7.114258 -2.890503 13.695923 -4.70166 19.600372m-27.265991 -171.97104l0 0c-1.6746826 0.72387695 -3.3287354 1.8676453 -4.9466553 3.4205933" fill-rule="evenodd"/><path fill="#20124d" d="m1171.9977 355.6727l19.078125 0l0 3.84375l-19.078125 0l0 -3.84375zm0 20.062195l0 -3.65625l7.046875 0q2.25 0 2.90625 -0.234375q0.65625 -0.234375 1.015625 -0.765625q0.375 -0.515625 0.375 -1.265625q0 -0.953125 -0.53125 -1.703125q-0.515625 -0.75 -1.375 -1.03125q-0.859375 -0.28125 -3.171875 -0.28125l-6.265625 0l0 -3.65625l13.828125 0l0 3.390625l-2.03125 0q2.34375 1.8125 2.34375 4.5625q0 1.203125 -0.4375 2.203125q-0.4375 1.015625 -1.125 1.515625q-0.671875 0.515625 -1.53125 0.71875q-0.859375 0.203125 -2.453125 0.203125l-8.59375 0zm13.828125 10.04834l-2.921875 0l0 -2.5l-5.5625 0q-1.703125 0 -1.984375 0.0625q-0.28125 0.078125 -0.46875 0.328125q-0.171875 0.265625 -0.171875 0.625q0 0.515625 0.359375 1.46875l-2.84375 0.3125q-0.546875 -1.265625 -0.546875 -2.890625q0 -0.984375 0.328125 -1.78125q0.328125 -0.796875 0.859375 -1.171875q0.53125 -0.359375 1.421875 -0.5q0.640625 -0.125 2.578125 -0.125l6.03125 0l0 -1.671875l2.921875 0l0 1.671875l2.734375 0l2.140625 3.671875l-4.875 0l0 2.5zm-9.421875 10.5486145l-0.625 3.640625q-2.0 -0.703125 -3.046875 -2.21875q-1.046875 -1.515625 -1.046875 -3.796875q0 -3.609375 2.359375 -5.328125q1.890625 -1.375 4.765625 -1.375q3.4375 0 5.375 1.796875q1.953125 1.796875 1.953125 4.546875q0 3.078125 -2.046875 4.859375q-2.03125 1.78125 -6.234375 1.703125l0 -9.15625q-1.625 0.046875 -2.53125 0.890625q-0.90625 0.84375 -0.90625 2.109375q0 0.859375 0.46875 1.4375q0.46875 0.59375 1.515625 0.890625zm3.6875 0.203125q1.59375 -0.03125 2.421875 -0.8125q0.828125 -0.78125 0.828125 -1.90625q0 -1.203125 -0.875 -1.984375q-0.875 -0.78125 -2.375 -0.765625l0 5.46875zm-8.09375 10.121796l0 -3.671875l13.828125 0l0 3.40625l-1.96875 0q1.390625 0.875 1.828125 1.5625q0.453125 0.703125 0.453125 1.578125q0 1.25 -0.703125 2.421875l-3.1875 -1.140625q0.609375 -0.921875 0.609375 -1.71875q0 -0.765625 -0.421875 -1.296875q-0.421875 -0.53125 -1.53125 -0.84375q-1.109375 -0.296875 -4.640625 -0.296875l-4.265625 0zm0 19.436066l0 -3.65625l7.046875 0q2.25 0 2.90625 -0.234375q0.65625 -0.234375 1.015625 -0.765625q0.375 -0.515625 0.375 -1.265625q0 -0.953125 -0.53125 -1.703125q-0.515625 -0.75 -1.375 -1.03125q-0.859375 -0.28125 -3.171875 -0.28125l-6.265625 0l0 -3.65625l13.828125 0l0 3.390625l-2.03125 0q2.34375 1.8125 2.34375 4.5625q0 1.203125 -0.4375 2.203125q-0.4375 1.015625 -1.125 1.515625q-0.671875 0.515625 -1.53125 0.71875q-0.859375 0.203125 -2.453125 0.203125l-8.59375 0zm9.609375 6.4389343l0.59375 -3.3125q2.0 0.5625 2.96875 1.921875q0.96875 1.375 0.96875 4.0625q0 2.453125 -0.578125 3.640625q-0.578125 1.203125 -1.484375 1.6875q-0.890625 0.5 -3.265625 0.5l-4.265625 -0.046875q-1.828125 0 -2.703125 0.171875q-0.859375 0.171875 -1.84375 0.65625l0 -3.609375q0.359375 -0.140625 1.078125 -0.359375q0.328125 -0.09375 0.4375 -0.125q-0.921875 -0.9375 -1.375 -2.015625q-0.453125 -1.0625 -0.453125 -2.265625q0 -2.140625 1.15625 -3.375q1.15625 -1.21875 2.9375 -1.21875q1.171875 0 2.078125 0.546875q0.921875 0.5625 1.40625 1.578125q0.484375 1.015625 0.859375 2.90625q0.484375 2.5625 0.890625 3.5625l0.375 0q1.046875 0 1.5 -0.53125q0.453125 -0.515625 0.453125 -1.96875q0 -0.96875 -0.390625 -1.515625q-0.390625 -0.546875 -1.34375 -0.890625zm-2.96875 4.90625q-0.234375 -0.703125 -0.5625 -2.234375q-0.328125 -1.515625 -0.640625 -1.984375q-0.5 -0.71875 -1.28125 -0.71875q-0.765625 0 -1.328125 0.5625q-0.5625 0.578125 -0.5625 1.46875q0 0.984375 0.65625 1.890625q0.484375 0.65625 1.203125 0.859375q0.46875 0.15625 1.78125 0.15625l0.734375 0zm-6.640625 7.184326l19.078125 0l0 3.671875l-19.078125 0l0 -3.671875zm0 14.84317l19.078125 0l0 14.15625l-3.21875 0l0 -10.296875l-4.234375 0l0 9.578125l-3.21875 0l0 -9.578125l-5.1875 0l0 10.65625l-3.21875 0l0 -14.515625zm0 17.74826l19.078125 0l0 3.671875l-19.078125 0l0 -3.671875zm9.609375 10.14032l0.59375 -3.3125q2.0 0.5625 2.96875 1.921875q0.96875 1.375 0.96875 4.0625q0 2.453125 -0.578125 3.640625q-0.578125 1.203125 -1.484375 1.6875q-0.890625 0.5 -3.265625 0.5l-4.265625 -0.046875q-1.828125 0 -2.703125 0.171875q-0.859375 0.171875 -1.84375 0.65625l0 -3.609375q0.359375 -0.140625 1.078125 -0.359375q0.328125 -0.09375 0.4375 -0.125q-0.921875 -0.9375 -1.375 -2.015625q-0.453125 -1.0625 -0.453125 -2.265625q0 -2.140625 1.15625 -3.375q1.15625 -1.21875 2.9375 -1.21875q1.171875 0 2.078125 0.546875q0.921875 0.5625 1.40625 1.578125q0.484375 1.015625 0.859375 2.90625q0.484375 2.5625 0.890625 3.5625l0.375 0q1.046875 0 1.5 -0.53125q0.453125 -0.515625 0.453125 -1.96875q0 -0.96875 -0.390625 -1.515625q-0.390625 -0.546875 -1.34375 -0.890625zm-2.96875 4.90625q-0.234375 -0.703125 -0.5625 -2.234375q-0.328125 -1.515625 -0.640625 -1.984375q-0.5 -0.71875 -1.28125 -0.71875q-0.765625 0 -1.328125 0.5625q-0.5625 0.578125 -0.5625 1.46875q0 0.984375 0.65625 1.890625q0.484375 0.65625 1.203125 0.859375q0.46875 0.15625 1.78125 0.15625l0.734375 0zm-6.640625 7.028076l19.078125 0l0 3.671875l-6.875 0q1.9375 1.6875 1.9375 4.0q0 2.53125 -1.828125 4.171875q-1.828125 1.6562195 -5.265625 1.6562195q-3.53125 0 -5.453125 -1.6874695q-1.90625 -1.671875 -1.90625 -4.09375q0 -1.171875 0.59375 -2.328125q0.59375 -1.15625 1.75 -1.984375l-2.03125 0l0 -3.40625zm7.203125 3.640625q-2.140625 0 -3.171875 0.671875q-1.453125 0.953125 -1.453125 2.53125q0 1.203125 1.03125 2.046875q1.03125 0.859375 3.265625 0.859375q2.359375 0 3.40625 -0.859375q1.0625 -0.859375 1.0625 -2.1875q0 -1.328125 -1.03125 -2.203125q-1.015625 -0.859375 -3.109375 -0.859375zm-0.09375 11.954559q1.8125 0 3.515625 0.890625q1.71875 0.90625 2.609375 2.546875q0.90625 1.65625 0.90625 3.6875q0 3.140625 -2.046875 5.140625q-2.03125 2.0 -5.140625 2.0q-3.140625 0 -5.203125 -2.03125q-2.0625 -2.015625 -2.0625 -5.078125q0 -1.90625 0.859375 -3.640625q0.859375 -1.71875 2.515625 -2.625q1.65625 -0.890625 4.046875 -0.890625zm-0.203125 3.75q-2.046875 0 -3.140625 0.96875q-1.09375 0.984375 -1.09375 2.421875q0 1.421875 1.09375 2.390625q1.09375 0.984375 3.171875 0.984375q2.03125 0 3.125 -0.984375q1.09375 -0.96875 1.09375 -2.390625q0 -1.4375 -1.09375 -2.421875q-1.09375 -0.96875 -3.15625 -0.96875zm-6.90625 16.89209l0 -3.671875l13.828125 0l0 3.40625l-1.96875 0q1.390625 0.875 1.828125 1.5625q0.453125 0.703125 0.453125 1.578125q0 1.25 -0.703125 2.421875l-3.1875 -1.140625q0.609375 -0.921875 0.609375 -1.71875q0 -0.765625 -0.421875 -1.296875q-0.421875 -0.53125 -1.53125 -0.84375q-1.109375 -0.296875 -4.640625 -0.296875l-4.265625 0zm9.609375 9.592285l0.59375 -3.3125q2.0 0.5625 2.96875 1.921875q0.96875 1.375 0.96875 4.0625q0 2.453125 -0.578125 3.640625q-0.578125 1.203125 -1.484375 1.6875q-0.890625 0.5 -3.265625 0.5l-4.265625 -0.046875q-1.828125 0 -2.703125 0.171875q-0.859375 0.171875 -1.84375 0.65625l0 -3.609375q0.359375 -0.140625 1.078125 -0.359375q0.328125 -0.09375 0.4375 -0.125q-0.921875 -0.9375 -1.375 -2.015625q-0.453125 -1.0625 -0.453125 -2.265625q0 -2.140625 1.15625 -3.375q1.15625 -1.21875 2.9375 -1.21875q1.171875 0 2.078125 0.546875q0.921875 0.5625 1.40625 1.578125q0.484375 1.015625 0.859375 2.90625q0.484375 2.5625 0.890625 3.5625l0.375 0q1.046875 0 1.5 -0.53125q0.453125 -0.515625 0.453125 -1.96875q0 -0.96875 -0.390625 -1.515625q-0.390625 -0.546875 -1.34375 -0.890625zm-2.96875 4.90625q-0.234375 -0.703125 -0.5625 -2.234375q-0.328125 -1.515625 -0.640625 -1.984375q-0.5 -0.71875 -1.28125 -0.71875q-0.765625 0 -1.328125 0.5625q-0.5625 0.578125 -0.5625 1.46875q0 0.984375 0.65625 1.890625q0.484375 0.65625 1.203125 0.859375q0.46875 0.15625 1.78125 0.15625l0.734375 0zm7.1875 13.528076l-2.921875 0l0 -2.5l-5.5625 0q-1.703125 0 -1.984375 0.0625q-0.28125 0.078125 -0.46875 0.328125q-0.171875 0.265625 -0.171875 0.625q0 0.515625 0.359375 1.46875l-2.84375 0.3125q-0.546875 -1.265625 -0.546875 -2.890625q0 -0.984375 0.328125 -1.78125q0.328125 -0.796875 0.859375 -1.171875q0.53125 -0.359375 1.421875 -0.5q0.640625 -0.125 2.578125 -0.125l6.03125 0l0 -1.671875l2.921875 0l0 1.671875l2.734375 0l2.140625 3.671875l-4.875 0l0 2.5zm1.875 2.532959l3.375 0l0 3.671875l-3.375 0l0 -3.671875zm-15.703125 0l13.828125 0l0 3.671875l-13.828125 0l0 -3.671875zm7.109375 6.562195q1.8125 0 3.515625 0.890625q1.71875 0.90625 2.609375 2.546875q0.90625 1.65625 0.90625 3.6875q0 3.140625 -2.046875 5.140625q-2.03125 2.0 -5.140625 2.0q-3.140625 0 -5.203125 -2.03125q-2.0625 -2.015625 -2.0625 -5.078125q0 -1.90625 0.859375 -3.640625q0.859375 -1.71875 2.515625 -2.625q1.65625 -0.890625 4.046875 -0.890625zm-0.203125 3.75q-2.046875 0 -3.140625 0.96875q-1.09375 0.984375 -1.09375 2.421875q0 1.421875 1.09375 2.390625q1.09375 0.984375 3.171875 0.984375q2.03125 0 3.125 -0.984375q1.09375 -0.96875 1.09375 -2.390625q0 -1.4375 -1.09375 -2.421875q-1.09375 -0.96875 -3.15625 -0.96875zm-6.90625 25.95459l0 -3.65625l7.046875 0q2.25 0 2.90625 -0.234375q0.65625 -0.234375 1.015625 -0.765625q0.375 -0.515625 0.375 -1.265625q0 -0.953125 -0.53125 -1.703125q-0.515625 -0.75 -1.375 -1.03125q-0.859375 -0.28125 -3.171875 -0.28125l-6.265625 0l0 -3.65625l13.828125 0l0 3.390625l-2.03125 0q2.34375 1.8125 2.34375 4.5625q0 1.203125 -0.4375 2.203125q-0.4375 1.015625 -1.125 1.515625q-0.671875 0.515625 -1.53125 0.71875q-0.859375 0.203125 -2.453125 0.203125l-8.59375 0zm-0.328125 9.173035l19.734375 4.71875l0 2.75l-19.734375 -4.78125l0 -2.6875zm2.75 32.140015q-1.015625 1.421875 -1.609375 3.078125l-2.71875 -1.40625q0.25 -0.875 0.703125 -1.703125q0.09375 -0.1875 1.703125 -2.578125q-0.828125 -1.859375 -0.828125 -4.140625q0 -4.40625 2.59375 -6.90625q2.59375 -2.484375 7.28125 -2.484375q4.671875 0 7.265625 2.5q2.59375 2.5 2.59375 6.78125q0 4.25 -2.59375 6.734375q-2.59375 2.484375 -7.265625 2.484375q-2.484375 0 -4.359375 -0.6875q-1.421875 -0.53125 -2.765625 -1.671875zm2.171875 -3.09375q0.875 0.734375 2.109375 1.109375q1.234375 0.375 2.84375 0.375q3.296875 0 4.921875 -1.46875q1.640625 -1.453125 1.640625 -3.8125q0 -2.34375 -1.640625 -3.8125q-1.640625 -1.46875 -4.921875 -1.46875q-3.34375 0 -5.015625 1.46875q-1.65625 1.46875 -1.65625 3.703125q0 0.828125 0.28125 1.578125q0.765625 -1.171875 1.1875 -2.390625l2.203125 1.078125q-0.65625 1.90625 -1.953125 3.640625zm-4.59375 17.54657l2.0625 0q-1.09375 -0.765625 -1.734375 -2.0q-0.640625 -1.21875 -0.640625 -2.578125q0 -1.40625 0.609375 -2.515625q0.609375 -1.09375 1.71875 -1.59375q1.109375 -0.5 3.0625 -0.5l8.75 0l0 3.671875l-6.359375 0q-2.90625 0 -3.578125 0.1875q-0.65625 0.203125 -1.046875 0.734375q-0.375 0.546875 -0.375 1.359375q0 0.9375 0.515625 1.671875q0.515625 0.75 1.28125 1.015625q0.765625 0.28125 3.71875 0.28125l5.84375 0l0 3.65625l-13.828125 0l0 -3.390625zm4.40625 15.188965l-0.625 3.640625q-2.0 -0.703125 -3.046875 -2.21875q-1.046875 -1.515625 -1.046875 -3.796875q0 -3.609375 2.359375 -5.328125q1.890625 -1.375 4.765625 -1.375q3.4375 0 5.375 1.796875q1.953125 1.796875 1.953125 4.546875q0 3.078125 -2.046875 4.859375q-2.03125 1.78125 -6.234375 1.703125l0 -9.15625q-1.625 0.046875 -2.53125 0.890625q-0.90625 0.84375 -0.90625 2.109375q0 0.859375 0.46875 1.4375q0.46875 0.59375 1.515625 0.890625zm3.6875 0.203125q1.59375 -0.03125 2.421875 -0.8125q0.828125 -0.78125 0.828125 -1.90625q0 -1.203125 -0.875 -1.984375q-0.875 -0.78125 -2.375 -0.765625l0 5.46875zm-8.09375 10.121826l0 -3.671875l13.828125 0l0 3.40625l-1.96875 0q1.390625 0.875 1.828125 1.5625q0.453125 0.703125 0.453125 1.578125q0 1.25 -0.703125 2.421875l-3.1875 -1.140625q0.609375 -0.921875 0.609375 -1.71875q0 -0.765625 -0.421875 -1.296875q-0.421875 -0.53125 -1.53125 -0.84375q-1.109375 -0.296875 -4.640625 -0.296875l-4.265625 0zm13.828125 5.13916l0 3.890625l-9.8125 3.296875l9.8125 3.234375l0 3.78125l-13.3125 -4.875l-2.40625 -0.875q-1.203125 -0.484375 -1.84375 -0.921875q-0.640625 -0.4375 -1.03125 -1.0q-0.40625 -0.5625 -0.625 -1.390625q-0.21875 -0.828125 -0.21875 -1.859375q0 -1.0625 0.21875 -2.078125l2.859375 -0.328125q-0.15625 0.859375 -0.15625 1.546875q0 1.28125 0.75 1.890625q0.734375 0.609375 1.90625 0.9375l13.859375 -5.25z" fill-rule="nonzero"/><path fill="#20124d" d="m1153.8258 468.7456l-2.921875 0l0 -2.5l-5.5625 0q-1.703125 0 -1.984375 0.0625q-0.28125 0.078125 -0.46875 0.328125q-0.171875 0.265625 -0.171875 0.625q0 0.515625 0.359375 1.46875l-2.84375 0.3125q-0.546875 -1.265625 -0.546875 -2.890625q0 -0.984375 0.328125 -1.78125q0.328125 -0.796875 0.859375 -1.171875q0.53125 -0.359375 1.421875 -0.5q0.640625 -0.125 2.578125 -0.125l6.03125 0l0 -1.671875l2.921875 0l0 1.671875l2.734375 0l2.140625 3.671875l-4.875 0l0 2.5zm-13.828125 6.0486145l0 -3.671875l13.828125 0l0 3.40625l-1.96875 0q1.390625 0.875 1.828125 1.5625q0.453125 0.703125 0.453125 1.578125q0 1.25 -0.703125 2.421875l-3.1875 -1.140625q0.609375 -0.921875 0.609375 -1.71875q0 -0.765625 -0.421875 -1.296875q-0.421875 -0.53125 -1.53125 -0.84375q-1.109375 -0.296875 -4.640625 -0.296875l-4.265625 0zm9.609375 9.592285l0.59375 -3.3125q2.0 0.5625 2.96875 1.921875q0.96875 1.375 0.96875 4.0625q0 2.453125 -0.578125 3.640625q-0.578125 1.203125 -1.484375 1.6875q-0.890625 0.5 -3.265625 0.5l-4.265625 -0.046875q-1.828125 0 -2.703125 0.171875q-0.859375 0.171875 -1.84375 0.65625l0 -3.609375q0.359375 -0.140625 1.078125 -0.359375q0.328125 -0.09375 0.4375 -0.125q-0.921875 -0.9375 -1.375 -2.015625q-0.453125 -1.0625 -0.453125 -2.265625q0 -2.140625 1.15625 -3.375q1.15625 -1.21875 2.9375 -1.21875q1.171875 0 2.078125 0.546875q0.921875 0.5625 1.40625 1.578125q0.484375 1.015625 0.859375 2.90625q0.484375 2.5625 0.890625 3.5625l0.375 0q1.046875 0 1.5 -0.53125q0.453125 -0.515625 0.453125 -1.96875q0 -0.96875 -0.390625 -1.515625q-0.390625 -0.546875 -1.34375 -0.890625zm-2.96875 4.90625q-0.234375 -0.703125 -0.5625 -2.234375q-0.328125 -1.515625 -0.640625 -1.984375q-0.5 -0.71875 -1.28125 -0.71875q-0.765625 0 -1.328125 0.5625q-0.5625 0.578125 -0.5625 1.46875q0 0.984375 0.65625 1.890625q0.484375 0.65625 1.203125 0.859375q0.46875 0.15625 1.78125 0.15625l0.734375 0zm-6.640625 19.762451l0 -3.65625l7.046875 0q2.25 0 2.90625 -0.234375q0.65625 -0.234375 1.015625 -0.765625q0.375 -0.515625 0.375 -1.265625q0 -0.953125 -0.53125 -1.703125q-0.515625 -0.75 -1.375 -1.03125q-0.859375 -0.28125 -3.171875 -0.28125l-6.265625 0l0 -3.65625l13.828125 0l0 3.390625l-2.03125 0q2.34375 1.8125 2.34375 4.5625q0 1.203125 -0.4375 2.203125q-0.4375 1.015625 -1.125 1.515625q-0.671875 0.515625 -1.53125 0.71875q-0.859375 0.203125 -2.453125 0.203125l-8.59375 0zm3.9375 2.4233093l0.5625 3.671875q-1.0625 0.234375 -1.625 0.953125q-0.546875 0.71875 -0.546875 2.0q0 1.421875 0.515625 2.140625q0.375 0.46875 0.984375 0.46875q0.421875 0 0.6875 -0.25q0.265625 -0.28125 0.484375 -1.234375q0.96875 -4.421875 1.78125 -5.609375q1.125 -1.640625 3.109375 -1.640625q1.796875 0 3.015625 1.421875q1.234375 1.421875 1.234375 4.40625q0 2.828125 -0.9375 4.203125q-0.921875 1.390625 -2.71875 1.90625l-0.640625 -3.4375q0.796875 -0.234375 1.21875 -0.859375q0.4375 -0.609375 0.4375 -1.75q0 -1.4375 -0.390625 -2.0625q-0.296875 -0.421875 -0.75 -0.421875q-0.390625 0 -0.65625 0.359375q-0.375 0.5 -1.046875 3.421875q-0.65625 2.921875 -1.609375 4.078125q-0.984375 1.140625 -2.71875 1.140625q-1.90625 0 -3.28125 -1.59375q-1.359375 -1.578125 -1.359375 -4.6875q0 -2.828125 1.140625 -4.484375q1.15625 -1.640625 3.109375 -2.140625zm-3.9375 16.106201l19.078125 0l0 3.671875l-19.078125 0l0 -3.671875zm9.609375 10.14032l0.59375 -3.3125q2.0 0.5625 2.96875 1.921875q0.96875 1.375 0.96875 4.0625q0 2.453125 -0.578125 3.640625q-0.578125 1.203125 -1.484375 1.6875q-0.890625 0.5 -3.265625 0.5l-4.265625 -0.046875q-1.828125 0 -2.703125 0.171875q-0.859375 0.171875 -1.84375 0.65625l0 -3.609375q0.359375 -0.140625 1.078125 -0.359375q0.328125 -0.09375 0.4375 -0.125q-0.921875 -0.9375 -1.375 -2.015625q-0.453125 -1.0625 -0.453125 -2.265625q0 -2.140625 1.15625 -3.375q1.15625 -1.21875 2.9375 -1.21875q1.171875 0 2.078125 0.546875q0.921875 0.5625 1.40625 1.578125q0.484375 1.015625 0.859375 2.90625q0.484375 2.5625 0.890625 3.5625l0.375 0q1.046875 0 1.5 -0.53125q0.453125 -0.515625 0.453125 -1.96875q0 -0.96875 -0.390625 -1.515625q-0.390625 -0.546875 -1.34375 -0.890625zm-2.96875 4.90625q-0.234375 -0.703125 -0.5625 -2.234375q-0.328125 -1.515625 -0.640625 -1.984375q-0.5 -0.71875 -1.28125 -0.71875q-0.765625 0 -1.328125 0.5625q-0.5625 0.578125 -0.5625 1.46875q0 0.984375 0.65625 1.890625q0.484375 0.65625 1.203125 0.859375q0.46875 0.15625 1.78125 0.15625l0.734375 0zm7.1875 13.528076l-2.921875 0l0 -2.5l-5.5625 0q-1.703125 0 -1.984375 0.0625q-0.28125 0.078125 -0.46875 0.328125q-0.171875 0.265625 -0.171875 0.625q0 0.515625 0.359375 1.46875l-2.84375 0.3125q-0.546875 -1.265625 -0.546875 -2.890625q0 -0.984375 0.328125 -1.78125q0.328125 -0.796875 0.859375 -1.171875q0.53125 -0.359375 1.421875 -0.5q0.640625 -0.125 2.578125 -0.125l6.03125 0l0 -1.671875l2.921875 0l0 1.671875l2.734375 0l2.140625 3.671875l-4.875 0l0 2.5zm1.875 2.532959l3.375 0l0 3.671875l-3.375 0l0 -3.671875zm-15.703125 0l13.828125 0l0 3.671875l-13.828125 0l0 -3.671875zm7.109375 6.562256q1.8125 0 3.515625 0.890625q1.71875 0.90625 2.609375 2.546875q0.90625 1.65625 0.90625 3.687439q0 3.140625 -2.046875 5.140625q-2.03125 2.0 -5.140625 2.0q-3.140625 0 -5.203125 -2.03125q-2.0625 -2.015625 -2.0625 -5.078125q0 -1.906189 0.859375 -3.640564q0.859375 -1.71875 2.515625 -2.625q1.65625 -0.890625 4.046875 -0.890625zm-0.203125 3.75q-2.046875 0 -3.140625 0.96875q-1.09375 0.984375 -1.09375 2.421814q0 1.421875 1.09375 2.390625q1.09375 0.984375 3.171875 0.984375q2.03125 0 3.125 -0.984375q1.09375 -0.96875 1.09375 -2.390625q0 -1.437439 -1.09375 -2.421814q-1.09375 -0.96875 -3.15625 -0.96875zm-6.90625 25.954529l0 -3.65625l7.046875 0q2.25 0 2.90625 -0.234375q0.65625 -0.234375 1.015625 -0.765625q0.375 -0.515625 0.375 -1.265625q0 -0.953125 -0.53125 -1.703125q-0.515625 -0.75 -1.375 -1.03125q-0.859375 -0.28125 -3.171875 -0.28125l-6.265625 0l0 -3.65625l13.828125 0l0 3.390625l-2.03125 0q2.34375 1.8125 2.34375 4.5625q0 1.203125 -0.4375 2.203125q-0.4375 1.015625 -1.125 1.515625q-0.671875 0.515625 -1.53125 0.71875q-0.859375 0.203125 -2.453125 0.203125l-8.59375 0z" fill-rule="nonzero"/></g><path fill="#073763" d="m1807.543 492.9117l0 0c0 -9.556 7.746704 -17.302673 17.302734 -17.302673l0 0c4.5889893 0 8.98999 1.8229675 12.234863 5.0678406c3.244873 3.244873 5.067749 7.645874 5.067749 12.234833l0 0c0 9.556 -7.746582 17.302673 -17.302612 17.302673l0 0c-9.55603 0 -17.302734 -7.7466736 -17.302734 -17.302673z" fill-rule="evenodd"/><path stroke="#073763" stroke-width="1.0" stroke-linejoin="round" stroke-linecap="butt" d="m1807.543 492.9117l0 0c0 -9.556 7.746704 -17.302673 17.302734 -17.302673l0 0c4.5889893 0 8.98999 1.8229675 12.234863 5.0678406c3.244873 3.244873 5.067749 7.645874 5.067749 12.234833l0 0c0 9.556 -7.746582 17.302673 -17.302612 17.302673l0 0c-9.55603 0 -17.302734 -7.7466736 -17.302734 -17.302673z" fill-rule="evenodd"/><path fill="#073763" d="m1822.7261 503.1167l4.239258 0l0 67.99951l-4.239258 0z" fill-rule="evenodd"/><path stroke="#073763" stroke-width="1.0" stroke-linejoin="round" stroke-linecap="butt" d="m1822.7261 503.1167l4.239258 0l0 67.99951l-4.239258 0z" fill-rule="evenodd"/><path fill="#073763" d="m1823.9805 516.0268l2.9847412 2.9991455l-31.072754 31.072693l-2.9846191 -2.9990845z" fill-rule="evenodd"/><path stroke="#073763" stroke-width="1.0" stroke-linejoin="round" stroke-linecap="butt" d="m1823.9805 516.0268l2.9847412 2.9991455l-31.072754 31.072693l-2.9846191 -2.9990845z" fill-rule="evenodd"/><path fill="#073763" d="m1825.7108 516.0268l-2.9847412 2.9991455l31.072754 31.072693l2.9846191 -2.9990845z" fill-rule="evenodd"/><path stroke="#073763" stroke-width="1.0" stroke-linejoin="round" stroke-linecap="butt" d="m1825.7108 516.0268l-2.9847412 2.9991455l31.072754 31.072693l2.9846191 -2.9990845z" fill-rule="evenodd"/><path fill="#073763" d="m1823.1298 565.97833l3.8354492 1.7734985l-28.073608 60.213318l-3.8354492 -1.7734985z" fill-rule="evenodd"/><path stroke="#073763" stroke-width="1.0" stroke-linejoin="round" stroke-linecap="butt" d="m1823.1298 565.97833l3.8354492 1.7734985l-28.073608 60.213318l-3.8354492 -1.7734985z" fill-rule="evenodd"/><path fill="#073763" d="m1826.5614 565.97833l-3.8354492 1.7734985l28.073608 60.213318l3.8354492 -1.7734985z" fill-rule="evenodd"/><path stroke="#073763" stroke-width="1.0" stroke-linejoin="round" stroke-linecap="butt" d="m1826.5614 565.97833l-3.8354492 1.7734985l28.073608 60.213318l3.8354492 -1.7734985z" fill-rule="evenodd"/><g filter="url(#shadowFilter-p.4)"><use xlink:href="#p.4" transform="matrix(1.0 0.0 0.0 1.0 0.0 2.0)"/></g><defs><filter id="shadowFilter-p.4" filterUnits="userSpaceOnUse"><feGaussianBlur in="SourceAlpha" stdDeviation="2.0" result="blur"/><feComponentTransfer in="blur" color-interpolation-filters="sRGB"><feFuncR type="linear" slope="0" intercept="0.15294118"/><feFuncG type="linear" slope="0" intercept="0.30588236"/><feFuncB type="linear" slope="0" intercept="0.07450981"/><feFuncA type="linear" slope="0.5" intercept="0"/></feComponentTransfer></filter></defs><g id="p.4"><path fill="#00ff00" d="m1772.8372 532.9055l-156.72437 0l0 0l-17.13379 17.13385l17.13379 17.13385l0 0l156.72437 0z" fill-rule="evenodd"/><path stroke="#00ff00" stroke-width="1.0" stroke-linejoin="round" stroke-linecap="butt" d="m1772.8372 532.9055l-156.72437 0l0 0l-17.13379 17.13385l17.13379 17.13385l0 0l156.72437 0z" fill-rule="evenodd"/><path fill="#000000" d="m1650.5651 552.6156l2.625 -0.25q0.234375 1.3125 0.953125 1.9375q0.734375 0.609375 1.96875 0.609375q1.296875 0 1.953125 -0.546875q0.671875 -0.546875 0.671875 -1.28125q0 -0.484375 -0.28125 -0.8125q-0.28125 -0.328125 -0.96875 -0.578125q-0.484375 -0.15625 -2.171875 -0.578125q-2.15625 -0.546875 -3.03125 -1.328125q-1.234375 -1.09375 -1.234375 -2.6875q0 -1.015625 0.578125 -1.90625q0.578125 -0.890625 1.65625 -1.34375q1.09375 -0.46875 2.640625 -0.46875q2.515625 0 3.78125 1.109375q1.28125 1.09375 1.34375 2.9375l-2.703125 0.109375q-0.171875 -1.03125 -0.75 -1.46875q-0.5625 -0.453125 -1.703125 -0.453125q-1.171875 0 -1.84375 0.46875q-0.421875 0.3125 -0.421875 0.84375q0 0.46875 0.40625 0.796875q0.5 0.4375 2.46875 0.90625q1.96875 0.453125 2.90625 0.953125q0.953125 0.5 1.484375 1.359375q0.53125 0.859375 0.53125 2.125q0 1.15625 -0.640625 2.15625q-0.640625 1.0 -1.8125 1.484375q-1.15625 0.484375 -2.890625 0.484375q-2.53125 0 -3.890625 -1.171875q-1.359375 -1.171875 -1.625 -3.40625zm18.709106 1.265625l2.546875 0.421875q-0.484375 1.40625 -1.546875 2.140625q-1.0625 0.734375 -2.65625 0.734375q-2.515625 0 -3.734375 -1.65625q-0.953125 -1.3125 -0.953125 -3.328125q0 -2.40625 1.25 -3.765625q1.265625 -1.359375 3.1875 -1.359375q2.15625 0 3.40625 1.421875q1.25 1.421875 1.1875 4.375l-6.40625 0q0.03125 1.140625 0.609375 1.78125q0.59375 0.625 1.484375 0.625q0.59375 0 1.0 -0.328125q0.421875 -0.328125 0.625 -1.0625zm0.15625 -2.59375q-0.03125 -1.109375 -0.578125 -1.6875q-0.546875 -0.578125 -1.328125 -0.578125q-0.84375 0 -1.390625 0.609375q-0.546875 0.609375 -0.53125 1.65625l3.828125 0zm9.063232 -4.0l0 2.03125l-1.75 0l0 3.90625q0 1.1875 0.046875 1.390625q0.046875 0.1875 0.21875 0.3125q0.1875 0.125 0.4375 0.125q0.359375 0 1.03125 -0.25l0.21875 2.0q-0.890625 0.375 -2.015625 0.375q-0.703125 0 -1.265625 -0.234375q-0.546875 -0.234375 -0.8125 -0.59375q-0.25 -0.375 -0.34375 -1.0q-0.09375 -0.453125 -0.09375 -1.8125l0 -4.21875l-1.171875 0l0 -2.03125l1.171875 0l0 -1.921875l2.578125 -1.5l0 3.421875l1.75 0zm6.942871 9.671875l0 -13.359375l4.03125 0l2.421875 9.109375l2.390625 -9.109375l4.046875 0l0 13.359375l-2.5 0l0 -10.515625l-2.65625 10.515625l-2.59375 0l-2.640625 -10.515625l0 10.515625l-2.5 0zm17.462646 -6.71875l-2.328125 -0.421875q0.40625 -1.40625 1.359375 -2.078125q0.953125 -0.671875 2.84375 -0.671875q1.703125 0 2.546875 0.40625q0.84375 0.40625 1.171875 1.03125q0.34375 0.625 0.34375 2.28125l-0.015625 3.0q0 1.265625 0.109375 1.875q0.125 0.609375 0.46875 1.296875l-2.53125 0q-0.109375 -0.25 -0.25 -0.75q-0.0625 -0.234375 -0.09375 -0.3125q-0.65625 0.640625 -1.40625 0.96875q-0.734375 0.3125 -1.59375 0.3125q-1.484375 0 -2.34375 -0.8125q-0.859375 -0.8125 -0.859375 -2.046875q0 -0.828125 0.390625 -1.46875q0.390625 -0.640625 1.09375 -0.96875q0.703125 -0.34375 2.03125 -0.609375q1.796875 -0.328125 2.484375 -0.625l0 -0.25q0 -0.75 -0.359375 -1.0625q-0.359375 -0.3125 -1.375 -0.3125q-0.6875 0 -1.078125 0.28125q-0.375 0.265625 -0.609375 0.9375zm3.421875 2.078125q-0.484375 0.15625 -1.5625 0.390625q-1.0625 0.21875 -1.390625 0.4375q-0.5 0.359375 -0.5 0.90625q0 0.53125 0.40625 0.9375q0.40625 0.390625 1.015625 0.390625q0.703125 0 1.328125 -0.46875q0.46875 -0.34375 0.609375 -0.84375q0.09375 -0.328125 0.09375 -1.25l0 -0.5zm9.485107 -5.03125l0 2.03125l-1.75 0l0 3.90625q0 1.1875 0.046875 1.390625q0.046875 0.1875 0.21875 0.3125q0.1875 0.125 0.4375 0.125q0.359375 0 1.03125 -0.25l0.21875 2.0q-0.890625 0.375 -2.015625 0.375q-0.703125 0 -1.265625 -0.234375q-0.546875 -0.234375 -0.8125 -0.59375q-0.25 -0.375 -0.34375 -1.0q-0.09375 -0.453125 -0.09375 -1.8125l0 -4.21875l-1.171875 0l0 -2.03125l1.171875 0l0 -1.921875l2.578125 -1.5l0 3.421875l1.75 0zm4.2282715 9.671875l-2.5625 0l0 -9.671875l2.375 0l0 1.375q0.609375 -0.984375 1.09375 -1.28125q0.484375 -0.3125 1.109375 -0.3125q0.875 0 1.6875 0.484375l-0.796875 2.234375q-0.640625 -0.421875 -1.203125 -0.421875q-0.53125 0 -0.90625 0.296875q-0.375 0.296875 -0.59375 1.078125q-0.203125 0.765625 -0.203125 3.234375l0 2.984375zm4.807251 -10.984375l0 -2.375l2.5625 0l0 2.375l-2.5625 0zm0 10.984375l0 -9.671875l2.5625 0l0 9.671875l-2.5625 0zm3.9488525 0l3.484375 -4.984375l-3.34375 -4.6875l3.125 0l1.71875 2.65625l1.796875 -2.65625l3.015625 0l-3.28125 4.578125l3.578125 5.09375l-3.140625 0l-1.96875 -3.0l-1.984375 3.0l-3.0 0z" fill-rule="nonzero"/></g><g filter="url(#shadowFilter-p.5)"><use xlink:href="#p.5" transform="matrix(1.0 0.0 0.0 1.0 0.0 2.0)"/></g><defs><filter id="shadowFilter-p.5" filterUnits="userSpaceOnUse"><feGaussianBlur in="SourceAlpha" stdDeviation="2.0" result="blur"/><feComponentTransfer in="blur" color-interpolation-filters="sRGB"><feFuncR type="linear" slope="0" intercept="0.15294118"/><feFuncG type="linear" slope="0" intercept="0.30588236"/><feFuncB type="linear" slope="0" intercept="0.07450981"/><feFuncA type="linear" slope="0.5" intercept="0"/></feComponentTransfer></filter></defs><g id="p.5"><path fill="#00ff00" d="m1455.2427 536.40155l-156.72437 0l0 0l-17.133911 17.133911l17.133911 17.13385l0 0l156.72437 0z" fill-rule="evenodd"/><path stroke="#00ff00" stroke-width="1.0" stroke-linejoin="round" stroke-linecap="butt" d="m1455.2427 536.40155l-156.72437 0l0 0l-17.133911 17.133911l17.133911 17.13385l0 0l156.72437 0z" fill-rule="evenodd"/><path fill="#000000" d="m1332.9705 556.1117l2.625 -0.25q0.234375 1.3125 0.953125 1.9375q0.734375 0.609375 1.96875 0.609375q1.296875 0 1.953125 -0.546875q0.671875 -0.546875 0.671875 -1.28125q0 -0.484375 -0.28125 -0.8125q-0.28125 -0.328125 -0.96875 -0.578125q-0.484375 -0.15625 -2.171875 -0.578125q-2.15625 -0.546875 -3.03125 -1.328125q-1.234375 -1.09375 -1.234375 -2.6875q0 -1.015625 0.578125 -1.90625q0.578125 -0.890625 1.65625 -1.34375q1.09375 -0.46875 2.640625 -0.46875q2.515625 0 3.78125 1.109375q1.28125 1.09375 1.34375 2.9375l-2.703125 0.109375q-0.171875 -1.03125 -0.75 -1.46875q-0.5625 -0.453125 -1.703125 -0.453125q-1.171875 0 -1.84375 0.46875q-0.421875 0.3125 -0.421875 0.84375q0 0.46875 0.40625 0.796875q0.5 0.4375 2.46875 0.90625q1.96875 0.453125 2.90625 0.953125q0.953125 0.5 1.484375 1.359375q0.53125 0.859375 0.53125 2.125q0 1.15625 -0.640625 2.15625q-0.640625 1.0 -1.8125 1.484375q-1.15625 0.484375 -2.890625 0.484375q-2.53125 0 -3.890625 -1.171875q-1.359375 -1.171875 -1.625 -3.40625zm18.709229 1.265625l2.546875 0.421875q-0.484375 1.40625 -1.546875 2.140625q-1.0625 0.734375 -2.65625 0.734375q-2.515625 0 -3.734375 -1.65625q-0.953125 -1.3125 -0.953125 -3.328125q0 -2.40625 1.25 -3.765625q1.265625 -1.359375 3.1875 -1.359375q2.15625 0 3.40625 1.421875q1.25 1.421875 1.1875 4.375l-6.40625 0q0.03125 1.140625 0.609375 1.78125q0.59375 0.625 1.484375 0.625q0.59375 0 1.0 -0.328125q0.421875 -0.328125 0.625 -1.0625zm0.15625 -2.59375q-0.03125 -1.109375 -0.578125 -1.6875q-0.546875 -0.578125 -1.328125 -0.578125q-0.84375 0 -1.390625 0.609375q-0.546875 0.609375 -0.53125 1.65625l3.828125 0zm9.063232 -4.0l0 2.03125l-1.75 0l0 3.90625q0 1.1875 0.046875 1.390625q0.046875 0.1875 0.21875 0.3125q0.1875 0.125 0.4375 0.125q0.359375 0 1.03125 -0.25l0.21875 2.0q-0.890625 0.375 -2.015625 0.375q-0.703125 0 -1.265625 -0.234375q-0.546875 -0.234375 -0.8125 -0.59375q-0.25 -0.375 -0.34375 -1.0q-0.09375 -0.453125 -0.09375 -1.8125l0 -4.21875l-1.171875 0l0 -2.03125l1.171875 0l0 -1.921875l2.578125 -1.5l0 3.421875l1.75 0zm6.942871 9.671875l0 -13.359375l4.03125 0l2.421875 9.109375l2.390625 -9.109375l4.046875 0l0 13.359375l-2.5 0l0 -10.515625l-2.65625 10.515625l-2.59375 0l-2.640625 -10.515625l0 10.515625l-2.5 0zm17.462646 -6.71875l-2.328125 -0.421875q0.40625 -1.40625 1.359375 -2.078125q0.953125 -0.671875 2.84375 -0.671875q1.703125 0 2.546875 0.40625q0.84375 0.40625 1.171875 1.03125q0.34375 0.625 0.34375 2.28125l-0.015625 3.0q0 1.265625 0.109375 1.875q0.125 0.609375 0.46875 1.296875l-2.53125 0q-0.109375 -0.25 -0.25 -0.75q-0.0625 -0.234375 -0.09375 -0.3125q-0.65625 0.640625 -1.40625 0.96875q-0.734375 0.3125 -1.59375 0.3125q-1.484375 0 -2.34375 -0.8125q-0.859375 -0.8125 -0.859375 -2.046875q0 -0.828125 0.390625 -1.46875q0.390625 -0.640625 1.09375 -0.96875q0.703125 -0.34375 2.03125 -0.609375q1.796875 -0.328125 2.484375 -0.625l0 -0.25q0 -0.75 -0.359375 -1.0625q-0.359375 -0.3125 -1.375 -0.3125q-0.6875 0 -1.078125 0.28125q-0.375 0.265625 -0.609375 0.9375zm3.421875 2.078125q-0.484375 0.15625 -1.5625 0.390625q-1.0625 0.21875 -1.390625 0.4375q-0.5 0.359375 -0.5 0.90625q0 0.53125 0.40625 0.9375q0.40625 0.390625 1.015625 0.390625q0.703125 0 1.328125 -0.46875q0.46875 -0.34375 0.609375 -0.84375q0.09375 -0.328125 0.09375 -1.25l0 -0.5zm9.485107 -5.03125l0 2.03125l-1.75 0l0 3.90625q0 1.1875 0.046875 1.390625q0.046875 0.1875 0.21875 0.3125q0.1875 0.125 0.4375 0.125q0.359375 0 1.03125 -0.25l0.21875 2.0q-0.890625 0.375 -2.015625 0.375q-0.703125 0 -1.265625 -0.234375q-0.546875 -0.234375 -0.8125 -0.59375q-0.25 -0.375 -0.34375 -1.0q-0.09375 -0.453125 -0.09375 -1.8125l0 -4.21875l-1.171875 0l0 -2.03125l1.171875 0l0 -1.921875l2.578125 -1.5l0 3.421875l1.75 0zm4.2282715 9.671875l-2.5625 0l0 -9.671875l2.375 0l0 1.375q0.609375 -0.984375 1.09375 -1.28125q0.484375 -0.3125 1.109375 -0.3125q0.875 0 1.6875 0.484375l-0.796875 2.234375q-0.640625 -0.421875 -1.203125 -0.421875q-0.53125 0 -0.90625 0.296875q-0.375 0.296875 -0.59375 1.078125q-0.203125 0.765625 -0.203125 3.234375l0 2.984375zm4.807129 -10.984375l0 -2.375l2.5625 0l0 2.375l-2.5625 0zm0 10.984375l0 -9.671875l2.5625 0l0 9.671875l-2.5625 0zm3.9489746 0l3.484375 -4.984375l-3.34375 -4.6875l3.125 0l1.71875 2.65625l1.796875 -2.65625l3.015625 0l-3.28125 4.578125l3.578125 5.09375l-3.140625 0l-1.96875 -3.0l-1.984375 3.0l-3.0 0z" fill-rule="nonzero"/></g><g filter="url(#shadowFilter-p.6)"><use xlink:href="#p.6" transform="matrix(1.0 0.0 0.0 1.0 0.0 2.0)"/></g><defs><filter id="shadowFilter-p.6" filterUnits="userSpaceOnUse"><feGaussianBlur in="SourceAlpha" stdDeviation="2.0" result="blur"/><feComponentTransfer in="blur" color-interpolation-filters="sRGB"><feFuncR type="linear" slope="0" intercept="0.29803923"/><feFuncG type="linear" slope="0" intercept="0.06666667"/><feFuncB type="linear" slope="0" intercept="0.1882353"/><feFuncA type="linear" slope="0.5" intercept="0"/></feComponentTransfer></filter></defs><g id="p.6"><path fill="#c27ba0" d="m1062.6011 544.63043l-1.5059814 0.0016479492l0 24.094482l1.5059814 -0.0016479492zm-3.0118408 0.0032958984l-3.0118408 0.0032348633l0 24.094482l3.0118408 -0.0032348633zm-4.5177 0.0048828125l-142.23425 0.15460205l0 -12.047241l-24.094482 24.120667l24.094482 24.068298l0 -12.047241l142.23425 -0.15460205z" fill-rule="evenodd"/><path stroke="#c27ba0" stroke-width="1.0" stroke-linejoin="round" stroke-linecap="butt" d="m1062.6011 544.63043l-1.5059814 0.0016479492l0 24.094482l1.5059814 -0.0016479492zm-3.0118408 0.0032958984l-3.0118408 0.0032348633l0 24.094482l3.0118408 -0.0032348633zm-4.5177 0.0048828125l-142.23425 0.15460205l0 -12.047241l-24.094482 24.120667l24.094482 24.068298l0 -12.047241l142.23425 -0.15460205z" fill-rule="evenodd"/></g><g filter="url(#shadowFilter-p.7)"><use xlink:href="#p.7" transform="matrix(1.0 0.0 0.0 1.0 0.0 2.0)"/></g><defs><filter id="shadowFilter-p.7" filterUnits="userSpaceOnUse"><feGaussianBlur in="SourceAlpha" stdDeviation="2.0" result="blur"/><feComponentTransfer in="blur" color-interpolation-filters="sRGB"><feFuncR type="linear" slope="0" intercept="0.0"/><feFuncG type="linear" slope="0" intercept="0.0"/><feFuncB type="linear" slope="0" intercept="0.0"/><feFuncA type="linear" slope="0.5" intercept="0"/></feComponentTransfer></filter></defs><g id="p.7"><path fill="#ffffff" d="m545.6503 382.90167l327.68506 0l0 347.39484l-327.68506 0z" fill-rule="evenodd"/><path stroke="#ffffff" stroke-width="1.0" stroke-linejoin="round" stroke-linecap="butt" d="m545.6503 382.90167l327.68506 0l0 347.39484l-327.68506 0z" fill-rule="evenodd"/><path fill="#000000" d="m556.22845 412.38165l0 -15.265625l10.453125 0l0 2.578125l-7.375 0l0 3.609375l6.375 0l0 2.59375l-6.375 0l0 6.484375l-3.078125 0zm15.778076 0l-2.921875 0l0 -11.0625l2.71875 0l0 1.578125q0.703125 -1.125 1.25 -1.46875q0.5625 -0.359375 1.265625 -0.359375q1.0 0 1.9375 0.5625l-0.90625 2.546875q-0.75 -0.484375 -1.375 -0.484375q-0.625 0 -1.046875 0.34375q-0.421875 0.328125 -0.671875 1.21875q-0.25 0.890625 -0.25 3.703125l0 3.421875zm7.690674 -7.6875l-2.65625 -0.484375q0.453125 -1.59375 1.546875 -2.359375q1.09375 -0.78125 3.25 -0.78125q1.953125 0 2.90625 0.46875q0.96875 0.453125 1.359375 1.171875q0.390625 0.71875 0.390625 2.625l-0.03125 3.40625q0 1.46875 0.125 2.15625q0.140625 0.6875 0.53125 1.484375l-2.890625 0q-0.109375 -0.296875 -0.28125 -0.859375q-0.078125 -0.265625 -0.109375 -0.34375q-0.75 0.71875 -1.609375 1.09375q-0.84375 0.359375 -1.8125 0.359375q-1.703125 0 -2.6875 -0.921875q-0.984375 -0.9375 -0.984375 -2.34375q0 -0.9375 0.4375 -1.671875q0.453125 -0.734375 1.25 -1.125q0.8125 -0.390625 2.34375 -0.6875q2.046875 -0.390625 2.84375 -0.71875l0 -0.296875q0 -0.84375 -0.421875 -1.203125q-0.421875 -0.359375 -1.578125 -0.359375q-0.78125 0 -1.21875 0.3125q-0.4375 0.3125 -0.703125 1.078125zm3.921875 2.375q-0.5625 0.1875 -1.78125 0.453125q-1.21875 0.25 -1.59375 0.5q-0.578125 0.40625 -0.578125 1.03125q0 0.625 0.453125 1.078125q0.46875 0.4375 1.171875 0.4375q0.796875 0 1.515625 -0.515625q0.53125 -0.40625 0.6875 -0.96875q0.125 -0.375 0.125 -1.4375l0 -0.578125zm5.5335693 -5.75l2.703125 0l0 1.515625q1.4375 -1.765625 3.4375 -1.765625q1.0625 0 1.84375 0.4375q0.78125 0.4375 1.28125 1.328125q0.734375 -0.890625 1.578125 -1.328125q0.84375 -0.4375 1.796875 -0.4375q1.21875 0 2.0625 0.5q0.84375 0.484375 1.265625 1.453125q0.296875 0.703125 0.296875 2.28125l0 7.078125l-2.921875 0l0 -6.328125q0 -1.640625 -0.3125 -2.125q-0.40625 -0.625 -1.25 -0.625q-0.609375 0 -1.15625 0.375q-0.53125 0.375 -0.78125 1.109375q-0.234375 0.71875 -0.234375 2.28125l0 5.3125l-2.921875 0l0 -6.0625q0 -1.609375 -0.15625 -2.078125q-0.15625 -0.46875 -0.484375 -0.703125q-0.328125 -0.234375 -0.890625 -0.234375q-0.671875 0 -1.21875 0.375q-0.546875 0.359375 -0.78125 1.046875q-0.234375 0.6875 -0.234375 2.28125l0 5.375l-2.921875 0l0 -11.0625zm25.589172 7.546875l2.90625 0.484375q-0.546875 1.609375 -1.765625 2.453125q-1.21875 0.828125 -3.03125 0.828125q-2.890625 0 -4.28125 -1.890625q-1.09375 -1.5 -1.09375 -3.8125q0 -2.75 1.4375 -4.296875q1.4375 -1.5625 3.640625 -1.5625q2.46875 0 3.890625 1.640625q1.421875 1.625 1.359375 4.984375l-7.328125 0q0.03125 1.296875 0.703125 2.03125q0.6875 0.71875 1.703125 0.71875q0.6875 0 1.15625 -0.375q0.46875 -0.375 0.703125 -1.203125zm0.171875 -2.96875q-0.03125 -1.265625 -0.65625 -1.921875q-0.625 -0.671875 -1.53125 -0.671875q-0.953125 0 -1.578125 0.703125q-0.625 0.703125 -0.609375 1.890625l4.375 0zm8.736694 6.484375l0 -12.6875l-4.53125 0l0 -2.578125l12.140625 0l0 2.578125l-4.515625 0l0 12.6875l-3.09375 0zm11.194702 0l-2.921875 0l0 -11.0625l2.71875 0l0 1.578125q0.703125 -1.125 1.25 -1.46875q0.5625 -0.359375 1.265625 -0.359375q1.0 0 1.9375 0.5625l-0.90625 2.546875q-0.75 -0.484375 -1.375 -0.484375q-0.625 0 -1.046875 0.34375q-0.421875 0.328125 -0.671875 1.21875q-0.25 0.890625 -0.25 3.703125l0 3.421875zm7.690735 -7.6875l-2.65625 -0.484375q0.453125 -1.59375 1.546875 -2.359375q1.09375 -0.78125 3.25 -0.78125q1.953125 0 2.90625 0.46875q0.96875 0.453125 1.359375 1.171875q0.390625 0.71875 0.390625 2.625l-0.03125 3.40625q0 1.46875 0.125 2.15625q0.140625 0.6875 0.53125 1.484375l-2.890625 0q-0.109375 -0.296875 -0.28125 -0.859375q-0.078125 -0.265625 -0.109375 -0.34375q-0.75 0.71875 -1.609375 1.09375q-0.84375 0.359375 -1.8125 0.359375q-1.703125 0 -2.6875 -0.921875q-0.984375 -0.9375 -0.984375 -2.34375q0 -0.9375 0.4375 -1.671875q0.453125 -0.734375 1.25 -1.125q0.8125 -0.390625 2.34375 -0.6875q2.046875 -0.390625 2.84375 -0.71875l0 -0.296875q0 -0.84375 -0.421875 -1.203125q-0.421875 -0.359375 -1.578125 -0.359375q-0.78125 0 -1.21875 0.3125q-0.4375 0.3125 -0.703125 1.078125zm3.921875 2.375q-0.5625 0.1875 -1.78125 0.453125q-1.21875 0.25 -1.59375 0.5q-0.578125 0.40625 -0.578125 1.03125q0 0.625 0.453125 1.078125q0.46875 0.4375 1.171875 0.4375q0.796875 0 1.515625 -0.515625q0.53125 -0.40625 0.6875 -0.96875q0.125 -0.375 0.125 -1.4375l0 -0.578125zm15.814819 5.3125l-2.921875 0l0 -5.640625q0 -1.796875 -0.1875 -2.3125q-0.1875 -0.53125 -0.609375 -0.828125q-0.421875 -0.296875 -1.015625 -0.296875q-0.765625 0 -1.375 0.421875q-0.59375 0.421875 -0.828125 1.109375q-0.21875 0.6875 -0.21875 2.53125l0 5.015625l-2.921875 0l0 -11.0625l2.71875 0l0 1.625q1.4375 -1.875 3.640625 -1.875q0.96875 0 1.765625 0.359375q0.8125 0.34375 1.21875 0.890625q0.40625 0.53125 0.5625 1.21875q0.171875 0.6875 0.171875 1.96875l0 6.875zm1.9343262 -3.15625l2.9375 -0.453125q0.1875 0.859375 0.75 1.3125q0.578125 0.4375 1.609375 0.4375q1.140625 0 1.71875 -0.421875q0.375 -0.296875 0.375 -0.78125q0 -0.328125 -0.203125 -0.546875q-0.21875 -0.21875 -0.984375 -0.390625q-3.53125 -0.78125 -4.484375 -1.421875q-1.3125 -0.90625 -1.3125 -2.5q0 -1.4375 1.125 -2.40625q1.140625 -0.984375 3.53125 -0.984375q2.265625 0 3.375 0.75q1.109375 0.734375 1.515625 2.171875l-2.75 0.515625q-0.1875 -0.640625 -0.6875 -0.984375q-0.484375 -0.34375 -1.40625 -0.34375q-1.15625 0 -1.65625 0.3125q-0.328125 0.234375 -0.328125 0.59375q0 0.3125 0.296875 0.53125q0.390625 0.296875 2.71875 0.828125q2.34375 0.53125 3.28125 1.296875q0.90625 0.78125 0.90625 2.1875q0 1.515625 -1.265625 2.609375q-1.265625 1.09375 -3.765625 1.09375q-2.25 0 -3.578125 -0.90625q-1.3125 -0.921875 -1.71875 -2.5zm11.611694 -7.90625l1.625 0l0 -0.828125q0 -1.390625 0.296875 -2.078125q0.296875 -0.6875 1.09375 -1.125q0.796875 -0.4375 2.015625 -0.4375q1.25 0 2.453125 0.375l-0.40625 2.046875q-0.6875 -0.171875 -1.34375 -0.171875q-0.625 0 -0.90625 0.296875q-0.28125 0.296875 -0.28125 1.140625l0 0.78125l2.1875 0l0 2.296875l-2.1875 0l0 8.765625l-2.921875 0l0 -8.765625l-1.625 0l0 -2.296875zm7.711792 5.375q0 -1.453125 0.71875 -2.8125q0.71875 -1.375 2.03125 -2.09375q1.3125 -0.71875 2.9375 -0.71875q2.515625 0 4.109375 1.640625q1.609375 1.625 1.609375 4.109375q0 2.515625 -1.625 4.171875q-1.609375 1.640625 -4.0625 1.640625q-1.53125 0 -2.90625 -0.6875q-1.375 -0.6875 -2.09375 -2.015625q-0.71875 -1.328125 -0.71875 -3.234375zm3.0 0.15625q0 1.640625 0.78125 2.515625q0.78125 0.875 1.921875 0.875q1.140625 0 1.921875 -0.875q0.78125 -0.875 0.78125 -2.53125q0 -1.625 -0.78125 -2.5q-0.78125 -0.875 -1.921875 -0.875q-1.140625 0 -1.921875 0.875q-0.78125 0.875 -0.78125 2.515625zm13.496826 5.53125l-2.921875 0l0 -11.0625l2.71875 0l0 1.578125q0.703125 -1.125 1.25 -1.46875q0.5625 -0.359375 1.265625 -0.359375q1.0 0 1.9375 0.5625l-0.90625 2.546875q-0.75 -0.484375 -1.375 -0.484375q-0.625 0 -1.046875 0.34375q-0.421875 0.328125 -0.671875 1.21875q-0.25 0.890625 -0.25 3.703125l0 3.421875zm5.284424 -11.0625l2.703125 0l0 1.515625q1.4375 -1.765625 3.4375 -1.765625q1.0625 0 1.84375 0.4375q0.78125 0.4375 1.28125 1.328125q0.734375 -0.890625 1.578125 -1.328125q0.84375 -0.4375 1.796875 -0.4375q1.21875 0 2.0625 0.5q0.84375 0.484375 1.265625 1.453125q0.296875 0.703125 0.296875 2.28125l0 7.078125l-2.921875 0l0 -6.328125q0 -1.640625 -0.3125 -2.125q-0.40625 -0.625 -1.25 -0.625q-0.609375 0 -1.15625 0.375q-0.53125 0.375 -0.78125 1.109375q-0.234375 0.71875 -0.234375 2.28125l0 5.3125l-2.921875 0l0 -6.0625q0 -1.609375 -0.15625 -2.078125q-0.15625 -0.46875 -0.484375 -0.703125q-0.328125 -0.234375 -0.890625 -0.234375q-0.671875 0 -1.21875 0.375q-0.546875 0.359375 -0.78125 1.046875q-0.234375 0.6875 -0.234375 2.28125l0 5.375l-2.921875 0l0 -11.0625zm18.417236 6.09375l3.0 -0.296875q0.28125 1.515625 1.109375 2.234375q0.828125 0.703125 2.234375 0.703125q1.484375 0 2.234375 -0.625q0.765625 -0.640625 0.765625 -1.484375q0 -0.546875 -0.328125 -0.921875q-0.3125 -0.375 -1.109375 -0.65625q-0.53125 -0.1875 -2.46875 -0.671875q-2.46875 -0.609375 -3.46875 -1.515625q-1.40625 -1.25 -1.40625 -3.0625q0 -1.171875 0.65625 -2.1875q0.65625 -1.015625 1.90625 -1.546875q1.25 -0.53125 3.0 -0.53125q2.875 0 4.328125 1.265625q1.453125 1.265625 1.53125 3.359375l-3.078125 0.140625q-0.203125 -1.171875 -0.859375 -1.6875q-0.640625 -0.515625 -1.953125 -0.515625q-1.34375 0 -2.09375 0.546875q-0.5 0.359375 -0.5 0.953125q0 0.53125 0.46875 0.921875q0.578125 0.484375 2.828125 1.015625q2.25 0.53125 3.328125 1.109375q1.078125 0.5625 1.6875 1.546875q0.609375 0.984375 0.609375 2.421875q0 1.3125 -0.734375 2.46875q-0.734375 1.140625 -2.0625 1.703125q-1.328125 0.546875 -3.3125 0.546875q-2.90625 0 -4.453125 -1.328125q-1.546875 -1.34375 -1.859375 -3.90625zm21.397583 1.453125l2.90625 0.484375q-0.546875 1.609375 -1.765625 2.453125q-1.21875 0.828125 -3.03125 0.828125q-2.890625 0 -4.28125 -1.890625q-1.09375 -1.5 -1.09375 -3.8125q0 -2.75 1.4375 -4.296875q1.4375 -1.5625 3.640625 -1.5625q2.46875 0 3.890625 1.640625q1.421875 1.625 1.359375 4.984375l-7.328125 0q0.03125 1.296875 0.703125 2.03125q0.6875 0.71875 1.703125 0.71875q0.6875 0 1.15625 -0.375q0.46875 -0.375 0.703125 -1.203125zm0.171875 -2.96875q-0.03125 -1.265625 -0.65625 -1.921875q-0.625 -0.671875 -1.53125 -0.671875q-0.953125 0 -1.578125 0.703125q-0.625 0.703125 -0.609375 1.890625l4.375 0zm10.361694 -4.578125l0 2.328125l-2.0 0l0 4.46875q0 1.34375 0.046875 1.578125q0.0625 0.21875 0.265625 0.375q0.203125 0.140625 0.5 0.140625q0.40625 0 1.171875 -0.28125l0.25 2.265625q-1.015625 0.4375 -2.3125 0.4375q-0.796875 0 -1.4375 -0.265625q-0.625 -0.265625 -0.921875 -0.6875q-0.296875 -0.421875 -0.40625 -1.140625q-0.09375 -0.515625 -0.09375 -2.0625l0 -4.828125l-1.34375 0l0 -2.328125l1.34375 0l0 -2.1875l2.9375 -1.71875l0 3.90625l2.0 0z" fill-rule="nonzero"/><path fill="#000000" d="m554.4472 442.6004l0 -1.890625l12.171875 0l0 1.890625l-12.171875 0zm23.65857 -4.21875l-2.921875 0l0 -5.640625q0 -1.796875 -0.1875 -2.3125q-0.1875 -0.53125 -0.609375 -0.828125q-0.421875 -0.296875 -1.015625 -0.296875q-0.765625 0 -1.375 0.421875q-0.59375 0.421875 -0.828125 1.109375q-0.21875 0.6875 -0.21875 2.53125l0 5.015625l-2.921875 0l0 -11.0625l2.71875 0l0 1.625q1.4375 -1.875 3.640625 -1.875q0.96875 0 1.765625 0.359375q0.8125 0.34375 1.21875 0.890625q0.40625 0.53125 0.5625 1.21875q0.171875 0.6875 0.171875 1.96875l0 6.875zm5.028076 0l-3.5 -11.0625l2.84375 0l2.078125 7.25l1.90625 -7.25l2.8125 0l1.84375 7.25l2.109375 -7.25l2.890625 0l-3.546875 11.0625l-2.8125 0l-1.90625 -7.109375l-1.875 7.109375l-2.84375 0zm24.167847 -7.796875l-2.875 0.53125q-0.15625 -0.875 -0.671875 -1.3125q-0.515625 -0.4375 -1.328125 -0.4375q-1.09375 0 -1.75 0.765625q-0.65625 0.75 -0.65625 2.515625q0 1.96875 0.65625 2.78125q0.671875 0.8125 1.78125 0.8125q0.84375 0 1.375 -0.46875q0.53125 -0.46875 0.75 -1.625l2.859375 0.484375q-0.4375 1.984375 -1.71875 3.0q-1.265625 1.0 -3.390625 1.0q-2.4375 0 -3.875 -1.53125q-1.4375 -1.53125 -1.4375 -4.234375q0 -2.75 1.4375 -4.265625q1.453125 -1.53125 3.921875 -1.53125q2.015625 0 3.203125 0.875q1.203125 0.859375 1.71875 2.640625zm0.48669434 12.015625l0 -1.890625l12.171875 0l0 1.890625l-12.171875 0zm16.392944 -4.21875l-2.921875 0l0 -11.0625l2.71875 0l0 1.578125q0.703125 -1.125 1.25 -1.46875q0.5625 -0.359375 1.265625 -0.359375q1.0 0 1.9375 0.5625l-0.90625 2.546875q-0.75 -0.484375 -1.375 -0.484375q-0.625 0 -1.046875 0.34375q-0.421875 0.328125 -0.671875 1.21875q-0.25 0.890625 -0.25 3.703125l0 3.421875zm4.831299 -5.6875q0 -1.453125 0.71875 -2.8125q0.71875 -1.375 2.03125 -2.09375q1.3125 -0.71875 2.9375 -0.71875q2.515625 0 4.109375 1.640625q1.609375 1.625 1.609375 4.109375q0 2.515625 -1.625 4.171875q-1.609375 1.640625 -4.0625 1.640625q-1.53125 0 -2.90625 -0.6875q-1.375 -0.6875 -2.09375 -2.015625q-0.71875 -1.328125 -0.71875 -3.234375zm3.0 0.15625q0 1.640625 0.78125 2.515625q0.78125 0.875 1.921875 0.875q1.140625 0 1.921875 -0.875q0.78125 -0.875 0.78125 -2.53125q0 -1.625 -0.78125 -2.5q-0.78125 -0.875 -1.921875 -0.875q-1.140625 0 -1.921875 0.875q-0.78125 0.875 -0.78125 2.515625zm9.668701 2.375l2.9375 -0.453125q0.1875 0.859375 0.75 1.3125q0.578125 0.4375 1.609375 0.4375q1.140625 0 1.71875 -0.421875q0.375 -0.296875 0.375 -0.78125q0 -0.328125 -0.203125 -0.546875q-0.21875 -0.21875 -0.984375 -0.390625q-3.53125 -0.78125 -4.484375 -1.421875q-1.3125 -0.90625 -1.3125 -2.5q0 -1.4375 1.125 -2.40625q1.140625 -0.984375 3.53125 -0.984375q2.265625 0 3.375 0.75q1.109375 0.734375 1.515625 2.171875l-2.75 0.515625q-0.1875 -0.640625 -0.6875 -0.984375q-0.484375 -0.34375 -1.40625 -0.34375q-1.15625 0 -1.65625 0.3125q-0.328125 0.234375 -0.328125 0.59375q0 0.3125 0.296875 0.53125q0.390625 0.296875 2.71875 0.828125q2.34375 0.53125 3.28125 1.296875q0.90625 0.78125 0.90625 2.1875q0 1.515625 -1.265625 2.609375q-1.265625 1.09375 -3.765625 1.09375q-2.25 0 -3.578125 -0.90625q-1.3125 -0.921875 -1.71875 -2.5z" fill-rule="nonzero"/></g><path fill="#6aa84f" d="m819.28613 730.285l0 -347.39487l54.04724 0l0 347.39487z" fill-rule="evenodd"/><path stroke="#6aa84f" stroke-width="1.0" stroke-linejoin="round" stroke-linecap="butt" d="m819.28613 730.285l0 -347.39487l54.04724 0l0 347.39487z" fill-rule="evenodd"/><path fill="#ffffff" d="m841.22723 658.77045l-2.703125 0l0 -2.921875l2.703125 0l0 2.921875zm12.5625 0l-11.0625 0l0 -2.921875l11.0625 0l0 2.921875zm0 -5.972534l-15.265625 0l0 -10.453125l2.578125 0l0 7.375l3.609375 0l0 -6.375l2.59375 0l0 6.375l6.484375 0l0 3.078125zm0 -15.778076l0 2.921875l-11.0625 0l0 -2.71875l1.578125 0q-1.125 -0.703125 -1.46875 -1.25q-0.359375 -0.5625 -0.359375 -1.265625q0 -1.0 0.5625 -1.9375l2.546875 0.90625q-0.484375 0.75 -0.484375 1.375q0 0.625 0.34375 1.046875q0.328125 0.421875 1.21875 0.671875q0.890625 0.25 3.703125 0.25l3.421875 0zm-7.6875 -7.690674l-0.484375 2.65625q-1.59375 -0.453125 -2.359375 -1.546875q-0.78125 -1.09375 -0.78125 -3.25q0 -1.953125 0.46875 -2.90625q0.453125 -0.96875 1.171875 -1.359375q0.71875 -0.390625 2.625 -0.390625l3.40625 0.03125q1.46875 0 2.15625 -0.125q0.6875 -0.140625 1.484375 -0.53125l0 2.890625q-0.296875 0.109375 -0.859375 0.28125q-0.265625 0.078125 -0.34375 0.109375q0.71875 0.75 1.09375 1.609375q0.359375 0.84375 0.359375 1.8125q0 1.703125 -0.921875 2.6875q-0.9375 0.984375 -2.34375 0.984375q-0.9375 0 -1.671875 -0.4375q-0.734375 -0.453125 -1.125 -1.25q-0.390625 -0.8125 -0.6875 -2.34375q-0.390625 -2.046875 -0.71875 -2.84375l-0.296875 0q-0.84375 0 -1.203125 0.421875q-0.359375 0.421875 -0.359375 1.578125q0 0.78125 0.3125 1.21875q0.3125 0.4375 1.078125 0.703125zm2.375 -3.921875q0.1875 0.5625 0.453125 1.78125q0.25 1.21875 0.5 1.59375q0.40625 0.578125 1.03125 0.578125q0.625 0 1.078125 -0.453125q0.4375 -0.46875 0.4375 -1.171875q0 -0.796875 -0.515625 -1.515625q-0.40625 -0.53125 -0.96875 -0.6875q-0.375 -0.125 -1.4375 -0.125l-0.578125 0zm-5.75 -5.5335693l0 -2.703125l1.515625 0q-1.765625 -1.4375 -1.765625 -3.4375q0 -1.0625 0.4375 -1.84375q0.4375 -0.78125 1.328125 -1.28125q-0.890625 -0.734375 -1.328125 -1.578125q-0.4375 -0.84375 -0.4375 -1.796875q0 -1.21875 0.5 -2.0625q0.484375 -0.84375 1.453125 -1.265625q0.703125 -0.296875 2.28125 -0.296875l7.078125 0l0 2.921875l-6.328125 0q-1.640625 0 -2.125 0.3125q-0.625 0.40625 -0.625 1.25q0 0.609375 0.375 1.15625q0.375 0.53125 1.109375 0.78125q0.71875 0.234375 2.28125 0.234375l5.3125 0l0 2.921875l-6.0625 0q-1.609375 0 -2.078125 0.15625q-0.46875 0.15625 -0.703125 0.484375q-0.234375 0.328125 -0.234375 0.890625q0 0.671875 0.375 1.21875q0.359375 0.546875 1.046875 0.78125q0.6875 0.234375 2.28125 0.234375l5.375 0l0 2.921875l-11.0625 0zm7.546875 -25.589111l0.484375 -2.90625q1.609375 0.546875 2.453125 1.765625q0.828125 1.21875 0.828125 3.03125q0 2.890625 -1.890625 4.28125q-1.5 1.09375 -3.8125 1.09375q-2.75 0 -4.296875 -1.4375q-1.5625 -1.4375 -1.5625 -3.640625q0 -2.46875 1.640625 -3.890625q1.625 -1.421875 4.984375 -1.359375l0 7.328125q1.296875 -0.03125 2.03125 -0.703125q0.71875 -0.6875 0.71875 -1.703125q0 -0.6875 -0.375 -1.15625q-0.375 -0.46875 -1.203125 -0.703125zm-2.96875 -0.171875q-1.265625 0.03125 -1.921875 0.65625q-0.671875 0.625 -0.671875 1.53125q0 0.953125 0.703125 1.578125q0.703125 0.625 1.890625 0.609375l0 -4.375zm6.484375 -8.736694l-12.6875 0l0 4.53125l-2.578125 0l0 -12.140625l2.578125 0l0 4.515625l12.6875 0l0 3.09375zm0 -11.194763l0 2.921875l-11.0625 0l0 -2.71875l1.578125 0q-1.125 -0.703125 -1.46875 -1.25q-0.359375 -0.5625 -0.359375 -1.265625q0 -1.0 0.5625 -1.9375l2.546875 0.90625q-0.484375 0.75 -0.484375 1.375q0 0.625 0.34375 1.046875q0.328125 0.421875 1.21875 0.671875q0.890625 0.25 3.703125 0.25l3.421875 0zm-7.6875 -7.690674l-0.484375 2.65625q-1.59375 -0.453125 -2.359375 -1.546875q-0.78125 -1.09375 -0.78125 -3.25q0 -1.953125 0.46875 -2.90625q0.453125 -0.96875 1.171875 -1.359375q0.71875 -0.390625 2.625 -0.390625l3.40625 0.03125q1.46875 0 2.15625 -0.125q0.6875 -0.140625 1.484375 -0.53125l0 2.890625q-0.296875 0.109375 -0.859375 0.28125q-0.265625 0.078125 -0.34375 0.109375q0.71875 0.75 1.09375 1.609375q0.359375 0.84375 0.359375 1.8125q0 1.703125 -0.921875 2.6875q-0.9375 0.984375 -2.34375 0.984375q-0.9375 0 -1.671875 -0.4375q-0.734375 -0.453125 -1.125 -1.25q-0.390625 -0.8125 -0.6875 -2.34375q-0.390625 -2.046875 -0.71875 -2.84375l-0.296875 0q-0.84375 0 -1.203125 0.421875q-0.359375 0.421875 -0.359375 1.578125q0 0.78125 0.3125 1.21875q0.3125 0.4375 1.078125 0.703125zm2.375 -3.921875q0.1875 0.5625 0.453125 1.78125q0.25 1.21875 0.5 1.59375q0.40625 0.578125 1.03125 0.578125q0.625 0 1.078125 -0.453125q0.4375 -0.46875 0.4375 -1.171875q0 -0.796875 -0.515625 -1.515625q-0.40625 -0.53125 -0.96875 -0.6875q-0.375 -0.125 -1.4375 -0.125l-0.578125 0zm5.3125 -15.814819l0 2.921875l-5.640625 0q-1.796875 0 -2.3125 0.1875q-0.53125 0.1875 -0.828125 0.609375q-0.296875 0.421875 -0.296875 1.015625q0 0.765625 0.421875 1.375q0.421875 0.59375 1.109375 0.828125q0.6875 0.21875 2.53125 0.21875l5.015625 0l0 2.921875l-11.0625 0l0 -2.71875l1.625 0q-1.875 -1.4375 -1.875 -3.640625q0 -0.96875 0.359375 -1.765625q0.34375 -0.8125 0.890625 -1.21875q0.53125 -0.40625 1.21875 -0.5625q0.6875 -0.171875 1.96875 -0.171875l6.875 0zm-3.15625 -1.9343262l-0.453125 -2.9375q0.859375 -0.1875 1.3125 -0.75q0.4375 -0.578125 0.4375 -1.609375q0 -1.140625 -0.421875 -1.71875q-0.296875 -0.375 -0.78125 -0.375q-0.328125 0 -0.546875 0.203125q-0.21875 0.21875 -0.390625 0.984375q-0.78125 3.53125 -1.421875 4.484375q-0.90625 1.3125 -2.5 1.3125q-1.4375 0 -2.40625 -1.125q-0.984375 -1.140625 -0.984375 -3.53125q0 -2.265625 0.75 -3.375q0.734375 -1.109375 2.171875 -1.515625l0.515625 2.75q-0.640625 0.1875 -0.984375 0.6875q-0.34375 0.484375 -0.34375 1.40625q0 1.15625 0.3125 1.65625q0.234375 0.328125 0.59375 0.328125q0.3125 0 0.53125 -0.296875q0.296875 -0.390625 0.828125 -2.71875q0.53125 -2.34375 1.296875 -3.28125q0.78125 -0.90625 2.1875 -0.90625q1.515625 0 2.609375 1.265625q1.09375 1.265625 1.09375 3.765625q0 2.25 -0.90625 3.578125q-0.921875 1.3125 -2.5 1.71875zm-7.90625 -11.611694l0 -1.625l-0.828125 0q-1.390625 0 -2.078125 -0.296875q-0.6875 -0.296875 -1.125 -1.09375q-0.4375 -0.796875 -0.4375 -2.015625q0 -1.25 0.375 -2.453125l2.046875 0.40625q-0.171875 0.6875 -0.171875 1.34375q0 0.625 0.296875 0.90625q0.296875 0.28125 1.140625 0.28125l0.78125 0l0 -2.1875l2.296875 0l0 2.1875l8.765625 0l0 2.921875l-8.765625 0l0 1.625l-2.296875 0zm5.375 -7.711792q-1.453125 0 -2.8125 -0.71875q-1.375 -0.71875 -2.09375 -2.03125q-0.71875 -1.3125 -0.71875 -2.9375q0 -2.515625 1.640625 -4.109375q1.625 -1.609375 4.109375 -1.609375q2.515625 0 4.171875 1.625q1.640625 1.609375 1.640625 4.0625q0 1.53125 -0.6875 2.90625q-0.6875 1.375 -2.015625 2.09375q-1.328125 0.71875 -3.234375 0.71875zm0.15625 -3.0q1.640625 0 2.515625 -0.78125q0.875 -0.78125 0.875 -1.921875q0 -1.140625 -0.875 -1.921875q-0.875 -0.78125 -2.53125 -0.78125q-1.625 0 -2.5 0.78125q-0.875 0.78125 -0.875 1.921875q0 1.140625 0.875 1.921875q0.875 0.78125 2.515625 0.78125zm5.53125 -13.496857l0 2.921875l-11.0625 0l0 -2.71875l1.578125 0q-1.125 -0.703125 -1.46875 -1.25q-0.359375 -0.5625 -0.359375 -1.265625q0 -1.0 0.5625 -1.9375l2.546875 0.90625q-0.484375 0.75 -0.484375 1.375q0 0.625 0.34375 1.046875q0.328125 0.421875 1.21875 0.671875q0.890625 0.25 3.703125 0.25l3.421875 0zm-11.0625 -5.284424l0 -2.703125l1.515625 0q-1.765625 -1.4375 -1.765625 -3.4375q0 -1.0625 0.4375 -1.84375q0.4375 -0.78125 1.328125 -1.28125q-0.890625 -0.734375 -1.328125 -1.578125q-0.4375 -0.84375 -0.4375 -1.796875q0 -1.21875 0.5 -2.0625q0.484375 -0.84375 1.453125 -1.265625q0.703125 -0.296875 2.28125 -0.296875l7.078125 0l0 2.921875l-6.328125 0q-1.640625 0 -2.125 0.3125q-0.625 0.40625 -0.625 1.25q0 0.609375 0.375 1.15625q0.375 0.53125 1.109375 0.78125q0.71875 0.234375 2.28125 0.234375l5.3125 0l0 2.921875l-6.0625 0q-1.609375 0 -2.078125 0.15625q-0.46875 0.15625 -0.703125 0.484375q-0.234375 0.328125 -0.234375 0.890625q0 0.671875 0.375 1.21875q0.359375 0.546875 1.046875 0.78125q0.6875 0.234375 2.28125 0.234375l5.375 0l0 2.921875l-11.0625 0zm6.09375 -18.417267l-0.296875 -3.0q1.515625 -0.28125 2.234375 -1.109375q0.703125 -0.828125 0.703125 -2.234375q0 -1.484375 -0.625 -2.234375q-0.640625 -0.765625 -1.484375 -0.765625q-0.546875 0 -0.921875 0.328125q-0.375 0.3125 -0.65625 1.109375q-0.1875 0.53125 -0.671875 2.46875q-0.609375 2.46875 -1.515625 3.46875q-1.25 1.40625 -3.0625 1.40625q-1.171875 0 -2.1875 -0.65625q-1.015625 -0.65625 -1.546875 -1.90625q-0.53125 -1.25 -0.53125 -3.0q0 -2.875 1.265625 -4.328125q1.265625 -1.453125 3.359375 -1.53125l0.140625 3.078125q-1.171875 0.203125 -1.6875 0.859375q-0.515625 0.640625 -0.515625 1.953125q0 1.34375 0.546875 2.09375q0.359375 0.5 0.953125 0.5q0.53125 0 0.921875 -0.46875q0.484375 -0.578125 1.015625 -2.828125q0.53125 -2.25 1.109375 -3.328125q0.5625 -1.078125 1.546875 -1.6875q0.984375 -0.609375 2.421875 -0.609375q1.3125 0 2.46875 0.734375q1.140625 0.734375 1.703125 2.0625q0.546875 1.328125 0.546875 3.3125q0 2.90625 -1.328125 4.453125q-1.34375 1.546875 -3.90625 1.859375zm1.453125 -21.397552l0.484375 -2.90625q1.609375 0.546875 2.453125 1.765625q0.828125 1.21875 0.828125 3.03125q0 2.890625 -1.890625 4.28125q-1.5 1.09375 -3.8125 1.09375q-2.75 0 -4.296875 -1.4375q-1.5625 -1.4375 -1.5625 -3.640625q0 -2.46875 1.640625 -3.890625q1.625 -1.421875 4.984375 -1.359375l0 7.328125q1.296875 -0.03125 2.03125 -0.703125q0.71875 -0.6875 0.71875 -1.703125q0 -0.6875 -0.375 -1.15625q-0.375 -0.46875 -1.203125 -0.703125zm-2.96875 -0.171875q-1.265625 0.03125 -1.921875 0.65625q-0.671875 0.625 -0.671875 1.53125q0 0.953125 0.703125 1.578125q0.703125 0.625 1.890625 0.609375l0 -4.375zm-4.578125 -10.361694l2.328125 0l0 2.0l4.46875 0q1.34375 0 1.578125 -0.046875q0.21875 -0.0625 0.375 -0.265625q0.140625 -0.203125 0.140625 -0.5q0 -0.40625 -0.28125 -1.171875l2.265625 -0.25q0.4375 1.015625 0.4375 2.3125q0 0.796875 -0.265625 1.4375q-0.265625 0.625 -0.6875 0.921875q-0.421875 0.296875 -1.140625 0.40625q-0.515625 0.09375 -2.0625 0.09375l-4.828125 0l0 1.34375l-2.328125 0l0 -1.34375l-2.1875 0l-1.71875 -2.9375l3.90625 0l0 -2.0z" fill-rule="nonzero"/><path fill="#99b62e" d="m561.45746 651.203l0 0c0 -7.7147217 25.889954 -13.968689 57.826782 -13.968689c31.936829 0 57.826782 6.2539673 57.826782 13.968689l0 55.874817c0 7.7146606 -25.889954 13.968689 -57.826782 13.968689c-31.936829 0 -57.826782 -6.2540283 -57.826782 -13.968689z" fill-rule="evenodd"/><path fill="#000000" fill-opacity="0.0" d="m677.111 651.203l0 0c0 7.7146606 -25.889954 13.968689 -57.826782 13.968689c-31.936829 0 -57.826782 -6.2540283 -57.826782 -13.968689" fill-rule="evenodd"/><path fill="#000000" fill-opacity="0.0" d="m561.45746 651.203l0 0c0 -7.7147217 25.889954 -13.968689 57.826782 -13.968689c31.936829 0 57.826782 6.2539673 57.826782 13.968689l0 55.874817c0 7.7146606 -25.889954 13.968689 -57.826782 13.968689c-31.936829 0 -57.826782 -6.2540283 -57.826782 -13.968689z" fill-rule="evenodd"/><path stroke="#c9ee43" stroke-width="1.0" stroke-linejoin="round" stroke-linecap="butt" d="m677.111 651.203l0 0c0 7.7146606 -25.889954 13.968689 -57.826782 13.968689c-31.936829 0 -57.826782 -6.2540283 -57.826782 -13.968689" fill-rule="evenodd"/><path stroke="#c9ee43" stroke-width="1.0" stroke-linejoin="round" stroke-linecap="butt" d="m561.45746 651.203l0 0c0 -7.7147217 25.889954 -13.968689 57.826782 -13.968689c31.936829 0 57.826782 6.2539673 57.826782 13.968689l0 55.874817c0 7.7146606 -25.889954 13.968689 -57.826782 13.968689c-31.936829 0 -57.826782 -6.2540283 -57.826782 -13.968689z" fill-rule="evenodd"/><path fill="#ffffff" d="m588.0522 687.7023l2.421875 0.765625q-0.5625 2.03125 -1.859375 3.03125q-1.296875 0.984375 -3.296875 0.984375q-2.46875 0 -4.0625 -1.6875q-1.578125 -1.703125 -1.578125 -4.625q0 -3.09375 1.59375 -4.796875q1.59375 -1.71875 4.203125 -1.71875q2.28125 0 3.703125 1.34375q0.84375 0.796875 1.265625 2.28125l-2.484375 0.59375q-0.21875 -0.96875 -0.921875 -1.515625q-0.6875 -0.5625 -1.6875 -0.5625q-1.375 0 -2.234375 0.984375q-0.859375 0.984375 -0.859375 3.203125q0 2.359375 0.84375 3.359375q0.84375 1.0 2.203125 1.0q1.0 0 1.71875 -0.640625q0.71875 -0.640625 1.03125 -2.0zm3.99823 -0.0625q0 -1.171875 0.578125 -2.28125q0.59375 -1.109375 1.65625 -1.6875q1.078125 -0.59375 2.40625 -0.59375q2.03125 0 3.328125 1.328125q1.3125 1.3125 1.3125 3.34375q0 2.03125 -1.328125 3.375q-1.3125 1.34375 -3.296875 1.34375q-1.234375 0 -2.359375 -0.546875q-1.125 -0.5625 -1.71875 -1.640625q-0.578125 -1.09375 -0.578125 -2.640625zm2.4375 0.125q0 1.34375 0.640625 2.0625q0.640625 0.703125 1.5625 0.703125q0.9375 0 1.5625 -0.703125q0.625 -0.71875 0.625 -2.078125q0 -1.3125 -0.625 -2.015625q-0.625 -0.71875 -1.5625 -0.71875q-0.921875 0 -1.5625 0.71875q-0.640625 0.703125 -0.640625 2.03125zm16.881592 4.5l-2.375 0l0 -4.578125q0 -1.46875 -0.15625 -1.890625q-0.15625 -0.421875 -0.5 -0.65625q-0.34375 -0.25 -0.828125 -0.25q-0.609375 0 -1.109375 0.34375q-0.484375 0.34375 -0.671875 0.90625q-0.171875 0.546875 -0.171875 2.0625l0 4.0625l-2.375 0l0 -8.984375l2.203125 0l0 1.3125q1.171875 -1.515625 2.953125 -1.515625q0.796875 0 1.4375 0.28125q0.65625 0.28125 0.984375 0.734375q0.34375 0.4375 0.46875 1.0q0.140625 0.546875 0.140625 1.59375l0 5.578125zm6.522217 -8.984375l0 1.890625l-1.625 0l0 3.625q0 1.09375 0.046875 1.28125q0.046875 0.1875 0.203125 0.3125q0.171875 0.109375 0.421875 0.109375q0.328125 0 0.953125 -0.234375l0.203125 1.84375q-0.828125 0.359375 -1.875 0.359375q-0.65625 0 -1.171875 -0.21875q-0.515625 -0.21875 -0.765625 -0.546875q-0.234375 -0.34375 -0.3125 -0.9375q-0.078125 -0.40625 -0.078125 -1.671875l0 -3.921875l-1.09375 0l0 -1.890625l1.09375 0l0 -1.78125l2.375 -1.390625l0 3.171875l1.625 0zm3.4266357 2.734375l-2.15625 -0.390625q0.375 -1.296875 1.25 -1.921875q0.890625 -0.625 2.640625 -0.625q1.59375 0 2.375 0.375q0.78125 0.375 1.09375 0.953125q0.3125 0.578125 0.3125 2.125l-0.015625 2.78125q0 1.1875 0.109375 1.75q0.109375 0.5625 0.421875 1.203125l-2.34375 0q-0.09375 -0.234375 -0.234375 -0.703125q-0.0625 -0.203125 -0.078125 -0.28125q-0.609375 0.59375 -1.3125 0.890625q-0.6875 0.296875 -1.46875 0.296875q-1.390625 0 -2.1875 -0.75q-0.796875 -0.75 -0.796875 -1.90625q0 -0.765625 0.359375 -1.359375q0.359375 -0.59375 1.015625 -0.90625q0.65625 -0.328125 1.890625 -0.5625q1.671875 -0.3125 2.3125 -0.578125l0 -0.234375q0 -0.6875 -0.34375 -0.984375q-0.328125 -0.296875 -1.28125 -0.296875q-0.625 0 -0.984375 0.25q-0.359375 0.25 -0.578125 0.875zm3.1875 1.9375q-0.453125 0.15625 -1.453125 0.375q-0.984375 0.203125 -1.296875 0.40625q-0.453125 0.328125 -0.453125 0.828125q0 0.5 0.359375 0.875q0.375 0.359375 0.953125 0.359375q0.640625 0 1.234375 -0.421875q0.421875 -0.328125 0.5625 -0.796875q0.09375 -0.296875 0.09375 -1.15625l0 -0.46875zm4.68396 -5.890625l0 -2.203125l2.375 0l0 2.203125l-2.375 0zm0 10.203125l0 -8.984375l2.375 0l0 8.984375l-2.375 0zm12.986206 0l-2.375 0l0 -4.578125q0 -1.46875 -0.15625 -1.890625q-0.15625 -0.421875 -0.5 -0.65625q-0.34375 -0.25 -0.828125 -0.25q-0.609375 0 -1.109375 0.34375q-0.484375 0.34375 -0.671875 0.90625q-0.171875 0.546875 -0.171875 2.0625l0 4.0625l-2.375 0l0 -8.984375l2.203125 0l0 1.3125q1.171875 -1.515625 2.953125 -1.515625q0.796875 0 1.4375 0.28125q0.65625 0.28125 0.984375 0.734375q0.34375 0.4375 0.46875 1.0q0.140625 0.546875 0.140625 1.59375l0 5.578125zm7.615967 -2.859375l2.359375 0.390625q-0.453125 1.3125 -1.4375 2.0q-0.984375 0.671875 -2.46875 0.671875q-2.34375 0 -3.46875 -1.53125q-0.890625 -1.234375 -0.890625 -3.09375q0 -2.234375 1.171875 -3.5q1.171875 -1.265625 2.953125 -1.265625q2.0 0 3.15625 1.328125q1.171875 1.3125 1.109375 4.046875l-5.953125 0q0.03125 1.0625 0.578125 1.65625q0.546875 0.578125 1.375 0.578125q0.546875 0 0.921875 -0.296875q0.390625 -0.3125 0.59375 -0.984375zm0.125 -2.40625q-0.015625 -1.03125 -0.53125 -1.5625q-0.5 -0.546875 -1.234375 -0.546875q-0.78125 0 -1.28125 0.578125q-0.515625 0.5625 -0.5 1.53125l3.546875 0zm6.574585 5.265625l-2.375 0l0 -8.984375l2.203125 0l0 1.28125q0.578125 -0.90625 1.03125 -1.1875q0.453125 -0.296875 1.015625 -0.296875q0.8125 0 1.578125 0.453125l-0.734375 2.0625q-0.609375 -0.390625 -1.125 -0.390625q-0.5 0 -0.84375 0.28125q-0.34375 0.28125 -0.546875 1.0q-0.203125 0.71875 -0.203125 3.0l0 2.78125z" fill-rule="nonzero"/><path fill="#20124d" d="m702.56866 677.9969l0 -11.142944l0 0c0 -12.000671 9.728455 -21.729065 21.729065 -21.729065l25.3703 0l0 0c5.7628784 0 11.289795 2.2893066 15.364746 6.364258c4.075012 4.075012 6.364319 9.601868 6.364319 15.364807l0 0l3.9176636 0l-8.218018 11.142944l-8.217957 -11.142944l3.9176636 0l0 0c0 -7.2506714 -5.8778076 -13.128418 -13.128418 -13.128418l-25.3703 0l0 0c-7.2506104 0 -13.128418 5.8777466 -13.128418 13.128418l0 11.142944z" fill-rule="evenodd"/><path stroke="#20124d" stroke-width="1.0" stroke-linejoin="round" stroke-linecap="butt" d="m702.56866 677.9969l0 -11.142944l0 0c0 -12.000671 9.728455 -21.729065 21.729065 -21.729065l25.3703 0l0 0c5.7628784 0 11.289795 2.2893066 15.364746 6.364258c4.075012 4.075012 6.364319 9.601868 6.364319 15.364807l0 0l3.9176636 0l-8.218018 11.142944l-8.217957 -11.142944l3.9176636 0l0 0c0 -7.2506714 -5.8778076 -13.128418 -13.128418 -13.128418l-25.3703 0l0 0c-7.2506104 0 -13.128418 5.8777466 -13.128418 13.128418l0 11.142944z" fill-rule="evenodd"/><path fill="#20124d" d="m772.4713 680.2835l0 11.143005l0 0c0 12.00061 -9.728455 21.729004 -21.729065 21.729004l-25.3703 0l0 0c-5.7628784 0 -11.289734 -2.2893066 -15.364746 -6.364258c-4.075012 -4.075012 -6.364319 -9.601868 -6.364319 -15.364746l0 0l-3.9176636 0l8.218018 -11.143005l8.218018 11.143005l-3.9177246 0l0 0c0 7.2506104 5.8778076 13.128418 13.128418 13.128418l25.3703 0l0 0c7.2506104 0 13.128418 -5.8778076 13.128418 -13.128418l0 -11.143005z" fill-rule="evenodd"/><path stroke="#20124d" stroke-width="1.0" stroke-linejoin="round" stroke-linecap="butt" d="m772.4713 680.2835l0 11.143005l0 0c0 12.00061 -9.728455 21.729004 -21.729065 21.729004l-25.3703 0l0 0c-5.7628784 0 -11.289734 -2.2893066 -15.364746 -6.364258c-4.075012 -4.075012 -6.364319 -9.601868 -6.364319 -15.364746l0 0l-3.9176636 0l8.218018 -11.143005l8.218018 11.143005l-3.9177246 0l0 0c0 7.2506104 5.8778076 13.128418 13.128418 13.128418l25.3703 0l0 0c7.2506104 0 13.128418 -5.8778076 13.128418 -13.128418l0 -11.143005z" fill-rule="evenodd"/></g></svg>