<svg version="1.1" viewBox="0.0 0.0 846.9265091863517 432.4488188976378" fill="none" stroke="none" stroke-linecap="square" stroke-miterlimit="10" xmlns:xlink="http://www.w3.org/1999/xlink" xmlns="http://www.w3.org/2000/svg"><clipPath id="p.0"><path d="m0 0l846.9265 0l0 432.44882l-846.9265 0l0 -432.44882z" clip-rule="nonzero"/></clipPath><g clip-path="url(#p.0)"><path fill="#000000" fill-opacity="0.0" d="m0 0l846.9265 0l0 432.44882l-846.9265 0z" fill-rule="evenodd"/><path fill="#0b5394" d="m19.555119 147.45963l0 0c0 -8.691772 7.046074 -15.737839 15.737846 -15.737839l237.94162 0c4.17395 0 8.17691 1.658081 11.128357 4.6095123c2.951416 2.951416 4.609497 6.9543915 4.609497 11.128326l0 62.94951c0 8.691772 -7.0460815 15.737854 -15.737854 15.737854l-237.94162 0c-8.691772 0 -15.737846 -7.0460815 -15.737846 -15.737854z" fill-rule="evenodd"/><path stroke="#0b5394" stroke-width="1.0" stroke-linejoin="round" stroke-linecap="butt" d="m19.555119 147.45963l0 0c0 -8.691772 7.046074 -15.737839 15.737846 -15.737839l237.94162 0c4.17395 0 8.17691 1.658081 11.128357 4.6095123c2.951416 2.951416 4.609497 6.9543915 4.609497 11.128326l0 62.94951c0 8.691772 -7.0460815 15.737854 -15.737854 15.737854l-237.94162 0c-8.691772 0 -15.737846 -7.0460815 -15.737846 -15.737854z" fill-rule="evenodd"/><path fill="#ffffff" d="m46.340466 185.85439q-0.296875 0 -0.515625 -0.203125q-0.21875 -0.21875 -0.21875 -0.53125l0 -13.109375q0 -0.3125 0.203125 -0.515625q0.21875 -0.21875 0.53125 -0.21875l8.75 0q0.3125 0 0.515625 0.203125q0.203125 0.203125 0.203125 0.515625q0 0.28125 -0.203125 0.484375q-0.203125 0.203125 -0.515625 0.203125l-8.015625 0l0 5.15625l5.828125 0q0.328125 0 0.53125 0.203125q0.203125 0.203125 0.203125 0.5q0 0.296875 -0.203125 0.5q-0.203125 0.203125 -0.53125 0.203125l-5.828125 0l0 5.875q0 0.3125 -0.21875 0.53125q-0.203125 0.203125 -0.515625 0.203125zm12.503906 -6.28125q0.046875 -1.15625 0.59375 -2.0625q0.5625 -0.921875 1.4375 -1.4375q0.890625 -0.53125 1.96875 -0.53125q0.859375 0 1.3281212 0.25q0.46875 0.234375 0.359375 0.703125q-0.078125 0.28125 -0.265625 0.375q-0.171875 0.078125 -0.4218712 0.0625q-0.25 -0.015625 -0.5625 -0.03125q-1.046875 -0.09375 -1.859375 0.21875q-0.8125 0.296875 -1.296875 0.9375q-0.46875 0.640625 -0.46875 1.515625l-0.8125 0zm0.109375 6.28125q-0.34375 0 -0.53125 -0.1875q-0.1875 -0.1875 -0.1875 -0.515625l0 -8.796875q0 -0.328125 0.1875 -0.515625q0.1875 -0.1875 0.53125 -0.1875q0.328125 0 0.515625 0.1875q0.1875 0.1875 0.1875 0.515625l0 8.796875q0 0.328125 -0.1875 0.515625q-0.1875 0.1875 -0.515625 0.1875zm11.579144 0.09375q-1.4375 0 -2.578125 -0.671875q-1.125 -0.6875 -1.796875 -1.859375q-0.65625 -1.1875 -0.65625 -2.65625q0 -1.484375 0.671875 -2.65625q0.6875 -1.1875 1.859375 -1.859375q1.171875 -0.6875 2.65625 -0.6875q1.46875 0 2.625 0.6875q1.171875 0.671875 1.859375 1.859375q0.6875 1.171875 0.703125 2.65625l-0.578125 0.453125q0 1.34375 -0.625 2.421875q-0.625 1.0625 -1.703125 1.6875q-1.078125 0.625 -2.4375 0.625zm0.15625 -1.3125q1.078125 0 1.921875 -0.5q0.859375 -0.5 1.34375 -1.390625q0.5 -0.890625 0.5 -1.984375q0 -1.125 -0.5 -2.0q-0.484375 -0.875 -1.34375 -1.390625q-0.84375 -0.515625 -1.921875 -0.515625q-1.0625 0 -1.921875 0.515625q-0.859375 0.515625 -1.375 1.390625q-0.5 0.875 -0.5 2.0q0 1.09375 0.5 1.984375q0.515625 0.890625 1.375 1.390625q0.859375 0.5 1.921875 0.5zm4.453125 1.21875q-0.3125 0 -0.515625 -0.1875q-0.203125 -0.203125 -0.203125 -0.515625l0 -3.203125l0.34375 -1.46875l1.109375 0.28125l0 4.390625q0 0.3125 -0.21875 0.515625q-0.203125 0.1875 -0.515625 0.1875zm17.31778 0q-0.3125 0 -0.53125 -0.1875q-0.203125 -0.203125 -0.203125 -0.515625l0 -5.375q0 -1.328125 -0.6875 -2.09375q-0.6875 -0.78125 -1.765625 -0.78125q-1.15625 0 -1.90625 0.78125q-0.734375 0.765625 -0.71875 2.046875l-1.28125 0q0.015625 -1.25 0.53125 -2.1875q0.53125 -0.953125 1.4375 -1.46875q0.921875 -0.53125 2.078125 -0.53125q1.109375 0 1.953125 0.53125q0.84375 0.515625 1.3125 1.46875q0.484375 0.9375 0.484375 2.234375l0 5.375q0 0.3125 -0.203125 0.515625q-0.1875 0.1875 -0.5 0.1875zm-13.0625 0q-0.328125 0 -0.53125 -0.1875q-0.203125 -0.203125 -0.203125 -0.515625l0 -8.78125q0 -0.3125 0.203125 -0.515625q0.203125 -0.203125 0.53125 -0.203125q0.3125 0 0.5 0.203125q0.203125 0.203125 0.203125 0.515625l0 8.78125q0 0.3125 -0.203125 0.515625q-0.1875 0.1875 -0.5 0.1875zm6.546875 0q-0.3125 0 -0.515625 -0.1875q-0.203125 -0.203125 -0.203125 -0.515625l0 -5.375q0 -1.328125 -0.703125 -2.09375q-0.6875 -0.78125 -1.765625 -0.78125q-1.15625 0 -1.90625 0.765625q-0.75 0.75 -0.75 1.953125l-1.015625 0q0.03125 -1.1875 0.515625 -2.109375q0.5 -0.921875 1.359375 -1.4375q0.859375 -0.53125 1.9375 -0.53125q1.109375 0 1.953125 0.53125q0.859375 0.515625 1.328125 1.46875q0.46875 0.9375 0.46875 2.234375l0 5.375q0 0.3125 -0.203125 0.515625q-0.1875 0.1875 -0.5 0.1875zm15.02684 0.09375q-1.515625 0 -2.6875 -0.65625q-1.15625 -0.671875 -1.828125 -1.84375q-0.65625 -1.171875 -0.65625 -2.6875q0 -1.53125 0.625 -2.6875q0.625 -1.171875 1.71875 -1.84375q1.109375 -0.671875 2.546875 -0.671875q1.40625 0 2.453125 0.640625q1.0625 0.640625 1.640625 1.78125q0.578125 1.140625 0.578125 2.59375q0 0.296875 -0.1875 0.484375q-0.1875 0.171875 -0.484375 0.171875l-7.921875 0l0 -1.203125l8.078125 0l-0.796875 0.578125q0.015625 -1.078125 -0.40625 -1.9375q-0.40625 -0.859375 -1.15625 -1.34375q-0.75 -0.484375 -1.796875 -0.484375q-1.0625 0 -1.875 0.515625q-0.796875 0.5 -1.234375 1.390625q-0.4375 0.875 -0.4375 2.015625q0 1.140625 0.484375 2.015625q0.5 0.875 1.359375 1.390625q0.859375 0.5 1.984375 0.5q0.671875 0 1.34375 -0.234375q0.6875 -0.234375 1.09375 -0.59375q0.203125 -0.171875 0.46875 -0.171875q0.265625 -0.015625 0.4375 0.140625q0.25 0.21875 0.25 0.484375q0.015625 0.25 -0.203125 0.4375q-0.625 0.53125 -1.578125 0.875q-0.9375 0.34375 -1.8125 0.34375zm8.436188 -0.09375q-0.296875 0 -0.515625 -0.203125q-0.203125 -0.21875 -0.203125 -0.53125l0 -13.84375l1.453125 0l0 13.84375q0 0.3125 -0.203125 0.53125q-0.203125 0.203125 -0.53125 0.203125zm-5.140625 -13.25q-0.296875 0 -0.484375 -0.1875q-0.1875 -0.1875 -0.1875 -0.46875q0 -0.296875 0.1875 -0.484375q0.1875 -0.1875 0.484375 -0.1875l10.3125 0q0.296875 0 0.484375 0.1875q0.1875 0.1875 0.1875 0.484375q0 0.28125 -0.1875 0.46875q-0.1875 0.1875 -0.484375 0.1875l-10.3125 0zm10.934647 6.96875q0.046875 -1.15625 0.59375 -2.0625q0.5625 -0.921875 1.4375 -1.4375q0.890625 -0.53125 1.96875 -0.53125q0.859375 0 1.328125 0.25q0.46875 0.234375 0.359375 0.703125q-0.078125 0.28125 -0.265625 0.375q-0.171875 0.078125 -0.421875 0.0625q-0.25 -0.015625 -0.5625 -0.03125q-1.046875 -0.09375 -1.859375 0.21875q-0.8125 0.296875 -1.296875 0.9375q-0.46875 0.640625 -0.46875 1.515625l-0.8125 0zm0.109375 6.28125q-0.34375 0 -0.53125 -0.1875q-0.1875 -0.1875 -0.1875 -0.515625l0 -8.796875q0 -0.328125 0.1875 -0.515625q0.1875 -0.1875 0.53125 -0.1875q0.328125 0 0.515625 0.1875q0.1875 0.1875 0.1875 0.515625l0 8.796875q0 0.328125 -0.1875 0.515625q-0.1875 0.1875 -0.515625 0.1875zm11.579147 0.09375q-1.4375 0 -2.578125 -0.671875q-1.125 -0.6875 -1.796875 -1.859375q-0.65625 -1.1875 -0.65625 -2.65625q0 -1.484375 0.671875 -2.65625q0.6875 -1.1875 1.859375 -1.859375q1.171875 -0.6875 2.65625 -0.6875q1.4687576 0 2.6250076 0.6875q1.171875 0.671875 1.859375 1.859375q0.6875 1.171875 0.703125 2.65625l-0.578125 0.453125q0 1.34375 -0.625 2.421875q-0.625 1.0625 -1.703125 1.6875q-1.078125 0.625 -2.4375076 0.625zm0.15625 -1.3125q1.0781326 0 1.9218826 -0.5q0.859375 -0.5 1.34375 -1.390625q0.5 -0.890625 0.5 -1.984375q0 -1.125 -0.5 -2.0q-0.484375 -0.875 -1.34375 -1.390625q-0.84375 -0.515625 -1.9218826 -0.515625q-1.0625 0 -1.921875 0.515625q-0.859375 0.515625 -1.375 1.390625q-0.5 0.875 -0.5 2.0q0 1.09375 0.5 1.984375q0.515625 0.890625 1.375 1.390625q0.859375 0.5 1.921875 0.5zm4.4531326 1.21875q-0.3125 0 -0.515625 -0.1875q-0.203125 -0.203125 -0.203125 -0.515625l0 -3.203125l0.34375 -1.46875l1.109375 0.28125l0 4.390625q0 0.3125 -0.21875 0.515625q-0.203125 0.1875 -0.515625 0.1875zm12.270905 0q-0.3125 0 -0.515625 -0.203125q-0.203125 -0.203125 -0.203125 -0.5l0 -4.859375q0 -1.15625 -0.4375 -1.890625q-0.4375 -0.75 -1.203125 -1.125q-0.75 -0.375 -1.703125 -0.375q-0.90625 0 -1.65625 0.359375q-0.734375 0.34375 -1.171875 0.96875q-0.421875 0.609375 -0.421875 1.390625l-1.015625 0q0.03125 -1.171875 0.625 -2.09375q0.609375 -0.921875 1.59375 -1.453125q0.984375 -0.53125 2.203125 -0.53125q1.3125 0 2.359375 0.546875q1.046875 0.546875 1.65625 1.609375q0.609375 1.0625 0.609375 2.59375l0 4.859375q0 0.296875 -0.203125 0.5q-0.203125 0.203125 -0.515625 0.203125zm-8.015625 0q-0.328125 0 -0.53125 -0.1875q-0.203125 -0.203125 -0.203125 -0.515625l0 -8.78125q0 -0.328125 0.203125 -0.515625q0.203125 -0.203125 0.53125 -0.203125q0.3125 0 0.5 0.203125q0.203125 0.1875 0.203125 0.515625l0 8.78125q0 0.3125 -0.203125 0.515625q-0.1875 0.1875 -0.5 0.1875zm15.47403 0.09375q-1.109375 0 -2.1875 -0.375q-1.078125 -0.375 -1.75 -1.125q-0.21875 -0.21875 -0.1875 -0.5q0.046875 -0.28125 0.296875 -0.484375q0.25 -0.1875 0.53125 -0.140625q0.28125 0.03125 0.46875 0.234375q0.453125 0.53125 1.1875 0.8125q0.734375 0.265625 1.640625 0.265625q1.375 0 1.984375 -0.46875q0.625 -0.484375 0.640625 -1.140625q0 -0.671875 -0.640625 -1.109375q-0.625 -0.453125 -2.078125 -0.6875q-1.890625 -0.296875 -2.765625 -1.046875q-0.875 -0.75 -0.875 -1.765625q0 -0.953125 0.5 -1.578125q0.5 -0.640625 1.34375 -0.953125q0.84375 -0.328125 1.84375 -0.328125q1.25 0 2.15625 0.4375q0.90625 0.421875 1.46875 1.140625q0.1875 0.25 0.140625 0.515625q-0.03125 0.25 -0.296875 0.421875q-0.21875 0.125 -0.515625 0.078125q-0.28125 -0.046875 -0.484375 -0.265625q-0.46875 -0.53125 -1.09375 -0.78125q-0.609375 -0.265625 -1.40625 -0.265625q-1.03125 0 -1.65625 0.421875q-0.609375 0.421875 -0.609375 1.0625q0 0.421875 0.234375 0.75q0.234375 0.3125 0.796875 0.5625q0.578125 0.234375 1.609375 0.390625q1.390625 0.234375 2.203125 0.671875q0.8125 0.4375 1.15625 1.03125q0.34375 0.578125 0.34375 1.265625q0 0.875 -0.515625 1.546875q-0.5 0.65625 -1.40625 1.03125q-0.90625 0.375 -2.078125 0.375zm7.75885 -0.09375q-0.28125 0 -0.5 -0.1875q-0.203125 -0.203125 -0.203125 -0.546875l0 -9.453125q0 -1.3125 0.453125 -2.296875q0.453125 -0.984375 1.328125 -1.53125q0.875 -0.5625 2.140625 -0.5625q0.328125 0 0.53125 0.1875q0.203125 0.1875 0.203125 0.46875q0 0.28125 -0.203125 0.46875q-0.203125 0.1875 -0.53125 0.1875q-0.84375 0 -1.390625 0.390625q-0.546875 0.375 -0.828125 1.0625q-0.265625 0.671875 -0.265625 1.546875l0 9.53125q0 0.34375 -0.203125 0.546875q-0.1875 0.1875 -0.53125 0.1875zm-1.890625 -8.578125q-0.296875 0 -0.484375 -0.171875q-0.171875 -0.1875 -0.171875 -0.453125q0 -0.28125 0.171875 -0.453125q0.1875 -0.171875 0.484375 -0.171875l4.875 0q0.296875 0 0.46875 0.171875q0.171875 0.171875 0.171875 0.453125q0 0.265625 -0.171875 0.453125q-0.171875 0.171875 -0.46875 0.171875l-4.875 0zm11.720474 8.671875q-1.5 0 -2.671875 -0.671875q-1.171875 -0.671875 -1.84375 -1.84375q-0.671875 -1.171875 -0.671875 -2.671875q0 -1.515625 0.671875 -2.6875q0.671875 -1.171875 1.84375 -1.84375q1.171875 -0.671875 2.671875 -0.671875q1.484375 0 2.65625 0.671875q1.171875 0.671875 1.84375 1.84375q0.671875 1.171875 0.6875 2.6875q0 1.5 -0.6875 2.671875q-0.671875 1.171875 -1.84375 1.84375q-1.171875 0.671875 -2.65625 0.671875zm0 -1.3125q1.078125 0 1.9375 -0.5q0.859375 -0.5 1.34375 -1.375q0.484375 -0.875 0.484375 -2.0q0 -1.125 -0.484375 -2.0q-0.484375 -0.890625 -1.34375 -1.390625q-0.859375 -0.515625 -1.9375 -0.515625q-1.078125 0 -1.9375 0.515625q-0.859375 0.5 -1.359375 1.390625q-0.5 0.875 -0.5 2.0q0 1.125 0.5 2.0q0.5 0.875 1.359375 1.375q0.859375 0.5 1.9375 0.5zm8.583405 -5.0625q0.046875 -1.15625 0.59375 -2.0625q0.5625 -0.921875 1.4375 -1.4375q0.890625 -0.53125 1.96875 -0.53125q0.859375 0 1.328125 0.25q0.46875 0.234375 0.359375 0.703125q-0.078125 0.28125 -0.265625 0.375q-0.171875 0.078125 -0.421875 0.0625q-0.25 -0.015625 -0.5625 -0.03125q-1.046875 -0.09375 -1.859375 0.21875q-0.8125 0.296875 -1.296875 0.9375q-0.46875 0.640625 -0.46875 1.515625l-0.8125 0zm0.109375 6.28125q-0.34375 0 -0.53125 -0.1875q-0.1875 -0.1875 -0.1875 -0.515625l0 -8.796875q0 -0.328125 0.1875 -0.515625q0.1875 -0.1875 0.53125 -0.1875q0.328125 0 0.515625 0.1875q0.1875 0.1875 0.1875 0.515625l0 8.796875q0 0.328125 -0.1875 0.515625q-0.1875 0.1875 -0.515625 0.1875zm21.622696 0q-0.3125 0 -0.53125 -0.1875q-0.203125 -0.203125 -0.203125 -0.515625l0 -5.375q0 -1.328125 -0.6875 -2.09375q-0.6875 -0.78125 -1.765625 -0.78125q-1.15625 0 -1.90625 0.78125q-0.734375 0.765625 -0.71875 2.046875l-1.28125 0q0.015625 -1.25 0.53125 -2.1875q0.53125 -0.953125 1.4375 -1.46875q0.921875 -0.53125 2.078125 -0.53125q1.109375 0 1.953125 0.53125q0.84375 0.515625 1.3125 1.46875q0.484375 0.9375 0.484375 2.234375l0 5.375q0 0.3125 -0.203125 0.515625q-0.1875 0.1875 -0.5 0.1875zm-13.0625 0q-0.328125 0 -0.53125 -0.1875q-0.203125 -0.203125 -0.203125 -0.515625l0 -8.78125q0 -0.3125 0.203125 -0.515625q0.203125 -0.203125 0.53125 -0.203125q0.3125 0 0.5 0.203125q0.203125 0.203125 0.203125 0.515625l0 8.78125q0 0.3125 -0.203125 0.515625q-0.1875 0.1875 -0.5 0.1875zm6.546875 0q-0.3125 0 -0.515625 -0.1875q-0.203125 -0.203125 -0.203125 -0.515625l0 -5.375q0 -1.328125 -0.703125 -2.09375q-0.6875 -0.78125 -1.765625 -0.78125q-1.15625 0 -1.90625 0.765625q-0.75 0.75 -0.75 1.953125l-1.015625 0q0.03125 -1.1875 0.515625 -2.109375q0.5 -0.921875 1.359375 -1.4375q0.859375 -0.53125 1.9375 -0.53125q1.109375 0 1.953125 0.53125q0.859375 0.515625 1.328125 1.46875q0.46875 0.9375 0.46875 2.234375l0 5.375q0 0.3125 -0.203125 0.515625q-0.1875 0.1875 -0.5 0.1875zm15.05809 0.1875q-1.1875 0 -2.21875 -0.34375q-1.015625 -0.34375 -1.765625 -0.96875q-0.734375 -0.640625 -1.125 -1.484375q-0.15625 -0.296875 -0.015625 -0.546875q0.140625 -0.265625 0.484375 -0.34375q0.25 -0.078125 0.5 0.046875q0.265625 0.125 0.390625 0.390625q0.28125 0.546875 0.8125 0.984375q0.546875 0.421875 1.296875 0.65625q0.75 0.234375 1.640625 0.234375q0.984375 0 1.75 -0.328125q0.765625 -0.328125 1.203125 -0.953125q0.4375 -0.625 0.4375 -1.53125q0 -1.125 -0.84375 -1.9375q-0.828125 -0.828125 -2.625 -1.0625q-2.1875 -0.25 -3.421875 -1.34375q-1.21875 -1.09375 -1.21875 -2.6875q0 -1.125 0.59375 -1.96875q0.609375 -0.84375 1.671875 -1.296875q1.078125 -0.453125 2.453125 -0.453125q1.03125 0 1.859375 0.328125q0.84375 0.3125 1.46875 0.84375q0.625 0.53125 1.015625 1.171875q0.1875 0.296875 0.125 0.578125q-0.0625 0.28125 -0.328125 0.421875q-0.28125 0.140625 -0.578125 0.046875q-0.28125 -0.09375 -0.421875 -0.359375q-0.28125 -0.421875 -0.703125 -0.796875q-0.421875 -0.390625 -1.03125 -0.609375q-0.59375 -0.234375 -1.421875 -0.25q-1.484375 0 -2.375 0.625q-0.890625 0.625 -0.890625 1.8125q0 0.640625 0.328125 1.171875q0.34375 0.53125 1.109375 0.921875q0.78125 0.375 2.078125 0.5625q2.34375 0.328125 3.46875 1.421875q1.125 1.09375 1.125 2.84375q0 1.015625 -0.359375 1.796875q-0.359375 0.78125 -1.03125 1.3125q-0.65625 0.53125 -1.546875 0.8125q-0.890625 0.28125 -1.890625 0.28125zm12.319183 -0.09375q-1.515625 0 -2.6875 -0.65625q-1.15625 -0.671875 -1.828125 -1.84375q-0.65625 -1.171875 -0.65625 -2.6875q0 -1.53125 0.625 -2.6875q0.625 -1.171875 1.71875 -1.84375q1.109375 -0.671875 2.546875 -0.671875q1.40625 0 2.453125 0.640625q1.0625 0.640625 1.640625 1.78125q0.578125 1.140625 0.578125 2.59375q0 0.296875 -0.1875 0.484375q-0.1875 0.171875 -0.484375 0.171875l-7.921875 0l0 -1.203125l8.078125 0l-0.796875 0.578125q0.015625 -1.078125 -0.40625 -1.9375q-0.40625 -0.859375 -1.15625 -1.34375q-0.75 -0.484375 -1.796875 -0.484375q-1.0625 0 -1.875 0.515625q-0.796875 0.5 -1.234375 1.390625q-0.4375 0.875 -0.4375 2.015625q0 1.140625 0.484375 2.015625q0.5 0.875 1.359375 1.390625q0.859375 0.5 1.984375 0.5q0.671875 0 1.34375 -0.234375q0.6875 -0.234375 1.09375 -0.59375q0.203125 -0.171875 0.46875 -0.171875q0.265625 -0.015625 0.4375 0.140625q0.25 0.21875 0.25 0.484375q0.015625 0.25 -0.203125 0.4375q-0.625 0.53125 -1.578125 0.875q-0.9375 0.34375 -1.8125 0.34375zm7.423691 -6.375q0.046875 -1.15625 0.59375 -2.0625q0.5625 -0.921875 1.4375 -1.4375q0.890625 -0.53125 1.96875 -0.53125q0.859375 0 1.328125 0.25q0.46875 0.234375 0.359375 0.703125q-0.078125 0.28125 -0.265625 0.375q-0.171875 0.078125 -0.421875 0.0625q-0.25 -0.015625 -0.5625 -0.03125q-1.046875 -0.09375 -1.859375 0.21875q-0.8125 0.296875 -1.296875 0.9375q-0.46875 0.640625 -0.46875 1.515625l-0.8125 0zm0.109375 6.28125q-0.34375 0 -0.53125 -0.1875q-0.1875 -0.1875 -0.1875 -0.515625l0 -8.796875q0 -0.328125 0.1875 -0.515625q0.1875 -0.1875 0.53125 -0.1875q0.328125 0 0.515625 0.1875q0.1875 0.1875 0.1875 0.515625l0 8.796875q0 0.328125 -0.1875 0.515625q-0.1875 0.1875 -0.515625 0.1875zm11.325821 0q-0.453125 0 -0.671875 -0.484375l-4.140625 -8.78125q-0.109375 -0.25 -0.03125 -0.484375q0.09375 -0.25 0.375 -0.375q0.265625 -0.140625 0.5 -0.046875q0.25 0.09375 0.375 0.34375l3.984375 8.59375l-0.765625 0l3.921875 -8.59375q0.109375 -0.265625 0.375 -0.34375q0.265625 -0.09375 0.53125 0.015625q0.265625 0.140625 0.359375 0.390625q0.09375 0.25 -0.015625 0.46875l-4.09375 8.8125q-0.21875 0.484375 -0.703125 0.484375zm11.084198 0.09375q-1.515625 0 -2.6875 -0.65625q-1.15625 -0.671875 -1.828125 -1.84375q-0.65625 -1.171875 -0.65625 -2.6875q0 -1.53125 0.625 -2.6875q0.625 -1.171875 1.71875 -1.84375q1.109375 -0.671875 2.546875 -0.671875q1.40625 0 2.453125 0.640625q1.0625 0.640625 1.640625 1.78125q0.578125 1.140625 0.578125 2.59375q0 0.296875 -0.1875 0.484375q-0.1875 0.171875 -0.484375 0.171875l-7.921875 0l0 -1.203125l8.078125 0l-0.796875 0.578125q0.015625 -1.078125 -0.40625 -1.9375q-0.40625 -0.859375 -1.15625 -1.34375q-0.75 -0.484375 -1.796875 -0.484375q-1.0625 0 -1.875 0.515625q-0.796875 0.5 -1.234375 1.390625q-0.4375 0.875 -0.4375 2.015625q0 1.140625 0.484375 2.015625q0.5 0.875 1.359375 1.390625q0.859375 0.5 1.984375 0.5q0.671875 0 1.34375 -0.234375q0.6875 -0.234375 1.09375 -0.59375q0.203125 -0.171875 0.46875 -0.171875q0.265625 -0.015625 0.4375 0.140625q0.25 0.21875 0.25 0.484375q0.015625 0.25 -0.203125 0.4375q-0.625 0.53125 -1.578125 0.875q-0.9375 0.34375 -1.8125 0.34375zm7.4236755 -6.375q0.046875 -1.15625 0.59375 -2.0625q0.5625 -0.921875 1.4375 -1.4375q0.890625 -0.53125 1.96875 -0.53125q0.859375 0 1.328125 0.25q0.46875 0.234375 0.359375 0.703125q-0.078125 0.28125 -0.265625 0.375q-0.171875 0.078125 -0.421875 0.0625q-0.25 -0.015625 -0.5625 -0.03125q-1.046875 -0.09375 -1.859375 0.21875q-0.8125 0.296875 -1.296875 0.9375q-0.46875 0.640625 -0.46875 1.515625l-0.8125 0zm0.109375 6.28125q-0.34375 0 -0.53125 -0.1875q-0.1875 -0.1875 -0.1875 -0.515625l0 -8.796875q0 -0.328125 0.1875 -0.515625q0.1875 -0.1875 0.53125 -0.1875q0.328125 0 0.515625 0.1875q0.1875 0.1875 0.1875 0.515625l0 8.796875q0 0.328125 -0.1875 0.515625q-0.1875 0.1875 -0.515625 0.1875z" fill-rule="nonzero"/><path fill="#6fa8dc" d="m560.72046 147.45831l0 0c0 -8.691772 7.0460815 -15.737839 15.737854 -15.737839l237.94165 0c4.17395 0 8.17688 1.658081 11.128296 4.6095123c2.951416 2.951416 4.609558 6.9543915 4.609558 11.128326l0 62.94951c0 8.691772 -7.0460815 15.737854 -15.737854 15.737854l-237.94165 0c-8.691772 0 -15.737854 -7.0460815 -15.737854 -15.737854z" fill-rule="evenodd"/><path stroke="#6fa8dc" stroke-width="1.0" stroke-linejoin="round" stroke-linecap="butt" d="m560.72046 147.45831l0 0c0 -8.691772 7.0460815 -15.737839 15.737854 -15.737839l237.94165 0c4.17395 0 8.17688 1.658081 11.128296 4.6095123c2.951416 2.951416 4.609558 6.9543915 4.609558 11.128326l0 62.94951c0 8.691772 -7.0460815 15.737854 -15.737854 15.737854l-237.94165 0c-8.691772 0 -15.737854 -7.0460815 -15.737854 -15.737854z" fill-rule="evenodd"/><path fill="#ffffff" d="m590.36945 185.85307q-0.296875 0 -0.515625 -0.203125q-0.21875 -0.21875 -0.21875 -0.53125l0 -13.109375q0 -0.3125 0.203125 -0.515625q0.21875 -0.21875 0.53125 -0.21875l8.75 0q0.3125 0 0.515625 0.203125q0.203125 0.203125 0.203125 0.515625q0 0.28125 -0.203125 0.484375q-0.203125 0.203125 -0.515625 0.203125l-8.015625 0l0 5.15625l5.828125 0q0.328125 0 0.53125 0.203125q0.203125 0.203125 0.203125 0.5q0 0.296875 -0.203125 0.5q-0.203125 0.203125 -0.53125 0.203125l-5.828125 0l0 5.875q0 0.3125 -0.21875 0.53125q-0.203125 0.203125 -0.515625 0.203125zm12.503906 -6.28125q0.046875 -1.15625 0.59375 -2.0625q0.5625 -0.921875 1.4375 -1.4375q0.890625 -0.53125 1.96875 -0.53125q0.859375 0 1.328125 0.25q0.46875 0.234375 0.359375 0.703125q-0.078125 0.28125 -0.265625 0.375q-0.171875 0.078125 -0.421875 0.0625q-0.25 -0.015625 -0.5625 -0.03125q-1.046875 -0.09375 -1.859375 0.21875q-0.8125 0.296875 -1.296875 0.9375q-0.46875 0.640625 -0.46875 1.515625l-0.8125 0zm0.109375 6.28125q-0.34375 0 -0.53125 -0.1875q-0.1875 -0.1875 -0.1875 -0.515625l0 -8.796875q0 -0.328125 0.1875 -0.515625q0.1875 -0.1875 0.53125 -0.1875q0.328125 0 0.515625 0.1875q0.1875 0.1875 0.1875 0.515625l0 8.796875q0 0.328125 -0.1875 0.515625q-0.1875 0.1875 -0.515625 0.1875zm11.579163 0.09375q-1.4375 0 -2.578125 -0.671875q-1.125 -0.6875 -1.796875 -1.859375q-0.65625 -1.1875 -0.65625 -2.65625q0 -1.484375 0.671875 -2.65625q0.6875 -1.1875 1.859375 -1.859375q1.171875 -0.6875 2.65625 -0.6875q1.46875 0 2.625 0.6875q1.171875 0.671875 1.859375 1.859375q0.6875 1.171875 0.703125 2.65625l-0.578125 0.453125q0 1.34375 -0.625 2.421875q-0.625 1.0625 -1.703125 1.6875q-1.078125 0.625 -2.4375 0.625zm0.15625 -1.3125q1.078125 0 1.921875 -0.5q0.859375 -0.5 1.34375 -1.390625q0.5 -0.890625 0.5 -1.984375q0 -1.125 -0.5 -2.0q-0.484375 -0.875 -1.34375 -1.390625q-0.84375 -0.515625 -1.921875 -0.515625q-1.0625 0 -1.921875 0.515625q-0.859375 0.515625 -1.375 1.390625q-0.5 0.875 -0.5 2.0q0 1.09375 0.5 1.984375q0.515625 0.890625 1.375 1.390625q0.859375 0.5 1.921875 0.5zm4.453125 1.21875q-0.3125 0 -0.515625 -0.1875q-0.203125 -0.203125 -0.203125 -0.515625l0 -3.203125l0.34375 -1.46875l1.109375 0.28125l0 4.390625q0 0.3125 -0.21875 0.515625q-0.203125 0.1875 -0.515625 0.1875zm17.317749 0q-0.3125 0 -0.53125 -0.1875q-0.203125 -0.203125 -0.203125 -0.515625l0 -5.375q0 -1.328125 -0.6875 -2.09375q-0.6875 -0.78125 -1.765625 -0.78125q-1.15625 0 -1.90625 0.78125q-0.734375 0.765625 -0.71875 2.046875l-1.28125 0q0.015625 -1.25 0.53125 -2.1875q0.53125 -0.953125 1.4375 -1.46875q0.921875 -0.53125 2.078125 -0.53125q1.109375 0 1.953125 0.53125q0.84375 0.515625 1.3125 1.46875q0.484375 0.9375 0.484375 2.234375l0 5.375q0 0.3125 -0.203125 0.515625q-0.1875 0.1875 -0.5 0.1875zm-13.0625 0q-0.328125 0 -0.53125 -0.1875q-0.203125 -0.203125 -0.203125 -0.515625l0 -8.78125q0 -0.3125 0.203125 -0.515625q0.203125 -0.203125 0.53125 -0.203125q0.3125 0 0.5 0.203125q0.203125 0.203125 0.203125 0.515625l0 8.78125q0 0.3125 -0.203125 0.515625q-0.1875 0.1875 -0.5 0.1875zm6.546875 0q-0.3125 0 -0.515625 -0.1875q-0.203125 -0.203125 -0.203125 -0.515625l0 -5.375q0 -1.328125 -0.703125 -2.09375q-0.6875 -0.78125 -1.765625 -0.78125q-1.15625 0 -1.90625 0.765625q-0.75 0.75 -0.75 1.953125l-1.015625 0q0.03125 -1.1875 0.515625 -2.109375q0.5 -0.921875 1.359375 -1.4375q0.859375 -0.53125 1.9375 -0.53125q1.109375 0 1.953125 0.53125q0.859375 0.515625 1.328125 1.46875q0.46875 0.9375 0.46875 2.234375l0 5.375q0 0.3125 -0.203125 0.515625q-0.1875 0.1875 -0.5 0.1875zm15.026855 0.09375q-1.515625 0 -2.6875 -0.65625q-1.15625 -0.671875 -1.828125 -1.84375q-0.65625 -1.171875 -0.65625 -2.6875q0 -1.53125 0.625 -2.6875q0.625 -1.171875 1.71875 -1.84375q1.109375 -0.671875 2.546875 -0.671875q1.40625 0 2.453125 0.640625q1.0625 0.640625 1.640625 1.78125q0.578125 1.140625 0.578125 2.59375q0 0.296875 -0.1875 0.484375q-0.1875 0.171875 -0.484375 0.171875l-7.921875 0l0 -1.203125l8.078125 0l-0.796875 0.578125q0.015625 -1.078125 -0.40625 -1.9375q-0.40625 -0.859375 -1.15625 -1.34375q-0.75 -0.484375 -1.796875 -0.484375q-1.0625 0 -1.875 0.515625q-0.796875 0.5 -1.234375 1.390625q-0.4375 0.875 -0.4375 2.015625q0 1.140625 0.484375 2.015625q0.5 0.875 1.359375 1.390625q0.859375 0.5 1.984375 0.5q0.671875 0 1.34375 -0.234375q0.6875 -0.234375 1.09375 -0.59375q0.203125 -0.171875 0.46875 -0.171875q0.265625 -0.015625 0.4375 0.140625q0.25 0.21875 0.25 0.484375q0.015625 0.25 -0.203125 0.4375q-0.625 0.53125 -1.578125 0.875q-0.9375 0.34375 -1.8125 0.34375zm8.436218 -0.09375q-0.296875 0 -0.515625 -0.203125q-0.203125 -0.21875 -0.203125 -0.53125l0 -13.84375l1.453125 0l0 13.84375q0 0.3125 -0.203125 0.53125q-0.203125 0.203125 -0.53125 0.203125zm-5.140625 -13.25q-0.296875 0 -0.484375 -0.1875q-0.1875 -0.1875 -0.1875 -0.46875q0 -0.296875 0.1875 -0.484375q0.1875 -0.1875 0.484375 -0.1875l10.3125 0q0.296875 0 0.484375 0.1875q0.1875 0.1875 0.1875 0.484375q0 0.28125 -0.1875 0.46875q-0.1875 0.1875 -0.484375 0.1875l-10.3125 0zm10.934631 6.96875q0.046875 -1.15625 0.59375 -2.0625q0.5625 -0.921875 1.4375 -1.4375q0.890625 -0.53125 1.96875 -0.53125q0.859375 0 1.328125 0.25q0.46875 0.234375 0.359375 0.703125q-0.078125 0.28125 -0.265625 0.375q-0.171875 0.078125 -0.421875 0.0625q-0.25 -0.015625 -0.5625 -0.03125q-1.046875 -0.09375 -1.859375 0.21875q-0.8125 0.296875 -1.296875 0.9375q-0.46875 0.640625 -0.46875 1.515625l-0.8125 0zm0.109375 6.28125q-0.34375 0 -0.53125 -0.1875q-0.1875 -0.1875 -0.1875 -0.515625l0 -8.796875q0 -0.328125 0.1875 -0.515625q0.1875 -0.1875 0.53125 -0.1875q0.328125 0 0.515625 0.1875q0.1875 0.1875 0.1875 0.515625l0 8.796875q0 0.328125 -0.1875 0.515625q-0.1875 0.1875 -0.515625 0.1875zm11.579163 0.09375q-1.4375 0 -2.578125 -0.671875q-1.125 -0.6875 -1.796875 -1.859375q-0.65625 -1.1875 -0.65625 -2.65625q0 -1.484375 0.671875 -2.65625q0.6875 -1.1875 1.859375 -1.859375q1.171875 -0.6875 2.65625 -0.6875q1.46875 0 2.625 0.6875q1.171875 0.671875 1.859375 1.859375q0.6875 1.171875 0.703125 2.65625l-0.578125 0.453125q0 1.34375 -0.625 2.421875q-0.625 1.0625 -1.703125 1.6875q-1.078125 0.625 -2.4375 0.625zm0.15625 -1.3125q1.078125 0 1.921875 -0.5q0.859375 -0.5 1.34375 -1.390625q0.5 -0.890625 0.5 -1.984375q0 -1.125 -0.5 -2.0q-0.484375 -0.875 -1.34375 -1.390625q-0.84375 -0.515625 -1.921875 -0.515625q-1.0625 0 -1.921875 0.515625q-0.859375 0.515625 -1.375 1.390625q-0.5 0.875 -0.5 2.0q0 1.09375 0.5 1.984375q0.515625 0.890625 1.375 1.390625q0.859375 0.5 1.921875 0.5zm4.453125 1.21875q-0.3125 0 -0.515625 -0.1875q-0.203125 -0.203125 -0.203125 -0.515625l0 -3.203125l0.34375 -1.46875l1.109375 0.28125l0 4.390625q0 0.3125 -0.21875 0.515625q-0.203125 0.1875 -0.515625 0.1875zm12.270874 0q-0.3125 0 -0.515625 -0.203125q-0.203125 -0.203125 -0.203125 -0.5l0 -4.859375q0 -1.15625 -0.4375 -1.890625q-0.4375 -0.75 -1.203125 -1.125q-0.75 -0.375 -1.703125 -0.375q-0.90625 0 -1.65625 0.359375q-0.734375 0.34375 -1.171875 0.96875q-0.421875 0.609375 -0.421875 1.390625l-1.015625 0q0.03125 -1.171875 0.625 -2.09375q0.609375 -0.921875 1.59375 -1.453125q0.984375 -0.53125 2.203125 -0.53125q1.3125 0 2.359375 0.546875q1.046875 0.546875 1.65625 1.609375q0.609375 1.0625 0.609375 2.59375l0 4.859375q0 0.296875 -0.203125 0.5q-0.203125 0.203125 -0.515625 0.203125zm-8.015625 0q-0.328125 0 -0.53125 -0.1875q-0.203125 -0.203125 -0.203125 -0.515625l0 -8.78125q0 -0.328125 0.203125 -0.515625q0.203125 -0.203125 0.53125 -0.203125q0.3125 0 0.5 0.203125q0.203125 0.1875 0.203125 0.515625l0 8.78125q0 0.3125 -0.203125 0.515625q-0.1875 0.1875 -0.5 0.1875zm15.47406 0.09375q-1.109375 0 -2.1875 -0.375q-1.078125 -0.375 -1.75 -1.125q-0.21875 -0.21875 -0.1875 -0.5q0.046875 -0.28125 0.296875 -0.484375q0.25 -0.1875 0.53125 -0.140625q0.28125 0.03125 0.46875 0.234375q0.453125 0.53125 1.1875 0.8125q0.734375 0.265625 1.640625 0.265625q1.375 0 1.984375 -0.46875q0.625 -0.484375 0.640625 -1.140625q0 -0.671875 -0.640625 -1.109375q-0.625 -0.453125 -2.078125 -0.6875q-1.890625 -0.296875 -2.765625 -1.046875q-0.875 -0.75 -0.875 -1.765625q0 -0.953125 0.5 -1.578125q0.5 -0.640625 1.34375 -0.953125q0.84375 -0.328125 1.84375 -0.328125q1.25 0 2.15625 0.4375q0.90625 0.421875 1.46875 1.140625q0.1875 0.25 0.140625 0.515625q-0.03125 0.25 -0.296875 0.421875q-0.21875 0.125 -0.515625 0.078125q-0.28125 -0.046875 -0.484375 -0.265625q-0.46875 -0.53125 -1.09375 -0.78125q-0.609375 -0.265625 -1.40625 -0.265625q-1.03125 0 -1.65625 0.421875q-0.609375 0.421875 -0.609375 1.0625q0 0.421875 0.234375 0.75q0.234375 0.3125 0.796875 0.5625q0.578125 0.234375 1.609375 0.390625q1.390625 0.234375 2.203125 0.671875q0.8125 0.4375 1.15625 1.03125q0.34375 0.578125 0.34375 1.265625q0 0.875 -0.515625 1.546875q-0.5 0.65625 -1.40625 1.03125q-0.90625 0.375 -2.078125 0.375zm7.75885 -0.09375q-0.28125 0 -0.5 -0.1875q-0.203125 -0.203125 -0.203125 -0.546875l0 -9.453125q0 -1.3125 0.453125 -2.296875q0.453125 -0.984375 1.328125 -1.53125q0.875 -0.5625 2.140625 -0.5625q0.328125 0 0.53125 0.1875q0.203125 0.1875 0.203125 0.46875q0 0.28125 -0.203125 0.46875q-0.203125 0.1875 -0.53125 0.1875q-0.84375 0 -1.390625 0.390625q-0.546875 0.375 -0.828125 1.0625q-0.265625 0.671875 -0.265625 1.546875l0 9.53125q0 0.34375 -0.203125 0.546875q-0.1875 0.1875 -0.53125 0.1875zm-1.890625 -8.578125q-0.296875 0 -0.484375 -0.171875q-0.171875 -0.1875 -0.171875 -0.453125q0 -0.28125 0.171875 -0.453125q0.1875 -0.171875 0.484375 -0.171875l4.875 0q0.296875 0 0.46875 0.171875q0.171875 0.171875 0.171875 0.453125q0 0.265625 -0.171875 0.453125q-0.171875 0.171875 -0.46875 0.171875l-4.875 0zm11.720459 8.671875q-1.5 0 -2.671875 -0.671875q-1.171875 -0.671875 -1.84375 -1.84375q-0.671875 -1.171875 -0.671875 -2.671875q0 -1.515625 0.671875 -2.6875q0.671875 -1.171875 1.84375 -1.84375q1.171875 -0.671875 2.671875 -0.671875q1.484375 0 2.65625 0.671875q1.171875 0.671875 1.84375 1.84375q0.671875 1.171875 0.6875 2.6875q0 1.5 -0.6875 2.671875q-0.671875 1.171875 -1.84375 1.84375q-1.171875 0.671875 -2.65625 0.671875zm0 -1.3125q1.078125 0 1.9375 -0.5q0.859375 -0.5 1.34375 -1.375q0.484375 -0.875 0.484375 -2.0q0 -1.125 -0.484375 -2.0q-0.484375 -0.890625 -1.34375 -1.390625q-0.859375 -0.515625 -1.9375 -0.515625q-1.078125 0 -1.9375 0.515625q-0.859375 0.5 -1.359375 1.390625q-0.5 0.875 -0.5 2.0q0 1.125 0.5 2.0q0.5 0.875 1.359375 1.375q0.859375 0.5 1.9375 0.5zm8.583374 -5.0625q0.046875 -1.15625 0.59375 -2.0625q0.5625 -0.921875 1.4375 -1.4375q0.890625 -0.53125 1.96875 -0.53125q0.859375 0 1.328125 0.25q0.46875 0.234375 0.359375 0.703125q-0.078125 0.28125 -0.265625 0.375q-0.171875 0.078125 -0.421875 0.0625q-0.25 -0.015625 -0.5625 -0.03125q-1.046875 -0.09375 -1.859375 0.21875q-0.8125 0.296875 -1.296875 0.9375q-0.46875 0.640625 -0.46875 1.515625l-0.8125 0zm0.109375 6.28125q-0.34375 0 -0.53125 -0.1875q-0.1875 -0.1875 -0.1875 -0.515625l0 -8.796875q0 -0.328125 0.1875 -0.515625q0.1875 -0.1875 0.53125 -0.1875q0.328125 0 0.515625 0.1875q0.1875 0.1875 0.1875 0.515625l0 8.796875q0 0.328125 -0.1875 0.515625q-0.1875 0.1875 -0.515625 0.1875zm21.622742 0q-0.3125 0 -0.53125 -0.1875q-0.203125 -0.203125 -0.203125 -0.515625l0 -5.375q0 -1.328125 -0.6875 -2.09375q-0.6875 -0.78125 -1.765625 -0.78125q-1.15625 0 -1.90625 0.78125q-0.734375 0.765625 -0.71875 2.046875l-1.28125 0q0.015625 -1.25 0.53125 -2.1875q0.53125 -0.953125 1.4375 -1.46875q0.921875 -0.53125 2.078125 -0.53125q1.109375 0 1.953125 0.53125q0.84375 0.515625 1.3125 1.46875q0.484375 0.9375 0.484375 2.234375l0 5.375q0 0.3125 -0.203125 0.515625q-0.1875 0.1875 -0.5 0.1875zm-13.0625 0q-0.328125 0 -0.53125 -0.1875q-0.203125 -0.203125 -0.203125 -0.515625l0 -8.78125q0 -0.3125 0.203125 -0.515625q0.203125 -0.203125 0.53125 -0.203125q0.3125 0 0.5 0.203125q0.203125 0.203125 0.203125 0.515625l0 8.78125q0 0.3125 -0.203125 0.515625q-0.1875 0.1875 -0.5 0.1875zm6.546875 0q-0.3125 0 -0.515625 -0.1875q-0.203125 -0.203125 -0.203125 -0.515625l0 -5.375q0 -1.328125 -0.703125 -2.09375q-0.6875 -0.78125 -1.765625 -0.78125q-1.15625 0 -1.90625 0.765625q-0.75 0.75 -0.75 1.953125l-1.015625 0q0.03125 -1.1875 0.515625 -2.109375q0.5 -0.921875 1.359375 -1.4375q0.859375 -0.53125 1.9375 -0.53125q1.109375 0 1.953125 0.53125q0.859375 0.515625 1.328125 1.46875q0.46875 0.9375 0.46875 2.234375l0 5.375q0 0.3125 -0.203125 0.515625q-0.1875 0.1875 -0.5 0.1875zm17.120544 0.1875q-1.5 0 -2.828125 -0.578125q-1.3125 -0.578125 -2.3125 -1.609375q-0.984375 -1.046875 -1.546875 -2.390625q-0.5625 -1.359375 -0.5625 -2.90625q0 -1.53125 0.546875 -2.875q0.546875 -1.359375 1.546875 -2.375q1.0 -1.03125 2.3125 -1.609375q1.328125 -0.59375 2.84375 -0.59375q1.34375 0 2.4375 0.390625q1.109375 0.390625 2.140625 1.25q0.171875 0.125 0.1875 0.3125q0.03125 0.171875 -0.046875 0.328125q-0.0625 0.15625 -0.21875 0.234375q-0.03125 0.140625 -0.1875 0.21875q-0.140625 0.078125 -0.34375 0.0625q-0.1875 -0.03125 -0.375 -0.171875q-0.734375 -0.640625 -1.59375 -0.9375q-0.859375 -0.3125 -2.0 -0.3125q-1.203125 0 -2.265625 0.484375q-1.046875 0.484375 -1.859375 1.328125q-0.796875 0.828125 -1.25 1.9375q-0.453125 1.09375 -0.453125 2.328125q0 1.265625 0.453125 2.375q0.453125 1.09375 1.25 1.9375q0.8125 0.84375 1.859375 1.328125q1.0625 0.46875 2.265625 0.46875q1.03125 0 1.9375 -0.328125q0.921875 -0.34375 1.75 -0.984375q0.21875 -0.1875 0.46875 -0.140625q0.25 0.03125 0.4375 0.21875q0.1875 0.1875 0.1875 0.484375q0 0.140625 -0.046875 0.265625q-0.046875 0.125 -0.15625 0.25q-0.953125 0.875 -2.125 1.25q-1.171875 0.359375 -2.453125 0.359375zm9.796753 -0.1875q-0.734375 0 -1.328125 -0.40625q-0.59375 -0.421875 -0.921875 -1.140625q-0.3125 -0.734375 -0.3125 -1.6875l0 -10.625q0 -0.3125 0.1875 -0.515625q0.203125 -0.203125 0.515625 -0.203125q0.3125 0 0.5 0.203125q0.203125 0.203125 0.203125 0.515625l0 10.625q0 0.8125 0.328125 1.3125q0.328125 0.5 0.828125 0.5l0.46875 0q0.28125 0 0.453125 0.203125q0.171875 0.1875 0.171875 0.515625q0 0.3125 -0.234375 0.515625q-0.234375 0.1875 -0.609375 0.1875l-0.25 0zm4.0892334 0q-0.328125 0 -0.53125 -0.1875q-0.1875 -0.203125 -0.1875 -0.546875l0 -8.75q0 -0.328125 0.1875 -0.515625q0.203125 -0.203125 0.53125 -0.203125q0.3125 0 0.515625 0.203125q0.203125 0.1875 0.203125 0.515625l0 8.75q0 0.34375 -0.203125 0.546875q-0.203125 0.1875 -0.515625 0.1875zm-0.015625 -12.140625q-0.421875 0 -0.71875 -0.296875q-0.296875 -0.3125 -0.296875 -0.734375q0 -0.46875 0.3125 -0.734375q0.3125 -0.265625 0.71875 -0.265625q0.390625 0 0.6875 0.265625q0.3125 0.265625 0.3125 0.734375q0 0.421875 -0.296875 0.734375q-0.296875 0.296875 -0.71875 0.296875zm9.016663 12.234375q-1.515625 0 -2.6875 -0.65625q-1.15625 -0.671875 -1.828125 -1.84375q-0.65625 -1.171875 -0.65625 -2.6875q0 -1.53125 0.625 -2.6875q0.625 -1.171875 1.71875 -1.84375q1.109375 -0.671875 2.546875 -0.671875q1.40625 0 2.453125 0.640625q1.0625 0.640625 1.640625 1.78125q0.578125 1.140625 0.578125 2.59375q0 0.296875 -0.1875 0.484375q-0.1875 0.171875 -0.484375 0.171875l-7.921875 0l0 -1.203125l8.078125 0l-0.796875 0.578125q0.015625 -1.078125 -0.40625 -1.9375q-0.40625 -0.859375 -1.15625 -1.34375q-0.75 -0.484375 -1.796875 -0.484375q-1.0625 0 -1.875 0.515625q-0.796875 0.5 -1.234375 1.390625q-0.4375 0.875 -0.4375 2.015625q0 1.140625 0.484375 2.015625q0.5 0.875 1.359375 1.390625q0.859375 0.5 1.984375 0.5q0.671875 0 1.34375 -0.234375q0.6875 -0.234375 1.09375 -0.59375q0.203125 -0.171875 0.46875 -0.171875q0.265625 -0.015625 0.4375 0.140625q0.25 0.21875 0.25 0.484375q0.015625 0.25 -0.203125 0.4375q-0.625 0.53125 -1.578125 0.875q-0.9375 0.34375 -1.8125 0.34375zm15.56427 -0.09375q-0.3125 0 -0.515625 -0.203125q-0.203125 -0.203125 -0.203125 -0.5l0 -4.859375q0 -1.15625 -0.4375 -1.890625q-0.4375 -0.75 -1.203125 -1.125q-0.75 -0.375 -1.703125 -0.375q-0.90625 0 -1.65625 0.359375q-0.734375 0.34375 -1.171875 0.96875q-0.421875 0.609375 -0.421875 1.390625l-1.015625 0q0.03125 -1.171875 0.625 -2.09375q0.609375 -0.921875 1.59375 -1.453125q0.984375 -0.53125 2.203125 -0.53125q1.3125 0 2.359375 0.546875q1.046875 0.546875 1.65625 1.609375q0.609375 1.0625 0.609375 2.59375l0 4.859375q0 0.296875 -0.203125 0.5q-0.203125 0.203125 -0.515625 0.203125zm-8.015625 0q-0.328125 0 -0.53125 -0.1875q-0.203125 -0.203125 -0.203125 -0.515625l0 -8.78125q0 -0.328125 0.203125 -0.515625q0.203125 -0.203125 0.53125 -0.203125q0.3125 0 0.5 0.203125q0.203125 0.1875 0.203125 0.515625l0 8.78125q0 0.3125 -0.203125 0.515625q-0.1875 0.1875 -0.5 0.1875zm15.895935 0q-0.984375 0 -1.765625 -0.46875q-0.765625 -0.46875 -1.21875 -1.28125q-0.453125 -0.8125 -0.453125 -1.84375l0 -9.125q0 -0.328125 0.1875 -0.53125q0.203125 -0.203125 0.53125 -0.203125q0.3125 0 0.515625 0.203125q0.203125 0.203125 0.203125 0.53125l0 9.125q0 0.9375 0.5625 1.546875q0.5625 0.609375 1.4375 0.609375l0.5 0q0.296875 0 0.484375 0.203125q0.1875 0.203125 0.1875 0.53125q0 0.3125 -0.21875 0.515625q-0.21875 0.1875 -0.5625 0.1875l-0.390625 0zm-4.640625 -8.578125q-0.28125 0 -0.46875 -0.171875q-0.1875 -0.1875 -0.1875 -0.453125q0 -0.28125 0.1875 -0.453125q0.1875 -0.171875 0.46875 -0.171875l4.75 0q0.28125 0 0.46875 0.171875q0.1875 0.171875 0.1875 0.453125q0 0.265625 -0.1875 0.453125q-0.1875 0.171875 -0.46875 0.171875l-4.75 0z" fill-rule="nonzero"/><path fill="#cc0000" d="m317.50754 154.97768l162.98386 0l0 23.930069l-162.98386 0z" fill-rule="evenodd"/><path stroke="#cc0000" stroke-width="1.0" stroke-linejoin="round" stroke-linecap="butt" d="m317.50754 154.97768l162.98386 0l0 23.930069l-162.98386 0z" fill-rule="evenodd"/><path fill="#ffffff" d="m403.04453 173.95645q-1.46875 0 -2.609375 -0.65625q-1.140625 -0.671875 -1.78125 -1.84375q-0.640625 -1.171875 -0.640625 -2.6875q0 -1.53125 0.671875 -2.703125q0.671875 -1.171875 1.84375 -1.828125q1.171875 -0.671875 2.671875 -0.671875q1.5 0 2.671875 0.671875q1.171875 0.65625 1.828125 1.828125q0.671875 1.171875 0.6875 2.703125l-0.84375 0.453125q0 1.375 -0.578125 2.453125q-0.578125 1.0625 -1.59375 1.671875q-1.015625 0.609375 -2.328125 0.609375zm0.1875 3.9375q-1.46875 0 -2.59375 -0.5625q-1.109375 -0.546875 -1.84375 -1.484375q-0.203125 -0.234375 -0.1875 -0.5q0.03125 -0.25 0.28125 -0.421875q0.234375 -0.171875 0.53125 -0.125q0.3125 0.0625 0.46875 0.296875q0.546875 0.671875 1.390625 1.078125q0.859375 0.40625 1.96875 0.40625q1.046875 0 1.890625 -0.5q0.84375 -0.5 1.328125 -1.421875q0.5 -0.90625 0.5 -2.140625l0 -2.828125l0.546875 -1.09375l0.875 0.171875l0 3.8125q0 1.5 -0.671875 2.703125q-0.671875 1.203125 -1.828125 1.90625q-1.15625 0.703125 -2.65625 0.703125zm-0.03125 -5.25q1.09375 0 1.9375 -0.484375q0.859375 -0.5 1.34375 -1.375q0.484375 -0.875 0.484375 -2.015625q0 -1.140625 -0.484375 -2.015625q-0.484375 -0.890625 -1.34375 -1.390625q-0.84375 -0.5 -1.9375 -0.5q-1.109375 0 -1.96875 0.5q-0.859375 0.5 -1.34375 1.390625q-0.484375 0.875 -0.484375 2.015625q0 1.140625 0.484375 2.015625q0.484375 0.875 1.34375 1.375q0.859375 0.484375 1.96875 0.484375zm12.614655 1.3125q-1.515625 0 -2.6875 -0.65625q-1.15625 -0.671875 -1.828125 -1.84375q-0.65625 -1.171875 -0.65625 -2.6875q0 -1.53125 0.625 -2.6875q0.625 -1.171875 1.71875 -1.84375q1.109375 -0.671875 2.546875 -0.671875q1.40625 0 2.453125 0.640625q1.0625 0.640625 1.640625 1.78125q0.578125 1.140625 0.578125 2.59375q0 0.296875 -0.1875 0.484375q-0.1875 0.171875 -0.484375 0.171875l-7.921875 0l0 -1.203125l8.078125 0l-0.796875 0.578125q0.015625 -1.078125 -0.40625 -1.9375q-0.40625 -0.859375 -1.15625 -1.34375q-0.75 -0.484375 -1.796875 -0.484375q-1.0625 0 -1.875 0.515625q-0.796875 0.5 -1.234375 1.390625q-0.4375 0.875 -0.4375 2.015625q0 1.140625 0.484375 2.015625q0.5 0.875 1.359375 1.390625q0.859375 0.5 1.984375 0.5q0.671875 0 1.34375 -0.234375q0.6875 -0.234375 1.09375 -0.59375q0.203125 -0.171875 0.46875 -0.171875q0.265625 -0.015625 0.4375 0.140625q0.25 0.21875 0.25 0.484375q0.015625 0.25 -0.203125 0.4375q-0.625 0.53125 -1.578125 0.875q-0.9375 0.34375 -1.8125 0.34375zm10.814301 -0.09375q-0.984375 0 -1.765625 -0.46875q-0.765625 -0.46875 -1.21875 -1.28125q-0.453125 -0.8125 -0.453125 -1.84375l0 -9.125q0 -0.328125 0.1875 -0.53125q0.203125 -0.203125 0.53125 -0.203125q0.3125 0 0.515625 0.203125q0.203125 0.203125 0.203125 0.53125l0 9.125q0 0.9375 0.5625 1.546875q0.5625 0.609375 1.4375 0.609375l0.5 0q0.296875 0 0.484375 0.203125q0.1875 0.203125 0.1875 0.53125q0 0.3125 -0.21875 0.515625q-0.21875 0.1875 -0.5625 0.1875l-0.390625 0zm-4.640625 -8.578125q-0.28125 0 -0.46875 -0.171875q-0.1875 -0.1875 -0.1875 -0.453125q0 -0.28125 0.1875 -0.453125q0.1875 -0.171875 0.46875 -0.171875l4.75 0q0.28125 0 0.46875 0.171875q0.1875 0.171875 0.1875 0.453125q0 0.265625 -0.1875 0.453125q-0.1875 0.171875 -0.46875 0.171875l-4.75 0z" fill-rule="nonzero"/><path fill="#cc0000" d="m480.4914 178.90775l0 -39.041473l53.55652 39.041473z" fill-rule="evenodd"/><path stroke="#cc0000" stroke-width="1.0" stroke-linejoin="round" stroke-linecap="butt" d="m480.4914 178.90775l0 -39.041473l53.55652 39.041473z" fill-rule="evenodd"/><path fill="#cc0000" d="m317.50754 154.97768l0 11.965027l-14.649994 -11.942871z" fill-rule="evenodd"/><path stroke="#cc0000" stroke-width="1.0" stroke-linejoin="round" stroke-linecap="butt" d="m317.50754 154.97768l0 11.965027l-14.649994 -11.942871z" fill-rule="evenodd"/><path fill="#cc0000" d="m317.50754 178.95206l0 -11.965027l-14.649994 11.942871z" fill-rule="evenodd"/><path stroke="#cc0000" stroke-width="1.0" stroke-linejoin="round" stroke-linecap="butt" d="m317.50754 178.95206l0 -11.965027l-14.649994 11.942871z" fill-rule="evenodd"/><path fill="#6aa84f" d="m356.5285 178.95901l162.98389 0l0 23.930084l-162.98389 0z" fill-rule="evenodd"/><path stroke="#6aa84f" stroke-width="1.0" stroke-linejoin="round" stroke-linecap="butt" d="m356.5285 178.95901l162.98389 0l0 23.930084l-162.98389 0z" fill-rule="evenodd"/><path fill="#ffffff" d="m403.57617 197.9378q-1.109375 0 -2.1875 -0.375q-1.078125 -0.375 -1.75 -1.125q-0.21875 -0.21875 -0.1875 -0.5q0.046875 -0.28125 0.296875 -0.484375q0.25 -0.1875 0.53125 -0.140625q0.28125 0.03125 0.46875 0.234375q0.453125 0.53125 1.1875 0.8125q0.734375 0.265625 1.640625 0.265625q1.375 0 1.984375 -0.46875q0.625 -0.484375 0.640625 -1.140625q0 -0.671875 -0.640625 -1.109375q-0.625 -0.453125 -2.078125 -0.6875q-1.890625 -0.296875 -2.765625 -1.046875q-0.875 -0.75 -0.875 -1.765625q0 -0.953125 0.5 -1.578125q0.5 -0.640625 1.34375 -0.953125q0.84375 -0.328125 1.84375 -0.328125q1.25 0 2.15625 0.4375q0.90625 0.421875 1.46875 1.140625q0.1875 0.25 0.140625 0.515625q-0.03125 0.25 -0.296875 0.421875q-0.21875 0.125 -0.515625 0.078125q-0.28125 -0.046875 -0.484375 -0.265625q-0.46875 -0.53125 -1.09375 -0.78125q-0.609375 -0.265625 -1.40625 -0.265625q-1.03125 0 -1.65625 0.421875q-0.609375 0.421875 -0.609375 1.0625q0 0.421875 0.234375 0.75q0.234375 0.3125 0.796875 0.5625q0.578125 0.234375 1.609375 0.390625q1.390625 0.234375 2.203125 0.671875q0.8125 0.4375 1.15625 1.03125q0.34375 0.578125 0.34375 1.265625q0 0.875 -0.515625 1.546875q-0.5 0.65625 -1.40625 1.03125q-0.90625 0.375 -2.078125 0.375zm11.118225 0q-1.515625 0 -2.6875 -0.65625q-1.15625 -0.671875 -1.828125 -1.84375q-0.65625 -1.171875 -0.65625 -2.6875q0 -1.53125 0.625 -2.6875q0.625 -1.171875 1.71875 -1.84375q1.109375 -0.671875 2.546875 -0.671875q1.40625 0 2.453125 0.640625q1.0625 0.640625 1.640625 1.78125q0.578125 1.140625 0.578125 2.59375q0 0.296875 -0.1875 0.484375q-0.1875 0.171875 -0.484375 0.171875l-7.921875 0l0 -1.203125l8.078125 0l-0.796875 0.578125q0.015625 -1.078125 -0.40625 -1.9375q-0.40625 -0.859375 -1.15625 -1.34375q-0.75 -0.484375 -1.796875 -0.484375q-1.0625 0 -1.875 0.515625q-0.796875 0.5 -1.234375 1.390625q-0.4375 0.875 -0.4375 2.015625q0 1.140625 0.484375 2.015625q0.5 0.875 1.359375 1.390625q0.859375 0.5 1.984375 0.5q0.671875 0 1.34375 -0.234375q0.6875 -0.234375 1.09375 -0.59375q0.203125 -0.171875 0.46875 -0.171875q0.265625 -0.015625 0.4375 0.140625q0.25 0.21875 0.25 0.484375q0.015625 0.25 -0.203125 0.4375q-0.625 0.53125 -1.578125 0.875q-0.9375 0.34375 -1.8125 0.34375zm10.814301 -0.09375q-0.984375 0 -1.765625 -0.46875q-0.765625 -0.46875 -1.21875 -1.28125q-0.453125 -0.8125 -0.453125 -1.84375l0 -9.125q0 -0.328125 0.1875 -0.53125q0.203125 -0.203125 0.53125 -0.203125q0.3125 0 0.515625 0.203125q0.203125 0.203125 0.203125 0.53125l0 9.125q0 0.9375 0.5625 1.546875q0.5625 0.609375 1.4375 0.609375l0.5 0q0.296875 0 0.484375 0.203125q0.1875 0.203125 0.1875 0.53125q0 0.3125 -0.21875 0.515625q-0.21875 0.1875 -0.5625 0.1875l-0.390625 0zm-4.640625 -8.578125q-0.28125 0 -0.46875 -0.171875q-0.1875 -0.1875 -0.1875 -0.453125q0 -0.28125 0.1875 -0.453125q0.1875 -0.171875 0.46875 -0.171875l4.75 0q0.28125 0 0.46875 0.171875q0.1875 0.171875 0.1875 0.453125q0 0.265625 -0.1875 0.453125q-0.1875 0.171875 -0.46875 0.171875l-4.75 0z" fill-rule="nonzero"/><path fill="#6aa84f" d="m356.5285 178.95901l0 39.04149l-53.55652 -39.04149z" fill-rule="evenodd"/><path stroke="#6aa84f" stroke-width="1.0" stroke-linejoin="round" stroke-linecap="butt" d="m356.5285 178.95901l0 39.04149l-53.55652 -39.04149z" fill-rule="evenodd"/><path fill="#6aa84f" d="m519.5124 202.8891l0 -11.965042l14.649963 11.942886z" fill-rule="evenodd"/><path stroke="#6aa84f" stroke-width="1.0" stroke-linejoin="round" stroke-linecap="butt" d="m519.5124 202.8891l0 -11.965042l14.649963 11.942886z" fill-rule="evenodd"/><path fill="#6aa84f" d="m519.5124 178.9147l0 11.965042l14.649963 -11.942886z" fill-rule="evenodd"/><path stroke="#6aa84f" stroke-width="1.0" stroke-linejoin="round" stroke-linecap="butt" d="m519.5124 178.9147l0 11.965042l14.649963 -11.942886z" fill-rule="evenodd"/><path fill="#ffffff" d="m19.556293 17.414051l80.51318 0l0 86.588776l-13.419128 13.419136l-67.094055 0z" fill-rule="evenodd"/><path fill="#cbcbcb" d="m86.65035 117.42197l2.6838226 -10.735313l10.735306 -2.6838226z" fill-rule="evenodd"/><path fill="#000000" fill-opacity="0.0" d="m86.65035 117.42197l2.6838226 -10.735313l10.735306 -2.6838226l-13.419128 13.419136l-67.094055 0l0 -100.00792l80.51318 0l0 86.588776" fill-rule="evenodd"/><path stroke="#6fa8dc" stroke-width="1.0" stroke-linejoin="round" stroke-linecap="butt" d="m86.65035 117.42197l2.6838226 -10.735313l10.735306 -2.6838226l-13.419128 13.419136l-67.094055 0l0 -100.00792l80.51318 0l0 86.588776" fill-rule="evenodd"/><path fill="#000000" fill-opacity="0.0" d="m43.462746 93.33409l56.606667 0l0 24.087875l-56.606667 0z" fill-rule="evenodd"/><path fill="#6fa8dc" d="m53.75962 114.04159q-0.28125 0 -0.5 -0.203125q-0.203125 -0.203125 -0.203125 -0.484375q0 -0.296875 0.203125 -0.5q0.21875 -0.21875 0.5 -0.21875q0.28125 0 0.484375 0.21875q0.203125 0.203125 0.203125 0.5q0 0.265625 -0.203125 0.484375q-0.1875 0.203125 -0.484375 0.203125zm2.3107758 -0.1875q-0.21875 0 -0.328125 -0.109375q-0.109375 -0.125 -0.125 -0.296875q-0.015625 -0.1875 0.109375 -0.34375l3.125 -4.28125l0.4375 -0.34375l2.8125 -3.828125q0.125 -0.171875 0.359375 -0.171875q0.1875 0 0.296875 0.125q0.125 0.125 0.125 0.3125q0.015625 0.171875 -0.078125 0.296875l-2.953125 4.015625l-0.40625 0.328125l-3.046875 4.15625q-0.125 0.140625 -0.328125 0.140625zm6.484375 0q-0.09375 0 -0.1875 -0.03125q-0.09375 -0.046875 -0.171875 -0.140625l-2.984375 -4.140625l-0.375 -0.265625l-2.921875 -4.0625q-0.109375 -0.140625 -0.09375 -0.3125q0.015625 -0.171875 0.125 -0.296875q0.125 -0.125 0.3125 -0.125q0.21875 0 0.359375 0.171875l2.8125 3.90625l0.34375 0.21875l3.125 4.328125q0.09375 0.140625 0.09375 0.328125q0 0.171875 -0.125 0.296875q-0.109375 0.125 -0.3125 0.125zm2.6559296 0q-0.203125 0 -0.34375 -0.140625q-0.125 -0.140625 -0.125 -0.328125l0 -8.4375q0 -0.203125 0.125 -0.328125q0.140625 -0.140625 0.34375 -0.140625q0.28125 0 0.421875 0.25l4.03125 8.03125l-0.40625 0l3.984375 -8.03125q0.140625 -0.25 0.40625 -0.25q0.203125 0 0.328125 0.140625q0.140625 0.125 0.140625 0.328125l0 8.4375q0 0.1875 -0.140625 0.328125q-0.125 0.140625 -0.328125 0.140625q-0.203125 0 -0.34375 -0.140625q-0.125 -0.140625 -0.125 -0.328125l0 -7.21875l0.203125 0l-3.546875 7.25q-0.125 0.21875 -0.40625 0.21875q-0.296875 0 -0.4375 -0.28125l-3.5625 -7.125l0.25 -0.0625l0 7.21875q0 0.1875 -0.140625 0.328125q-0.140625 0.140625 -0.328125 0.140625zm11.772079 0q-0.203125 0 -0.34375 -0.125q-0.125 -0.140625 -0.125 -0.34375l0 -8.4375q0 -0.1875 0.125 -0.328125q0.140625 -0.140625 0.34375 -0.140625q0.1875 0 0.328125 0.140625q0.140625 0.140625 0.140625 0.328125l0 8.015625l4.6875 0q0.1875 0 0.328125 0.125q0.140625 0.125 0.140625 0.328125q0 0.1875 -0.140625 0.3125q-0.140625 0.125 -0.328125 0.125l-5.15625 0z" fill-rule="nonzero"/><path fill="#6fa8dc" d="m26.266666 28.734324l67.01346 0l0 5.6205044l-67.01346 0z" fill-rule="evenodd"/><path stroke="#6fa8dc" stroke-width="1.0" stroke-linejoin="round" stroke-linecap="butt" d="m26.266666 28.734324l67.01346 0l0 5.6205044l-67.01346 0z" fill-rule="evenodd"/><path fill="#6fa8dc" d="m26.266666 42.783524l67.01346 0l0 5.6205025l-67.01346 0z" fill-rule="evenodd"/><path stroke="#6fa8dc" stroke-width="1.0" stroke-linejoin="round" stroke-linecap="butt" d="m26.266666 42.783524l67.01346 0l0 5.6205025l-67.01346 0z" fill-rule="evenodd"/><path fill="#6fa8dc" d="m26.306087 56.832726l67.01346 0l0 5.6205025l-67.01346 0z" fill-rule="evenodd"/><path stroke="#6fa8dc" stroke-width="1.0" stroke-linejoin="round" stroke-linecap="butt" d="m26.306087 56.832726l67.01346 0l0 5.6205025l-67.01346 0z" fill-rule="evenodd"/><path fill="#6fa8dc" d="m26.306087 70.88193l67.01346 0l0 5.6204987l-67.01346 0z" fill-rule="evenodd"/><path stroke="#6fa8dc" stroke-width="1.0" stroke-linejoin="round" stroke-linecap="butt" d="m26.306087 70.88193l67.01346 0l0 5.6204987l-67.01346 0z" fill-rule="evenodd"/><path fill="#6fa8dc" d="m26.266666 84.93113l36.896828 0l0 5.6204987l-36.896828 0z" fill-rule="evenodd"/><path stroke="#6fa8dc" stroke-width="1.0" stroke-linejoin="round" stroke-linecap="butt" d="m26.266666 84.93113l36.896828 0l0 5.6204987l-36.896828 0z" fill-rule="evenodd"/><path fill="#000000" fill-opacity="0.0" d="m110.833336 17.414698l178.14172 0l0 42.015747l-178.14172 0z" fill-rule="evenodd"/><path fill="#6fa8dc" d="m122.78646 44.334698q-0.28125 0 -0.5 -0.1875q-0.203125 -0.203125 -0.203125 -0.546875l0 -9.453125q0 -1.3125 0.453125 -2.296877q0.453125 -0.984375 1.328125 -1.53125q0.875 -0.5625 2.140625 -0.5625q0.328125 0 0.53125 0.1875q0.203125 0.1875 0.203125 0.46875q0 0.28125 -0.203125 0.46875q-0.203125 0.1875 -0.53125 0.1875q-0.84375 0 -1.390625 0.390625q-0.546875 0.375 -0.828125 1.0625019q-0.265625 0.671875 -0.265625 1.546875l0 9.53125q0 0.34375 -0.203125 0.546875q-0.1875 0.1875 -0.53125 0.1875zm-1.890625 -8.578125q-0.296875 0 -0.484375 -0.171875q-0.171875 -0.1875 -0.171875 -0.453125q0 -0.28125 0.171875 -0.453125q0.1875 -0.171875 0.484375 -0.171875l4.875 0q0.296875 0 0.46875 0.171875q0.171875 0.171875 0.171875 0.453125q0 0.265625 -0.171875 0.453125q-0.171875 0.171875 -0.46875 0.171875l-4.875 0zm11.437553 8.578125q-0.984375 0 -1.765625 -0.46875q-0.765625 -0.46875 -1.21875 -1.28125q-0.453125 -0.8125 -0.453125 -1.84375l0 -9.125002q0 -0.328125 0.1875 -0.53125q0.203125 -0.203125 0.53125 -0.203125q0.3125 0 0.515625 0.203125q0.203125 0.203125 0.203125 0.53125l0 9.125002q0 0.9375 0.5625 1.546875q0.5625 0.609375 1.4375 0.609375l0.5 0q0.296875 0 0.484375 0.203125q0.1875 0.203125 0.1875 0.53125q0 0.3125 -0.21875 0.515625q-0.21875 0.1875 -0.5625 0.1875l-0.390625 0zm-4.6406174 -8.578125q-0.28125 0 -0.46875 -0.171875q-0.1875 -0.1875 -0.1875 -0.453125q0 -0.28125 0.1875 -0.453125q0.1875 -0.171875 0.46875 -0.171875l4.7499924 0q0.28125 0 0.46875 0.171875q0.1875 0.171875 0.1875 0.453125q0 0.265625 -0.1875 0.453125q-0.1875 0.171875 -0.46875 0.171875l-4.7499924 0zm11.718559 8.671875q-1.109375 0 -2.1875 -0.375q-1.078125 -0.375 -1.75 -1.125q-0.21875 -0.21875 -0.1875 -0.5q0.046875 -0.28125 0.296875 -0.484375q0.25 -0.1875 0.53125 -0.140625q0.28125 0.03125 0.46875 0.234375q0.453125 0.53125 1.1875 0.8125q0.734375 0.265625 1.640625 0.265625q1.375 0 1.984375 -0.46875q0.625 -0.484375 0.640625 -1.140625q0 -0.671875 -0.640625 -1.109375q-0.625 -0.453125 -2.078125 -0.6875q-1.890625 -0.296875 -2.765625 -1.046875q-0.875 -0.75 -0.875 -1.765625q0 -0.953125 0.5 -1.578125q0.5 -0.640625 1.34375 -0.953125q0.84375 -0.328125 1.84375 -0.328125q1.25 0 2.15625 0.4375q0.90625 0.421875 1.46875 1.140625q0.1875 0.25 0.140625 0.515625q-0.03125 0.25 -0.296875 0.421875q-0.21875 0.125 -0.515625 0.078125q-0.28125 -0.046875 -0.484375 -0.265625q-0.46875 -0.53125 -1.09375 -0.78125q-0.609375 -0.265625 -1.40625 -0.265625q-1.03125 0 -1.65625 0.421875q-0.609375 0.421875 -0.609375 1.0625q0 0.421875 0.234375 0.75q0.234375 0.3125 0.796875 0.5625q0.578125 0.234375 1.609375 0.390625q1.390625 0.234375 2.203125 0.671875q0.8125 0.4375 1.15625 1.03125q0.34375 0.578125 0.34375 1.265625q0 0.875 -0.515625 1.546875q-0.5 0.65625 -1.40625 1.03125q-0.90625 0.375 -2.078125 0.375zm4.82135 1.359375q-0.3125 0 -0.515625 -0.21875q-0.203125 -0.203125 -0.203125 -0.5q0 -0.3125 0.203125 -0.53125q0.203125 -0.203125 0.515625 -0.203125l8.9375 0q0.296875 0 0.5 0.203125q0.203125 0.21875 0.203125 0.53125q0 0.296875 -0.203125 0.5q-0.203125 0.21875 -0.5 0.21875l-8.9375 0zm11.687286 -1.453125q-0.28125 0 -0.5 -0.1875q-0.203125 -0.203125 -0.203125 -0.546875l0 -9.453125q0 -1.3125 0.453125 -2.296877q0.453125 -0.984375 1.328125 -1.53125q0.875 -0.5625 2.140625 -0.5625q0.328125 0 0.53125 0.1875q0.203125 0.1875 0.203125 0.46875q0 0.28125 -0.203125 0.46875q-0.203125 0.1875 -0.53125 0.1875q-0.84375 0 -1.390625 0.390625q-0.546875 0.375 -0.828125 1.0625019q-0.265625 0.671875 -0.265625 1.546875l0 9.53125q0 0.34375 -0.203125 0.546875q-0.1875 0.1875 -0.53125 0.1875zm-1.890625 -8.578125q-0.296875 0 -0.484375 -0.171875q-0.171875 -0.1875 -0.171875 -0.453125q0 -0.28125 0.171875 -0.453125q0.1875 -0.171875 0.484375 -0.171875l4.875 0q0.296875 0 0.46875 0.171875q0.171875 0.171875 0.171875 0.453125q0 0.265625 -0.171875 0.453125q-0.171875 0.171875 -0.46875 0.171875l-4.875 0zm11.890686 8.6875q-1.328125 0 -2.375 -0.546875q-1.046875 -0.546875 -1.65625 -1.609375q-0.59375 -1.0625 -0.59375 -2.59375l0 -4.859375q0 -0.296875 0.203125 -0.5q0.203125 -0.203125 0.5 -0.203125q0.3125 0 0.515625 0.203125q0.203125 0.203125 0.203125 0.5l0 4.859375q0 1.15625 0.4375 1.90625q0.453125 0.734375 1.203125 1.109375q0.75 0.375 1.703125 0.375q0.921875 0 1.65625 -0.34375q0.734375 -0.359375 1.15625 -0.96875q0.4375 -0.625 0.4375 -1.40625l1.03125 0q-0.0625 1.171875 -0.65625 2.09375q-0.578125 0.921875 -1.578125 1.453125q-0.984375 0.53125 -2.1875 0.53125zm4.09375 -0.109375q-0.3125 0 -0.515625 -0.1875q-0.1875 -0.203125 -0.1875 -0.546875l0 -8.765625q0 -0.3125 0.1875 -0.5q0.203125 -0.203125 0.515625 -0.203125q0.328125 0 0.53125 0.203125q0.203125 0.1875 0.203125 0.5l0 8.765625q0 0.34375 -0.203125 0.546875q-0.203125 0.1875 -0.53125 0.1875zm6.2865295 0q-0.734375 0 -1.328125 -0.40625q-0.59375 -0.421875 -0.921875 -1.140625q-0.3125 -0.734375 -0.3125 -1.6875l0 -10.625002q0 -0.3125 0.1875 -0.515625q0.203125 -0.203125 0.515625 -0.203125q0.3125 0 0.5 0.203125q0.203125 0.203125 0.203125 0.515625l0 10.625002q0 0.8125 0.328125 1.3125q0.328125 0.5 0.828125 0.5l0.46875 0q0.28125 0 0.453125 0.203125q0.171875 0.1875 0.171875 0.515625q0 0.3125 -0.234375 0.515625q-0.234375 0.1875 -0.609375 0.1875l-0.25 0zm5.2610626 0q-0.734375 0 -1.328125 -0.40625q-0.59375 -0.421875 -0.921875 -1.140625q-0.3125 -0.734375 -0.3125 -1.6875l0 -10.625002q0 -0.3125 0.1875 -0.515625q0.203125 -0.203125 0.515625 -0.203125q0.3125 0 0.5 0.203125q0.203125 0.203125 0.203125 0.515625l0 10.625002q0 0.8125 0.328125 1.3125q0.328125 0.5 0.828125 0.5l0.46875 0q0.28125 0 0.453125 0.203125q0.171875 0.1875 0.171875 0.515625q0 0.3125 -0.234375 0.515625q-0.234375 0.1875 -0.609375 0.1875l-0.25 0zm1.4016876 1.453125q-0.3125 0 -0.515625 -0.21875q-0.203125 -0.203125 -0.203125 -0.5q0 -0.3125 0.203125 -0.53125q0.203125 -0.203125 0.515625 -0.203125l8.9375 0q0.296875 0 0.5 0.203125q0.203125 0.21875 0.203125 0.53125q0 0.296875 -0.203125 0.5q-0.203125 0.21875 -0.5 0.21875l-8.9375 0zm11.015411 -7.734375q0.046875 -1.15625 0.59375 -2.0625q0.5625 -0.921875 1.4375 -1.4375q0.890625 -0.53125 1.96875 -0.53125q0.859375 0 1.328125 0.25q0.46875 0.234375 0.359375 0.703125q-0.078125 0.28125 -0.265625 0.375q-0.171875 0.078125 -0.421875 0.0625q-0.25 -0.015625 -0.5625 -0.03125q-1.046875 -0.09375 -1.859375 0.21875q-0.8125 0.296875 -1.296875 0.9375q-0.46875 0.640625 -0.46875 1.515625l-0.8125 0zm0.109375 6.28125q-0.34375 0 -0.53125 -0.1875q-0.1875 -0.1875 -0.1875 -0.515625l0 -8.796875q0 -0.328125 0.1875 -0.515625q0.1875 -0.1875 0.53125 -0.1875q0.328125 0 0.515625 0.1875q0.1875 0.1875 0.1875 0.515625l0 8.796875q0 0.328125 -0.1875 0.515625q-0.1875 0.1875 -0.515625 0.1875zm11.735397 0.09375q-1.5 0 -2.671875 -0.671875q-1.171875 -0.671875 -1.84375 -1.84375q-0.671875 -1.171875 -0.671875 -2.671875q0 -1.515625 0.671875 -2.6875q0.671875 -1.171875 1.84375 -1.84375q1.171875 -0.671875 2.671875 -0.671875q1.484375 0 2.65625 0.671875q1.171875 0.671875 1.84375 1.84375q0.671875 1.171875 0.6875 2.6875q0 1.5 -0.6875 2.671875q-0.671875 1.171875 -1.84375 1.84375q-1.171875 0.671875 -2.65625 0.671875zm0 -1.3125q1.078125 0 1.9375 -0.5q0.859375 -0.5 1.34375 -1.375q0.484375 -0.875 0.484375 -2.0q0 -1.125 -0.484375 -2.0q-0.484375 -0.890625 -1.34375 -1.390625q-0.859375 -0.515625 -1.9375 -0.515625q-1.078125 0 -1.9375 0.515625q-0.859375 0.5 -1.359375 1.390625q-0.5 0.875 -0.5 2.0q0 1.125 0.5 2.0q0.5 0.875 1.359375 1.375q0.859375 0.5 1.9375 0.5zm11.552155 1.3125q-1.109375 0 -2.1875 -0.375q-1.078125 -0.375 -1.75 -1.125q-0.21875 -0.21875 -0.1875 -0.5q0.046875 -0.28125 0.296875 -0.484375q0.25 -0.1875 0.53125 -0.140625q0.28125 0.03125 0.46875 0.234375q0.453125 0.53125 1.1875 0.8125q0.734375 0.265625 1.640625 0.265625q1.375 0 1.984375 -0.46875q0.625 -0.484375 0.640625 -1.140625q0 -0.671875 -0.640625 -1.109375q-0.625 -0.453125 -2.078125 -0.6875q-1.890625 -0.296875 -2.765625 -1.046875q-0.875 -0.75 -0.875 -1.765625q0 -0.953125 0.5 -1.578125q0.5 -0.640625 1.34375 -0.953125q0.84375 -0.328125 1.84375 -0.328125q1.25 0 2.15625 0.4375q0.90625 0.421875 1.46875 1.140625q0.1875 0.25 0.140625 0.515625q-0.03125 0.25 -0.296875 0.421875q-0.21875 0.125 -0.515625 0.078125q-0.28125 -0.046875 -0.484375 -0.265625q-0.46875 -0.53125 -1.09375 -0.78125q-0.609375 -0.265625 -1.40625 -0.265625q-1.03125 0 -1.65625 0.421875q-0.609375 0.421875 -0.609375 1.0625q0 0.421875 0.234375 0.75q0.234375 0.3125 0.796875 0.5625q0.578125 0.234375 1.609375 0.390625q1.390625 0.234375 2.203125 0.671875q0.8125 0.4375 1.15625 1.03125q0.34375 0.578125 0.34375 1.265625q0 0.875 -0.515625 1.546875q-0.5 0.65625 -1.40625 1.03125q-0.90625 0.375 -2.078125 0.375z" fill-rule="nonzero"/><path fill="#ffffff" d="m560.72034 17.414051l80.51318 0l0 86.588776l-13.419128 13.419136l-67.094055 0z" fill-rule="evenodd"/><path fill="#cbcbcb" d="m627.8144 117.42197l2.683838 -10.735313l10.735291 -2.6838226z" fill-rule="evenodd"/><path fill="#000000" fill-opacity="0.0" d="m627.8144 117.42197l2.683838 -10.735313l10.735291 -2.6838226l-13.419128 13.419136l-67.094055 0l0 -100.00792l80.51318 0l0 86.588776" fill-rule="evenodd"/><path stroke="#6fa8dc" stroke-width="1.0" stroke-linejoin="round" stroke-linecap="butt" d="m627.8144 117.42197l2.683838 -10.735313l10.735291 -2.6838226l-13.419128 13.419136l-67.094055 0l0 -100.00792l80.51318 0l0 86.588776" fill-rule="evenodd"/><path fill="#000000" fill-opacity="0.0" d="m584.6268 93.33409l56.60669 0l0 24.087875l-56.60669 0z" fill-rule="evenodd"/><path fill="#6fa8dc" d="m594.92365 114.04159q-0.28125 0 -0.5 -0.203125q-0.203125 -0.203125 -0.203125 -0.484375q0 -0.296875 0.203125 -0.5q0.21875 -0.21875 0.5 -0.21875q0.28125 0 0.484375 0.21875q0.203125 0.203125 0.203125 0.5q0 0.265625 -0.203125 0.484375q-0.1875 0.203125 -0.484375 0.203125zm2.310791 -0.1875q-0.21875 0 -0.328125 -0.109375q-0.109375 -0.125 -0.125 -0.296875q-0.015625 -0.1875 0.109375 -0.34375l3.125 -4.28125l0.4375 -0.34375l2.8125 -3.828125q0.125 -0.171875 0.359375 -0.171875q0.1875 0 0.296875 0.125q0.125 0.125 0.125 0.3125q0.015625 0.171875 -0.078125 0.296875l-2.953125 4.015625l-0.40625 0.328125l-3.046875 4.15625q-0.125 0.140625 -0.328125 0.140625zm6.484375 0q-0.09375 0 -0.1875 -0.03125q-0.09375 -0.046875 -0.171875 -0.140625l-2.984375 -4.140625l-0.375 -0.265625l-2.921875 -4.0625q-0.109375 -0.140625 -0.09375 -0.3125q0.015625 -0.171875 0.125 -0.296875q0.125 -0.125 0.3125 -0.125q0.21875 0 0.359375 0.171875l2.8125 3.90625l0.34375 0.21875l3.125 4.328125q0.09375 0.140625 0.09375 0.328125q0 0.171875 -0.125 0.296875q-0.109375 0.125 -0.3125 0.125zm2.6559448 0q-0.203125 0 -0.34375 -0.140625q-0.125 -0.140625 -0.125 -0.328125l0 -8.4375q0 -0.203125 0.125 -0.328125q0.140625 -0.140625 0.34375 -0.140625q0.28125 0 0.421875 0.25l4.03125 8.03125l-0.40625 0l3.984375 -8.03125q0.140625 -0.25 0.40625 -0.25q0.203125 0 0.328125 0.140625q0.140625 0.125 0.140625 0.328125l0 8.4375q0 0.1875 -0.140625 0.328125q-0.125 0.140625 -0.328125 0.140625q-0.203125 0 -0.34375 -0.140625q-0.125 -0.140625 -0.125 -0.328125l0 -7.21875l0.203125 0l-3.546875 7.25q-0.125 0.21875 -0.40625 0.21875q-0.296875 0 -0.4375 -0.28125l-3.5625 -7.125l0.25 -0.0625l0 7.21875q0 0.1875 -0.140625 0.328125q-0.140625 0.140625 -0.328125 0.140625zm11.772095 0q-0.203125 0 -0.34375 -0.125q-0.125 -0.140625 -0.125 -0.34375l0 -8.4375q0 -0.1875 0.125 -0.328125q0.140625 -0.140625 0.34375 -0.140625q0.1875 0 0.328125 0.140625q0.140625 0.140625 0.140625 0.328125l0 8.015625l4.6875 0q0.1875 0 0.328125 0.125q0.140625 0.125 0.140625 0.328125q0 0.1875 -0.140625 0.3125q-0.140625 0.125 -0.328125 0.125l-5.15625 0z" fill-rule="nonzero"/><path fill="#6fa8dc" d="m567.4307 28.734324l67.01343 0l0 5.6205044l-67.01343 0z" fill-rule="evenodd"/><path stroke="#6fa8dc" stroke-width="1.0" stroke-linejoin="round" stroke-linecap="butt" d="m567.4307 28.734324l67.01343 0l0 5.6205044l-67.01343 0z" fill-rule="evenodd"/><path fill="#6fa8dc" d="m567.4307 42.783524l67.01343 0l0 5.6205025l-67.01343 0z" fill-rule="evenodd"/><path stroke="#6fa8dc" stroke-width="1.0" stroke-linejoin="round" stroke-linecap="butt" d="m567.4307 42.783524l67.01343 0l0 5.6205025l-67.01343 0z" fill-rule="evenodd"/><path fill="#6fa8dc" d="m567.47015 56.832726l67.01343 0l0 5.6205025l-67.01343 0z" fill-rule="evenodd"/><path stroke="#6fa8dc" stroke-width="1.0" stroke-linejoin="round" stroke-linecap="butt" d="m567.47015 56.832726l67.01343 0l0 5.6205025l-67.01343 0z" fill-rule="evenodd"/><path fill="#6fa8dc" d="m567.47015 70.88193l67.01343 0l0 5.6204987l-67.01343 0z" fill-rule="evenodd"/><path stroke="#6fa8dc" stroke-width="1.0" stroke-linejoin="round" stroke-linecap="butt" d="m567.47015 70.88193l67.01343 0l0 5.6204987l-67.01343 0z" fill-rule="evenodd"/><path fill="#6fa8dc" d="m567.4307 84.93113l36.89679 0l0 5.6204987l-36.89679 0z" fill-rule="evenodd"/><path stroke="#6fa8dc" stroke-width="1.0" stroke-linejoin="round" stroke-linecap="butt" d="m567.4307 84.93113l36.89679 0l0 5.6204987l-36.89679 0z" fill-rule="evenodd"/><path fill="#000000" fill-opacity="0.0" d="m651.9974 17.414698l178.14172 0l0 42.015747l-178.14172 0z" fill-rule="evenodd"/><path fill="#6fa8dc" d="m663.9505 44.334698q-0.28125 0 -0.5 -0.1875q-0.203125 -0.203125 -0.203125 -0.546875l0 -9.453125q0 -1.3125 0.453125 -2.296877q0.453125 -0.984375 1.328125 -1.53125q0.875 -0.5625 2.140625 -0.5625q0.328125 0 0.53125 0.1875q0.203125 0.1875 0.203125 0.46875q0 0.28125 -0.203125 0.46875q-0.203125 0.1875 -0.53125 0.1875q-0.84375 0 -1.390625 0.390625q-0.546875 0.375 -0.828125 1.0625019q-0.265625 0.671875 -0.265625 1.546875l0 9.53125q0 0.34375 -0.203125 0.546875q-0.1875 0.1875 -0.53125 0.1875zm-1.890625 -8.578125q-0.296875 0 -0.484375 -0.171875q-0.171875 -0.1875 -0.171875 -0.453125q0 -0.28125 0.171875 -0.453125q0.1875 -0.171875 0.484375 -0.171875l4.875 0q0.296875 0 0.46875 0.171875q0.171875 0.171875 0.171875 0.453125q0 0.265625 -0.171875 0.453125q-0.171875 0.171875 -0.46875 0.171875l-4.875 0zm11.437561 8.578125q-0.984375 0 -1.765625 -0.46875q-0.765625 -0.46875 -1.21875 -1.28125q-0.453125 -0.8125 -0.453125 -1.84375l0 -9.125002q0 -0.328125 0.1875 -0.53125q0.203125 -0.203125 0.53125 -0.203125q0.3125 0 0.515625 0.203125q0.203125 0.203125 0.203125 0.53125l0 9.125002q0 0.9375 0.5625 1.546875q0.5625 0.609375 1.4375 0.609375l0.5 0q0.296875 0 0.484375 0.203125q0.1875 0.203125 0.1875 0.53125q0 0.3125 -0.21875 0.515625q-0.21875 0.1875 -0.5625 0.1875l-0.390625 0zm-4.640625 -8.578125q-0.28125 0 -0.46875 -0.171875q-0.1875 -0.1875 -0.1875 -0.453125q0 -0.28125 0.1875 -0.453125q0.1875 -0.171875 0.46875 -0.171875l4.75 0q0.28125 0 0.46875 0.171875q0.1875 0.171875 0.1875 0.453125q0 0.265625 -0.1875 0.453125q-0.1875 0.171875 -0.46875 0.171875l-4.75 0zm12.702942 8.671875q-1.484375 0 -2.625 -0.671875q-1.140625 -0.6875 -1.8125 -1.859375q-0.65625 -1.1875 -0.65625 -2.65625q0 -1.484375 0.625 -2.65625q0.640625 -1.1875 1.734375 -1.859375q1.109375 -0.6875 2.546875 -0.6875q1.140625 0 2.09375 0.453125q0.96875 0.4375 1.6875 1.34375q0.203125 0.21875 0.140625 0.46875q-0.046875 0.25 -0.3125 0.4375q-0.203125 0.15625 -0.453125 0.109375q-0.25 -0.046875 -0.4375 -0.28125q-1.078125 -1.234375 -2.71875 -1.234375q-1.046875 0 -1.84375 0.515625q-0.78125 0.5 -1.234375 1.375q-0.4375 0.875 -0.4375 2.015625q0 1.125 0.46875 2.0q0.46875 0.875 1.3125 1.375q0.84375 0.5 1.921875 0.5q0.71875 0 1.328125 -0.1875q0.609375 -0.203125 1.078125 -0.609375q0.21875 -0.1875 0.453125 -0.203125q0.25 -0.015625 0.453125 0.140625q0.234375 0.21875 0.25 0.484375q0.03125 0.25 -0.171875 0.4375q-1.359375 1.25 -3.390625 1.25zm4.881714 1.359375q-0.3125 0 -0.515625 -0.21875q-0.203125 -0.203125 -0.203125 -0.5q0 -0.3125 0.203125 -0.53125q0.203125 -0.203125 0.515625 -0.203125l8.9375 0q0.296875 0 0.5 0.203125q0.203125 0.21875 0.203125 0.53125q0 0.296875 -0.203125 0.5q-0.203125 0.21875 -0.5 0.21875l-8.9375 0zm12.171631 2.984375q-0.15625 0 -0.34375 -0.078125q-0.625 -0.28125 -0.34375 -0.890625l6.015625 -13.28125q0.28125 -0.59375 0.890625 -0.34375q0.640625 0.265625 0.359375 0.890625l-6.046875 13.28125q-0.1875 0.421875 -0.53125 0.421875zm2.0625 -4.75q-0.28125 0.125 -0.53125 0.046875q-0.234375 -0.09375 -0.375 -0.375l-4.171875 -8.609375q-0.125 -0.28125 -0.03125 -0.515625q0.09375 -0.25 0.375 -0.390625q0.28125 -0.125 0.515625 -0.03125q0.25 0.078125 0.375 0.359375l4.09375 8.609375q0.140625 0.28125 0.078125 0.53125q-0.046875 0.234375 -0.328125 0.375zm10.522217 0.40625q-1.4375 0 -2.578125 -0.671875q-1.125 -0.6875 -1.796875 -1.859375q-0.65625 -1.1875 -0.65625 -2.65625q0 -1.484375 0.671875 -2.65625q0.6875 -1.1875 1.859375 -1.859375q1.171875 -0.6875 2.65625 -0.6875q1.46875 0 2.625 0.6875q1.171875 0.671875 1.859375 1.859375q0.6875 1.171875 0.703125 2.65625l-0.578125 0.453125q0 1.34375 -0.625 2.421875q-0.625 1.0625 -1.703125 1.6875q-1.078125 0.625 -2.4375 0.625zm0.15625 -1.3125q1.078125 0 1.921875 -0.5q0.859375 -0.5 1.34375 -1.390625q0.5 -0.890625 0.5 -1.984375q0 -1.125 -0.5 -2.0q-0.484375 -0.875 -1.34375 -1.390625q-0.84375 -0.515625 -1.921875 -0.515625q-1.0625 0 -1.921875 0.515625q-0.859375 0.515625 -1.375 1.390625q-0.5 0.875 -0.5 2.0q0 1.09375 0.5 1.984375q0.515625 0.890625 1.375 1.390625q0.859375 0.5 1.921875 0.5zm4.453125 1.21875q-0.3125 0 -0.515625 -0.1875q-0.203125 -0.203125 -0.203125 -0.515625l0 -3.203125l0.34375 -1.46875l1.109375 0.28125l0 4.390625q0 0.3125 -0.21875 0.515625q-0.203125 0.1875 -0.515625 0.1875zm4.130249 -6.28125q0.046875 -1.15625 0.59375 -2.0625q0.5625 -0.921875 1.4375 -1.4375q0.890625 -0.53125 1.96875 -0.53125q0.859375 0 1.328125 0.25q0.46875 0.234375 0.359375 0.703125q-0.078125 0.28125 -0.265625 0.375q-0.171875 0.078125 -0.421875 0.0625q-0.25 -0.015625 -0.5625 -0.03125q-1.046875 -0.09375 -1.859375 0.21875q-0.8125 0.296875 -1.296875 0.9375q-0.46875 0.640625 -0.46875 1.515625l-0.8125 0zm0.109375 6.28125q-0.34375 0 -0.53125 -0.1875q-0.1875 -0.1875 -0.1875 -0.515625l0 -8.796875q0 -0.328125 0.1875 -0.515625q0.1875 -0.1875 0.53125 -0.1875q0.328125 0 0.515625 0.1875q0.1875 0.1875 0.1875 0.515625l0 8.796875q0 0.328125 -0.1875 0.515625q-0.1875 0.1875 -0.515625 0.1875zm8.560181 4.359375q-0.328125 0 -0.53125 -0.203125q-0.203125 -0.1875 -0.203125 -0.515625l0 -8.8125q0.03125 -1.453125 0.703125 -2.609375q0.6875 -1.171875 1.84375 -1.84375q1.171875 -0.671875 2.625 -0.671875q1.5 0 2.671875 0.6875q1.171875 0.671875 1.84375 1.859375q0.6875 1.171875 0.6875 2.65625q0 1.46875 -0.65625 2.65625q-0.65625 1.171875 -1.796875 1.859375q-1.140625 0.671875 -2.578125 0.671875q-1.25 0 -2.265625 -0.53125q-1.015625 -0.53125 -1.640625 -1.40625l0 5.484375q0 0.328125 -0.203125 0.515625q-0.1875 0.203125 -0.5 0.203125zm4.4375 -5.578125q1.078125 0 1.9375 -0.5q0.859375 -0.5 1.359375 -1.390625q0.5 -0.890625 0.5 -1.984375q0 -1.125 -0.5 -2.0q-0.5 -0.875 -1.359375 -1.390625q-0.859375 -0.515625 -1.9375 -0.515625q-1.0625 0 -1.921875 0.515625q-0.859375 0.515625 -1.34375 1.390625q-0.484375 0.875 -0.484375 2.0q0 1.09375 0.484375 1.984375q0.484375 0.890625 1.34375 1.390625q0.859375 0.5 1.921875 0.5zm6.3618774 2.671875q-0.3125 0 -0.515625 -0.21875q-0.203125 -0.203125 -0.203125 -0.5q0 -0.3125 0.203125 -0.53125q0.203125 -0.203125 0.515625 -0.203125l8.9375 0q0.296875 0 0.5 0.203125q0.203125 0.21875 0.203125 0.53125q0 0.296875 -0.203125 0.5q-0.203125 0.21875 -0.5 0.21875l-8.9375 0zm15.062256 -1.359375q-1.5 0 -2.671875 -0.671875q-1.171875 -0.671875 -1.84375 -1.84375q-0.671875 -1.171875 -0.671875 -2.671875q0 -1.515625 0.671875 -2.6875q0.671875 -1.171875 1.84375 -1.84375q1.171875 -0.671875 2.671875 -0.671875q1.484375 0 2.65625 0.671875q1.171875 0.671875 1.84375 1.84375q0.671875 1.171875 0.6875 2.6875q0 1.5 -0.6875 2.671875q-0.671875 1.171875 -1.84375 1.84375q-1.171875 0.671875 -2.65625 0.671875zm0 -1.3125q1.078125 0 1.9375 -0.5q0.859375 -0.5 1.34375 -1.375q0.484375 -0.875 0.484375 -2.0q0 -1.125 -0.484375 -2.0q-0.484375 -0.890625 -1.34375 -1.390625q-0.859375 -0.515625 -1.9375 -0.515625q-1.078125 0 -1.9375 0.515625q-0.859375 0.5 -1.359375 1.390625q-0.5 0.875 -0.5 2.0q0 1.125 0.5 2.0q0.5 0.875 1.359375 1.375q0.859375 0.5 1.9375 0.5zm16.72406 1.21875q-0.3125 0 -0.515625 -0.203125q-0.203125 -0.203125 -0.203125 -0.5l0 -4.859375q0 -1.15625 -0.4375 -1.890625q-0.4375 -0.75 -1.203125 -1.125q-0.75 -0.375 -1.703125 -0.375q-0.90625 0 -1.65625 0.359375q-0.734375 0.34375 -1.171875 0.96875q-0.421875 0.609375 -0.421875 1.390625l-1.015625 0q0.03125 -1.171875 0.625 -2.09375q0.609375 -0.921875 1.59375 -1.453125q0.984375 -0.53125 2.203125 -0.53125q1.3125 0 2.359375 0.546875q1.046875 0.546875 1.65625 1.609375q0.609375 1.0625 0.609375 2.59375l0 4.859375q0 0.296875 -0.203125 0.5q-0.203125 0.203125 -0.515625 0.203125zm-8.015625 0q-0.328125 0 -0.53125 -0.1875q-0.203125 -0.203125 -0.203125 -0.515625l0 -8.78125q0 -0.328125 0.203125 -0.515625q0.203125 -0.203125 0.53125 -0.203125q0.3125 0 0.5 0.203125q0.203125 0.1875 0.203125 0.515625l0 8.78125q0 0.3125 -0.203125 0.515625q-0.1875 0.1875 -0.5 0.1875zm14.098999 0q-0.734375 0 -1.328125 -0.40625q-0.59375 -0.421875 -0.921875 -1.140625q-0.3125 -0.734375 -0.3125 -1.6875l0 -10.625002q0 -0.3125 0.1875 -0.515625q0.203125 -0.203125 0.515625 -0.203125q0.3125 0 0.5 0.203125q0.203125 0.203125 0.203125 0.515625l0 10.625002q0 0.8125 0.328125 1.3125q0.328125 0.5 0.828125 0.5l0.46875 0q0.28125 0 0.453125 0.203125q0.171875 0.1875 0.171875 0.515625q0 0.3125 -0.234375 0.515625q-0.234375 0.1875 -0.609375 0.1875l-0.25 0zm4.8236084 4.4375q-0.15625 0 -0.34375 -0.078125q-0.625 -0.28125 -0.34375 -0.890625l6.015625 -13.28125q0.28125 -0.59375 0.890625 -0.34375q0.640625 0.265625 0.359375 0.890625l-6.046875 13.28125q-0.1875 0.421875 -0.53125 0.421875zm2.0625 -4.75q-0.28125 0.125 -0.53125 0.046875q-0.234375 -0.09375 -0.375 -0.375l-4.171875 -8.609375q-0.125 -0.28125 -0.03125 -0.515625q0.09375 -0.25 0.375 -0.390625q0.28125 -0.125 0.515625 -0.03125q0.25 0.078125 0.375 0.359375l4.09375 8.609375q0.140625 0.28125 0.078125 0.53125q-0.046875 0.234375 -0.328125 0.375z" fill-rule="nonzero"/><path fill="#f1c232" d="m390.1734 342.9589l0 0c-1.1805115 -8.067017 2.695343 -16.052856 9.98291 -20.568848c7.287567 -4.5160217 16.70874 -4.7701416 24.265808 -0.65460205l0 0c2.676941 -4.6904907 7.5765076 -7.928955 13.216705 -8.735809c5.640167 -0.80685425 11.3585205 0.9126587 15.4253235 4.6384277l0 0c2.2803955 -4.252716 6.758026 -7.1099854 11.843964 -7.5579224c5.0859375 -0.447937 10.060425 1.5768738 13.158203 5.355896l0 0c4.1199036 -4.507843 10.674744 -6.4058533 16.828217 -4.872711c6.1535034 1.5331421 10.800415 6.222046 11.929993 12.037811l0 0c5.0475464 1.2802429 9.252075 4.5348206 11.527222 8.922821c2.2751465 4.3880005 2.397766 9.479004 0.3361206 13.957611l0 0c4.970398 6.0152893 6.1330566 14.030609 3.0541992 21.054749c-3.0788574 7.0241394 -9.936768 12.001831 -18.014435 13.07547c-0.0569458 6.592407 -3.9450989 12.64151 -10.1658325 15.815735c-6.220703 3.1742249 -13.802612 2.9779053 -19.823273 -0.51330566l0 0c-2.5645142 7.895569 -9.782684 13.705017 -18.536041 14.918518c-8.753326 1.2134705 -17.472656 -2.3865662 -22.390839 -9.2447815l0 0c-6.028717 3.3804321 -13.262634 4.354248 -20.069977 2.7017212c-6.8073425 -1.6524963 -12.614655 -5.7921143 -16.111969 -11.485046l0 0c-6.160553 0.6703491 -12.116974 -2.2976074 -14.913086 -7.4308777c-2.796112 -5.133301 -1.836731 -11.339172 2.402069 -15.537659l0 0c-5.495392 -3.0075989 -8.299469 -8.975647 -6.950012 -14.792084c1.3494263 -5.816437 6.546631 -10.1631775 12.881409 -10.773621z" fill-rule="evenodd"/><path fill="#000000" fill-opacity="0.0" d="m384.12024 368.83554l0 0c2.5932922 1.419281 5.589142 2.0631104 8.585327 1.8450317m3.924347 21.123993c1.2884521 -0.14019775 2.551422 -0.43710327 3.756256 -0.8830261m32.42386 9.665985c-0.9062195 -1.2636719 -1.6649475 -2.6140442 -2.2632751 -4.028076m43.191742 -1.645874l0 0c0.4675293 -1.4394836 0.7704773 -2.9210205 0.90371704 -4.4198914m29.084259 -10.882019c0.06060791 -7.0186157 -4.226471 -13.444977 -11.019836 -16.518707m25.97995 -17.610748c-1.1001587 2.3899841 -2.7797241 4.5101013 -4.9069214 6.1941223m-6.955414 -29.075195l0 0c0.18743896 0.9651184 0.27420044 1.9447632 0.2590332 2.9253235m-29.016754 -10.090118l0 0c-1.0276794 1.1244812 -1.8743896 2.381073 -2.5137024 3.7306519m-22.488708 -1.5291443l0 0c-0.54766846 1.0213623 -0.9566345 2.1021423 -1.2174683 3.2174377m-27.424988 0.8800659l0 0c1.5990906 0.8708496 3.0784302 1.9190063 4.4055786 3.1214294m-38.65384 18.102112l0 0c0.16271973 1.1118469 0.4197998 2.2099915 0.76885986 3.2841492" fill-rule="evenodd"/><path stroke="#f1c232" stroke-width="1.0" stroke-linejoin="round" stroke-linecap="butt" d="m390.1734 342.9589l0 0c-1.1805115 -8.067017 2.695343 -16.052856 9.98291 -20.568848c7.287567 -4.5160217 16.70874 -4.7701416 24.265808 -0.65460205l0 0c2.676941 -4.6904907 7.5765076 -7.928955 13.216705 -8.735809c5.640167 -0.80685425 11.3585205 0.9126587 15.4253235 4.6384277l0 0c2.2803955 -4.252716 6.758026 -7.1099854 11.843964 -7.5579224c5.0859375 -0.447937 10.060425 1.5768738 13.158203 5.355896l0 0c4.1199036 -4.507843 10.674744 -6.4058533 16.828217 -4.872711c6.1535034 1.5331421 10.800415 6.222046 11.929993 12.037811l0 0c5.0475464 1.2802429 9.252075 4.5348206 11.527222 8.922821c2.2751465 4.3880005 2.397766 9.479004 0.3361206 13.957611l0 0c4.970398 6.0152893 6.1330566 14.030609 3.0541992 21.054749c-3.0788574 7.0241394 -9.936768 12.001831 -18.014435 13.07547c-0.0569458 6.592407 -3.9450989 12.64151 -10.1658325 15.815735c-6.220703 3.1742249 -13.802612 2.9779053 -19.823273 -0.51330566l0 0c-2.5645142 7.895569 -9.782684 13.705017 -18.536041 14.918518c-8.753326 1.2134705 -17.472656 -2.3865662 -22.390839 -9.2447815l0 0c-6.028717 3.3804321 -13.262634 4.354248 -20.069977 2.7017212c-6.8073425 -1.6524963 -12.614655 -5.7921143 -16.111969 -11.485046l0 0c-6.160553 0.6703491 -12.116974 -2.2976074 -14.913086 -7.4308777c-2.796112 -5.133301 -1.836731 -11.339172 2.402069 -15.537659l0 0c-5.495392 -3.0075989 -8.299469 -8.975647 -6.950012 -14.792084c1.3494263 -5.816437 6.546631 -10.1631775 12.881409 -10.773621z" fill-rule="evenodd"/><path stroke="#f1c232" stroke-width="1.0" stroke-linejoin="round" stroke-linecap="butt" d="m384.12024 368.83554l0 0c2.5932922 1.419281 5.589142 2.0631104 8.585327 1.8450317m3.924347 21.123993c1.2884521 -0.14019775 2.551422 -0.43710327 3.756256 -0.8830261m32.42386 9.665985c-0.9062195 -1.2636719 -1.6649475 -2.6140442 -2.2632751 -4.028076m43.191742 -1.645874l0 0c0.4675293 -1.4394836 0.7704773 -2.9210205 0.90371704 -4.4198914m29.084259 -10.882019c0.06060791 -7.0186157 -4.226471 -13.444977 -11.019836 -16.518707m25.97995 -17.610748c-1.1001587 2.3899841 -2.7797241 4.5101013 -4.9069214 6.1941223m-6.955414 -29.075195l0 0c0.18743896 0.9651184 0.27420044 1.9447632 0.2590332 2.9253235m-29.016754 -10.090118l0 0c-1.0276794 1.1244812 -1.8743896 2.381073 -2.5137024 3.7306519m-22.488708 -1.5291443l0 0c-0.54766846 1.0213623 -0.9566345 2.1021423 -1.2174683 3.2174377m-27.424988 0.8800659l0 0c1.5990906 0.8708496 3.0784302 1.9190063 4.4055786 3.1214294m-38.65384 18.102112l0 0c0.16271973 1.1118469 0.4197998 2.2099915 0.76885986 3.2841492" fill-rule="evenodd"/><path fill="#ffffff" d="m424.45413 364.8588q-0.359375 0 -0.59375 -0.234375q-0.234375 -0.234375 -0.234375 -0.59375l0 -15.0q0 -0.359375 0.234375 -0.59375q0.234375 -0.234375 0.59375 -0.234375l3.984375 0q1.5625 0 2.765625 0.65625q1.21875 0.640625 1.90625 1.8125q0.703125 1.15625 0.703125 2.671875q0 1.453125 -0.703125 2.578125q-0.6875 1.125 -1.90625 1.765625q-1.203125 0.640625 -2.765625 0.640625l-3.15625 0l0 5.703125q0 0.359375 -0.234375 0.59375q-0.234375 0.234375 -0.59375 0.234375zm8.90625 0q-0.265625 0 -0.4375 -0.109375q-0.15625 -0.109375 -0.28125 -0.3125l-4.09375 -6.53125l1.65625 -0.421875l3.828125 6.09375q0.3125 0.515625 0.109375 0.90625q-0.203125 0.375 -0.78125 0.375zm-8.078125 -8.125l3.15625 0q1.09375 0 1.921875 -0.4375q0.84375 -0.4375 1.328125 -1.203125q0.5 -0.765625 0.5 -1.75q0 -1.046875 -0.5 -1.84375q-0.484375 -0.796875 -1.328125 -1.25q-0.828125 -0.453125 -1.921875 -0.453125l-3.15625 0l0 6.9375zm19.212067 8.34375q-1.84375 0 -3.40625 -0.640625q-1.5625 -0.640625 -2.703125 -1.796875q-1.140625 -1.15625 -1.765625 -2.703125q-0.625 -1.5625 -0.625 -3.421875q0 -1.828125 0.625 -3.375q0.625 -1.5625 1.765625 -2.71875q1.140625 -1.15625 2.703125 -1.796875q1.5625 -0.640625 3.40625 -0.640625q1.84375 0 3.390625 0.640625q1.5625 0.640625 2.703125 1.796875q1.15625 1.15625 1.78125 2.71875q0.640625 1.546875 0.640625 3.375q0 1.859375 -0.640625 3.421875q-0.625 1.546875 -1.78125 2.703125q-1.140625 1.15625 -2.703125 1.796875q-1.546875 0.640625 -3.390625 0.640625zm0 -1.578125q1.46875 0 2.734375 -0.515625q1.265625 -0.53125 2.1875 -1.484375q0.921875 -0.953125 1.4375 -2.21875q0.515625 -1.265625 0.515625 -2.765625q0 -1.46875 -0.515625 -2.734375q-0.515625 -1.265625 -1.4375 -2.21875q-0.921875 -0.953125 -2.1875 -1.46875q-1.265625 -0.53125 -2.734375 -0.53125q-1.484375 0 -2.75 0.53125q-1.25 0.515625 -2.1875 1.46875q-0.921875 0.953125 -1.4375 2.21875q-0.515625 1.265625 -0.515625 2.734375q0 1.5 0.515625 2.765625q0.515625 1.265625 1.4375 2.21875q0.9375 0.953125 2.1875 1.484375q1.265625 0.515625 2.75 0.515625zm17.065155 1.578125q-1.359375 0 -2.53125 -0.390625q-1.15625 -0.40625 -2.015625 -1.125q-0.84375 -0.734375 -1.296875 -1.6875q-0.171875 -0.34375 -0.015625 -0.625q0.171875 -0.296875 0.546875 -0.40625q0.296875 -0.078125 0.578125 0.078125q0.296875 0.140625 0.453125 0.4375q0.3125 0.625 0.921875 1.125q0.625 0.484375 1.484375 0.75q0.859375 0.265625 1.875 0.265625q1.125 0 2.0 -0.375q0.875 -0.375 1.375 -1.09375q0.515625 -0.71875 0.515625 -1.734375q0 -1.296875 -0.96875 -2.234375q-0.953125 -0.9375 -3.0 -1.203125q-2.5 -0.296875 -3.90625 -1.546875q-1.40625 -1.25 -1.40625 -3.0625q0 -1.296875 0.6875 -2.25q0.6875 -0.96875 1.90625 -1.484375q1.21875 -0.53125 2.796875 -0.53125q1.171875 0 2.125 0.375q0.96875 0.375 1.671875 0.984375q0.71875 0.609375 1.171875 1.328125q0.21875 0.34375 0.140625 0.671875q-0.078125 0.3125 -0.375 0.484375q-0.3125 0.15625 -0.65625 0.046875q-0.328125 -0.109375 -0.5 -0.40625q-0.3125 -0.5 -0.796875 -0.9375q-0.46875 -0.4375 -1.15625 -0.6875q-0.6875 -0.25 -1.640625 -0.28125q-1.6875 0 -2.71875 0.71875q-1.015625 0.71875 -1.015625 2.078125q0 0.734375 0.375 1.34375q0.390625 0.59375 1.265625 1.03125q0.890625 0.4375 2.390625 0.65625q2.65625 0.390625 3.953125 1.640625q1.296875 1.234375 1.296875 3.25q0 1.140625 -0.421875 2.046875q-0.421875 0.890625 -1.1875 1.5q-0.75 0.609375 -1.765625 0.9375q-1.0 0.3125 -2.15625 0.3125z" fill-rule="nonzero"/><path fill="#cc0000" d="m161.25089 281.93442l0 62.11023l23.937012 0l0 -62.11023z" fill-rule="evenodd"/><path stroke="#cc0000" stroke-width="1.0" stroke-linejoin="round" stroke-linecap="butt" d="m161.25089 281.93442l0 62.11023l23.937012 0l0 -62.11023z" fill-rule="evenodd"/><path fill="#cc0000" d="m344.47464 328.10498l-183.2126 0l0 23.937012l183.2126 0z" fill-rule="evenodd"/><path stroke="#cc0000" stroke-width="1.0" stroke-linejoin="round" stroke-linecap="butt" d="m344.47464 328.10498l-183.2126 0l0 23.937012l183.2126 0z" fill-rule="evenodd"/><path fill="#ffffff" d="m225.63042 347.08725q-1.46875 0 -2.609375 -0.65625q-1.140625 -0.671875 -1.78125 -1.84375q-0.640625 -1.171875 -0.640625 -2.6875q0 -1.53125 0.671875 -2.703125q0.671875 -1.171875 1.84375 -1.828125q1.171875 -0.671875 2.671875 -0.671875q1.5 0 2.671875 0.671875q1.171875 0.65625 1.828125 1.828125q0.671875 1.171875 0.6875 2.703125l-0.84375 0.453125q0 1.375 -0.578125 2.453125q-0.578125 1.0625 -1.59375 1.671875q-1.015625 0.609375 -2.328125 0.609375zm0.1875 3.9375q-1.46875 0 -2.59375 -0.5625q-1.109375 -0.546875 -1.84375 -1.484375q-0.203125 -0.234375 -0.1875 -0.5q0.03125 -0.25 0.28125 -0.421875q0.234375 -0.171875 0.53125 -0.125q0.3125 0.0625 0.46875 0.296875q0.546875 0.671875 1.390625 1.078125q0.859375 0.40625 1.96875 0.40625q1.046875 0 1.890625 -0.5q0.84375 -0.5 1.328125 -1.421875q0.5 -0.90625 0.5 -2.140625l0 -2.828125l0.546875 -1.09375l0.875 0.171875l0 3.8125q0 1.5 -0.671875 2.703125q-0.671875 1.203125 -1.828125 1.90625q-1.15625 0.703125 -2.65625 0.703125zm-0.03125 -5.25q1.09375 0 1.9375 -0.484375q0.859375 -0.5 1.34375 -1.375q0.484375 -0.875 0.484375 -2.015625q0 -1.140625 -0.484375 -2.015625q-0.484375 -0.890625 -1.34375 -1.390625q-0.84375 -0.5 -1.9375 -0.5q-1.109375 0 -1.96875 0.5q-0.859375 0.5 -1.34375 1.390625q-0.484375 0.875 -0.484375 2.015625q0 1.140625 0.484375 2.015625q0.484375 0.875 1.34375 1.375q0.859375 0.484375 1.96875 0.484375zm12.614655 1.3125q-1.515625 0 -2.6875 -0.65625q-1.15625 -0.671875 -1.828125 -1.84375q-0.65625 -1.171875 -0.65625 -2.6875q0 -1.53125 0.625 -2.6875q0.625 -1.171875 1.71875 -1.84375q1.109375 -0.671875 2.546875 -0.671875q1.40625 0 2.453125 0.640625q1.0625 0.640625 1.640625 1.78125q0.578125 1.140625 0.578125 2.59375q0 0.296875 -0.1875 0.484375q-0.1875 0.171875 -0.484375 0.171875l-7.921875 0l0 -1.203125l8.078125 0l-0.796875 0.578125q0.015625 -1.078125 -0.40625 -1.9375q-0.40625 -0.859375 -1.15625 -1.34375q-0.75 -0.484375 -1.796875 -0.484375q-1.0625 0 -1.875 0.515625q-0.796875 0.5 -1.234375 1.390625q-0.4375 0.875 -0.4375 2.015625q0 1.140625 0.484375 2.015625q0.5 0.875 1.359375 1.390625q0.859375 0.5 1.984375 0.5q0.671875 0 1.34375 -0.234375q0.6875 -0.234375 1.09375 -0.59375q0.203125 -0.171875 0.46875 -0.171875q0.265625 -0.015625 0.4375 0.140625q0.25 0.21875 0.25 0.484375q0.015625 0.25 -0.203125 0.4375q-0.625 0.53125 -1.578125 0.875q-0.9375 0.34375 -1.8125 0.34375zm10.814316 -0.09375q-0.984375 0 -1.765625 -0.46875q-0.765625 -0.46875 -1.21875 -1.28125q-0.453125 -0.8125 -0.453125 -1.84375l0 -9.125q0 -0.328125 0.1875 -0.53125q0.203125 -0.203125 0.53125 -0.203125q0.3125 0 0.515625 0.203125q0.203125 0.203125 0.203125 0.53125l0 9.125q0 0.9375 0.5625 1.546875q0.5625 0.609375 1.4375 0.609375l0.5 0q0.296875 0 0.484375 0.203125q0.1875 0.203125 0.1875 0.53125q0 0.3125 -0.21875 0.515625q-0.21875 0.1875 -0.5625 0.1875l-0.390625 0zm-4.640625 -8.578125q-0.28125 0 -0.46875 -0.171875q-0.1875 -0.1875 -0.1875 -0.453125q0 -0.28125 0.1875 -0.453125q0.1875 -0.171875 0.46875 -0.171875l4.75 0q0.28125 0 0.46875 0.171875q0.1875 0.171875 0.1875 0.453125q0 0.265625 -0.1875 0.453125q-0.1875 0.171875 -0.46875 0.171875l-4.75 0z" fill-rule="nonzero"/><path fill="#6aa84f" d="m314.9439 352.71127l-178.14172 0l0 23.937012l178.14172 0z" fill-rule="evenodd"/><path stroke="#6aa84f" stroke-width="1.0" stroke-linejoin="round" stroke-linecap="butt" d="m314.9439 352.71127l-178.14172 0l0 23.937012l178.14172 0z" fill-rule="evenodd"/><path fill="#ffffff" d="m227.58008 371.69354q-1.109375 0 -2.1875 -0.375q-1.078125 -0.375 -1.75 -1.125q-0.21875 -0.21875 -0.1875 -0.5q0.046875 -0.28125 0.296875 -0.484375q0.25 -0.1875 0.53125 -0.140625q0.28125 0.03125 0.46875 0.234375q0.453125 0.53125 1.1875 0.8125q0.734375 0.265625 1.640625 0.265625q1.375 0 1.984375 -0.46875q0.625 -0.484375 0.640625 -1.140625q0 -0.671875 -0.640625 -1.109375q-0.625 -0.453125 -2.078125 -0.6875q-1.890625 -0.296875 -2.765625 -1.046875q-0.875 -0.75 -0.875 -1.765625q0 -0.953125 0.5 -1.578125q0.5 -0.640625 1.34375 -0.953125q0.84375 -0.328125 1.84375 -0.328125q1.25 0 2.15625 0.4375q0.90625 0.421875 1.46875 1.140625q0.1875 0.25 0.140625 0.515625q-0.03125 0.25 -0.296875 0.421875q-0.21875 0.125 -0.515625 0.078125q-0.28125 -0.046875 -0.484375 -0.265625q-0.46875 -0.53125 -1.09375 -0.78125q-0.609375 -0.265625 -1.40625 -0.265625q-1.03125 0 -1.65625 0.421875q-0.609375 0.421875 -0.609375 1.0625q0 0.421875 0.234375 0.75q0.234375 0.3125 0.796875 0.5625q0.578125 0.234375 1.609375 0.390625q1.390625 0.234375 2.203125 0.671875q0.8125 0.4375 1.15625 1.03125q0.34375 0.578125 0.34375 1.265625q0 0.875 -0.515625 1.546875q-0.5 0.65625 -1.40625 1.03125q-0.90625 0.375 -2.078125 0.375zm11.118225 0q-1.515625 0 -2.6875 -0.65625q-1.15625 -0.671875 -1.828125 -1.84375q-0.65625 -1.171875 -0.65625 -2.6875q0 -1.53125 0.625 -2.6875q0.625 -1.171875 1.71875 -1.84375q1.109375 -0.671875 2.546875 -0.671875q1.40625 0 2.453125 0.640625q1.0625 0.640625 1.640625 1.78125q0.578125 1.140625 0.578125 2.59375q0 0.296875 -0.1875 0.484375q-0.1875 0.171875 -0.484375 0.171875l-7.921875 0l0 -1.203125l8.078125 0l-0.796875 0.578125q0.015625 -1.078125 -0.40625 -1.9375q-0.40625 -0.859375 -1.15625 -1.34375q-0.75 -0.484375 -1.796875 -0.484375q-1.0625 0 -1.875 0.515625q-0.796875 0.5 -1.234375 1.390625q-0.4375 0.875 -0.4375 2.015625q0 1.140625 0.484375 2.015625q0.5 0.875 1.359375 1.390625q0.859375 0.5 1.984375 0.5q0.671875 0 1.34375 -0.234375q0.6875 -0.234375 1.09375 -0.59375q0.203125 -0.171875 0.46875 -0.171875q0.265625 -0.015625 0.4375 0.140625q0.25 0.21875 0.25 0.484375q0.015625 0.25 -0.203125 0.4375q-0.625 0.53125 -1.578125 0.875q-0.9375 0.34375 -1.8125 0.34375zm10.814316 -0.09375q-0.984375 0 -1.765625 -0.46875q-0.765625 -0.46875 -1.21875 -1.28125q-0.453125 -0.8125 -0.453125 -1.84375l0 -9.125q0 -0.328125 0.1875 -0.53125q0.203125 -0.203125 0.53125 -0.203125q0.3125 0 0.515625 0.203125q0.203125 0.203125 0.203125 0.53125l0 9.125q0 0.9375 0.5625 1.546875q0.5625 0.609375 1.4375 0.609375l0.5 0q0.296875 0 0.484375 0.203125q0.1875 0.203125 0.1875 0.53125q0 0.3125 -0.21875 0.515625q-0.21875 0.1875 -0.5625 0.1875l-0.390625 0zm-4.640625 -8.578125q-0.28125 0 -0.46875 -0.171875q-0.1875 -0.1875 -0.1875 -0.453125q0 -0.28125 0.1875 -0.453125q0.1875 -0.171875 0.46875 -0.171875l4.75 0q0.28125 0 0.46875 0.171875q0.1875 0.171875 0.1875 0.453125q0 0.265625 -0.1875 0.453125q-0.1875 0.171875 -0.46875 0.171875l-4.75 0z" fill-rule="nonzero"/><path fill="#cc0000" d="m344.52985 328.0868l0 11.965057l14.649994 -11.942871z" fill-rule="evenodd"/><path stroke="#cc0000" stroke-width="1.0" stroke-linejoin="round" stroke-linecap="butt" d="m344.52985 328.0868l0 11.965057l14.649994 -11.942871z" fill-rule="evenodd"/><path fill="#cc0000" d="m344.52985 352.0612l0 -11.965027l14.649994 11.942871z" fill-rule="evenodd"/><path stroke="#cc0000" stroke-width="1.0" stroke-linejoin="round" stroke-linecap="butt" d="m344.52985 352.0612l0 -11.965027l14.649994 11.942871z" fill-rule="evenodd"/><path fill="#6aa84f" d="m305.63748 352.71158l0 39.055115l53.543304 -39.055115z" fill-rule="evenodd"/><path stroke="#6aa84f" stroke-width="1.0" stroke-linejoin="round" stroke-linecap="butt" d="m305.63748 352.71158l0 39.055115l53.543304 -39.055115z" fill-rule="evenodd"/><path fill="#cc0000" d="m160.99283 301.98962l39.05513 0l-39.05513 -53.543304z" fill-rule="evenodd"/><path stroke="#cc0000" stroke-width="1.0" stroke-linejoin="round" stroke-linecap="butt" d="m160.99283 301.98962l39.05513 0l-39.05513 -53.543304z" fill-rule="evenodd"/><path fill="#6aa84f" d="m136.63086 263.09598l11.965042 0l-11.942886 -14.649994z" fill-rule="evenodd"/><path stroke="#6aa84f" stroke-width="1.0" stroke-linejoin="round" stroke-linecap="butt" d="m136.63086 263.09598l11.965042 0l-11.942886 -14.649994z" fill-rule="evenodd"/><path fill="#6aa84f" d="m160.60526 263.09598l-11.965042 0l11.942886 -14.649994z" fill-rule="evenodd"/><path stroke="#6aa84f" stroke-width="1.0" stroke-linejoin="round" stroke-linecap="butt" d="m160.60526 263.09598l-11.965042 0l11.942886 -14.649994z" fill-rule="evenodd"/><path fill="#6aa84f" d="m136.64891 263.7139l0 111.87402l23.937012 0l0 -111.87402z" fill-rule="evenodd"/><path stroke="#6aa84f" stroke-width="1.0" stroke-linejoin="round" stroke-linecap="butt" d="m136.64891 263.7139l0 111.87402l23.937012 0l0 -111.87402z" fill-rule="evenodd"/></g></svg>