<svg version="1.1" viewBox="0.0 0.0 865.8582677165355 235.35433070866142" fill="none" stroke="none" stroke-linecap="square" stroke-miterlimit="10" xmlns:xlink="http://www.w3.org/1999/xlink" xmlns="http://www.w3.org/2000/svg"><clipPath id="p.0"><path d="m0 0l865.8583 0l0 235.35432l-865.8583 0l0 -235.35432z" clip-rule="nonzero"/></clipPath><g clip-path="url(#p.0)"><path fill="#000000" fill-opacity="0.0" d="m0 0l865.8583 0l0 235.35432l-865.8583 0z" fill-rule="evenodd"/><path fill="#0b5394" d="m13.144357 144.41763l0 0c0 -8.691772 7.046075 -15.737839 15.737847 -15.737839l237.94162 0c4.17395 0 8.176941 1.658081 11.128357 4.609497c2.951416 2.9514313 4.609497 6.9544067 4.609497 11.128342l0 62.94951c0 8.691772 -7.0460815 15.737839 -15.737854 15.737839l-237.94162 0c-8.691772 0 -15.737847 -7.0460663 -15.737847 -15.737839z" fill-rule="evenodd"/><path stroke="#0b5394" stroke-width="1.0" stroke-linejoin="round" stroke-linecap="butt" d="m13.144357 144.41763l0 0c0 -8.691772 7.046075 -15.737839 15.737847 -15.737839l237.94162 0c4.17395 0 8.176941 1.658081 11.128357 4.609497c2.951416 2.9514313 4.609497 6.9544067 4.609497 11.128342l0 62.94951c0 8.691772 -7.0460815 15.737839 -15.737854 15.737839l-237.94162 0c-8.691772 0 -15.737847 -7.0460663 -15.737847 -15.737839z" fill-rule="evenodd"/><path fill="#ffffff" d="m39.929703 182.8124q-0.296875 0 -0.515625 -0.203125q-0.21875 -0.21875 -0.21875 -0.53125l0 -13.109375q0 -0.3125 0.203125 -0.515625q0.21875 -0.21875 0.53125 -0.21875l8.75 0q0.3125 0 0.515625 0.203125q0.203125 0.203125 0.203125 0.515625q0 0.28125 -0.203125 0.484375q-0.203125 0.203125 -0.515625 0.203125l-8.015625 0l0 5.15625l5.828125 0q0.328125 0 0.53125 0.203125q0.203125 0.203125 0.203125 0.5q0 0.296875 -0.203125 0.5q-0.203125 0.203125 -0.53125 0.203125l-5.828125 0l0 5.875q0 0.3125 -0.21875 0.53125q-0.203125 0.203125 -0.515625 0.203125zm12.503906 -6.28125q0.046875 -1.15625 0.59375 -2.0625q0.5625 -0.921875 1.4375 -1.4375q0.890625 -0.53125 1.96875 -0.53125q0.859375 0 1.328125 0.25q0.46875 0.234375 0.359375 0.703125q-0.078125 0.28125 -0.265625 0.375q-0.171875 0.078125 -0.421875 0.0625q-0.25 -0.015625 -0.5625 -0.03125q-1.046875 -0.09375 -1.859375 0.21875q-0.8125 0.296875 -1.296875 0.9375q-0.46875 0.640625 -0.46875 1.515625l-0.8125 0zm0.109375 6.28125q-0.34375 0 -0.53125 -0.1875q-0.1875 -0.1875 -0.1875 -0.515625l0 -8.796875q0 -0.328125 0.1875 -0.515625q0.1875 -0.1875 0.53125 -0.1875q0.328125 0 0.515625 0.1875q0.1875 0.1875 0.1875 0.515625l0 8.796875q0 0.328125 -0.1875 0.515625q-0.1875 0.1875 -0.515625 0.1875zm11.579147 0.09375q-1.4375 0 -2.578125 -0.671875q-1.125 -0.6875 -1.796875 -1.859375q-0.65625 -1.1875 -0.65625 -2.65625q0 -1.484375 0.671875 -2.65625q0.6875 -1.1875 1.859375 -1.859375q1.171875 -0.6875 2.65625 -0.6875q1.46875 0 2.625 0.6875q1.171875 0.671875 1.859375 1.859375q0.6875 1.171875 0.703125 2.65625l-0.578125 0.453125q0 1.34375 -0.625 2.421875q-0.625 1.0625 -1.703125 1.6875q-1.078125 0.625 -2.4375 0.625zm0.15625 -1.3125q1.078125 0 1.921875 -0.5q0.859375 -0.5 1.34375 -1.390625q0.5 -0.890625 0.5 -1.984375q0 -1.125 -0.5 -2.0q-0.484375 -0.875 -1.34375 -1.390625q-0.84375 -0.515625 -1.921875 -0.515625q-1.0625 0 -1.921875 0.515625q-0.859375 0.515625 -1.375 1.390625q-0.5 0.875 -0.5 2.0q0 1.09375 0.5 1.984375q0.515625 0.890625 1.375 1.390625q0.859375 0.5 1.921875 0.5zm4.453125 1.21875q-0.3125 0 -0.515625 -0.1875q-0.203125 -0.203125 -0.203125 -0.515625l0 -3.203125l0.34375 -1.46875l1.109375 0.28125l0 4.390625q0 0.3125 -0.21875 0.515625q-0.203125 0.1875 -0.515625 0.1875zm17.31778 0q-0.3125 0 -0.53125 -0.1875q-0.203125 -0.203125 -0.203125 -0.515625l0 -5.375q0 -1.328125 -0.6875 -2.09375q-0.6875 -0.78125 -1.765625 -0.78125q-1.15625 0 -1.90625 0.78125q-0.734375 0.765625 -0.71875 2.046875l-1.28125 0q0.015625 -1.25 0.53125 -2.1875q0.53125 -0.953125 1.4375 -1.46875q0.921875 -0.53125 2.078125 -0.53125q1.109375 0 1.953125 0.53125q0.84375 0.515625 1.3125 1.46875q0.484375 0.9375 0.484375 2.234375l0 5.375q0 0.3125 -0.203125 0.515625q-0.1875 0.1875 -0.5 0.1875zm-13.0625 0q-0.328125 0 -0.53125 -0.1875q-0.203125 -0.203125 -0.203125 -0.515625l0 -8.78125q0 -0.3125 0.203125 -0.515625q0.203125 -0.203125 0.53125 -0.203125q0.3125 0 0.5 0.203125q0.203125 0.203125 0.203125 0.515625l0 8.78125q0 0.3125 -0.203125 0.515625q-0.1875 0.1875 -0.5 0.1875zm6.546875 0q-0.3125 0 -0.515625 -0.1875q-0.203125 -0.203125 -0.203125 -0.515625l0 -5.375q0 -1.328125 -0.703125 -2.09375q-0.6875 -0.78125 -1.765625 -0.78125q-1.15625 0 -1.90625 0.765625q-0.75 0.75 -0.75 1.953125l-1.015625 0q0.03125 -1.1875 0.515625 -2.109375q0.5 -0.921875 1.359375 -1.4375q0.859375 -0.53125 1.9375 -0.53125q1.109375 0 1.953125 0.53125q0.859375 0.515625 1.328125 1.46875q0.46875 0.9375 0.46875 2.234375l0 5.375q0 0.3125 -0.203125 0.515625q-0.1875 0.1875 -0.5 0.1875zm15.02684 0.09375q-1.515625 0 -2.6875 -0.65625q-1.15625 -0.671875 -1.828125 -1.84375q-0.65625 -1.171875 -0.65625 -2.6875q0 -1.53125 0.625 -2.6875q0.625 -1.171875 1.71875 -1.84375q1.109375 -0.671875 2.546875 -0.671875q1.40625 0 2.453125 0.640625q1.0625 0.640625 1.640625 1.78125q0.578125 1.140625 0.578125 2.59375q0 0.296875 -0.1875 0.484375q-0.1875 0.171875 -0.484375 0.171875l-7.921875 0l0 -1.203125l8.078125 0l-0.796875 0.578125q0.015625 -1.078125 -0.40625 -1.9375q-0.40625 -0.859375 -1.15625 -1.34375q-0.75 -0.484375 -1.796875 -0.484375q-1.0625 0 -1.875 0.515625q-0.796875 0.5 -1.234375 1.390625q-0.4375 0.875 -0.4375 2.015625q0 1.140625 0.484375 2.015625q0.5 0.875 1.359375 1.390625q0.859375 0.5 1.984375 0.5q0.671875 0 1.34375 -0.234375q0.6875 -0.234375 1.09375 -0.59375q0.203125 -0.171875 0.46875 -0.171875q0.265625 -0.015625 0.4375 0.140625q0.25 0.21875 0.25 0.484375q0.015625 0.25 -0.203125 0.4375q-0.625 0.53125 -1.578125 0.875q-0.9375 0.34375 -1.8125 0.34375zm8.436188 -0.09375q-0.296875 0 -0.515625 -0.203125q-0.203125 -0.21875 -0.203125 -0.53125l0 -13.84375l1.453125 0l0 13.84375q0 0.3125 -0.203125 0.53125q-0.203125 0.203125 -0.53125 0.203125zm-5.140625 -13.25q-0.296875 0 -0.484375 -0.1875q-0.1875 -0.1875 -0.1875 -0.46875q0 -0.296875 0.1875 -0.484375q0.1875 -0.1875 0.484375 -0.1875l10.3125 0q0.296875 0 0.484375 0.1875q0.1875 0.1875 0.1875 0.484375q0 0.28125 -0.1875 0.46875q-0.1875 0.1875 -0.484375 0.1875l-10.3125 0zm10.934647 6.96875q0.046875 -1.15625 0.59375 -2.0625q0.5625 -0.921875 1.4375 -1.4375q0.890625 -0.53125 1.96875 -0.53125q0.859375 0 1.328125 0.25q0.46875 0.234375 0.359375 0.703125q-0.078125 0.28125 -0.265625 0.375q-0.171875 0.078125 -0.421875 0.0625q-0.25 -0.015625 -0.5625 -0.03125q-1.046875 -0.09375 -1.859375 0.21875q-0.8125 0.296875 -1.296875 0.9375q-0.46875 0.640625 -0.46875 1.515625l-0.8125 0zm0.109375 6.28125q-0.34375 0 -0.53125 -0.1875q-0.1875 -0.1875 -0.1875 -0.515625l0 -8.796875q0 -0.328125 0.1875 -0.515625q0.1875 -0.1875 0.53125 -0.1875q0.328125 0 0.515625 0.1875q0.1875 0.1875 0.1875 0.515625l0 8.796875q0 0.328125 -0.1875 0.515625q-0.1875 0.1875 -0.515625 0.1875zm11.579147 0.09375q-1.4375 0 -2.578125 -0.671875q-1.125 -0.6875 -1.796875 -1.859375q-0.65625 -1.1875 -0.65625 -2.65625q0 -1.484375 0.671875 -2.65625q0.6875 -1.1875 1.859375 -1.859375q1.171875 -0.6875 2.65625 -0.6875q1.46875 0 2.625 0.6875q1.171875 0.671875 1.859375 1.859375q0.6875 1.171875 0.703125 2.65625l-0.578125 0.453125q0 1.34375 -0.625 2.421875q-0.625 1.0625 -1.703125 1.6875q-1.078125 0.625 -2.4375 0.625zm0.15625 -1.3125q1.078125 0 1.921875 -0.5q0.859375 -0.5 1.34375 -1.390625q0.5 -0.890625 0.5 -1.984375q0 -1.125 -0.5 -2.0q-0.484375 -0.875 -1.34375 -1.390625q-0.84375 -0.515625 -1.921875 -0.515625q-1.0625 0 -1.921875 0.515625q-0.859375 0.515625 -1.375 1.390625q-0.5 0.875 -0.5 2.0q0 1.09375 0.5 1.984375q0.515625 0.890625 1.375 1.390625q0.859375 0.5 1.921875 0.5zm4.453125 1.21875q-0.3125 0 -0.515625 -0.1875q-0.203125 -0.203125 -0.203125 -0.515625l0 -3.203125l0.34375 -1.46875l1.109375 0.28125l0 4.390625q0 0.3125 -0.21875 0.515625q-0.203125 0.1875 -0.515625 0.1875zm12.270905 0q-0.3125 0 -0.515625 -0.203125q-0.203125 -0.203125 -0.203125 -0.5l0 -4.859375q0 -1.15625 -0.4375 -1.890625q-0.4375 -0.75 -1.203125 -1.125q-0.75 -0.375 -1.703125 -0.375q-0.90625 0 -1.65625 0.359375q-0.734375 0.34375 -1.171875 0.96875q-0.421875 0.609375 -0.421875 1.390625l-1.015625 0q0.03125 -1.171875 0.625 -2.09375q0.609375 -0.921875 1.59375 -1.453125q0.984375 -0.53125 2.203125 -0.53125q1.3125 0 2.359375 0.546875q1.046875 0.546875 1.65625 1.609375q0.609375 1.0625 0.609375 2.59375l0 4.859375q0 0.296875 -0.203125 0.5q-0.203125 0.203125 -0.515625 0.203125zm-8.015625 0q-0.328125 0 -0.53125 -0.1875q-0.203125 -0.203125 -0.203125 -0.515625l0 -8.78125q0 -0.328125 0.203125 -0.515625q0.203125 -0.203125 0.53125 -0.203125q0.3125 0 0.5 0.203125q0.203125 0.1875 0.203125 0.515625l0 8.78125q0 0.3125 -0.203125 0.515625q-0.1875 0.1875 -0.5 0.1875zm15.47403 0.09375q-1.109375 0 -2.1875 -0.375q-1.078125 -0.375 -1.75 -1.125q-0.21875 -0.21875 -0.1875 -0.5q0.046875 -0.28125 0.296875 -0.484375q0.25 -0.1875 0.53125 -0.140625q0.28125 0.03125 0.46875 0.234375q0.453125 0.53125 1.1875 0.8125q0.734375 0.265625 1.640625 0.265625q1.375 0 1.984375 -0.46875q0.625 -0.484375 0.640625 -1.140625q0 -0.671875 -0.640625 -1.109375q-0.625 -0.453125 -2.078125 -0.6875q-1.890625 -0.296875 -2.765625 -1.046875q-0.875 -0.75 -0.875 -1.765625q0 -0.953125 0.5 -1.578125q0.5 -0.640625 1.34375 -0.953125q0.84375 -0.328125 1.84375 -0.328125q1.25 0 2.15625 0.4375q0.90625 0.421875 1.46875 1.140625q0.1875 0.25 0.140625 0.515625q-0.03125 0.25 -0.296875 0.421875q-0.21875 0.125 -0.515625 0.078125q-0.28125 -0.046875 -0.484375 -0.265625q-0.46875 -0.53125 -1.09375 -0.78125q-0.609375 -0.265625 -1.40625 -0.265625q-1.03125 0 -1.65625 0.421875q-0.609375 0.421875 -0.609375 1.0625q0 0.421875 0.234375 0.75q0.234375 0.3125 0.796875 0.5625q0.578125 0.234375 1.609375 0.390625q1.390625 0.234375 2.203125 0.671875q0.8125 0.4375 1.15625 1.03125q0.34375 0.578125 0.34375 1.265625q0 0.875 -0.515625 1.546875q-0.5 0.65625 -1.40625 1.03125q-0.90625 0.375 -2.078125 0.375zm7.75885 -0.09375q-0.28125 0 -0.5 -0.1875q-0.203125 -0.203125 -0.203125 -0.546875l0 -9.453125q0 -1.3125 0.453125 -2.296875q0.453125 -0.984375 1.328125 -1.53125q0.875 -0.5625 2.140625 -0.5625q0.328125 0 0.53125 0.1875q0.203125 0.1875 0.203125 0.46875q0 0.28125 -0.203125 0.46875q-0.203125 0.1875 -0.53125 0.1875q-0.84375 0 -1.390625 0.390625q-0.546875 0.375 -0.828125 1.0625q-0.265625 0.671875 -0.265625 1.546875l0 9.53125q0 0.34375 -0.203125 0.546875q-0.1875 0.1875 -0.53125 0.1875zm-1.890625 -8.578125q-0.296875 0 -0.484375 -0.171875q-0.171875 -0.1875 -0.171875 -0.453125q0 -0.28125 0.171875 -0.453125q0.1875 -0.171875 0.484375 -0.171875l4.875 0q0.296875 0 0.46875 0.171875q0.171875 0.171875 0.171875 0.453125q0 0.265625 -0.171875 0.453125q-0.171875 0.171875 -0.46875 0.171875l-4.875 0zm11.720474 8.671875q-1.5 0 -2.671875 -0.671875q-1.171875 -0.671875 -1.84375 -1.84375q-0.671875 -1.171875 -0.671875 -2.671875q0 -1.515625 0.671875 -2.6875q0.671875 -1.171875 1.84375 -1.84375q1.171875 -0.671875 2.671875 -0.671875q1.484375 0 2.65625 0.671875q1.171875 0.671875 1.84375 1.84375q0.671875 1.171875 0.6875 2.6875q0 1.5 -0.6875 2.671875q-0.671875 1.171875 -1.84375 1.84375q-1.171875 0.671875 -2.65625 0.671875zm0 -1.3125q1.078125 0 1.9375 -0.5q0.859375 -0.5 1.34375 -1.375q0.484375 -0.875 0.484375 -2.0q0 -1.125 -0.484375 -2.0q-0.484375 -0.890625 -1.34375 -1.390625q-0.859375 -0.515625 -1.9375 -0.515625q-1.078125 0 -1.9375 0.515625q-0.859375 0.5 -1.359375 1.390625q-0.5 0.875 -0.5 2.0q0 1.125 0.5 2.0q0.5 0.875 1.359375 1.375q0.859375 0.5 1.9375 0.5zm8.583405 -5.0625q0.046875 -1.15625 0.59375 -2.0625q0.5625 -0.921875 1.4375 -1.4375q0.890625 -0.53125 1.96875 -0.53125q0.859375 0 1.328125 0.25q0.46875 0.234375 0.359375 0.703125q-0.078125 0.28125 -0.265625 0.375q-0.171875 0.078125 -0.421875 0.0625q-0.25 -0.015625 -0.5625 -0.03125q-1.046875 -0.09375 -1.859375 0.21875q-0.8125 0.296875 -1.296875 0.9375q-0.46875 0.640625 -0.46875 1.515625l-0.8125 0zm0.109375 6.28125q-0.34375 0 -0.53125 -0.1875q-0.1875 -0.1875 -0.1875 -0.515625l0 -8.796875q0 -0.328125 0.1875 -0.515625q0.1875 -0.1875 0.53125 -0.1875q0.328125 0 0.515625 0.1875q0.1875 0.1875 0.1875 0.515625l0 8.796875q0 0.328125 -0.1875 0.515625q-0.1875 0.1875 -0.515625 0.1875zm21.622696 0q-0.3125 0 -0.53125 -0.1875q-0.203125 -0.203125 -0.203125 -0.515625l0 -5.375q0 -1.328125 -0.6875 -2.09375q-0.6875 -0.78125 -1.765625 -0.78125q-1.15625 0 -1.90625 0.78125q-0.734375 0.765625 -0.71875 2.046875l-1.28125 0q0.015625 -1.25 0.53125 -2.1875q0.53125 -0.953125 1.4375 -1.46875q0.921875 -0.53125 2.078125 -0.53125q1.109375 0 1.953125 0.53125q0.84375 0.515625 1.3125 1.46875q0.484375 0.9375 0.484375 2.234375l0 5.375q0 0.3125 -0.203125 0.515625q-0.1875 0.1875 -0.5 0.1875zm-13.0625 0q-0.328125 0 -0.53125 -0.1875q-0.203125 -0.203125 -0.203125 -0.515625l0 -8.78125q0 -0.3125 0.203125 -0.515625q0.203125 -0.203125 0.53125 -0.203125q0.3125 0 0.5 0.203125q0.203125 0.203125 0.203125 0.515625l0 8.78125q0 0.3125 -0.203125 0.515625q-0.1875 0.1875 -0.5 0.1875zm6.546875 0q-0.3125 0 -0.515625 -0.1875q-0.203125 -0.203125 -0.203125 -0.515625l0 -5.375q0 -1.328125 -0.703125 -2.09375q-0.6875 -0.78125 -1.765625 -0.78125q-1.15625 0 -1.90625 0.765625q-0.75 0.75 -0.75 1.953125l-1.015625 0q0.03125 -1.1875 0.515625 -2.109375q0.5 -0.921875 1.359375 -1.4375q0.859375 -0.53125 1.9375 -0.53125q1.109375 0 1.953125 0.53125q0.859375 0.515625 1.328125 1.46875q0.46875 0.9375 0.46875 2.234375l0 5.375q0 0.3125 -0.203125 0.515625q-0.1875 0.1875 -0.5 0.1875zm15.05809 0.1875q-1.1875 0 -2.21875 -0.34375q-1.015625 -0.34375 -1.765625 -0.96875q-0.734375 -0.640625 -1.125 -1.484375q-0.15625 -0.296875 -0.015625 -0.546875q0.140625 -0.265625 0.484375 -0.34375q0.25 -0.078125 0.5 0.046875q0.265625 0.125 0.390625 0.390625q0.28125 0.546875 0.8125 0.984375q0.546875 0.421875 1.296875 0.65625q0.75 0.234375 1.640625 0.234375q0.984375 0 1.75 -0.328125q0.765625 -0.328125 1.203125 -0.953125q0.4375 -0.625 0.4375 -1.53125q0 -1.125 -0.84375 -1.9375q-0.828125 -0.828125 -2.625 -1.0625q-2.1875 -0.25 -3.421875 -1.34375q-1.21875 -1.09375 -1.21875 -2.6875q0 -1.125 0.59375 -1.96875q0.609375 -0.84375 1.671875 -1.296875q1.078125 -0.453125 2.453125 -0.453125q1.03125 0 1.859375 0.328125q0.84375 0.3125 1.46875 0.84375q0.625 0.53125 1.015625 1.171875q0.1875 0.296875 0.125 0.578125q-0.0625 0.28125 -0.328125 0.421875q-0.28125 0.140625 -0.578125 0.046875q-0.28125 -0.09375 -0.421875 -0.359375q-0.28125 -0.421875 -0.703125 -0.796875q-0.421875 -0.390625 -1.03125 -0.609375q-0.59375 -0.234375 -1.421875 -0.25q-1.484375 0 -2.375 0.625q-0.890625 0.625 -0.890625 1.8125q0 0.640625 0.328125 1.171875q0.34375 0.53125 1.109375 0.921875q0.78125 0.375 2.078125 0.5625q2.34375 0.328125 3.46875 1.421875q1.125 1.09375 1.125 2.84375q0 1.015625 -0.359375 1.796875q-0.359375 0.78125 -1.03125 1.3125q-0.65625 0.53125 -1.546875 0.8125q-0.890625 0.28125 -1.890625 0.28125zm12.319183 -0.09375q-1.515625 0 -2.6875 -0.65625q-1.15625 -0.671875 -1.828125 -1.84375q-0.65625 -1.171875 -0.65625 -2.6875q0 -1.53125 0.625 -2.6875q0.625 -1.171875 1.71875 -1.84375q1.109375 -0.671875 2.546875 -0.671875q1.40625 0 2.453125 0.640625q1.0625 0.640625 1.640625 1.78125q0.578125 1.140625 0.578125 2.59375q0 0.296875 -0.1875 0.484375q-0.1875 0.171875 -0.484375 0.171875l-7.921875 0l0 -1.203125l8.078125 0l-0.796875 0.578125q0.015625 -1.078125 -0.40625 -1.9375q-0.40625 -0.859375 -1.15625 -1.34375q-0.75 -0.484375 -1.796875 -0.484375q-1.0625 0 -1.875 0.515625q-0.796875 0.5 -1.234375 1.390625q-0.4375 0.875 -0.4375 2.015625q0 1.140625 0.484375 2.015625q0.5 0.875 1.359375 1.390625q0.859375 0.5 1.984375 0.5q0.671875 0 1.34375 -0.234375q0.6875 -0.234375 1.09375 -0.59375q0.203125 -0.171875 0.46875 -0.171875q0.265625 -0.015625 0.4375 0.140625q0.25 0.21875 0.25 0.484375q0.015625 0.25 -0.203125 0.4375q-0.625 0.53125 -1.578125 0.875q-0.9375 0.34375 -1.8125 0.34375zm7.423691 -6.375q0.046875 -1.15625 0.59375 -2.0625q0.5625 -0.921875 1.4375 -1.4375q0.890625 -0.53125 1.96875 -0.53125q0.859375 0 1.328125 0.25q0.46875 0.234375 0.359375 0.703125q-0.078125 0.28125 -0.265625 0.375q-0.171875 0.078125 -0.421875 0.0625q-0.25 -0.015625 -0.5625 -0.03125q-1.046875 -0.09375 -1.859375 0.21875q-0.8125 0.296875 -1.296875 0.9375q-0.46875 0.640625 -0.46875 1.515625l-0.8125 0zm0.109375 6.28125q-0.34375 0 -0.53125 -0.1875q-0.1875 -0.1875 -0.1875 -0.515625l0 -8.796875q0 -0.328125 0.1875 -0.515625q0.1875 -0.1875 0.53125 -0.1875q0.328125 0 0.515625 0.1875q0.1875 0.1875 0.1875 0.515625l0 8.796875q0 0.328125 -0.1875 0.515625q-0.1875 0.1875 -0.515625 0.1875zm11.325821 0q-0.453125 0 -0.671875 -0.484375l-4.140625 -8.78125q-0.109375 -0.25 -0.03125 -0.484375q0.09375 -0.25 0.375 -0.375q0.265625 -0.140625 0.5 -0.046875q0.25 0.09375 0.375 0.34375l3.984375 8.59375l-0.765625 0l3.921875 -8.59375q0.109375 -0.265625 0.375 -0.34375q0.265625 -0.09375 0.53125 0.015625q0.265625 0.140625 0.359375 0.390625q0.09375 0.25 -0.015625 0.46875l-4.09375 8.8125q-0.21875 0.484375 -0.703125 0.484375zm11.084198 0.09375q-1.515625 0 -2.6875 -0.65625q-1.15625 -0.671875 -1.828125 -1.84375q-0.65625 -1.171875 -0.65625 -2.6875q0 -1.53125 0.625 -2.6875q0.625 -1.171875 1.71875 -1.84375q1.109375 -0.671875 2.546875 -0.671875q1.40625 0 2.453125 0.640625q1.0625 0.640625 1.640625 1.78125q0.578125 1.140625 0.578125 2.59375q0 0.296875 -0.1875 0.484375q-0.1875 0.171875 -0.484375 0.171875l-7.921875 0l0 -1.203125l8.078125 0l-0.796875 0.578125q0.015625 -1.078125 -0.40625 -1.9375q-0.40625 -0.859375 -1.15625 -1.34375q-0.75 -0.484375 -1.796875 -0.484375q-1.0625 0 -1.875 0.515625q-0.796875 0.5 -1.234375 1.390625q-0.4375 0.875 -0.4375 2.015625q0 1.140625 0.484375 2.015625q0.5 0.875 1.359375 1.390625q0.859375 0.5 1.984375 0.5q0.671875 0 1.34375 -0.234375q0.6875 -0.234375 1.09375 -0.59375q0.203125 -0.171875 0.46875 -0.171875q0.265625 -0.015625 0.4375 0.140625q0.25 0.21875 0.25 0.484375q0.015625 0.25 -0.203125 0.4375q-0.625 0.53125 -1.578125 0.875q-0.9375 0.34375 -1.8125 0.34375zm7.423691 -6.375q0.046875 -1.15625 0.59375 -2.0625q0.5625 -0.921875 1.4375 -1.4375q0.890625 -0.53125 1.96875 -0.53125q0.859375 0 1.3281403 0.25q0.46875 0.234375 0.359375 0.703125q-0.078125 0.28125 -0.265625 0.375q-0.171875 0.078125 -0.42189026 0.0625q-0.25 -0.015625 -0.5625 -0.03125q-1.046875 -0.09375 -1.859375 0.21875q-0.8125 0.296875 -1.296875 0.9375q-0.46875 0.640625 -0.46875 1.515625l-0.8125 0zm0.109375 6.28125q-0.34375 0 -0.53125 -0.1875q-0.1875 -0.1875 -0.1875 -0.515625l0 -8.796875q0 -0.328125 0.1875 -0.515625q0.1875 -0.1875 0.53125 -0.1875q0.328125 0 0.515625 0.1875q0.1875 0.1875 0.1875 0.515625l0 8.796875q0 0.328125 -0.1875 0.515625q-0.1875 0.1875 -0.515625 0.1875z" fill-rule="nonzero"/><path fill="#ffffff" d="m13.145532 14.372056l80.51319 0l0 86.58878l-13.419136 13.419128l-67.094055 0z" fill-rule="evenodd"/><path fill="#cbcbcb" d="m80.239586 114.37997l2.6838303 -10.735306l10.735306 -2.6838226z" fill-rule="evenodd"/><path fill="#000000" fill-opacity="0.0" d="m80.239586 114.37997l2.6838303 -10.735306l10.735306 -2.6838226l-13.419136 13.419128l-67.094055 0l0 -100.00791l80.51319 0l0 86.58878" fill-rule="evenodd"/><path stroke="#6fa8dc" stroke-width="1.0" stroke-linejoin="round" stroke-linecap="butt" d="m80.239586 114.37997l2.6838303 -10.735306l10.735306 -2.6838226l-13.419136 13.419128l-67.094055 0l0 -100.00791l80.51319 0l0 86.58878" fill-rule="evenodd"/><path fill="#000000" fill-opacity="0.0" d="m37.051987 90.29209l56.606667 0l0 24.087875l-56.606667 0z" fill-rule="evenodd"/><path fill="#6fa8dc" d="m47.34886 110.999596q-0.28125 0 -0.5 -0.203125q-0.203125 -0.203125 -0.203125 -0.484375q0 -0.296875 0.203125 -0.5q0.21875 -0.21875 0.5 -0.21875q0.28125 0 0.484375 0.21875q0.203125 0.203125 0.203125 0.5q0 0.265625 -0.203125 0.484375q-0.1875 0.203125 -0.484375 0.203125zm2.3107758 -0.1875q-0.21875 0 -0.328125 -0.109375q-0.109375 -0.125 -0.125 -0.296875q-0.015625 -0.1875 0.109375 -0.34375l3.125 -4.28125l0.4375 -0.34375l2.8125 -3.828125q0.125 -0.171875 0.359375 -0.171875q0.1875 0 0.296875 0.125q0.125 0.125 0.125 0.3125q0.015625 0.171875 -0.078125 0.296875l-2.953125 4.015625l-0.40625 0.328125l-3.046875 4.15625q-0.125 0.140625 -0.328125 0.140625zm6.484375 0q-0.09375 0 -0.1875 -0.03125q-0.09375 -0.046875 -0.171875 -0.140625l-2.984375 -4.140625l-0.375 -0.265625l-2.921875 -4.0625q-0.109375 -0.140625 -0.09375 -0.3125q0.015625 -0.171875 0.125 -0.296875q0.125 -0.125 0.3125 -0.125q0.21875 0 0.359375 0.171875l2.8125 3.90625l0.34375 0.21875l3.125 4.328125q0.09375 0.140625 0.09375 0.328125q0 0.171875 -0.125 0.296875q-0.109375 0.125 -0.3125 0.125zm2.6559296 0q-0.203125 0 -0.34375 -0.140625q-0.125 -0.140625 -0.125 -0.328125l0 -8.4375q0 -0.203125 0.125 -0.328125q0.140625 -0.140625 0.34375 -0.140625q0.28125 0 0.421875 0.25l4.03125 8.03125l-0.40625 0l3.984375 -8.03125q0.140625 -0.25 0.40625 -0.25q0.203125 0 0.328125 0.140625q0.140625 0.125 0.140625 0.328125l0 8.4375q0 0.1875 -0.140625 0.328125q-0.125 0.140625 -0.328125 0.140625q-0.203125 0 -0.34375 -0.140625q-0.125 -0.140625 -0.125 -0.328125l0 -7.21875l0.203125 0l-3.546875 7.25q-0.125 0.21875 -0.40625 0.21875q-0.296875 0 -0.4375 -0.28125l-3.5625 -7.125l0.25 -0.0625l0 7.21875q0 0.1875 -0.140625 0.328125q-0.140625 0.140625 -0.328125 0.140625zm11.772079 0q-0.203125 0 -0.34375 -0.125q-0.125 -0.140625 -0.125 -0.34375l0 -8.4375q0 -0.1875 0.125 -0.328125q0.140625 -0.140625 0.34375 -0.140625q0.1875 0 0.328125 0.140625q0.140625 0.140625 0.140625 0.328125l0 8.015625l4.6875 0q0.1875 0 0.328125 0.125q0.140625 0.125 0.140625 0.328125q0 0.1875 -0.140625 0.3125q-0.140625 0.125 -0.328125 0.125l-5.15625 0z" fill-rule="nonzero"/><path fill="#6fa8dc" d="m19.855906 25.692327l67.013466 0l0 5.6205044l-67.013466 0z" fill-rule="evenodd"/><path stroke="#6fa8dc" stroke-width="1.0" stroke-linejoin="round" stroke-linecap="butt" d="m19.855906 25.692327l67.013466 0l0 5.6205044l-67.013466 0z" fill-rule="evenodd"/><path fill="#6fa8dc" d="m19.855906 39.741528l67.013466 0l0 5.6205063l-67.013466 0z" fill-rule="evenodd"/><path stroke="#6fa8dc" stroke-width="1.0" stroke-linejoin="round" stroke-linecap="butt" d="m19.855906 39.741528l67.013466 0l0 5.6205063l-67.013466 0z" fill-rule="evenodd"/><path fill="#6fa8dc" d="m19.895327 53.79073l67.013466 0l0 5.6205025l-67.013466 0z" fill-rule="evenodd"/><path stroke="#6fa8dc" stroke-width="1.0" stroke-linejoin="round" stroke-linecap="butt" d="m19.895327 53.79073l67.013466 0l0 5.6205025l-67.013466 0z" fill-rule="evenodd"/><path fill="#6fa8dc" d="m19.895327 67.83993l67.013466 0l0 5.6205063l-67.013466 0z" fill-rule="evenodd"/><path stroke="#6fa8dc" stroke-width="1.0" stroke-linejoin="round" stroke-linecap="butt" d="m19.895327 67.83993l67.013466 0l0 5.6205063l-67.013466 0z" fill-rule="evenodd"/><path fill="#6fa8dc" d="m19.855906 81.88913l36.896828 0l0 5.6205063l-36.896828 0z" fill-rule="evenodd"/><path stroke="#6fa8dc" stroke-width="1.0" stroke-linejoin="round" stroke-linecap="butt" d="m19.855906 81.88913l36.896828 0l0 5.6205063l-36.896828 0z" fill-rule="evenodd"/><path fill="#000000" fill-opacity="0.0" d="m104.42257 14.372704l178.14172 0l0 42.015747l-178.14172 0z" fill-rule="evenodd"/><path fill="#6fa8dc" d="m116.375694 41.2927q-0.28125 0 -0.5 -0.1875q-0.203125 -0.203125 -0.203125 -0.546875l0 -9.453125q0 -1.3125 0.453125 -2.296875q0.453125 -0.984375 1.328125 -1.53125q0.875 -0.5625 2.140625 -0.5625q0.328125 0 0.53125 0.1875q0.203125 0.1875 0.203125 0.46875q0 0.28125 -0.203125 0.46875q-0.203125 0.1875 -0.53125 0.1875q-0.84375 0 -1.390625 0.390625q-0.546875 0.375 -0.828125 1.0625q-0.265625 0.671875 -0.265625 1.546875l0 9.53125q0 0.34375 -0.203125 0.546875q-0.1875 0.1875 -0.53125 0.1875zm-1.890625 -8.578125q-0.296875 0 -0.484375 -0.171875q-0.171875 -0.1875 -0.171875 -0.453125q0 -0.28125 0.171875 -0.453125q0.1875 -0.171875 0.484375 -0.171875l4.875 0q0.296875 0 0.46875 0.171875q0.171875 0.171875 0.171875 0.453125q0 0.265625 -0.171875 0.453125q-0.171875 0.171875 -0.46875 0.171875l-4.875 0zm11.437561 8.578125q-0.984375 0 -1.765625 -0.46875q-0.765625 -0.46875 -1.21875 -1.28125q-0.453125 -0.8125 -0.453125 -1.84375l0 -9.125q0 -0.328125 0.1875 -0.53125q0.203125 -0.203125 0.53125 -0.203125q0.3125 0 0.515625 0.203125q0.203125 0.203125 0.203125 0.53125l0 9.125q0 0.9375 0.5625 1.546875q0.5625 0.609375 1.4375 0.609375l0.5 0q0.296875 0 0.484375 0.203125q0.1875 0.203125 0.1875 0.53125q0 0.3125 -0.21875 0.515625q-0.21875 0.1875 -0.5625 0.1875l-0.390625 0zm-4.640625 -8.578125q-0.28125 0 -0.46875 -0.171875q-0.1875 -0.1875 -0.1875 -0.453125q0 -0.28125 0.1875 -0.453125q0.1875 -0.171875 0.46875 -0.171875l4.75 0q0.28125 0 0.46875 0.171875q0.1875 0.171875 0.1875 0.453125q0 0.265625 -0.1875 0.453125q-0.1875 0.171875 -0.46875 0.171875l-4.75 0zm11.718575 8.671875q-1.109375 0 -2.1875 -0.375q-1.078125 -0.375 -1.75 -1.125q-0.21875 -0.21875 -0.1875 -0.5q0.046875 -0.28125 0.296875 -0.484375q0.25 -0.1875 0.53125 -0.140625q0.28125 0.03125 0.46875 0.234375q0.453125 0.53125 1.1875 0.8125q0.734375 0.265625 1.640625 0.265625q1.375 0 1.984375 -0.46875q0.625 -0.484375 0.640625 -1.140625q0 -0.671875 -0.640625 -1.109375q-0.625 -0.453125 -2.078125 -0.6875q-1.890625 -0.296875 -2.765625 -1.046875q-0.875 -0.75 -0.875 -1.765625q0 -0.953125 0.5 -1.578125q0.5 -0.640625 1.34375 -0.953125q0.84375 -0.328125 1.84375 -0.328125q1.25 0 2.15625 0.4375q0.90625 0.421875 1.46875 1.140625q0.1875 0.25 0.140625 0.515625q-0.03125 0.25 -0.296875 0.421875q-0.21875 0.125 -0.515625 0.078125q-0.28125 -0.046875 -0.484375 -0.265625q-0.46875 -0.53125 -1.09375 -0.78125q-0.609375 -0.265625 -1.40625 -0.265625q-1.03125 0 -1.65625 0.421875q-0.609375 0.421875 -0.609375 1.0625q0 0.421875 0.234375 0.75q0.234375 0.3125 0.796875 0.5625q0.578125 0.234375 1.609375 0.390625q1.390625 0.234375 2.203125 0.671875q0.8125 0.4375 1.15625 1.03125q0.34375 0.578125 0.34375 1.265625q0 0.875 -0.515625 1.546875q-0.5 0.65625 -1.40625 1.03125q-0.90625 0.375 -2.078125 0.375zm4.82135 1.359375q-0.3125 0 -0.515625 -0.21875q-0.203125 -0.203125 -0.203125 -0.5q0 -0.3125 0.203125 -0.53125q0.203125 -0.203125 0.515625 -0.203125l8.9375 0q0.296875 0 0.5 0.203125q0.203125 0.21875 0.203125 0.53125q0 0.296875 -0.203125 0.5q-0.203125 0.21875 -0.5 0.21875l-8.9375 0zm12.171661 2.984375q-0.15625 0 -0.34375 -0.078125q-0.625 -0.28125 -0.34375 -0.890625l6.015625 -13.28125q0.28125 -0.59375 0.890625 -0.34375q0.640625 0.265625 0.359375 0.890625l-6.046875 13.28125q-0.1875 0.421875 -0.53125 0.421875zm2.0625 -4.75q-0.28125 0.125 -0.53125 0.046875q-0.234375 -0.09375 -0.375 -0.375l-4.171875 -8.609375q-0.125 -0.28125 -0.03125 -0.515625q0.09375 -0.25 0.375 -0.390625q0.28125 -0.125 0.515625 -0.03125q0.25 0.078125 0.375 0.359375l4.09375 8.609375q0.140625 0.28125 0.078125 0.53125q-0.046875 0.234375 -0.328125 0.375zm10.522171 0.40625q-1.4375 0 -2.578125 -0.671875q-1.125 -0.6875 -1.796875 -1.859375q-0.65625 -1.1875 -0.65625 -2.65625q0 -1.484375 0.671875 -2.65625q0.6875 -1.1875 1.859375 -1.859375q1.171875 -0.6875 2.65625 -0.6875q1.46875 0 2.625 0.6875q1.171875 0.671875 1.859375 1.859375q0.6875 1.171875 0.703125 2.65625l-0.578125 0.453125q0 1.34375 -0.625 2.421875q-0.625 1.0625 -1.703125 1.6875q-1.078125 0.625 -2.4375 0.625zm0.15625 -1.3125q1.078125 0 1.921875 -0.5q0.859375 -0.5 1.34375 -1.390625q0.5 -0.890625 0.5 -1.984375q0 -1.125 -0.5 -2.0q-0.484375 -0.875 -1.34375 -1.390625q-0.84375 -0.515625 -1.921875 -0.515625q-1.0625 0 -1.921875 0.515625q-0.859375 0.515625 -1.375 1.390625q-0.5 0.875 -0.5 2.0q0 1.09375 0.5 1.984375q0.515625 0.890625 1.375 1.390625q0.859375 0.5 1.921875 0.5zm4.453125 1.21875q-0.3125 0 -0.515625 -0.1875q-0.203125 -0.203125 -0.203125 -0.515625l0 -3.203125l0.34375 -1.46875l1.109375 0.28125l0 4.390625q0 0.3125 -0.21875 0.515625q-0.203125 0.1875 -0.515625 0.1875zm4.1302795 -6.28125q0.046875 -1.15625 0.59375 -2.0625q0.5625 -0.921875 1.4375 -1.4375q0.890625 -0.53125 1.96875 -0.53125q0.859375 0 1.328125 0.25q0.46875 0.234375 0.359375 0.703125q-0.078125 0.28125 -0.265625 0.375q-0.171875 0.078125 -0.421875 0.0625q-0.25 -0.015625 -0.5625 -0.03125q-1.046875 -0.09375 -1.859375 0.21875q-0.8125 0.296875 -1.296875 0.9375q-0.46875 0.640625 -0.46875 1.515625l-0.8125 0zm0.109375 6.28125q-0.34375 0 -0.53125 -0.1875q-0.1875 -0.1875 -0.1875 -0.515625l0 -8.796875q0 -0.328125 0.1875 -0.515625q0.1875 -0.1875 0.53125 -0.1875q0.328125 0 0.515625 0.1875q0.1875 0.1875 0.1875 0.515625l0 8.796875q0 0.328125 -0.1875 0.515625q-0.1875 0.1875 -0.515625 0.1875zm8.560196 4.359375q-0.328125 0 -0.53125 -0.203125q-0.203125 -0.1875 -0.203125 -0.515625l0 -8.8125q0.03125 -1.453125 0.703125 -2.609375q0.6875 -1.171875 1.84375 -1.84375q1.171875 -0.671875 2.625 -0.671875q1.5 0 2.671875 0.6875q1.171875 0.671875 1.84375 1.859375q0.6875 1.171875 0.6875 2.65625q0 1.46875 -0.65625 2.65625q-0.65625 1.171875 -1.796875 1.859375q-1.140625 0.671875 -2.578125 0.671875q-1.25 0 -2.265625 -0.53125q-1.015625 -0.53125 -1.640625 -1.40625l0 5.484375q0 0.328125 -0.203125 0.515625q-0.1875 0.203125 -0.5 0.203125zm4.4375 -5.578125q1.078125 0 1.9375 -0.5q0.859375 -0.5 1.359375 -1.390625q0.5 -0.890625 0.5 -1.984375q0 -1.125 -0.5 -2.0q-0.5 -0.875 -1.359375 -1.390625q-0.859375 -0.515625 -1.9375 -0.515625q-1.0625 0 -1.921875 0.515625q-0.859375 0.515625 -1.34375 1.390625q-0.484375 0.875 -0.484375 2.0q0 1.09375 0.484375 1.984375q0.484375 0.890625 1.34375 1.390625q0.859375 0.5 1.921875 0.5zm6.361847 2.671875q-0.3125 0 -0.515625 -0.21875q-0.203125 -0.203125 -0.203125 -0.5q0 -0.3125 0.203125 -0.53125q0.203125 -0.203125 0.515625 -0.203125l8.9375 0q0.296875 0 0.5 0.203125q0.203125 0.21875 0.203125 0.53125q0 0.296875 -0.203125 0.5q-0.203125 0.21875 -0.5 0.21875l-8.9375 0zm15.062286 -1.359375q-1.5 0 -2.671875 -0.671875q-1.171875 -0.671875 -1.84375 -1.84375q-0.671875 -1.171875 -0.671875 -2.671875q0 -1.515625 0.671875 -2.6875q0.671875 -1.171875 1.84375 -1.84375q1.171875 -0.671875 2.671875 -0.671875q1.484375 0 2.65625 0.671875q1.171875 0.671875 1.84375 1.84375q0.671875 1.171875 0.6875 2.6875q0 1.5 -0.6875 2.671875q-0.671875 1.171875 -1.84375 1.84375q-1.171875 0.671875 -2.65625 0.671875zm0 -1.3125q1.078125 0 1.9375 -0.5q0.859375 -0.5 1.34375 -1.375q0.484375 -0.875 0.484375 -2.0q0 -1.125 -0.484375 -2.0q-0.484375 -0.890625 -1.34375 -1.390625q-0.859375 -0.515625 -1.9375 -0.515625q-1.078125 0 -1.9375 0.515625q-0.859375 0.5 -1.359375 1.390625q-0.5 0.875 -0.5 2.0q0 1.125 0.5 2.0q0.5 0.875 1.359375 1.375q0.859375 0.5 1.9375 0.5zm16.72403 1.21875q-0.3125 0 -0.515625 -0.203125q-0.203125 -0.203125 -0.203125 -0.5l0 -4.859375q0 -1.15625 -0.4375 -1.890625q-0.4375 -0.75 -1.203125 -1.125q-0.75 -0.375 -1.703125 -0.375q-0.90625 0 -1.65625 0.359375q-0.734375 0.34375 -1.171875 0.96875q-0.421875 0.609375 -0.421875 1.390625l-1.015625 0q0.03125 -1.171875 0.625 -2.09375q0.609375 -0.921875 1.59375 -1.453125q0.984375 -0.53125 2.203125 -0.53125q1.3125 0 2.359375 0.546875q1.046875 0.546875 1.65625 1.609375q0.609375 1.0625 0.609375 2.59375l0 4.859375q0 0.296875 -0.203125 0.5q-0.203125 0.203125 -0.515625 0.203125zm-8.015625 0q-0.328125 0 -0.53125 -0.1875q-0.203125 -0.203125 -0.203125 -0.515625l0 -8.78125q0 -0.328125 0.203125 -0.515625q0.203125 -0.203125 0.53125 -0.203125q0.3125 0 0.5 0.203125q0.203125 0.1875 0.203125 0.515625l0 8.78125q0 0.3125 -0.203125 0.515625q-0.1875 0.1875 -0.5 0.1875zm14.09903 0q-0.734375 0 -1.328125 -0.40625q-0.59375 -0.421875 -0.921875 -1.140625q-0.3125 -0.734375 -0.3125 -1.6875l0 -10.625q0 -0.3125 0.1875 -0.515625q0.203125 -0.203125 0.515625 -0.203125q0.3125 0 0.5 0.203125q0.203125 0.203125 0.203125 0.515625l0 10.625q0 0.8125 0.328125 1.3125q0.328125 0.5 0.828125 0.5l0.46875 0q0.28125 0 0.453125 0.203125q0.171875 0.1875 0.171875 0.515625q0 0.3125 -0.234375 0.515625q-0.234375 0.1875 -0.609375 0.1875l-0.25 0zm4.8235626 4.4375q-0.15625 0 -0.34375 -0.078125q-0.625 -0.28125 -0.34375 -0.890625l6.015625 -13.28125q0.28125 -0.59375 0.890625 -0.34375q0.640625 0.265625 0.359375 0.890625l-6.046875 13.28125q-0.1875 0.421875 -0.53125 0.421875zm2.0625 -4.75q-0.28125 0.125 -0.53125 0.046875q-0.234375 -0.09375 -0.375 -0.375l-4.171875 -8.609375q-0.125 -0.28125 -0.03125 -0.515625q0.09375 -0.25 0.375 -0.390625q0.28125 -0.125 0.515625 -0.03125q0.25 0.078125 0.375 0.359375l4.09375 8.609375q0.140625 0.28125 0.078125 0.53125q-0.046875 0.234375 -0.328125 0.375z" fill-rule="nonzero"/><path fill="#6fa8dc" d="m583.72046 142.3612l0 0c0 -8.691772 7.0460815 -15.737846 15.737854 -15.737846l237.94165 0c4.17395 0 8.17688 1.6580887 11.128296 4.6095047c2.951416 2.951416 4.609558 6.9544067 4.609558 11.128342l0 62.94951c0 8.691772 -7.0460815 15.737839 -15.737854 15.737839l-237.94165 0c-8.691772 0 -15.737854 -7.0460663 -15.737854 -15.737839z" fill-rule="evenodd"/><path stroke="#6fa8dc" stroke-width="1.0" stroke-linejoin="round" stroke-linecap="butt" d="m583.72046 142.3612l0 0c0 -8.691772 7.0460815 -15.737846 15.737854 -15.737846l237.94165 0c4.17395 0 8.17688 1.6580887 11.128296 4.6095047c2.951416 2.951416 4.609558 6.9544067 4.609558 11.128342l0 62.94951c0 8.691772 -7.0460815 15.737839 -15.737854 15.737839l-237.94165 0c-8.691772 0 -15.737854 -7.0460663 -15.737854 -15.737839z" fill-rule="evenodd"/><path fill="#ffffff" d="m613.36945 180.75595q-0.296875 0 -0.515625 -0.203125q-0.21875 -0.21875 -0.21875 -0.53125l0 -13.109375q0 -0.3125 0.203125 -0.515625q0.21875 -0.21875 0.53125 -0.21875l8.75 0q0.3125 0 0.515625 0.203125q0.203125 0.203125 0.203125 0.515625q0 0.28125 -0.203125 0.484375q-0.203125 0.203125 -0.515625 0.203125l-8.015625 0l0 5.15625l5.828125 0q0.328125 0 0.53125 0.203125q0.203125 0.203125 0.203125 0.5q0 0.296875 -0.203125 0.5q-0.203125 0.203125 -0.53125 0.203125l-5.828125 0l0 5.875q0 0.3125 -0.21875 0.53125q-0.203125 0.203125 -0.515625 0.203125zm12.503906 -6.28125q0.046875 -1.15625 0.59375 -2.0625q0.5625 -0.921875 1.4375 -1.4375q0.890625 -0.53125 1.96875 -0.53125q0.859375 0 1.328125 0.25q0.46875 0.234375 0.359375 0.703125q-0.078125 0.28125 -0.265625 0.375q-0.171875 0.078125 -0.421875 0.0625q-0.25 -0.015625 -0.5625 -0.03125q-1.046875 -0.09375 -1.859375 0.21875q-0.8125 0.296875 -1.296875 0.9375q-0.46875 0.640625 -0.46875 1.515625l-0.8125 0zm0.109375 6.28125q-0.34375 0 -0.53125 -0.1875q-0.1875 -0.1875 -0.1875 -0.515625l0 -8.796875q0 -0.328125 0.1875 -0.515625q0.1875 -0.1875 0.53125 -0.1875q0.328125 0 0.515625 0.1875q0.1875 0.1875 0.1875 0.515625l0 8.796875q0 0.328125 -0.1875 0.515625q-0.1875 0.1875 -0.515625 0.1875zm11.579163 0.09375q-1.4375 0 -2.578125 -0.671875q-1.125 -0.6875 -1.796875 -1.859375q-0.65625 -1.1875 -0.65625 -2.65625q0 -1.484375 0.671875 -2.65625q0.6875 -1.1875 1.859375 -1.859375q1.171875 -0.6875 2.65625 -0.6875q1.46875 0 2.625 0.6875q1.171875 0.671875 1.859375 1.859375q0.6875 1.171875 0.703125 2.65625l-0.578125 0.453125q0 1.34375 -0.625 2.421875q-0.625 1.0625 -1.703125 1.6875q-1.078125 0.625 -2.4375 0.625zm0.15625 -1.3125q1.078125 0 1.921875 -0.5q0.859375 -0.5 1.34375 -1.390625q0.5 -0.890625 0.5 -1.984375q0 -1.125 -0.5 -2.0q-0.484375 -0.875 -1.34375 -1.390625q-0.84375 -0.515625 -1.921875 -0.515625q-1.0625 0 -1.921875 0.515625q-0.859375 0.515625 -1.375 1.390625q-0.5 0.875 -0.5 2.0q0 1.09375 0.5 1.984375q0.515625 0.890625 1.375 1.390625q0.859375 0.5 1.921875 0.5zm4.453125 1.21875q-0.3125 0 -0.515625 -0.1875q-0.203125 -0.203125 -0.203125 -0.515625l0 -3.203125l0.34375 -1.46875l1.109375 0.28125l0 4.390625q0 0.3125 -0.21875 0.515625q-0.203125 0.1875 -0.515625 0.1875zm17.317749 0q-0.3125 0 -0.53125 -0.1875q-0.203125 -0.203125 -0.203125 -0.515625l0 -5.375q0 -1.328125 -0.6875 -2.09375q-0.6875 -0.78125 -1.765625 -0.78125q-1.15625 0 -1.90625 0.78125q-0.734375 0.765625 -0.71875 2.046875l-1.28125 0q0.015625 -1.25 0.53125 -2.1875q0.53125 -0.953125 1.4375 -1.46875q0.921875 -0.53125 2.078125 -0.53125q1.109375 0 1.953125 0.53125q0.84375 0.515625 1.3125 1.46875q0.484375 0.9375 0.484375 2.234375l0 5.375q0 0.3125 -0.203125 0.515625q-0.1875 0.1875 -0.5 0.1875zm-13.0625 0q-0.328125 0 -0.53125 -0.1875q-0.203125 -0.203125 -0.203125 -0.515625l0 -8.78125q0 -0.3125 0.203125 -0.515625q0.203125 -0.203125 0.53125 -0.203125q0.3125 0 0.5 0.203125q0.203125 0.203125 0.203125 0.515625l0 8.78125q0 0.3125 -0.203125 0.515625q-0.1875 0.1875 -0.5 0.1875zm6.546875 0q-0.3125 0 -0.515625 -0.1875q-0.203125 -0.203125 -0.203125 -0.515625l0 -5.375q0 -1.328125 -0.703125 -2.09375q-0.6875 -0.78125 -1.765625 -0.78125q-1.15625 0 -1.90625 0.765625q-0.75 0.75 -0.75 1.953125l-1.015625 0q0.03125 -1.1875 0.515625 -2.109375q0.5 -0.921875 1.359375 -1.4375q0.859375 -0.53125 1.9375 -0.53125q1.109375 0 1.953125 0.53125q0.859375 0.515625 1.328125 1.46875q0.46875 0.9375 0.46875 2.234375l0 5.375q0 0.3125 -0.203125 0.515625q-0.1875 0.1875 -0.5 0.1875zm15.026855 0.09375q-1.515625 0 -2.6875 -0.65625q-1.15625 -0.671875 -1.828125 -1.84375q-0.65625 -1.171875 -0.65625 -2.6875q0 -1.53125 0.625 -2.6875q0.625 -1.171875 1.71875 -1.84375q1.109375 -0.671875 2.546875 -0.671875q1.40625 0 2.453125 0.640625q1.0625 0.640625 1.640625 1.78125q0.578125 1.140625 0.578125 2.59375q0 0.296875 -0.1875 0.484375q-0.1875 0.171875 -0.484375 0.171875l-7.921875 0l0 -1.203125l8.078125 0l-0.796875 0.578125q0.015625 -1.078125 -0.40625 -1.9375q-0.40625 -0.859375 -1.15625 -1.34375q-0.75 -0.484375 -1.796875 -0.484375q-1.0625 0 -1.875 0.515625q-0.796875 0.5 -1.234375 1.390625q-0.4375 0.875 -0.4375 2.015625q0 1.140625 0.484375 2.015625q0.5 0.875 1.359375 1.390625q0.859375 0.5 1.984375 0.5q0.671875 0 1.34375 -0.234375q0.6875 -0.234375 1.09375 -0.59375q0.203125 -0.171875 0.46875 -0.171875q0.265625 -0.015625 0.4375 0.140625q0.25 0.21875 0.25 0.484375q0.015625 0.25 -0.203125 0.4375q-0.625 0.53125 -1.578125 0.875q-0.9375 0.34375 -1.8125 0.34375zm8.436218 -0.09375q-0.296875 0 -0.515625 -0.203125q-0.203125 -0.21875 -0.203125 -0.53125l0 -13.84375l1.453125 0l0 13.84375q0 0.3125 -0.203125 0.53125q-0.203125 0.203125 -0.53125 0.203125zm-5.140625 -13.25q-0.296875 0 -0.484375 -0.1875q-0.1875 -0.1875 -0.1875 -0.46875q0 -0.296875 0.1875 -0.484375q0.1875 -0.1875 0.484375 -0.1875l10.3125 0q0.296875 0 0.484375 0.1875q0.1875 0.1875 0.1875 0.484375q0 0.28125 -0.1875 0.46875q-0.1875 0.1875 -0.484375 0.1875l-10.3125 0zm10.934631 6.96875q0.046875 -1.15625 0.59375 -2.0625q0.5625 -0.921875 1.4375 -1.4375q0.890625 -0.53125 1.96875 -0.53125q0.859375 0 1.328125 0.25q0.46875 0.234375 0.359375 0.703125q-0.078125 0.28125 -0.265625 0.375q-0.171875 0.078125 -0.421875 0.0625q-0.25 -0.015625 -0.5625 -0.03125q-1.046875 -0.09375 -1.859375 0.21875q-0.8125 0.296875 -1.296875 0.9375q-0.46875 0.640625 -0.46875 1.515625l-0.8125 0zm0.109375 6.28125q-0.34375 0 -0.53125 -0.1875q-0.1875 -0.1875 -0.1875 -0.515625l0 -8.796875q0 -0.328125 0.1875 -0.515625q0.1875 -0.1875 0.53125 -0.1875q0.328125 0 0.515625 0.1875q0.1875 0.1875 0.1875 0.515625l0 8.796875q0 0.328125 -0.1875 0.515625q-0.1875 0.1875 -0.515625 0.1875zm11.579163 0.09375q-1.4375 0 -2.578125 -0.671875q-1.125 -0.6875 -1.796875 -1.859375q-0.65625 -1.1875 -0.65625 -2.65625q0 -1.484375 0.671875 -2.65625q0.6875 -1.1875 1.859375 -1.859375q1.171875 -0.6875 2.65625 -0.6875q1.46875 0 2.625 0.6875q1.171875 0.671875 1.859375 1.859375q0.6875 1.171875 0.703125 2.65625l-0.578125 0.453125q0 1.34375 -0.625 2.421875q-0.625 1.0625 -1.703125 1.6875q-1.078125 0.625 -2.4375 0.625zm0.15625 -1.3125q1.078125 0 1.921875 -0.5q0.859375 -0.5 1.34375 -1.390625q0.5 -0.890625 0.5 -1.984375q0 -1.125 -0.5 -2.0q-0.484375 -0.875 -1.34375 -1.390625q-0.84375 -0.515625 -1.921875 -0.515625q-1.0625 0 -1.921875 0.515625q-0.859375 0.515625 -1.375 1.390625q-0.5 0.875 -0.5 2.0q0 1.09375 0.5 1.984375q0.515625 0.890625 1.375 1.390625q0.859375 0.5 1.921875 0.5zm4.453125 1.21875q-0.3125 0 -0.515625 -0.1875q-0.203125 -0.203125 -0.203125 -0.515625l0 -3.203125l0.34375 -1.46875l1.109375 0.28125l0 4.390625q0 0.3125 -0.21875 0.515625q-0.203125 0.1875 -0.515625 0.1875zm12.270874 0q-0.3125 0 -0.515625 -0.203125q-0.203125 -0.203125 -0.203125 -0.5l0 -4.859375q0 -1.15625 -0.4375 -1.890625q-0.4375 -0.75 -1.203125 -1.125q-0.75 -0.375 -1.703125 -0.375q-0.90625 0 -1.65625 0.359375q-0.734375 0.34375 -1.171875 0.96875q-0.421875 0.609375 -0.421875 1.390625l-1.015625 0q0.03125 -1.171875 0.625 -2.09375q0.609375 -0.921875 1.59375 -1.453125q0.984375 -0.53125 2.203125 -0.53125q1.3125 0 2.359375 0.546875q1.046875 0.546875 1.65625 1.609375q0.609375 1.0625 0.609375 2.59375l0 4.859375q0 0.296875 -0.203125 0.5q-0.203125 0.203125 -0.515625 0.203125zm-8.015625 0q-0.328125 0 -0.53125 -0.1875q-0.203125 -0.203125 -0.203125 -0.515625l0 -8.78125q0 -0.328125 0.203125 -0.515625q0.203125 -0.203125 0.53125 -0.203125q0.3125 0 0.5 0.203125q0.203125 0.1875 0.203125 0.515625l0 8.78125q0 0.3125 -0.203125 0.515625q-0.1875 0.1875 -0.5 0.1875zm15.47406 0.09375q-1.109375 0 -2.1875 -0.375q-1.078125 -0.375 -1.75 -1.125q-0.21875 -0.21875 -0.1875 -0.5q0.046875 -0.28125 0.296875 -0.484375q0.25 -0.1875 0.53125 -0.140625q0.28125 0.03125 0.46875 0.234375q0.453125 0.53125 1.1875 0.8125q0.734375 0.265625 1.640625 0.265625q1.375 0 1.984375 -0.46875q0.625 -0.484375 0.640625 -1.140625q0 -0.671875 -0.640625 -1.109375q-0.625 -0.453125 -2.078125 -0.6875q-1.890625 -0.296875 -2.765625 -1.046875q-0.875 -0.75 -0.875 -1.765625q0 -0.953125 0.5 -1.578125q0.5 -0.640625 1.34375 -0.953125q0.84375 -0.328125 1.84375 -0.328125q1.25 0 2.15625 0.4375q0.90625 0.421875 1.46875 1.140625q0.1875 0.25 0.140625 0.515625q-0.03125 0.25 -0.296875 0.421875q-0.21875 0.125 -0.515625 0.078125q-0.28125 -0.046875 -0.484375 -0.265625q-0.46875 -0.53125 -1.09375 -0.78125q-0.609375 -0.265625 -1.40625 -0.265625q-1.03125 0 -1.65625 0.421875q-0.609375 0.421875 -0.609375 1.0625q0 0.421875 0.234375 0.75q0.234375 0.3125 0.796875 0.5625q0.578125 0.234375 1.609375 0.390625q1.390625 0.234375 2.203125 0.671875q0.8125 0.4375 1.15625 1.03125q0.34375 0.578125 0.34375 1.265625q0 0.875 -0.515625 1.546875q-0.5 0.65625 -1.40625 1.03125q-0.90625 0.375 -2.078125 0.375zm7.75885 -0.09375q-0.28125 0 -0.5 -0.1875q-0.203125 -0.203125 -0.203125 -0.546875l0 -9.453125q0 -1.3125 0.453125 -2.296875q0.453125 -0.984375 1.328125 -1.53125q0.875 -0.5625 2.140625 -0.5625q0.328125 0 0.53125 0.1875q0.203125 0.1875 0.203125 0.46875q0 0.28125 -0.203125 0.46875q-0.203125 0.1875 -0.53125 0.1875q-0.84375 0 -1.390625 0.390625q-0.546875 0.375 -0.828125 1.0625q-0.265625 0.671875 -0.265625 1.546875l0 9.53125q0 0.34375 -0.203125 0.546875q-0.1875 0.1875 -0.53125 0.1875zm-1.890625 -8.578125q-0.296875 0 -0.484375 -0.171875q-0.171875 -0.1875 -0.171875 -0.453125q0 -0.28125 0.171875 -0.453125q0.1875 -0.171875 0.484375 -0.171875l4.875 0q0.296875 0 0.46875 0.171875q0.171875 0.171875 0.171875 0.453125q0 0.265625 -0.171875 0.453125q-0.171875 0.171875 -0.46875 0.171875l-4.875 0zm11.720459 8.671875q-1.5 0 -2.671875 -0.671875q-1.171875 -0.671875 -1.84375 -1.84375q-0.671875 -1.171875 -0.671875 -2.671875q0 -1.515625 0.671875 -2.6875q0.671875 -1.171875 1.84375 -1.84375q1.171875 -0.671875 2.671875 -0.671875q1.484375 0 2.65625 0.671875q1.171875 0.671875 1.84375 1.84375q0.671875 1.171875 0.6875 2.6875q0 1.5 -0.6875 2.671875q-0.671875 1.171875 -1.84375 1.84375q-1.171875 0.671875 -2.65625 0.671875zm0 -1.3125q1.078125 0 1.9375 -0.5q0.859375 -0.5 1.34375 -1.375q0.484375 -0.875 0.484375 -2.0q0 -1.125 -0.484375 -2.0q-0.484375 -0.890625 -1.34375 -1.390625q-0.859375 -0.515625 -1.9375 -0.515625q-1.078125 0 -1.9375 0.515625q-0.859375 0.5 -1.359375 1.390625q-0.5 0.875 -0.5 2.0q0 1.125 0.5 2.0q0.5 0.875 1.359375 1.375q0.859375 0.5 1.9375 0.5zm8.583374 -5.0625q0.046875 -1.15625 0.59375 -2.0625q0.5625 -0.921875 1.4375 -1.4375q0.890625 -0.53125 1.96875 -0.53125q0.859375 0 1.328125 0.25q0.46875 0.234375 0.359375 0.703125q-0.078125 0.28125 -0.265625 0.375q-0.171875 0.078125 -0.421875 0.0625q-0.25 -0.015625 -0.5625 -0.03125q-1.046875 -0.09375 -1.859375 0.21875q-0.8125 0.296875 -1.296875 0.9375q-0.46875 0.640625 -0.46875 1.515625l-0.8125 0zm0.109375 6.28125q-0.34375 0 -0.53125 -0.1875q-0.1875 -0.1875 -0.1875 -0.515625l0 -8.796875q0 -0.328125 0.1875 -0.515625q0.1875 -0.1875 0.53125 -0.1875q0.328125 0 0.515625 0.1875q0.1875 0.1875 0.1875 0.515625l0 8.796875q0 0.328125 -0.1875 0.515625q-0.1875 0.1875 -0.515625 0.1875zm21.622742 0q-0.3125 0 -0.53125 -0.1875q-0.203125 -0.203125 -0.203125 -0.515625l0 -5.375q0 -1.328125 -0.6875 -2.09375q-0.6875 -0.78125 -1.765625 -0.78125q-1.15625 0 -1.90625 0.78125q-0.734375 0.765625 -0.71875 2.046875l-1.28125 0q0.015625 -1.25 0.53125 -2.1875q0.53125 -0.953125 1.4375 -1.46875q0.921875 -0.53125 2.078125 -0.53125q1.109375 0 1.953125 0.53125q0.84375 0.515625 1.3125 1.46875q0.484375 0.9375 0.484375 2.234375l0 5.375q0 0.3125 -0.203125 0.515625q-0.1875 0.1875 -0.5 0.1875zm-13.0625 0q-0.328125 0 -0.53125 -0.1875q-0.203125 -0.203125 -0.203125 -0.515625l0 -8.78125q0 -0.3125 0.203125 -0.515625q0.203125 -0.203125 0.53125 -0.203125q0.3125 0 0.5 0.203125q0.203125 0.203125 0.203125 0.515625l0 8.78125q0 0.3125 -0.203125 0.515625q-0.1875 0.1875 -0.5 0.1875zm6.546875 0q-0.3125 0 -0.515625 -0.1875q-0.203125 -0.203125 -0.203125 -0.515625l0 -5.375q0 -1.328125 -0.703125 -2.09375q-0.6875 -0.78125 -1.765625 -0.78125q-1.15625 0 -1.90625 0.765625q-0.75 0.75 -0.75 1.953125l-1.015625 0q0.03125 -1.1875 0.515625 -2.109375q0.5 -0.921875 1.359375 -1.4375q0.859375 -0.53125 1.9375 -0.53125q1.109375 0 1.953125 0.53125q0.859375 0.515625 1.328125 1.46875q0.46875 0.9375 0.46875 2.234375l0 5.375q0 0.3125 -0.203125 0.515625q-0.1875 0.1875 -0.5 0.1875zm17.120544 0.1875q-1.5 0 -2.828125 -0.578125q-1.3125 -0.578125 -2.3125 -1.609375q-0.984375 -1.046875 -1.546875 -2.390625q-0.5625 -1.359375 -0.5625 -2.90625q0 -1.53125 0.546875 -2.875q0.546875 -1.359375 1.546875 -2.375q1.0 -1.03125 2.3125 -1.609375q1.328125 -0.59375 2.84375 -0.59375q1.34375 0 2.4375 0.390625q1.109375 0.390625 2.140625 1.25q0.171875 0.125 0.1875 0.3125q0.03125 0.171875 -0.046875 0.328125q-0.0625 0.15625 -0.21875 0.234375q-0.03125 0.140625 -0.1875 0.21875q-0.140625 0.078125 -0.34375 0.0625q-0.1875 -0.03125 -0.375 -0.171875q-0.734375 -0.640625 -1.59375 -0.9375q-0.859375 -0.3125 -2.0 -0.3125q-1.203125 0 -2.265625 0.484375q-1.046875 0.484375 -1.859375 1.328125q-0.796875 0.828125 -1.25 1.9375q-0.453125 1.09375 -0.453125 2.328125q0 1.265625 0.453125 2.375q0.453125 1.09375 1.25 1.9375q0.8125 0.84375 1.859375 1.328125q1.0625 0.46875 2.265625 0.46875q1.03125 0 1.9375 -0.328125q0.921875 -0.34375 1.75 -0.984375q0.21875 -0.1875 0.46875 -0.140625q0.25 0.03125 0.4375 0.21875q0.1875 0.1875 0.1875 0.484375q0 0.140625 -0.046875 0.265625q-0.046875 0.125 -0.15625 0.25q-0.953125 0.875 -2.125 1.25q-1.171875 0.359375 -2.453125 0.359375zm9.796753 -0.1875q-0.734375 0 -1.328125 -0.40625q-0.59375 -0.421875 -0.921875 -1.140625q-0.3125 -0.734375 -0.3125 -1.6875l0 -10.625q0 -0.3125 0.1875 -0.515625q0.203125 -0.203125 0.515625 -0.203125q0.3125 0 0.5 0.203125q0.203125 0.203125 0.203125 0.515625l0 10.625q0 0.8125 0.328125 1.3125q0.328125 0.5 0.828125 0.5l0.46875 0q0.28125 0 0.453125 0.203125q0.171875 0.1875 0.171875 0.515625q0 0.3125 -0.234375 0.515625q-0.234375 0.1875 -0.609375 0.1875l-0.25 0zm4.0892334 0q-0.328125 0 -0.53125 -0.1875q-0.1875 -0.203125 -0.1875 -0.546875l0 -8.75q0 -0.328125 0.1875 -0.515625q0.203125 -0.203125 0.53125 -0.203125q0.3125 0 0.515625 0.203125q0.203125 0.1875 0.203125 0.515625l0 8.75q0 0.34375 -0.203125 0.546875q-0.203125 0.1875 -0.515625 0.1875zm-0.015625 -12.140625q-0.421875 0 -0.71875 -0.296875q-0.296875 -0.3125 -0.296875 -0.734375q0 -0.46875 0.3125 -0.734375q0.3125 -0.265625 0.71875 -0.265625q0.390625 0 0.6875 0.265625q0.3125 0.265625 0.3125 0.734375q0 0.421875 -0.296875 0.734375q-0.296875 0.296875 -0.71875 0.296875zm9.016663 12.234375q-1.515625 0 -2.6875 -0.65625q-1.15625 -0.671875 -1.828125 -1.84375q-0.65625 -1.171875 -0.65625 -2.6875q0 -1.53125 0.625 -2.6875q0.625 -1.171875 1.71875 -1.84375q1.109375 -0.671875 2.546875 -0.671875q1.40625 0 2.453125 0.640625q1.0625 0.640625 1.640625 1.78125q0.578125 1.140625 0.578125 2.59375q0 0.296875 -0.1875 0.484375q-0.1875 0.171875 -0.484375 0.171875l-7.921875 0l0 -1.203125l8.078125 0l-0.796875 0.578125q0.015625 -1.078125 -0.40625 -1.9375q-0.40625 -0.859375 -1.15625 -1.34375q-0.75 -0.484375 -1.796875 -0.484375q-1.0625 0 -1.875 0.515625q-0.796875 0.5 -1.234375 1.390625q-0.4375 0.875 -0.4375 2.015625q0 1.140625 0.484375 2.015625q0.5 0.875 1.359375 1.390625q0.859375 0.5 1.984375 0.5q0.671875 0 1.34375 -0.234375q0.6875 -0.234375 1.09375 -0.59375q0.203125 -0.171875 0.46875 -0.171875q0.265625 -0.015625 0.4375 0.140625q0.25 0.21875 0.25 0.484375q0.015625 0.25 -0.203125 0.4375q-0.625 0.53125 -1.578125 0.875q-0.9375 0.34375 -1.8125 0.34375zm15.56427 -0.09375q-0.3125 0 -0.515625 -0.203125q-0.203125 -0.203125 -0.203125 -0.5l0 -4.859375q0 -1.15625 -0.4375 -1.890625q-0.4375 -0.75 -1.203125 -1.125q-0.75 -0.375 -1.703125 -0.375q-0.90625 0 -1.65625 0.359375q-0.734375 0.34375 -1.171875 0.96875q-0.421875 0.609375 -0.421875 1.390625l-1.015625 0q0.03125 -1.171875 0.625 -2.09375q0.609375 -0.921875 1.59375 -1.453125q0.984375 -0.53125 2.203125 -0.53125q1.3125 0 2.359375 0.546875q1.046875 0.546875 1.65625 1.609375q0.609375 1.0625 0.609375 2.59375l0 4.859375q0 0.296875 -0.203125 0.5q-0.203125 0.203125 -0.515625 0.203125zm-8.015625 0q-0.328125 0 -0.53125 -0.1875q-0.203125 -0.203125 -0.203125 -0.515625l0 -8.78125q0 -0.328125 0.203125 -0.515625q0.203125 -0.203125 0.53125 -0.203125q0.3125 0 0.5 0.203125q0.203125 0.1875 0.203125 0.515625l0 8.78125q0 0.3125 -0.203125 0.515625q-0.1875 0.1875 -0.5 0.1875zm15.895935 0q-0.984375 0 -1.765625 -0.46875q-0.765625 -0.46875 -1.21875 -1.28125q-0.453125 -0.8125 -0.453125 -1.84375l0 -9.125q0 -0.328125 0.1875 -0.53125q0.203125 -0.203125 0.53125 -0.203125q0.3125 0 0.515625 0.203125q0.203125 0.203125 0.203125 0.53125l0 9.125q0 0.9375 0.5625 1.546875q0.5625 0.609375 1.4375 0.609375l0.5 0q0.296875 0 0.484375 0.203125q0.1875 0.203125 0.1875 0.53125q0 0.3125 -0.21875 0.515625q-0.21875 0.1875 -0.5625 0.1875l-0.390625 0zm-4.640625 -8.578125q-0.28125 0 -0.46875 -0.171875q-0.1875 -0.1875 -0.1875 -0.453125q0 -0.28125 0.1875 -0.453125q0.1875 -0.171875 0.46875 -0.171875l4.75 0q0.28125 0 0.46875 0.171875q0.1875 0.171875 0.1875 0.453125q0 0.265625 -0.1875 0.453125q-0.1875 0.171875 -0.46875 0.171875l-4.75 0z" fill-rule="nonzero"/><path fill="#ffffff" d="m583.72034 12.316938l80.51318 0l0 86.588776l-13.419128 13.419136l-67.094055 0z" fill-rule="evenodd"/><path fill="#cbcbcb" d="m650.8144 112.32485l2.683838 -10.735306l10.735291 -2.6838303z" fill-rule="evenodd"/><path fill="#000000" fill-opacity="0.0" d="m650.8144 112.32485l2.683838 -10.735306l10.735291 -2.6838303l-13.419128 13.419136l-67.094055 0l0 -100.00791l80.51318 0l0 86.588776" fill-rule="evenodd"/><path stroke="#6fa8dc" stroke-width="1.0" stroke-linejoin="round" stroke-linecap="butt" d="m650.8144 112.32485l2.683838 -10.735306l10.735291 -2.6838303l-13.419128 13.419136l-67.094055 0l0 -100.00791l80.51318 0l0 86.588776" fill-rule="evenodd"/><path fill="#000000" fill-opacity="0.0" d="m607.6268 88.23698l56.60669 0l0 24.087875l-56.60669 0z" fill-rule="evenodd"/><path fill="#6fa8dc" d="m617.92365 108.94447q-0.28125 0 -0.5 -0.203125q-0.203125 -0.203125 -0.203125 -0.484375q0 -0.296875 0.203125 -0.5q0.21875 -0.21875 0.5 -0.21875q0.28125 0 0.484375 0.21875q0.203125 0.203125 0.203125 0.5q0 0.265625 -0.203125 0.484375q-0.1875 0.203125 -0.484375 0.203125zm2.310791 -0.1875q-0.21875 0 -0.328125 -0.109375q-0.109375 -0.125 -0.125 -0.296875q-0.015625 -0.1875 0.109375 -0.34375l3.125 -4.28125l0.4375 -0.34375l2.8125 -3.828125q0.125 -0.171875 0.359375 -0.171875q0.1875 0 0.296875 0.125q0.125 0.125 0.125 0.3125q0.015625 0.171875 -0.078125 0.296875l-2.953125 4.015625l-0.40625 0.328125l-3.046875 4.15625q-0.125 0.140625 -0.328125 0.140625zm6.484375 0q-0.09375 0 -0.1875 -0.03125q-0.09375 -0.046875 -0.171875 -0.140625l-2.984375 -4.140625l-0.375 -0.265625l-2.921875 -4.0625q-0.109375 -0.140625 -0.09375 -0.3125q0.015625 -0.171875 0.125 -0.296875q0.125 -0.125 0.3125 -0.125q0.21875 0 0.359375 0.171875l2.8125 3.90625l0.34375 0.21875l3.125 4.328125q0.09375 0.140625 0.09375 0.328125q0 0.171875 -0.125 0.296875q-0.109375 0.125 -0.3125 0.125zm2.6559448 0q-0.203125 0 -0.34375 -0.140625q-0.125 -0.140625 -0.125 -0.328125l0 -8.4375q0 -0.203125 0.125 -0.328125q0.140625 -0.140625 0.34375 -0.140625q0.28125 0 0.421875 0.25l4.03125 8.03125l-0.40625 0l3.984375 -8.03125q0.140625 -0.25 0.40625 -0.25q0.203125 0 0.328125 0.140625q0.140625 0.125 0.140625 0.328125l0 8.4375q0 0.1875 -0.140625 0.328125q-0.125 0.140625 -0.328125 0.140625q-0.203125 0 -0.34375 -0.140625q-0.125 -0.140625 -0.125 -0.328125l0 -7.21875l0.203125 0l-3.546875 7.25q-0.125 0.21875 -0.40625 0.21875q-0.296875 0 -0.4375 -0.28125l-3.5625 -7.125l0.25 -0.0625l0 7.21875q0 0.1875 -0.140625 0.328125q-0.140625 0.140625 -0.328125 0.140625zm11.772095 0q-0.203125 0 -0.34375 -0.125q-0.125 -0.140625 -0.125 -0.34375l0 -8.4375q0 -0.1875 0.125 -0.328125q0.140625 -0.140625 0.34375 -0.140625q0.1875 0 0.328125 0.140625q0.140625 0.140625 0.140625 0.328125l0 8.015625l4.6875 0q0.1875 0 0.328125 0.125q0.140625 0.125 0.140625 0.328125q0 0.1875 -0.140625 0.3125q-0.140625 0.125 -0.328125 0.125l-5.15625 0z" fill-rule="nonzero"/><path fill="#6fa8dc" d="m590.4307 23.637209l67.01343 0l0 5.6205044l-67.01343 0z" fill-rule="evenodd"/><path stroke="#6fa8dc" stroke-width="1.0" stroke-linejoin="round" stroke-linecap="butt" d="m590.4307 23.637209l67.01343 0l0 5.6205044l-67.01343 0z" fill-rule="evenodd"/><path fill="#6fa8dc" d="m590.4307 37.68641l67.01343 0l0 5.6205063l-67.01343 0z" fill-rule="evenodd"/><path stroke="#6fa8dc" stroke-width="1.0" stroke-linejoin="round" stroke-linecap="butt" d="m590.4307 37.68641l67.01343 0l0 5.6205063l-67.01343 0z" fill-rule="evenodd"/><path fill="#6fa8dc" d="m590.47015 51.73561l67.01343 0l0 5.6205063l-67.01343 0z" fill-rule="evenodd"/><path stroke="#6fa8dc" stroke-width="1.0" stroke-linejoin="round" stroke-linecap="butt" d="m590.47015 51.73561l67.01343 0l0 5.6205063l-67.01343 0z" fill-rule="evenodd"/><path fill="#6fa8dc" d="m590.47015 65.78481l67.01343 0l0 5.6205063l-67.01343 0z" fill-rule="evenodd"/><path stroke="#6fa8dc" stroke-width="1.0" stroke-linejoin="round" stroke-linecap="butt" d="m590.47015 65.78481l67.01343 0l0 5.6205063l-67.01343 0z" fill-rule="evenodd"/><path fill="#6fa8dc" d="m590.4307 79.834015l36.89679 0l0 5.6205063l-36.89679 0z" fill-rule="evenodd"/><path stroke="#6fa8dc" stroke-width="1.0" stroke-linejoin="round" stroke-linecap="butt" d="m590.4307 79.834015l36.89679 0l0 5.6205063l-36.89679 0z" fill-rule="evenodd"/><path fill="#000000" fill-opacity="0.0" d="m670.1185 10.430447l231.30713 0l0 42.015747l-231.30713 0z" fill-rule="evenodd"/><path fill="#6fa8dc" d="m682.07166 37.350445q-0.28125 0 -0.5 -0.1875q-0.203125 -0.203125 -0.203125 -0.546875l0 -9.453125q0 -1.3125 0.453125 -2.296875q0.453125 -0.984375 1.328125 -1.53125q0.875 -0.5625 2.140625 -0.5625q0.328125 0 0.53125 0.1875q0.203125 0.1875 0.203125 0.46875q0 0.28125 -0.203125 0.46875q-0.203125 0.1875 -0.53125 0.1875q-0.84375 0 -1.390625 0.390625q-0.546875 0.375 -0.828125 1.0625q-0.265625 0.671875 -0.265625 1.546875l0 9.53125q0 0.34375 -0.203125 0.546875q-0.1875 0.1875 -0.53125 0.1875zm-1.890625 -8.578125q-0.296875 0 -0.484375 -0.171875q-0.171875 -0.1875 -0.171875 -0.453125q0 -0.28125 0.171875 -0.453125q0.1875 -0.171875 0.484375 -0.171875l4.875 0q0.296875 0 0.46875 0.171875q0.171875 0.171875 0.171875 0.453125q0 0.265625 -0.171875 0.453125q-0.171875 0.171875 -0.46875 0.171875l-4.875 0zm11.437561 8.578125q-0.984375 0 -1.765625 -0.46875q-0.765625 -0.46875 -1.21875 -1.28125q-0.453125 -0.8125 -0.453125 -1.84375l0 -9.125q0 -0.328125 0.1875 -0.53125q0.203125 -0.203125 0.53125 -0.203125q0.3125 0 0.515625 0.203125q0.203125 0.203125 0.203125 0.53125l0 9.125q0 0.9375 0.5625 1.546875q0.5625 0.609375 1.4375 0.609375l0.5 0q0.296875 0 0.484375 0.203125q0.1875 0.203125 0.1875 0.53125q0 0.3125 -0.21875 0.515625q-0.21875 0.1875 -0.5625 0.1875l-0.390625 0zm-4.640625 -8.578125q-0.28125 0 -0.46875 -0.171875q-0.1875 -0.1875 -0.1875 -0.453125q0 -0.28125 0.1875 -0.453125q0.1875 -0.171875 0.46875 -0.171875l4.75 0q0.28125 0 0.46875 0.171875q0.1875 0.171875 0.1875 0.453125q0 0.265625 -0.1875 0.453125q-0.1875 0.171875 -0.46875 0.171875l-4.75 0zm12.702942 8.671875q-1.484375 0 -2.625 -0.671875q-1.140625 -0.6875 -1.8125 -1.859375q-0.65625 -1.1875 -0.65625 -2.65625q0 -1.484375 0.625 -2.65625q0.640625 -1.1875 1.734375 -1.859375q1.109375 -0.6875 2.546875 -0.6875q1.140625 0 2.09375 0.453125q0.96875 0.4375 1.6875 1.34375q0.203125 0.21875 0.140625 0.46875q-0.046875 0.25 -0.3125 0.4375q-0.203125 0.15625 -0.453125 0.109375q-0.25 -0.046875 -0.4375 -0.28125q-1.078125 -1.234375 -2.71875 -1.234375q-1.046875 0 -1.84375 0.515625q-0.78125 0.5 -1.234375 1.375q-0.4375 0.875 -0.4375 2.015625q0 1.125 0.46875 2.0q0.46875 0.875 1.3125 1.375q0.84375 0.5 1.921875 0.5q0.71875 0 1.328125 -0.1875q0.609375 -0.203125 1.078125 -0.609375q0.21875 -0.1875 0.453125 -0.203125q0.25 -0.015625 0.453125 0.140625q0.234375 0.21875 0.25 0.484375q0.03125 0.25 -0.171875 0.4375q-1.359375 1.25 -3.390625 1.25zm4.881714 1.359375q-0.3125 0 -0.515625 -0.21875q-0.203125 -0.203125 -0.203125 -0.5q0 -0.3125 0.203125 -0.53125q0.203125 -0.203125 0.515625 -0.203125l8.9375 0q0.296875 0 0.5 0.203125q0.203125 0.21875 0.203125 0.53125q0 0.296875 -0.203125 0.5q-0.203125 0.21875 -0.5 0.21875l-8.9375 0zm11.140442 2.90625q-0.328125 0 -0.53125 -0.203125q-0.203125 -0.1875 -0.203125 -0.515625l0 -8.8125q0.03125 -1.453125 0.703125 -2.609375q0.6875 -1.171875 1.84375 -1.84375q1.171875 -0.671875 2.625 -0.671875q1.5 0 2.671875 0.6875q1.171875 0.671875 1.84375 1.859375q0.6875 1.171875 0.6875 2.65625q0 1.46875 -0.65625 2.65625q-0.65625 1.171875 -1.796875 1.859375q-1.140625 0.671875 -2.578125 0.671875q-1.25 0 -2.265625 -0.53125q-1.015625 -0.53125 -1.640625 -1.40625l0 5.484375q0 0.328125 -0.203125 0.515625q-0.1875 0.203125 -0.5 0.203125zm4.4375 -5.578125q1.078125 0 1.9375 -0.5q0.859375 -0.5 1.359375 -1.390625q0.5 -0.890625 0.5 -1.984375q0 -1.125 -0.5 -2.0q-0.5 -0.875 -1.359375 -1.390625q-0.859375 -0.515625 -1.9375 -0.515625q-1.0625 0 -1.921875 0.515625q-0.859375 0.515625 -1.34375 1.390625q-0.484375 0.875 -0.484375 2.0q0 1.09375 0.484375 1.984375q0.484375 0.890625 1.34375 1.390625q0.859375 0.5 1.921875 0.5zm12.471191 1.328125q-1.328125 0 -2.375 -0.546875q-1.046875 -0.546875 -1.65625 -1.609375q-0.59375 -1.0625 -0.59375 -2.59375l0 -4.859375q0 -0.296875 0.203125 -0.5q0.203125 -0.203125 0.5 -0.203125q0.3125 0 0.515625 0.203125q0.203125 0.203125 0.203125 0.5l0 4.859375q0 1.15625 0.4375 1.90625q0.453125 0.734375 1.203125 1.109375q0.75 0.375 1.703125 0.375q0.921875 0 1.65625 -0.34375q0.734375 -0.359375 1.15625 -0.96875q0.4375 -0.625 0.4375 -1.40625l1.03125 0q-0.0625 1.171875 -0.65625 2.09375q-0.578125 0.921875 -1.578125 1.453125q-0.984375 0.53125 -2.1875 0.53125zm4.09375 -0.109375q-0.3125 0 -0.515625 -0.1875q-0.1875 -0.203125 -0.1875 -0.546875l0 -8.765625q0 -0.3125 0.1875 -0.5q0.203125 -0.203125 0.515625 -0.203125q0.328125 0 0.53125 0.203125q0.203125 0.1875 0.203125 0.5l0 8.765625q0 0.34375 -0.203125 0.546875q-0.203125 0.1875 -0.53125 0.1875zm9.25531 0.09375q-1.453125 0 -2.625 -0.671875q-1.15625 -0.671875 -1.84375 -1.828125q-0.671875 -1.171875 -0.703125 -2.625l0 -8.8125q0 -0.328125 0.203125 -0.53125q0.203125 -0.203125 0.53125 -0.203125q0.3125 0 0.5 0.203125q0.203125 0.203125 0.203125 0.53125l0 5.484375q0.625 -0.875 1.640625 -1.40625q1.015625 -0.53125 2.265625 -0.53125q1.4375 0 2.578125 0.6875q1.140625 0.671875 1.796875 1.859375q0.65625 1.171875 0.65625 2.640625q0 1.484375 -0.6875 2.671875q-0.671875 1.171875 -1.84375 1.859375q-1.171875 0.671875 -2.671875 0.671875zm0 -1.3125q1.078125 0 1.9375 -0.5q0.859375 -0.515625 1.359375 -1.390625q0.5 -0.890625 0.5 -2.0q0 -1.109375 -0.5 -1.984375q-0.5 -0.890625 -1.359375 -1.390625q-0.859375 -0.515625 -1.9375 -0.515625q-1.0625 0 -1.921875 0.515625q-0.859375 0.5 -1.34375 1.390625q-0.484375 0.875 -0.484375 1.984375q0 1.109375 0.484375 2.0q0.484375 0.875 1.34375 1.390625q0.859375 0.5 1.921875 0.5zm6.3618164 2.671875q-0.3125 0 -0.515625 -0.21875q-0.203125 -0.203125 -0.203125 -0.5q0 -0.3125 0.203125 -0.53125q0.203125 -0.203125 0.515625 -0.203125l8.9375 0q0.296875 0 0.5 0.203125q0.203125 0.21875 0.203125 0.53125q0 0.296875 -0.203125 0.5q-0.203125 0.21875 -0.5 0.21875l-8.9375 0zm12.171692 2.984375q-0.15625 0 -0.34375 -0.078125q-0.625 -0.28125 -0.34375 -0.890625l6.015625 -13.28125q0.28125 -0.59375 0.890625 -0.34375q0.640625 0.265625 0.359375 0.890625l-6.046875 13.28125q-0.1875 0.421875 -0.53125 0.421875zm2.0625 -4.75q-0.28125 0.125 -0.53125 0.046875q-0.234375 -0.09375 -0.375 -0.375l-4.171875 -8.609375q-0.125 -0.28125 -0.03125 -0.515625q0.09375 -0.25 0.375 -0.390625q0.28125 -0.125 0.515625 -0.03125q0.25 0.078125 0.375 0.359375l4.09375 8.609375q0.140625 0.28125 0.078125 0.53125q-0.046875 0.234375 -0.328125 0.375zm10.522156 0.40625q-1.4375 0 -2.578125 -0.671875q-1.125 -0.6875 -1.796875 -1.859375q-0.65625 -1.1875 -0.65625 -2.65625q0 -1.484375 0.671875 -2.65625q0.6875 -1.1875 1.859375 -1.859375q1.171875 -0.6875 2.65625 -0.6875q1.46875 0 2.625 0.6875q1.171875 0.671875 1.859375 1.859375q0.6875 1.171875 0.703125 2.65625l-0.578125 0.453125q0 1.34375 -0.625 2.421875q-0.625 1.0625 -1.703125 1.6875q-1.078125 0.625 -2.4375 0.625zm0.15625 -1.3125q1.078125 0 1.921875 -0.5q0.859375 -0.5 1.34375 -1.390625q0.5 -0.890625 0.5 -1.984375q0 -1.125 -0.5 -2.0q-0.484375 -0.875 -1.34375 -1.390625q-0.84375 -0.515625 -1.921875 -0.515625q-1.0625 0 -1.921875 0.515625q-0.859375 0.515625 -1.375 1.390625q-0.5 0.875 -0.5 2.0q0 1.09375 0.5 1.984375q0.515625 0.890625 1.375 1.390625q0.859375 0.5 1.921875 0.5zm4.453125 1.21875q-0.3125 0 -0.515625 -0.1875q-0.203125 -0.203125 -0.203125 -0.515625l0 -3.203125l0.34375 -1.46875l1.109375 0.28125l0 4.390625q0 0.3125 -0.21875 0.515625q-0.203125 0.1875 -0.515625 0.1875zm4.13031 -6.28125q0.046875 -1.15625 0.59375 -2.0625q0.5625 -0.921875 1.4375 -1.4375q0.890625 -0.53125 1.96875 -0.53125q0.859375 0 1.328125 0.25q0.46875 0.234375 0.359375 0.703125q-0.078125 0.28125 -0.265625 0.375q-0.171875 0.078125 -0.421875 0.0625q-0.25 -0.015625 -0.5625 -0.03125q-1.046875 -0.09375 -1.859375 0.21875q-0.8125 0.296875 -1.296875 0.9375q-0.46875 0.640625 -0.46875 1.515625l-0.8125 0zm0.109375 6.28125q-0.34375 0 -0.53125 -0.1875q-0.1875 -0.1875 -0.1875 -0.515625l0 -8.796875q0 -0.328125 0.1875 -0.515625q0.1875 -0.1875 0.53125 -0.1875q0.328125 0 0.515625 0.1875q0.1875 0.1875 0.1875 0.515625l0 8.796875q0 0.328125 -0.1875 0.515625q-0.1875 0.1875 -0.515625 0.1875zm8.560181 4.359375q-0.328125 0 -0.53125 -0.203125q-0.203125 -0.1875 -0.203125 -0.515625l0 -8.8125q0.03125 -1.453125 0.703125 -2.609375q0.6875 -1.171875 1.84375 -1.84375q1.171875 -0.671875 2.625 -0.671875q1.5 0 2.671875 0.6875q1.171875 0.671875 1.84375 1.859375q0.6875 1.171875 0.6875 2.65625q0 1.46875 -0.65625 2.65625q-0.65625 1.171875 -1.796875 1.859375q-1.140625 0.671875 -2.578125 0.671875q-1.25 0 -2.265625 -0.53125q-1.015625 -0.53125 -1.640625 -1.40625l0 5.484375q0 0.328125 -0.203125 0.515625q-0.1875 0.203125 -0.5 0.203125zm4.4375 -5.578125q1.078125 0 1.9375 -0.5q0.859375 -0.5 1.359375 -1.390625q0.5 -0.890625 0.5 -1.984375q0 -1.125 -0.5 -2.0q-0.5 -0.875 -1.359375 -1.390625q-0.859375 -0.515625 -1.9375 -0.515625q-1.0625 0 -1.921875 0.515625q-0.859375 0.515625 -1.34375 1.390625q-0.484375 0.875 -0.484375 2.0q0 1.09375 0.484375 1.984375q0.484375 0.890625 1.34375 1.390625q0.859375 0.5 1.921875 0.5zm6.3618164 2.671875q-0.3125 0 -0.515625 -0.21875q-0.203125 -0.203125 -0.203125 -0.5q0 -0.3125 0.203125 -0.53125q0.203125 -0.203125 0.515625 -0.203125l8.9375 0q0.296875 0 0.5 0.203125q0.203125 0.21875 0.203125 0.53125q0 0.296875 -0.203125 0.5q-0.203125 0.21875 -0.5 0.21875l-8.9375 0zm15.062317 -1.359375q-1.5 0 -2.671875 -0.671875q-1.171875 -0.671875 -1.84375 -1.84375q-0.671875 -1.171875 -0.671875 -2.671875q0 -1.515625 0.671875 -2.6875q0.671875 -1.171875 1.84375 -1.84375q1.171875 -0.671875 2.671875 -0.671875q1.484375 0 2.65625 0.671875q1.171875 0.671875 1.84375 1.84375q0.671875 1.171875 0.6875 2.6875q0 1.5 -0.6875 2.671875q-0.671875 1.171875 -1.84375 1.84375q-1.171875 0.671875 -2.65625 0.671875zm0 -1.3125q1.078125 0 1.9375 -0.5q0.859375 -0.5 1.34375 -1.375q0.484375 -0.875 0.484375 -2.0q0 -1.125 -0.484375 -2.0q-0.484375 -0.890625 -1.34375 -1.390625q-0.859375 -0.515625 -1.9375 -0.515625q-1.078125 0 -1.9375 0.515625q-0.859375 0.5 -1.359375 1.390625q-0.5 0.875 -0.5 2.0q0 1.125 0.5 2.0q0.5 0.875 1.359375 1.375q0.859375 0.5 1.9375 0.5zm16.723999 1.21875q-0.3125 0 -0.515625 -0.203125q-0.203125 -0.203125 -0.203125 -0.5l0 -4.859375q0 -1.15625 -0.4375 -1.890625q-0.4375 -0.75 -1.203125 -1.125q-0.75 -0.375 -1.703125 -0.375q-0.90625 0 -1.65625 0.359375q-0.734375 0.34375 -1.171875 0.96875q-0.421875 0.609375 -0.421875 1.390625l-1.015625 0q0.03125 -1.171875 0.625 -2.09375q0.609375 -0.921875 1.59375 -1.453125q0.984375 -0.53125 2.203125 -0.53125q1.3125 0 2.359375 0.546875q1.046875 0.546875 1.65625 1.609375q0.609375 1.0625 0.609375 2.59375l0 4.859375q0 0.296875 -0.203125 0.5q-0.203125 0.203125 -0.515625 0.203125zm-8.015625 0q-0.328125 0 -0.53125 -0.1875q-0.203125 -0.203125 -0.203125 -0.515625l0 -8.78125q0 -0.328125 0.203125 -0.515625q0.203125 -0.203125 0.53125 -0.203125q0.3125 0 0.5 0.203125q0.203125 0.1875 0.203125 0.515625l0 8.78125q0 0.3125 -0.203125 0.515625q-0.1875 0.1875 -0.5 0.1875zm14.09906 0q-0.734375 0 -1.328125 -0.40625q-0.59375 -0.421875 -0.921875 -1.140625q-0.3125 -0.734375 -0.3125 -1.6875l0 -10.625q0 -0.3125 0.1875 -0.515625q0.203125 -0.203125 0.515625 -0.203125q0.3125 0 0.5 0.203125q0.203125 0.203125 0.203125 0.515625l0 10.625q0 0.8125 0.328125 1.3125q0.328125 0.5 0.828125 0.5l0.46875 0q0.28125 0 0.453125 0.203125q0.171875 0.1875 0.171875 0.515625q0 0.3125 -0.234375 0.515625q-0.234375 0.1875 -0.609375 0.1875l-0.25 0zm4.8235474 4.4375q-0.15625 0 -0.34375 -0.078125q-0.625 -0.28125 -0.34375 -0.890625l6.015625 -13.28125q0.28125 -0.59375 0.890625 -0.34375q0.640625 0.265625 0.359375 0.890625l-6.046875 13.28125q-0.1875 0.421875 -0.53125 0.421875zm2.0625 -4.75q-0.28125 0.125 -0.53125 0.046875q-0.234375 -0.09375 -0.375 -0.375l-4.171875 -8.609375q-0.125 -0.28125 -0.03125 -0.515625q0.09375 -0.25 0.375 -0.390625q0.28125 -0.125 0.515625 -0.03125q0.25 0.078125 0.375 0.359375l4.09375 8.609375q0.140625 0.28125 0.078125 0.53125q-0.046875 0.234375 -0.328125 0.375z" fill-rule="nonzero"/><path fill="#6aa84f" d="m534.0873 199.86691l-162.98389 0l0 -23.930084l162.98389 0z" fill-rule="evenodd"/><path stroke="#6aa84f" stroke-width="1.0" stroke-linejoin="round" stroke-linecap="butt" d="m534.0873 199.86691l-162.98389 0l0 -23.930084l162.98389 0z" fill-rule="evenodd"/><path fill="#6aa84f" d="m371.1034 175.93683l0 39.04149l-53.55652 -39.04149z" fill-rule="evenodd"/><path stroke="#6aa84f" stroke-width="1.0" stroke-linejoin="round" stroke-linecap="butt" d="m371.1034 175.93683l0 39.04149l-53.55652 -39.04149z" fill-rule="evenodd"/><path fill="#6aa84f" d="m534.0869 199.87193l0 -23.907928l14.649963 23.885773z" fill-rule="evenodd"/><path stroke="#6aa84f" stroke-width="1.0" stroke-linejoin="round" stroke-linecap="butt" d="m534.0869 199.87193l0 -23.907928l14.649963 23.885773z" fill-rule="evenodd"/><path fill="#6aa84f" d="m534.0873 151.9173l-162.98389 0l0 23.930084l162.98389 0z" fill-rule="evenodd"/><path stroke="#6aa84f" stroke-width="1.0" stroke-linejoin="round" stroke-linecap="butt" d="m534.0873 151.9173l-162.98389 0l0 23.930084l162.98389 0z" fill-rule="evenodd"/><path fill="#ffffff" d="m429.08362 181.89609q-1.109375 0 -2.1875 -0.375q-1.078125 -0.375 -1.75 -1.125q-0.21875 -0.21875 -0.1875 -0.5q0.046875 -0.28125 0.296875 -0.484375q0.25 -0.1875 0.53125 -0.140625q0.28125 0.03125 0.46875 0.234375q0.453125 0.53125 1.1875 0.8125q0.734375 0.265625 1.640625 0.265625q1.375 0 1.984375 -0.46875q0.625 -0.484375 0.640625 -1.140625q0 -0.671875 -0.640625 -1.109375q-0.625 -0.453125 -2.078125 -0.6875q-1.890625 -0.296875 -2.765625 -1.046875q-0.875 -0.75 -0.875 -1.765625q0 -0.953125 0.5 -1.578125q0.5 -0.640625 1.34375 -0.953125q0.84375 -0.328125 1.84375 -0.328125q1.25 0 2.15625 0.4375q0.90625 0.421875 1.46875 1.140625q0.1875 0.25 0.140625 0.515625q-0.03125 0.25 -0.296875 0.421875q-0.21875 0.125 -0.515625 0.078125q-0.28125 -0.046875 -0.484375 -0.265625q-0.46875 -0.53125 -1.09375 -0.78125q-0.609375 -0.265625 -1.40625 -0.265625q-1.03125 0 -1.65625 0.421875q-0.609375 0.421875 -0.609375 1.0625q0 0.421875 0.234375 0.75q0.234375 0.3125 0.796875 0.5625q0.578125 0.234375 1.609375 0.390625q1.390625 0.234375 2.203125 0.671875q0.8125 0.4375 1.15625 1.03125q0.34375 0.578125 0.34375 1.265625q0 0.875 -0.515625 1.546875q-0.5 0.65625 -1.40625 1.03125q-0.90625 0.375 -2.078125 0.375zm11.118225 0q-1.515625 0 -2.6875 -0.65625q-1.15625 -0.671875 -1.828125 -1.84375q-0.65625 -1.171875 -0.65625 -2.6875q0 -1.53125 0.625 -2.6875q0.625 -1.171875 1.71875 -1.84375q1.109375 -0.671875 2.546875 -0.671875q1.40625 0 2.453125 0.640625q1.0625 0.640625 1.640625 1.78125q0.578125 1.140625 0.578125 2.59375q0 0.296875 -0.1875 0.484375q-0.1875 0.171875 -0.484375 0.171875l-7.921875 0l0 -1.203125l8.078125 0l-0.796875 0.578125q0.015625 -1.078125 -0.40625 -1.9375q-0.40625 -0.859375 -1.15625 -1.34375q-0.75 -0.484375 -1.796875 -0.484375q-1.0625 0 -1.875 0.515625q-0.796875 0.5 -1.234375 1.390625q-0.4375 0.875 -0.4375 2.015625q0 1.140625 0.484375 2.015625q0.5 0.875 1.359375 1.390625q0.859375 0.5 1.984375 0.5q0.671875 0 1.34375 -0.234375q0.6875 -0.234375 1.09375 -0.59375q0.203125 -0.171875 0.46875 -0.171875q0.265625 -0.015625 0.4375 0.140625q0.25 0.21875 0.25 0.484375q0.015625 0.25 -0.203125 0.4375q-0.625 0.53125 -1.578125 0.875q-0.9375 0.34375 -1.8125 0.34375zm10.814301 -0.09375q-0.984375 0 -1.765625 -0.46875q-0.765625 -0.46875 -1.21875 -1.28125q-0.453125 -0.8125 -0.453125 -1.84375l0 -9.125q0 -0.328125 0.1875 -0.53125q0.203125 -0.203125 0.53125 -0.203125q0.3125 0 0.515625 0.203125q0.203125 0.203125 0.203125 0.53125l0 9.125q0 0.9375 0.5625 1.546875q0.5625 0.609375 1.4375 0.609375l0.5 0q0.296875 0 0.484375 0.203125q0.1875 0.203125 0.1875 0.53125q0 0.3125 -0.21875 0.515625q-0.21875 0.1875 -0.5625 0.1875l-0.390625 0zm-4.640625 -8.578125q-0.28125 0 -0.46875 -0.171875q-0.1875 -0.1875 -0.1875 -0.453125q0 -0.28125 0.1875 -0.453125q0.1875 -0.171875 0.46875 -0.171875l4.75 0q0.28125 0 0.46875 0.171875q0.1875 0.171875 0.1875 0.453125q0 0.265625 -0.1875 0.453125q-0.1875 0.171875 -0.46875 0.171875l-4.75 0z" fill-rule="nonzero"/><path fill="#6aa84f" d="m371.1034 175.84738l0 -39.041473l-53.55652 39.041473z" fill-rule="evenodd"/><path stroke="#6aa84f" stroke-width="1.0" stroke-linejoin="round" stroke-linecap="butt" d="m371.1034 175.84738l0 -39.041473l-53.55652 39.041473z" fill-rule="evenodd"/><path fill="#6aa84f" d="m534.0869 151.9062l0 23.95224l14.649963 -23.930084z" fill-rule="evenodd"/><path stroke="#6aa84f" stroke-width="1.0" stroke-linejoin="round" stroke-linecap="butt" d="m534.0869 151.9062l0 23.95224l14.649963 -23.930084z" fill-rule="evenodd"/></g></svg>