<?xml version="1.0" encoding="UTF-8" standalone="no"?>
<svg
   xmlns:dc="http://purl.org/dc/elements/1.1/"
   xmlns:cc="http://creativecommons.org/ns#"
   xmlns:rdf="http://www.w3.org/1999/02/22-rdf-syntax-ns#"
   xmlns:svg="http://www.w3.org/2000/svg"
   xmlns="http://www.w3.org/2000/svg"
   xmlns:xlink="http://www.w3.org/1999/xlink"
   xmlns:sodipodi="http://sodipodi.sourceforge.net/DTD/sodipodi-0.dtd"
   xmlns:inkscape="http://www.inkscape.org/namespaces/inkscape"
   viewBox="0 0 22 22"
   id="svg3007"
   version="1.1"
   inkscape:version="0.91+devel r"
   width="100%"
   height="100%"
   sodipodi:docname="actions-refresh.svg">
  <metadata
     id="metadata3037">
    <rdf:RDF>
      <cc:Work
         rdf:about="">
        <dc:format>image/svg+xml</dc:format>
        <dc:type
           rdf:resource="http://purl.org/dc/dcmitype/StillImage" />
        <dc:title></dc:title>
      </cc:Work>
    </rdf:RDF>
  </metadata>
  <defs
     id="defs3035">
    <linearGradient
       id="linearGradient4008-4-7">
      <stop
         id="stop4010-2-0"
         style="stop-color:#dab980;stop-opacity:1"
         offset="0" />
      <stop
         id="stop4012-5-1"
         style="stop-color:#c29856;stop-opacity:1"
         offset="0.71691591" />
      <stop
         id="stop4014-6-6"
         style="stop-color:#a2773a;stop-opacity:1"
         offset="1" />
    </linearGradient>
    <linearGradient
       inkscape:collect="always"
       xlink:href="#linearGradient3187-7-5"
       id="linearGradient3756"
       gradientUnits="userSpaceOnUse"
       gradientTransform="matrix(5.6190474,0,0,4.9043651,-170.71372,8.7516906)"
       x1="48"
       y1="78"
       x2="48"
       y2="5.9877172" />
    <linearGradient
       id="linearGradient3187-7-5">
      <stop
         id="stop3189-4-5"
         style="stop-color:#c29656;stop-opacity:1"
         offset="0" />
      <stop
         id="stop3191-1-8"
         style="stop-color:#ddc08b;stop-opacity:1"
         offset="1" />
    </linearGradient>
    <linearGradient
       inkscape:collect="always"
       xlink:href="#linearGradient4008-4-7"
       id="linearGradient3822"
       gradientUnits="userSpaceOnUse"
       gradientTransform="matrix(4.4715789,0,0,4.4715789,-908.22105,-66.542998)"
       x1="34.85965"
       y1="16.275133"
       x2="34.994316"
       y2="28.905609" />
    <linearGradient
       inkscape:collect="always"
       xlink:href="#linearGradient3187-7-5"
       id="linearGradient3824"
       gradientUnits="userSpaceOnUse"
       gradientTransform="matrix(5.6190474,0,0,4.9043651,-891.75432,21.86152)"
       x1="48"
       y1="78"
       x2="48"
       y2="5.9877172" />
    <linearGradient
       inkscape:collect="always"
       xlink:href="#outerBackgroundGradient"
       id="linearGradient3876"
       gradientUnits="userSpaceOnUse"
       gradientTransform="translate(-90.463731,-70.000001)"
       x1="510.99997"
       y1="515"
       x2="510.99997"
       y2="23.999998" />
    <linearGradient
       id="outerBackgroundGradient">
      <stop
         style="stop-color:#21759b;stop-opacity:1;"
         offset="0"
         id="stop3864-8-6" />
      <stop
         style="stop-color:#478aa9;stop-opacity:1;"
         offset="1"
         id="stop3866-9-1" />
    </linearGradient>
  </defs>
  <sodipodi:namedview
     pagecolor="#ffffff"
     bordercolor="#666666"
     borderopacity="1"
     objecttolerance="10"
     gridtolerance="10"
     guidetolerance="10"
     inkscape:pageopacity="0"
     inkscape:pageshadow="2"
     inkscape:window-width="1855"
     inkscape:window-height="1056"
     id="namedview3033"
     showgrid="false"
     inkscape:zoom="12.001175"
     inkscape:cx="-15.89136"
     inkscape:cy="11"
     inkscape:window-x="65"
     inkscape:window-y="24"
     inkscape:window-maximized="1"
     inkscape:current-layer="svg3007" />
  <path
     inkscape:connector-curvature="0"
     id="path5018"
     d="m 9.5800229,19.920009 c -0.57881,-0.11299 -0.97116,-0.22865 -1.56622,-0.4617 -0.27059,-0.10598 -1.08546,-0.53508 -1.34834,-0.71003 -0.43602,-0.29018 -0.89562,-0.66194 -1.23066,-0.99548 -0.32479,-0.32333 -0.87275,-1.0127 -1.11269,-1.39984 -0.15874,-0.25611 -0.60748,-1.16276 -0.69374,-1.40165 -0.33013,-0.91421 -0.44858,-1.51635 -0.46057,-2.34134 l -0.009,-0.63809 0.0979,-0.0756 c 0.0924,-0.0714 0.17396,-0.0756 1.46833,-0.0756 1.24127,0 1.37803,0.006 1.45099,0.0676 0.11397,0.0957 0.17385,0.25713 0.17464,0.47084 0.001,0.33467 0.14548,1.06858 0.27475,1.39796 0.0966,0.24609 0.40797,0.85731 0.48367,0.94937 0.0488,0.0593 0.1425,0.18712 0.20832,0.28402 0.2299,0.33853 0.91485,0.95668 1.28401,1.15881 0.0431,0.0236 0.1576,0.0875 0.25451,0.14212 0.69167,0.38958 1.8061901,0.60334 2.6291301,0.50427 0.60582,-0.0729 1.26257,-0.2703 1.67796,-0.50427 0.0969,-0.0546 0.21144,-0.11885 0.25451,-0.14282 0.18003,-0.10018 0.6043,-0.43516 0.83738,-0.66115 0.22838,-0.22144 0.62747,-0.71615 0.73256,-0.90809 0.0236,-0.0431 0.0875,-0.1576 0.14212,-0.25451 0.30497,-0.54145 0.53196,-1.44392 0.53748,-2.13694 0.002,-0.30524 -0.0979,-1.02207 -0.17349,-1.23895 -0.0321,-0.0922 -0.0587,-0.18989 -0.059,-0.21704 -8.6e-4,-0.0748 -0.28515,-0.69631 -0.44378,-0.9701697 -0.10977,-0.1895 -0.42534,-0.60541 -0.45935,-0.60541 -0.0204,0 -0.0372,-0.017 -0.0372,-0.0378 0,-0.0686 -0.5233,-0.54948 -0.80223,-0.73725 -0.15049,-0.10131 -0.29712,-0.20623 -0.32583,-0.23315 -0.0287,-0.0269 -0.0692,-0.0489 -0.0899,-0.0489 -0.0208,0 -0.0848,-0.0308 -0.14229,-0.0685 -0.0575,-0.0377 -0.167,-0.0922 -0.24334,-0.12111 -0.38714,-0.14675 -0.78288,-0.2698 -0.9317,-0.2897 l -0.16641,-0.0222 0,1.2026 c 0,0.9178 -0.0119,1.2189097 -0.0503,1.2714297 -0.0277,0.0378 -0.12313,0.0786 -0.21213,0.0905 -0.13468,0.0181 -0.20008,-5e-5 -0.39018,-0.10814 C 9.2930029,8.8162593 7.8796729,7.8737793 5.8877529,6.5420594 c -0.28027,-0.15752 -0.36006,-0.25963 -0.36006,-0.46077 0,-0.23895 0.046,-0.28171 0.84004,-0.78164 L 11.155433,2.1061793 c 0.1797,-0.0966 0.25779,-0.11734 0.38124,-0.10133 0.0854,0.0111 0.17789,0.0511 0.20557,0.089 0.0382,0.0522 0.0503,0.33616 0.0503,1.17726 l 0,1.10844 0.22326,0 c 0.40646,0 1.50785,0.2914001 2.06734,0.5469701 0.50241,0.22949 0.66419,0.3127 1.01804,0.52359 0.21535,0.12835 0.40036,0.24416 0.41113,0.25736 0.0108,0.0132 0.12458,0.0942 0.25292,0.18009 0.30378,0.20322 1.32754,1.2264399 1.52812,1.5273199 0.0858,0.12878 0.16902,0.24367 0.18481,0.25531 0.0546,0.0402 0.40985,0.65555 0.57837,1.00178 0.093,0.19112 0.19285,0.3941 0.22183,0.45106 0.10969,0.21557 0.39991,1.2064397 0.48002,1.6388497 0.0709,0.38273 0.0833,0.59569 0.0828,1.41946 -6.7e-4,1.02313 -0.0523,1.46943 -0.23745,2.05093 -0.042,0.13204 -0.0764,0.26625 -0.0764,0.29824 0,0.0498 -0.0691,0.24538 -0.19708,0.55804 -0.053,0.12953 -0.46679,0.97016 -0.53962,1.09635 -0.29477,0.51071 -0.80789,1.1642 -1.26627,1.6127 -0.31387,0.30709 -0.96393,0.83694 -1.12575,0.91757 -0.0559,0.0278 -0.13103,0.0749 -0.16701,0.1045 -0.11199,0.0923 -1.02933,0.56385 -1.30503,0.6709 -0.48717,0.18916 -0.87344,0.29945 -1.45789,0.41625 -0.437,0.0873 -0.56751,0.0955 -1.48791,0.0928 -0.83213,-0.002 -1.0774901,-0.0163 -1.4004401,-0.0794 z"
     style="fill:url(#linearGradient3876);opacity:1;fill-opacity:1;stroke:none;stroke-width:0;stroke-linecap:butt;stroke-linejoin:miter;stroke-miterlimit:4;stroke-dasharray:none;stroke-dashoffset:0;stroke-opacity:1;marker:none"
     sodipodi:nodetypes="ssssssscssssssssssssssssscssssssssscsssccsccssscssscsssssssssssscsssss" />
</svg>
